<svg width="149" height="149" viewBox="0 0 149 149" fill="none" xmlns="http://www.w3.org/2000/svg">
<path d="M48.938 85.313C49.8168 85.313 50.5293 84.6005 50.5293 83.7217C50.5293 82.8429 49.8168 82.1304 48.938 82.1304C48.0592 82.1304 47.3467 82.8429 47.3467 83.7217C47.3467 84.6005 48.0592 85.313 48.938 85.313Z" fill="#E8DFD1"/>
<path d="M38.365 67.4331C38.8044 67.4331 39.1607 67.0769 39.1607 66.6375C39.1607 66.1979 38.8044 65.8418 38.365 65.8418C37.9256 65.8418 37.5693 66.1979 37.5693 66.6375C37.5693 67.0769 37.9256 67.4331 38.365 67.4331Z" fill="#E8DFD1"/>
<path d="M70.0379 57.0014C70.432 57.0014 70.7516 56.6819 70.7516 56.2877C70.7516 55.8936 70.432 55.574 70.0379 55.574C69.6438 55.574 69.3242 55.8936 69.3242 56.2877C69.3242 56.6819 69.6438 57.0014 70.0379 57.0014Z" fill="#E8DFD1"/>
<path d="M101.077 32.601C101.471 32.601 101.791 32.2814 101.791 31.8873C101.791 31.493 101.471 31.1736 101.077 31.1736C100.683 31.1736 100.363 31.493 100.363 31.8873C100.363 32.2814 100.683 32.601 101.077 32.601Z" fill="#E8DFD1"/>
<path d="M53.5762 51.062C53.739 51.1216 53.9096 51.1578 54.0828 51.1693H54.0872C54.0941 51.17 54.1011 51.1708 54.108 51.1712C54.1254 51.172 54.143 51.1714 54.1602 51.1693H54.2616C54.2094 51.1745 54.1573 51.1753 54.108 51.1712H54.1078C54.157 51.1753 54.2093 51.1753 54.2614 51.1753H54.1602C54.1345 51.1782 54.1085 51.1782 54.0828 51.1753C53.9216 51.1748 53.7612 51.1528 53.606 51.1097C53.6 51.1037 53.5955 51.0963 53.5911 51.0888C53.5866 51.0814 53.5821 51.0739 53.5762 51.068V51.062Z" fill="#ED9107"/>
<path d="M62.626 51.1693C63.1579 51.1514 63.5632 51.0084 64.0519 50.4243V50.4303C64.1525 50.3103 64.2553 50.1898 64.3611 50.0711C65.0654 49.2796 65.8973 48.5635 67.014 48.5842C66.964 48.5851 66.9145 48.5873 66.8656 48.5912C66.9145 48.5894 66.964 48.5891 67.014 48.5901C65.7922 48.6095 64.9057 49.5363 64.1532 50.4303C63.6287 51.0442 63.2041 51.1634 62.626 51.1753C62.7108 51.1725 62.7924 51.1665 62.8717 51.1559C62.7926 51.1635 62.7109 51.1677 62.626 51.1693Z" fill="#ED9107"/>
<path d="M67.1338 48.5901C67.1675 48.5871 67.2014 48.5871 67.2351 48.5901V48.5961C68.7102 48.7108 68.2319 49.9699 67.396 51.1514L67.2828 51.1753C67.2844 51.173 67.2861 51.1707 67.2877 51.1683L67.2828 51.1693C67.7298 50.5376 68.0889 49.8864 68.0889 49.3903C68.0889 49.3865 68.089 49.3827 68.089 49.3789C68.0877 48.9529 67.8232 48.6505 67.1338 48.5961C67.1481 48.5949 67.1625 48.5941 67.1769 48.594C67.1627 48.5925 67.1484 48.5913 67.1338 48.5901Z" fill="#ED9107"/>
<path d="M95.5791 81.5684C95.6689 81.4559 95.7649 81.3485 95.8667 81.2466C95.8722 81.2658 95.8777 81.2852 95.8832 81.3045C95.9136 81.4117 95.9446 81.5212 95.9799 81.6221C95.9233 81.5796 95.8567 81.5525 95.7865 81.5431C95.7163 81.5337 95.645 81.5424 95.5791 81.5684Z" fill="#ED9107"/>
<path d="M117.561 131.131C119.293 131.016 120.972 130.493 122.462 129.603C130.462 124.862 133.206 113.257 133.029 104.607C132.955 101.525 132.556 98.4593 131.837 95.4615C130.41 89.3837 127.771 83.5683 124.423 78.4114C120.161 71.8554 108.881 63.3132 112.321 52.8594" stroke="#F2E3CC" stroke-width="2" stroke-miterlimit="10"/>
<path d="M76.9121 15.1713C77.8627 14.6456 78.8604 14.2102 79.8921 13.8705C107.308 4.88579 122.278 33.6607 113.252 49.5888C113.026 49.9887 112.823 50.401 112.644 50.824" stroke="#F2E3CC" stroke-width="2" stroke-miterlimit="10"/>
<path d="M46.6803 112.517C43.2673 110.109 40.0175 107.479 36.9521 104.642C27.3714 95.7827 17.9203 83.8612 18.8158 70.04C19.6159 57.673 28.4397 47.4978 38.9308 41.6778C45.9457 37.7844 54.4954 37.1229 61.038 32.3698C64.2862 30.0186 67.0203 26.9432 68.853 23.3672C69.3928 22.3163 70.0304 21.3186 70.7572 20.3872" stroke="#F2E3CC" stroke-width="2" stroke-miterlimit="10"/>
<path d="M39.8394 129.153C39.75 129.898 39.0765 130.143 38.4567 130.78L38.409 130.828H22.7968C22.4912 130.836 22.1872 130.782 21.9026 130.671C21.618 130.559 21.3586 130.392 21.1397 130.178C20.9209 129.965 20.747 129.71 20.6282 129.428C20.5095 129.147 20.4482 128.844 20.4482 128.539C20.4482 128.233 20.5095 127.93 20.6282 127.649C20.747 127.367 20.9209 127.112 21.1397 126.899C21.3586 126.685 21.618 126.518 21.9026 126.406C22.1872 126.295 22.4912 126.241 22.7968 126.249L35.0714 124.345C35.0714 124.345 34.6631 129.433 39.8394 129.153Z" fill="#ED9107"/>
<path d="M99.2698 140.805C99.0977 141.018 98.8836 141.193 98.6408 141.319C98.3977 141.445 98.1315 141.519 97.8584 141.537C97.5854 141.555 97.3115 141.517 97.0542 141.424C96.7967 141.331 96.5615 141.186 96.3628 140.997C96.0684 140.739 95.7484 140.511 95.4078 140.316C97.3597 134.155 91.0868 129.928 90.9229 129.821C91.7826 130.126 92.6006 130.417 93.365 130.704C93.9327 130.913 94.4691 131.117 94.9771 131.3C96.8095 131.999 98.2934 133.391 99.1089 135.174C99.7705 136.633 100.404 139.464 99.2698 140.805Z" fill="#ED9107"/>
<path d="M67.7847 64.5752C67.7847 64.5752 64.3219 72.3888 70.4667 80.3603C70.4667 80.3603 77.0227 77.1464 77.0153 79.6049C77.0153 79.6049 81.3586 93.0521 81.6968 101.413C81.6968 101.413 84.8407 104.507 86.5632 102.804C88.2856 101.101 96.0992 92.7094 96.5328 86.7405C96.9664 80.7715 95.5047 81.5657 95.5047 81.5657C95.5047 81.5657 101.569 74.147 112.789 78.9016C112.789 78.9016 117.896 101.864 93.0223 108.295C93.0223 108.295 112.668 118.653 112.392 121.502C112.392 121.502 118.714 110.463 118.203 101.018C117.692 91.5726 117.583 74.8473 104.755 63.2313L95.5091 58.3336L93.8493 61.4552C93.8493 61.4552 89.5745 65.9952 87.6226 66.1695C85.6707 66.3439 83.3925 65.3202 83.6368 61.181C83.8812 57.0418 84.8288 57.5141 82.5938 58.2666C80.3588 59.019 67.7847 64.5752 67.7847 64.5752Z" fill="#2E2E2E"/>
<path d="M101.05 40.51C100.375 40.0134 99.6412 39.6007 98.8659 39.2808L97.6426 38.7667C97.373 38.6535 97.0928 38.5462 96.8127 38.4568C94.7401 37.8116 93.0877 37.7118 91.7557 37.9249C91.1397 38.0174 90.5406 38.1986 89.9766 38.4627C88.6366 39.1067 87.5746 40.2132 86.9862 41.5783C86.8074 41.9836 86.4364 42.3308 85.9834 42.6109C86.2814 40.4385 87.3736 37.5136 91.1105 37.0979C93.3917 36.8535 95.5641 37.3303 97.4564 38.0828C98.7436 38.7512 99.9496 39.5656 101.05 40.51Z" fill="#ED9107"/>
<path d="M101 40.3633C100.282 39.74 99.5036 39.222 98.6804 38.8205L97.3813 38.1754C97.0949 38.0332 96.7975 37.8986 96.5 37.7864C94.2991 36.9767 92.5443 36.8514 91.1297 37.1188C90.4756 37.2349 89.8394 37.4623 89.2405 37.7939C87.8176 38.6021 86.6897 39.9908 86.0649 41.7041C85.875 42.2128 85.981 42.1485 85.5 42.5C85.8165 39.7735 86.4763 36.6027 90.4446 36.0809C92.8671 35.7743 93.5 36.5 96 37.0001C97.3669 37.839 99.8312 39.1781 101 40.3633Z" fill="#ED9107"/>
<path d="M103.984 47.0269C103.973 47.3867 103.939 47.7454 103.883 48.1014C103.863 48.2751 103.834 48.4478 103.795 48.6186C103.795 48.6186 103.795 48.6371 103.795 48.6432C103.764 48.8381 103.72 49.0308 103.663 49.2203C103.107 51.3692 101.865 53.3415 99.9723 54.571C98.3632 55.6163 96.3889 55.9846 94.4712 55.9969C94.213 56.0046 93.9469 55.9969 93.6839 55.9846C92.9266 53.6976 96.3086 53.0146 95.778 50.8934C95.7578 50.808 95.7325 50.7241 95.7024 50.6416C95.2741 49.4843 93.7406 49.5672 92.6873 49.0546C92.7692 48.6248 93.2431 48.1628 93.4635 47.5196C93.7784 46.5665 93.3754 45.885 92.6495 45.3493C92.4921 44.8197 92.0497 44.4084 91.4892 44.0584C91.1251 43.8376 90.7832 43.5843 90.4673 43.3017C90.3767 43.136 90.3008 42.9628 90.2406 42.7845C90.1581 42.5502 90.095 42.31 90.0517 42.0661C89.6408 39.7638 91.7426 37.7776 94.1358 38.0201C95.1074 38.1253 96.0656 38.3248 96.9966 38.6157C97.2926 38.7077 97.5886 38.8183 97.8736 38.9349L99.1662 39.4645C99.9854 39.7938 100.76 40.219 101.474 40.7308C101.485 40.7427 101.498 40.753 101.512 40.7615C101.52 40.7615 101.512 40.7737 101.526 40.7737C102.273 40.7446 103.03 41.1544 102.761 41.8359C102.745 41.8758 102.781 41.8712 102.781 41.8988C103.135 42.4347 103.409 43.0164 103.595 43.6271C103.917 44.7315 104.049 45.8804 103.984 47.0269Z" fill="#ED9107"/>
<path d="M80.9263 47.3682V48.3307C80.9277 48.4382 80.8903 48.5423 80.8212 48.6244C80.7519 48.7065 80.6555 48.7609 80.5494 48.7777L69.0764 50.8429L67.2318 51.1781C67.6788 50.5449 68.0319 49.8937 68.0378 49.3991C68.0378 48.9625 67.7801 48.6541 67.0828 48.5989C65.7418 48.5036 64.7956 49.4825 64.0014 50.4316C63.2371 51.345 62.6828 51.1766 61.5295 51.1766H54.1093C53.9222 51.1771 53.7359 51.1531 53.555 51.1051C53.259 50.7244 53.099 50.2554 53.1006 49.7731V45.8171C53.1007 45.2438 53.3248 44.6932 53.7251 44.2827C54.1253 43.8722 54.67 43.6341 55.2432 43.6194C55.2596 43.7986 55.3045 43.9741 55.3758 44.1394C55.4506 44.3396 55.571 44.5198 55.7275 44.6653C55.8879 44.8114 56.0961 44.8939 56.313 44.8978C56.3902 44.896 56.4667 44.882 56.5395 44.8561C56.7813 44.7646 56.985 44.5938 57.1176 44.3718C57.4588 43.8473 57.4886 43.1798 57.5065 42.551C57.5304 43.071 57.4648 43.594 57.5602 44.1036C57.6436 44.5506 57.876 45.0229 58.2649 45.2435C58.3222 45.2761 58.3819 45.3041 58.4437 45.3269C58.5909 45.3802 58.7486 45.3986 58.9041 45.3805C59.1241 45.3646 59.336 45.2905 59.518 45.166C59.8299 44.9507 60.0644 44.6409 60.187 44.2824C60.2773 44.0242 60.3334 43.7551 60.3539 43.4823C60.356 44.074 60.4567 44.6612 60.6519 45.2196C60.7218 45.4156 60.8224 45.5991 60.9499 45.7635C61.0015 45.8269 61.0594 45.8848 61.1228 45.9363C61.3495 46.0999 61.6259 46.1799 61.905 46.1628C62.0775 46.1529 62.2471 46.1126 62.4056 46.0436C62.9853 45.7813 63.3667 45.1719 63.4635 44.5446C63.4933 45.1481 63.8152 45.8469 64.371 46.127C64.539 46.219 64.7278 46.2662 64.9193 46.2641C65.0826 46.2611 65.2442 46.2309 65.3976 46.1747C65.6489 46.0796 65.875 45.9278 66.0582 45.7311C66.2414 45.5345 66.3768 45.2983 66.454 45.0408C66.6149 44.5208 66.5732 43.53 66.3348 42.9548C66.8056 43.0025 67.3554 43.0919 67.719 43.1694L67.3077 43.3839L80.9263 47.3682Z" fill="#E8DFD1"/>
<path d="M81.3678 101.229C81.1294 95.5668 79.9836 88.8245 77.4104 80.8784C75.9978 76.5112 75.3378 72.9203 75.2588 69.9775" stroke="black" stroke-miterlimit="10"/>
<path d="M100.356 112.264L93.5412 108.303L85.601 103.684L81.3679 101.224L74.5631 97.2667C72.2578 96.0205 69.6218 95.5227 67.0207 95.8423C64.4196 96.1619 61.9826 97.2831 60.0475 99.0503L35.385 123.898C35.0233 124.261 34.5521 124.496 34.044 124.567L22.5204 126.165C21.9409 126.256 21.4164 126.56 21.0506 127.019C20.6847 127.477 20.5042 128.056 20.5446 128.641C20.5852 129.226 20.8435 129.775 21.2689 130.179C21.6945 130.582 22.2557 130.812 22.8422 130.822H36.3699C36.7892 130.821 37.2007 130.708 37.5619 130.495L46.6092 125.131L62.351 115.819C64.4698 114.566 66.9626 114.743 69.0113 116.045C70.257 116.839 71.2195 118.021 72.3042 119.016C75.3331 121.792 78.6695 124.211 82.2485 126.228C83.5855 126.982 84.9548 127.677 86.3564 128.314" fill="white"/>
<path d="M100.356 112.264L93.5412 108.303L85.601 103.684L81.3679 101.224L74.5631 97.2667C72.2578 96.0205 69.6218 95.5227 67.0207 95.8423C64.4196 96.1619 61.9826 97.2831 60.0475 99.0503L35.385 123.898C35.0233 124.261 34.5521 124.496 34.044 124.567L22.5204 126.165C21.9409 126.256 21.4164 126.56 21.0506 127.019C20.6847 127.477 20.5042 128.056 20.5446 128.641C20.5852 129.226 20.8435 129.775 21.2689 130.179C21.6945 130.582 22.2557 130.812 22.8422 130.822H36.3699C36.7892 130.821 37.2007 130.708 37.5619 130.495L46.6092 125.131L62.351 115.819C64.4698 114.566 66.9626 114.743 69.0113 116.045C70.257 116.839 71.2195 118.021 72.3043 119.016C75.3331 121.792 78.6695 124.211 82.2485 126.228C83.5855 126.982 84.9548 127.677 86.3564 128.314" stroke="black" stroke-miterlimit="10"/>
<path d="M93.2744 130.709C93.2744 130.709 93.2744 130.709 93.2863 130.709C94.8899 130.851 96.501 130.889 98.1095 130.822C102.43 130.661 106.324 128.638 109.512 125.252C119.536 114.614 122.538 90.5354 109.661 68.6517C109.655 68.6422 109.649 68.6322 109.644 68.6219C106.813 63.8226 101.25 60.2526 95.3872 58.551" stroke="black" stroke-miterlimit="10"/>
<path d="M109.648 68.6279C109.648 68.6279 124.615 98.4771 93.541 108.304" stroke="black" stroke-miterlimit="10"/>
<path d="M85.6006 103.689C88.1559 101.445 99.0106 91.1999 96.0187 81.9232C92.6334 71.4276 95.4227 68.6279 95.4227 68.6279" stroke="black" stroke-miterlimit="10"/>
<path opacity="0.28" d="M72.3981 43.9712L73.7659 44.299L70.9558 50.8133H69.3242L72.3981 43.9712Z" fill="white"/>
<path opacity="0.28" d="M60.047 43.9712L61.4148 44.299L58.6047 50.8133H56.9746L60.047 43.9712Z" fill="white"/>
<path d="M84.2511 57.7642C84.2511 57.7642 63.5565 63.6646 58.1582 72.8132" stroke="black" stroke-miterlimit="10"/>
<path d="M52.9871 50.8088C49.4111 60.242 49.2502 70.4202 49.8581 76.9568C49.9675 78.1211 50.3369 79.2461 50.939 80.2486C51.5411 81.251 52.3606 82.1055 53.337 82.7491C54.3135 83.3926 55.4219 83.8088 56.5807 83.9667C57.7393 84.1246 58.9188 84.0205 60.0318 83.6618L76.6573 78.3962" stroke="black" stroke-miterlimit="10"/>
<path d="M84.2503 57.7642C83.8272 59.1678 83.5634 60.6831 83.6305 62.1508C83.6961 63.5678 84.3487 65.2947 85.7165 65.9279C86.5688 66.3213 87.5835 66.214 88.4492 65.8534C91.4023 64.6271 94.1246 61.6427 95.5028 58.8176L94.4032 56.1997" stroke="black" stroke-width="2" stroke-miterlimit="10"/>
<path d="M86.4645 65.8193L83.793 55.2925" stroke="black" stroke-miterlimit="10"/>
<path d="M90.5131 54.2121C90.5131 54.2121 87.469 57.4424 82.2853 54.6114C77.1016 51.7804 80.8132 48.7229 80.8132 48.7229" stroke="black" stroke-miterlimit="10"/>
<path opacity="0.2" d="M66.1461 123.276C68.8445 123.586 71.8945 124.202 75.022 124.984C75.25 125.038 75.4764 125.097 75.7089 125.157C78.1927 125.796 80.7183 126.531 83.1589 127.281C86.9092 128.453 90.4375 129.676 93.273 130.708C93.8452 130.917 94.395 131.121 94.912 131.304C96.7621 131.997 98.2666 133.388 99.1019 135.178C99.7709 136.618 100.416 139.453 99.2628 140.802C99.0865 141.015 98.8686 141.19 98.6221 141.316C98.3758 141.442 98.1061 141.517 97.83 141.535C97.5538 141.553 97.2768 141.514 97.0162 141.421C96.7554 141.328 96.5166 141.183 96.3141 140.994C94.9478 139.727 85.2404 134.45 63.5103 133.185C47.7014 132.266 46.2382 127.603 46.6151 125.139" stroke="black" stroke-width="2" stroke-miterlimit="10"/>
<path d="M75.708 125.16C77.08 124.781 78.4793 124.51 79.8934 124.348" stroke="black" stroke-miterlimit="10"/>
<path d="M66.4141 42.958C66.9284 43.0038 67.4395 43.0814 67.9443 43.1904L81.0295 46.3194V48.3265C81.029 48.433 80.9912 48.5363 80.9226 48.6179C80.8541 48.6996 80.759 48.7546 80.654 48.7735L67.3289 51.1724" stroke="black" stroke-miterlimit="10"/>
<path d="M85.7633 42.73C85.7633 42.73 85.0421 36.9994 90.1707 36.472C96.0189 35.876 101.077 40.5486 101.077 40.5486" stroke="black" stroke-miterlimit="10"/>
<path d="M55.5248 42.8193H54.1987C53.616 42.8198 53.0572 43.0513 52.6451 43.4635C52.2331 43.8756 52.0014 44.4343 52.001 45.0171V48.9745C52.0005 49.2639 52.0573 49.5506 52.1679 49.818C52.2783 50.0855 52.4405 50.3285 52.645 50.5331C52.8495 50.7378 53.0926 50.9002 53.3599 51.0109C53.6273 51.1215 53.9138 51.1784 54.2032 51.1782H61.6264C62.7782 51.1782 63.3324 51.3451 64.0968 50.4332C64.891 49.4841 65.8341 48.5052 67.1781 48.6005C68.6681 48.7138 68.169 49.9907 67.3271 51.1797C66.6879 52.0737 65.8371 52.9349 65.5123 53.1733C64.382 53.9899 63.1229 54.6113 61.7873 55.012C61.1977 55.1947 60.6759 55.5489 60.2887 56.0295C59.9014 56.5102 59.6663 57.0955 59.6134 57.7104C59.2494 61.8375 59.6484 65.9964 60.7905 69.9791" stroke="black" stroke-miterlimit="10"/>
<path d="M63.5574 44.5943C63.5156 45.5256 64.2457 46.6237 65.4944 46.1752C65.7457 46.0802 65.9718 45.9283 66.155 45.7316C66.3381 45.5351 66.4736 45.2988 66.5508 45.0413C66.7236 44.4796 66.7773 43.7212 66.4793 43.1729C66.4474 43.1048 66.4074 43.0407 66.3601 42.9821C66.3481 42.9702 66.3362 42.9523 66.3243 42.9404" stroke="black" stroke-miterlimit="10"/>
<path d="M63.0269 42.2784C63.4217 42.9415 63.681 43.7565 63.5677 44.5328C63.4754 45.1675 63.0969 45.7814 62.5113 46.0422C62.3071 46.1401 62.0803 46.1818 61.8545 46.1629C61.6288 46.1441 61.4122 46.0653 61.227 45.9349C61.0076 45.7431 60.8443 45.4953 60.7546 45.2182C60.4253 44.354 60.4164 43.3676 60.4671 42.4557C60.4671 43.0741 60.5058 43.6924 60.2838 44.284C60.1583 44.6405 59.925 44.9494 59.6163 45.1675C59.4612 45.2742 59.2838 45.3441 59.0977 45.3721C58.9115 45.4 58.7215 45.3849 58.542 45.3285C58.0428 45.1526 57.7493 44.6222 57.6569 44.1022C57.5645 43.5822 57.6271 43.0473 57.6018 42.5183C57.5869 43.1575 57.5615 43.8325 57.2144 44.3704C57.0341 44.652 56.7406 44.8904 56.4068 44.8964C56.1908 44.8938 55.9833 44.8116 55.8242 44.6654C55.6676 44.5189 55.5459 44.3391 55.4681 44.1394C55.2737 43.654 55.2737 43.1124 55.4681 42.6271C55.5924 42.279 55.8495 41.9946 56.1833 41.8359C56.3295 41.7733 56.4882 41.745 56.647 41.7532C56.8058 41.7614 56.9606 41.8058 57.0997 41.883C57.2387 41.9603 57.3583 42.0682 57.4492 42.1987C57.5401 42.3292 57.5998 42.4788 57.6241 42.636C57.7101 42.437 57.8375 42.2585 57.9978 42.1126C58.1581 41.9667 58.3477 41.8566 58.5539 41.7897C58.9706 41.6592 59.4194 41.6744 59.8263 41.8329C60.006 41.8925 60.1686 41.9947 60.3002 42.1309C60.3648 42.1998 60.4128 42.2828 60.4405 42.373C60.4681 42.4635 60.4746 42.559 60.4596 42.6524C60.5202 42.4464 60.6247 42.2558 60.7659 42.094C60.907 41.932 61.0815 41.8025 61.2773 41.7143C61.4732 41.6263 61.6859 41.5814 61.9006 41.5831C62.1154 41.5848 62.3273 41.6328 62.5218 41.7242C62.8674 41.8732 63.0433 42.2755 63.2027 42.5973C63.2027 42.3798 63.5961 42.0371 63.7644 41.9521C64.7746 41.4411 65.9994 42.3082 66.4911 43.1695" stroke="black" stroke-miterlimit="10"/>
<path d="M91.7321 37.925C91.7321 37.925 89.4211 39.6147 90.3911 42.5038C90.7428 43.5468 91.4654 44.2054 92.3728 44.785C93.2325 45.3333 93.7868 46.0441 93.4411 47.1005C93.0776 48.1807 92.0197 48.7246 93.3219 49.5366C94.3128 50.1579 95.9309 49.9836 96.36 51.1756C97.184 53.4315 93.7034 54.0588 94.4499 56.3638" stroke="black" stroke-miterlimit="10"/>
<path d="M125.784 97.0794C122.965 96.5654 120.843 94.8295 119.364 92.4232C118.023 90.2448 117.248 87.758 116.741 85.2712C116.741 85.2577 116.741 85.2503 116.741 85.2458L112.44 69.6008C112.435 69.5968 112.432 69.5917 112.429 69.5859C112.426 69.5746 112.422 69.5636 112.416 69.5531C112.416 69.5531 112.416 69.5442 112.416 69.5412C112.358 69.3833 112.186 68.9586 111.969 68.306C111.97 68.3021 111.97 68.2981 111.969 68.2941C111.294 66.2543 110.822 64.1525 110.561 62.0197C110.483 61.3954 110.422 60.7398 110.39 60.0678C110.39 59.9188 110.372 59.7698 110.357 59.6283C110.224 58.3096 109.871 57.0224 109.314 55.8198C109.275 55.723 109.227 55.6261 109.183 55.5397C109.119 55.4071 109.059 55.279 108.99 55.1508C108.791 54.756 108.581 54.3924 108.365 54.0452C108.239 53.8456 108.113 53.6578 107.991 53.4731C107.617 52.9218 107.246 52.4479 106.915 52.0516L106.593 51.6851C106.527 51.6046 106.459 51.5286 106.395 51.4645C106.235 51.2902 106.097 51.1546 105.99 51.0414C105.954 50.9997 103.95 50.0133 103.917 49.988L104.133 48.72C106.086 48.72 109.613 49.9477 111.075 50.7896C113.989 52.4718 115.914 55.72 116.488 58.9637C116.807 60.7696 116.867 62.6187 117.172 64.4261C117.929 68.9497 121.046 72.7477 123.962 76.209C125.147 77.6066 126.584 78.9282 127.963 80.2037C128.079 80.3169 128.197 80.4287 128.311 80.533C128.529 80.7296 128.739 80.9278 128.943 81.129L129.041 81.2258C130.636 82.7467 131.958 84.5303 132.948 86.4989C132.951 86.5001 132.954 86.5022 132.956 86.5049C132.958 86.5076 132.959 86.5107 132.959 86.5138C133.298 87.2088 133.501 87.9626 133.555 88.7339C133.553 88.7484 133.553 88.7628 133.555 88.7771C133.617 89.4491 133.632 90.1464 133.675 90.8631C133.673 90.9938 133.663 91.1242 133.645 91.2535C133.642 91.3565 133.631 91.459 133.614 91.5605C133.596 91.7474 133.566 91.9331 133.525 92.1162C133.524 92.1496 133.517 92.1824 133.504 92.2131C133.491 92.2959 133.473 92.378 133.452 92.4589C133.426 92.5602 133.401 92.6616 133.374 92.7569C133.347 92.8523 133.316 92.9521 133.286 93.0549C133.243 93.1875 133.197 93.3172 133.137 93.4438C133.103 93.5456 133.062 93.6451 133.015 93.7418C132.949 93.8922 132.875 94.0385 132.792 94.1799C132.764 94.2426 132.731 94.3025 132.692 94.3587C132.632 94.4744 132.564 94.586 132.489 94.6924C131.011 96.8783 128.278 97.5353 125.784 97.0794Z" fill="#ED9107"/>
<path d="M112.411 69.537C112.084 68.792 111.738 68.047 111.382 67.302C111.573 67.6224 111.765 67.9501 111.954 68.2914C111.955 68.2952 111.955 68.2994 111.954 68.3033C113.968 71.9642 118.175 90.7904 116.564 83.996C115.798 80.7671 113.67 71.5217 116.732 85.2461L112.431 69.6011C112.426 69.597 112.423 69.592 112.42 69.5862C112.417 69.5748 112.413 69.5638 112.407 69.5534C112.407 69.5534 112.416 69.54 112.411 69.537Z" fill="#2E2E2E"/>
<path d="M104.212 47.6711C106.626 47.6711 109.576 48.8199 111.041 49.6603C113.96 51.335 115.882 54.5922 116.451 57.8359C116.768 59.6448 116.831 61.4894 117.135 63.3012C117.893 67.8234 120.306 71.83 123.228 75.2883C124.706 77.0137 126.279 78.6552 127.94 80.2053C129.655 81.8309 131.296 83.1853 132.41 85.3056C133.856 88.0695 134.313 91.9659 132.494 94.6792C131.019 96.8769 128.291 97.537 125.789 97.0825C122.968 96.5685 120.842 94.8326 119.365 92.4292C117.889 90.0259 117.279 87.3334 116.534 84.6336L114.079 75.6414C112.853 71.1506 111.099 66.6582 110.542 62.0183C110.467 61.3896 110.412 60.737 110.375 60.0694C110.375 59.9204 110.352 59.7714 110.338 59.6224C110.111 57.5983 109.422 55.6534 108.323 53.9381C107.783 53.0785 107.152 52.2793 106.441 51.5541C105.71 50.8091 104.722 50.4336 103.908 49.8048" stroke="black" stroke-miterlimit="10"/>
<path d="M81.0273 46.5518L82.4786 45.6578C82.6076 45.5272 82.6805 45.3512 82.6812 45.1676V44.3258C82.6806 44.1696 82.7331 44.0179 82.8299 43.8956C82.9269 43.7731 83.0625 43.6875 83.2147 43.6523C84.102 43.4616 84.9589 43.1497 85.7611 42.7255C86.3049 42.4275 86.7579 42.0401 86.962 41.5738C87.5509 40.2088 88.6128 39.1024 89.9524 38.4582C90.5164 38.1938 91.1157 38.0127 91.7315 37.9203C93.0576 37.7072 94.7115 37.8041 96.7871 38.4507C97.0702 38.5386 97.3488 38.6459 97.6215 38.7606L98.8433 39.2762C100.217 39.8288 101.442 40.6964 102.419 41.8092C103.068 42.5513 103.551 43.4228 103.836 44.366C104.924 48.0746 103.736 52.7726 100.409 54.9912C98.6794 56.143 96.4995 56.4574 94.4612 56.368" stroke="black" stroke-miterlimit="10"/>
<path d="M87.0459 43.3828C87.0459 43.3828 88.0159 44.2649 87.4333 45.6715" stroke="black" stroke-miterlimit="10"/>
<path d="M15.3232 130.859H51.0385" stroke="black" stroke-miterlimit="10"/>
<path d="M94.9082 131.312H127.259" stroke="black" stroke-miterlimit="10"/>
<path d="M72.3057 32.5816L74.8461 31.1736L75.1784 35.6004L78.212 33.9197L77.7784 40.793L76.4568 36.9086L73.9432 38.3658L72.3057 32.5816Z" fill="#E8DFD1"/>
<path d="M89.0171 20.7539L91.8689 22.67L86.9355 26.0792L90.3432 28.3663L82.2227 32.5845L86.0505 28.4229L83.1554 26.5738L89.0171 20.7539Z" fill="#ED9107"/>
<path d="M78.7689 19.3866L76.0049 16.563L75.2823 17.5837L74.2855 16.563L71.9685 19.8351L64.751 11.7339L66.9785 8.72412L70.8466 15.1177L71.7897 13.8467L74.6312 10.0025L75.2704 11.4523L78.7689 19.3866Z" fill="#ED9107"/>
<path d="M63.0361 11.7322L66.2054 7.44995L70.8452 15.1175L74.6298 10.0023L80.1711 22.569L74.2871 16.5598L71.2133 20.9121L63.0361 11.7322Z" stroke="#343434" stroke-miterlimit="10"/>
</svg>
