<svg width="149" height="149" viewBox="0 0 149 149" fill="none" xmlns="http://www.w3.org/2000/svg">
<path d="M134.547 143.138H92.0473H94.9916L121.871 142.827C126.84 142.395 130.342 137.521 128.454 132.907C128.128 132.11 128.469 131.887 128.065 131.119C123.839 123.162 116.513 116.681 108.211 112.915C108.416 112.877 108.624 112.848 108.835 112.82C107.289 112.046 105.697 111.368 104.067 110.789C103.203 110.481 102.328 110.202 101.455 109.958C97.1625 108.748 91.3619 109.301 89.5352 114.054C87.999 118.044 90.0388 122.864 93.8756 124.612L100.767 127.246C100.709 127.16 100.657 127.073 100.603 126.982L106.596 129.273C106.715 129.356 106.805 129.474 106.855 129.61C106.906 129.746 106.913 129.894 106.877 130.035C106.84 130.175 106.762 130.302 106.651 130.396C106.541 130.491 106.405 130.549 106.26 130.564L91.7061 132.154C89.6082 132.366 86.9813 133.243 85.4347 134.687C84.3068 135.73 83.3562 137.15 83.3651 138.947C82.4139 139.019 81.4682 139.152 80.5341 139.345C79.1082 139.652 77.6569 140.181 77.5541 141.049C77.3515 142.793 79.8293 143.147 81.3909 143.147L71.5092 143.109C72.5701 143.109 72.7012 143.1 73.4045 142.399C74.1077 141.699 74.8945 141.16 74.8945 140.099L74.9809 136.699C74.9809 135.998 75.1478 135.432 74.4475 135.432H68.1895C68.4442 135.439 68.6956 135.373 68.9136 135.24C69.1316 135.108 69.307 134.916 69.4187 134.687C69.4235 134.682 69.4266 134.675 69.4276 134.668C69.7405 134.087 69.8121 133.251 69.754 132.46L69.827 132.2L70.0147 131.509L73.99 129.17C74.0198 129.152 74.0487 129.134 74.0764 129.113C76.1505 127.845 76.4098 125.579 75.6991 123.552C75.6842 123.514 75.6752 123.479 75.6603 123.447C75.6275 123.36 75.5977 123.278 75.5605 123.196C75.3707 122.734 75.1357 122.292 74.8587 121.876C73.8321 120.273 72.3421 118.966 70.9266 118.625C70.5295 118.535 70.1238 118.49 69.7167 118.491C74.6426 113.872 80.318 109.767 87.0216 108.402C92.8868 107.19 98.9524 107.349 104.747 108.864C111.517 110.665 117.614 114.405 122.449 119.456C128.958 126.246 132.002 134.179 134.547 143.138Z" fill="#353642"/>
<path d="M68.3314 122.724C68.0978 123.184 67.7154 123.551 67.2467 123.767C66.8463 123.968 66.4224 124.118 65.9847 124.214C65.2635 124.334 65.0087 123.879 64.5483 123.432C64.2858 123.178 63.9839 122.969 63.6543 122.812C63.4567 122.715 63.2402 122.663 63.0203 122.659C62.8002 122.656 62.5822 122.701 62.3818 122.792C62.2462 122.853 62.1309 122.951 62.05 123.076C61.9691 123.2 61.926 123.346 61.9259 123.494C61.9557 124.041 62.7096 124.473 63.1358 124.7C63.6921 124.962 64.2704 125.176 64.8642 125.337C66.3199 125.784 63.8957 126.715 63.3861 126.774C62.2962 126.921 61.1898 126.895 60.1081 126.696C60.4186 127.39 60.6569 128.114 60.8188 128.857C60.9872 129.567 61.1839 130.423 61.0453 131.138C60.8769 131.978 60.3092 132.602 59.6089 133.026L56.8867 121.669C57.8905 121.191 58.9823 120.925 60.0935 120.889C61.2047 120.852 62.3115 121.046 63.3444 121.457C63.6889 121.584 64.0624 121.61 64.4209 121.53C64.7794 121.451 65.1075 121.271 65.3663 121.01L65.6449 120.741C66.0329 120.656 66.4373 120.688 66.8071 120.833C67.4672 121.082 68.689 121.882 68.3314 122.724Z" fill="#ED9107"/>
<path d="M71.1269 135.423H59.8863C59.7727 136.483 59.271 137.464 58.4777 138.177C57.6844 138.889 56.6556 139.284 55.5892 139.283H17.7998C17.8022 140.305 18.2093 141.285 18.9319 142.007C19.6546 142.73 20.6339 143.137 21.6559 143.14H71.1239C72.1459 143.136 73.1251 142.729 73.8482 142.006C74.5715 141.284 74.9797 140.305 74.9845 139.283V136.691C74.9845 136.355 74.8509 136.032 74.6132 135.794C74.3754 135.556 74.0528 135.423 73.7165 135.423H71.1269Z" stroke="black" stroke-miterlimit="10"/>
<path d="M53.768 110.215C54.1001 110.673 54.3385 111.191 54.4697 111.741L59.795 133.942C59.9127 134.424 59.9434 134.923 59.8859 135.416C59.7722 136.476 59.2705 137.457 58.4772 138.17C57.684 138.882 56.6551 139.276 55.5887 139.276H17.0976C16.1258 139.276 15.1823 138.948 14.4194 138.346C13.6563 137.744 13.1181 136.903 12.8913 135.958L7.57199 113.757C7.41836 113.121 7.41115 112.459 7.55091 111.819C7.69066 111.18 7.97374 110.581 8.3788 110.067C8.78385 109.553 9.3003 109.138 9.88918 108.853C10.4781 108.568 11.124 108.42 11.7783 108.421H50.2635C50.8957 108.42 51.5203 108.559 52.0927 108.827C52.6654 109.095 53.1717 109.486 53.5757 109.972L53.768 110.215Z" stroke="black" stroke-miterlimit="10"/>
<path d="M35.094 129.936C37.286 129.245 38.4333 126.688 37.6565 124.224C36.8798 121.76 34.4731 120.324 32.2811 121.015C30.0891 121.706 28.9418 124.263 29.7185 126.727C30.4953 129.19 32.9019 130.627 35.094 129.936Z" fill="#E8DFD1"/>
<path d="M109.045 112.69C105.649 113.258 103.039 114.811 101.287 118.024C99.7178 120.9 99.5345 124.409 101.208 127.262L94.3761 124.643C90.4202 122.831 89.0285 118.805 90.6139 114.67C92.4987 109.745 98.4796 109.172 102.906 110.427C103.808 110.68 104.708 110.969 105.599 111.288C106.763 111.705 107.912 112.173 109.045 112.69Z" fill="#353642"/>
<path d="M29.4844 108.424C32.1947 104.922 35.9321 102.355 40.1736 101.082C39.6086 99.5641 39.1604 98.0055 38.8326 96.4195C35.3133 79.3024 46.3199 62.5682 63.4325 59.0384C80.5452 55.5086 97.2853 66.5107 100.814 83.6234C101.208 85.541 101.428 87.4905 101.469 89.4478C102.692 89.0141 103.943 88.6655 105.214 88.4048C120.169 85.313 134.801 94.9355 137.888 109.894C138.759 114.099 138.637 118.45 137.532 122.601C136.427 126.751 134.369 130.587 131.521 133.802" stroke="#9F9F9F" stroke-miterlimit="10"/>
<path d="M66.7861 135.425H67.8425C68.1462 135.432 68.4475 135.368 68.7224 135.239C68.9973 135.11 69.2384 134.918 69.4264 134.68C69.4313 134.674 69.4349 134.668 69.4368 134.66C69.8157 134.142 69.9883 133.502 69.9211 132.863L69.8347 132.191L69.7631 131.649L70.0224 131.5L74.0842 129.104L74.3583 128.946C76.3415 127.779 76.4845 125.604 75.7068 123.543C75.6934 123.506 75.6829 123.472 75.6695 123.438C75.6352 123.351 75.601 123.271 75.5682 123.189C75.3693 122.731 75.1346 122.29 74.8664 121.869C73.8398 120.264 72.3513 118.959 70.9343 118.617C70.5374 118.527 70.1315 118.482 69.7244 118.483C68.8751 118.483 67.9364 118.646 67.4432 119.136C72.7119 113.952 78.8671 109.087 86.2709 107.578C92.1386 106.368 98.2065 106.53 104.002 108.049C110.772 109.85 116.875 113.595 121.711 118.646C121.965 118.911 122.214 119.179 122.456 119.453C128.515 126.114 132.38 134.526 134.823 143.135" stroke="black" stroke-miterlimit="10"/>
<path d="M68.6445 143.14H141.55" stroke="black" stroke-miterlimit="10"/>
<path d="M86.998 143.138H95.2705" stroke="black" stroke-miterlimit="10"/>
<path d="M93.9135 124.573C90.0752 122.825 88.0369 118.005 89.5716 114.016C91.4014 109.261 97.2019 108.708 101.492 109.918C102.368 110.164 103.238 110.441 104.104 110.75C113.748 114.177 122.513 121.292 127.298 130.306C127.702 131.069 128.024 131.853 128.35 132.651C128.79 133.724 128.972 134.886 128.88 136.041C128.788 137.198 128.426 138.316 127.822 139.306C127.219 140.296 126.391 141.13 125.405 141.741C124.42 142.352 123.304 142.723 122.149 142.824L95.2709 143.138H86.9984C86.2676 143.138 85.555 142.909 84.9607 142.484C84.3665 142.059 83.9202 141.458 83.6846 140.766C82.7772 138.084 83.9499 136.06 85.4324 134.682C86.979 133.246 88.9965 132.425 91.0944 132.213L106.194 130.687C106.339 130.673 106.475 130.614 106.586 130.519C106.696 130.425 106.775 130.299 106.812 130.158C106.848 130.018 106.841 129.869 106.791 129.733C106.741 129.596 106.651 129.478 106.532 129.394L93.9135 124.573Z" stroke="black" stroke-miterlimit="10"/>
<path d="M89.4121 135.143C88.0338 135.936 86.6168 137.177 86.143 138.749C85.5977 140.559 86.8776 142.204 88.3318 143.146" stroke="black" stroke-miterlimit="10"/>
<path d="M90.8899 137.22C89.6041 138.444 88.4896 139.995 89.2331 141.839C89.4457 142.345 89.7768 142.793 90.1986 143.144" stroke="black" stroke-miterlimit="10"/>
<path d="M93.4125 139.613C93.4125 139.613 90.4519 141.814 92.3322 143.134" stroke="black" stroke-miterlimit="10"/>
<path d="M85.8138 142.928L85.8659 143.14H81.089C79.5275 143.14 77.364 142.9 77.5681 141.156C77.7723 139.413 83.3642 138.938 83.3642 138.938" stroke="black" stroke-miterlimit="10"/>
<path d="M77.2448 88.1094L67.0785 89.6307L68.8502 90.8793L72.1639 93.533C72.6824 93.8981 72.5528 94.7593 72.8404 95.2823C72.9496 96.0717 72.8255 96.8757 72.4835 97.5955C72.1416 98.3152 71.5965 98.9192 70.9156 99.3332C70.2347 99.7472 69.4475 99.953 68.6511 99.9253C67.8548 99.8974 67.0839 99.6374 66.4334 99.1772L58.4395 93.5539C57.5571 92.9446 56.849 92.1157 56.3848 91.149C55.7307 87.8934 57.7377 84.2727 61.5998 83.699L72.7122 82.0302L71.0732 80.7578L66.0266 76.8301C65.5944 76.4955 65.2336 76.0774 64.9657 75.6009C64.8535 74.7942 64.9848 73.9723 65.3427 73.2406C65.7007 72.509 66.269 71.9009 66.975 71.4944C67.6808 71.088 68.492 70.9016 69.3045 70.9592C70.117 71.0167 70.8937 71.3158 71.5351 71.8178L80.5377 78.8208C81.2739 79.3862 81.869 80.1144 82.2765 80.9485C82.8904 84.0954 80.9266 87.5566 77.2448 88.1094Z" fill="#ED9107"/>
<path d="M69.7647 131.647C69.7647 131.647 69.4547 128.921 68.4043 127.959" stroke="black" stroke-miterlimit="10"/>
<path d="M56.7822 121.86C57.7966 121.362 58.9041 121.082 60.0334 121.038C61.1627 120.994 62.2885 121.188 63.3382 121.607C63.6832 121.734 64.0573 121.759 64.4162 121.68C64.7752 121.601 65.1039 121.42 65.3631 121.16L67.4387 119.127" stroke="black" stroke-miterlimit="10"/>
<path d="M63.3799 133.443L65.1128 134.222C65.1513 134.238 65.1928 134.245 65.2345 134.244C65.2762 134.243 65.3172 134.233 65.3549 134.215C65.3924 134.197 65.426 134.172 65.4529 134.14C65.48 134.108 65.5002 134.071 65.5121 134.031L65.7847 133.414" stroke="black" stroke-miterlimit="10"/>
<path d="M63.663 130.001C63.8083 130.334 63.8586 130.701 63.8087 131.061C63.7586 131.421 63.6104 131.761 63.3799 132.042" stroke="black" stroke-miterlimit="10"/>
<path d="M67.5934 135.423C67.8661 135.019 67.8646 134.043 67.7946 133.651C67.7499 133.402 67.3312 133.313 67.2865 133.563C67.1643 134.262 66.3761 135.336 65.6475 135.423" stroke="black" stroke-miterlimit="10"/>
<path d="M64.0947 132.789C65.3233 132.789 66.3193 131.793 66.3193 130.564C66.3193 129.336 65.3233 128.34 64.0947 128.34C62.866 128.34 61.8701 129.336 61.8701 130.564C61.8701 131.793 62.866 132.789 64.0947 132.789Z" stroke="black" stroke-miterlimit="10"/>
<path d="M63.3501 132.659L62.9537 133.773C62.6785 133.675 62.3866 133.633 62.0949 133.647C61.8032 133.662 61.5171 133.734 61.2532 133.859C60.9893 133.985 60.7527 134.161 60.5569 134.378C60.3611 134.595 60.21 134.848 60.1123 135.123" stroke="black" stroke-miterlimit="10"/>
<path opacity="0.53" d="M64.0953 132.447C65.1354 132.447 65.9786 131.604 65.9786 130.564C65.9786 129.524 65.1354 128.681 64.0953 128.681C63.0551 128.681 62.2119 129.524 62.2119 130.564C62.2119 131.604 63.0551 132.447 64.0953 132.447Z" fill="white"/>
<path d="M59.5996 133.172C60.2999 132.749 60.8661 132.129 61.0345 131.285C61.1745 130.569 60.9779 129.715 60.8095 129.004C60.6477 128.261 60.4096 127.537 60.0988 126.844C61.1805 127.042 62.287 127.068 63.3768 126.92C63.8849 126.863 66.3106 125.936 64.8548 125.485C64.2612 125.324 63.6834 125.11 63.1279 124.846C62.6988 124.624 61.9464 124.191 61.9195 123.643C61.9178 123.495 61.959 123.35 62.0383 123.224C62.1177 123.099 62.2317 123 62.3665 122.938C62.5671 122.848 62.7852 122.803 63.0053 122.807C63.2252 122.811 63.4417 122.863 63.639 122.961C63.9695 123.116 64.2717 123.326 64.533 123.581C64.9949 124.028 65.2467 124.475 65.9709 124.36C66.408 124.266 66.8312 124.115 67.2299 123.913C67.6997 123.698 68.0831 123.33 68.3176 122.87C68.6782 122.031 67.4534 121.231 66.7889 120.991C66.4196 120.846 66.016 120.813 65.6281 120.896" stroke="black" stroke-miterlimit="10"/>
<path d="M77.2446 88.1095L67.0783 89.6308L68.85 90.8794L71.1416 92.4886C71.5914 92.7933 71.976 93.1846 72.2731 93.6395C72.57 94.0944 72.7734 94.6039 72.8713 95.1383C72.9691 95.6727 72.9595 96.2212 72.8432 96.7519C72.7266 97.2825 72.5057 97.7846 72.1929 98.229C71.8803 98.6733 71.4822 99.0508 71.0221 99.3396C70.5618 99.6284 70.0488 99.8225 69.5127 99.9109C68.9766 99.9991 68.4283 99.9797 67.8999 99.8538C67.3714 99.7278 66.8733 99.4979 66.4347 99.1772L58.4408 93.5539C57.5584 92.9447 56.8502 92.1158 56.3861 91.1491C54.686 87.6193 56.6737 82.9183 61.1154 82.2553L69.9317 80.9351L71.073 80.7578L66.0264 76.8302C65.6026 76.5004 65.248 76.0904 64.9828 75.6236C64.7176 75.1568 64.5468 74.6421 64.4804 74.1093C64.4141 73.5766 64.4533 73.0359 64.5957 72.5181C64.7383 72.0005 64.9815 71.5159 65.3112 71.0922C65.6409 70.6686 66.051 70.314 66.518 70.0486C66.9848 69.7834 67.4993 69.6126 68.0321 69.5463C68.5649 69.4799 69.1056 69.519 69.6233 69.6616C70.1409 69.8041 70.6254 70.0473 71.0492 70.377L80.0518 77.38C81.2041 78.2564 81.9937 79.526 82.2704 80.947C82.8902 84.0954 80.9264 87.5567 77.2446 88.1095Z" stroke="black" stroke-miterlimit="10"/>
<path d="M54.9303 105.392L54.832 102.795L53.6802 103.975C53.4849 104.175 53.2181 104.289 52.9389 104.292C52.6595 104.295 52.3903 104.188 52.1902 103.993C51.9905 103.798 51.8765 103.531 51.8731 103.252C51.8698 102.972 51.9774 102.703 52.1723 102.503L54.236 100.396C54.4486 100.178 54.7205 100.028 55.0178 99.9633C55.3152 99.8986 55.6249 99.9225 55.9088 100.032C56.1926 100.142 56.4382 100.332 56.6149 100.58C56.7916 100.828 56.8917 101.122 56.9031 101.426L56.9999 104.075L57.8492 103.117C57.941 103.013 58.0524 102.928 58.1772 102.867C58.3017 102.807 58.4372 102.771 58.5756 102.763C58.714 102.754 58.8527 102.774 58.9838 102.819C59.1148 102.864 59.2357 102.935 59.3392 103.027C59.4431 103.119 59.5278 103.231 59.5886 103.355C59.6494 103.48 59.685 103.615 59.6935 103.754C59.7019 103.892 59.683 104.031 59.6378 104.162C59.5927 104.293 59.522 104.414 59.4301 104.517L57.7568 106.405C57.5433 106.649 57.2616 106.823 56.9479 106.904C56.6344 106.985 56.3036 106.97 55.9986 106.861C55.6938 106.752 55.4289 106.553 55.2383 106.291C55.0477 106.029 54.9404 105.716 54.9303 105.392Z" fill="#E8DFD1"/>
<path d="M63.5637 110.077L64.79 109.803L64.1269 109.356C64.0146 109.28 63.9368 109.163 63.9106 109.03C63.8843 108.897 63.9117 108.759 63.9868 108.647C64.0625 108.534 64.1798 108.456 64.3127 108.43C64.4458 108.404 64.5836 108.432 64.6961 108.508L65.8791 109.299C66.0018 109.381 66.0976 109.497 66.1548 109.633C66.212 109.769 66.2281 109.919 66.201 110.063C66.1737 110.208 66.1047 110.342 66.0022 110.448C65.8997 110.554 65.7683 110.628 65.6244 110.66L64.3683 110.943L64.9002 111.263C64.9576 111.298 65.0076 111.343 65.0473 111.397C65.0871 111.451 65.1158 111.512 65.1319 111.577C65.1479 111.642 65.151 111.71 65.1408 111.776C65.1309 111.842 65.1078 111.906 65.0731 111.963C65.0032 112.079 64.8902 112.163 64.759 112.195C64.6277 112.228 64.4888 112.207 64.3728 112.138L63.3298 111.507C63.1957 111.427 63.0887 111.308 63.0228 111.167C62.957 111.025 62.9352 110.867 62.9604 110.713C62.9856 110.558 63.0566 110.415 63.1642 110.302C63.2718 110.189 63.411 110.11 63.5637 110.077Z" fill="#E8DFD1"/>
<path d="M60.4626 117.239L60.5624 116.42L60.1408 116.733C60.1055 116.759 60.0654 116.778 60.0226 116.789C59.9798 116.8 59.9354 116.802 59.8919 116.796C59.8483 116.789 59.8064 116.774 59.7686 116.752C59.7307 116.729 59.6978 116.699 59.6714 116.664C59.6187 116.593 59.5962 116.503 59.609 116.415C59.6218 116.327 59.6689 116.248 59.74 116.195L60.485 115.636C60.5626 115.578 60.6554 115.544 60.7521 115.539C60.8487 115.533 60.9449 115.556 61.0287 115.605C61.1124 115.653 61.18 115.725 61.2233 115.812C61.2665 115.898 61.2833 115.996 61.2717 116.092L61.1704 116.929L61.4847 116.67C61.5187 116.642 61.5581 116.621 61.6002 116.608C61.6424 116.595 61.6866 116.591 61.7304 116.595C61.7744 116.599 61.817 116.612 61.8559 116.633C61.8946 116.654 61.9291 116.682 61.9571 116.716C61.9851 116.75 62.0061 116.789 62.0189 116.832C62.0319 116.874 62.0362 116.918 62.0319 116.962C62.0277 117.006 62.0147 117.048 61.994 117.087C61.9732 117.126 61.945 117.161 61.9109 117.189L61.291 117.698C61.2118 117.761 61.1155 117.799 61.0145 117.808C60.9135 117.816 60.8122 117.795 60.7235 117.745C60.6348 117.696 60.5627 117.622 60.5162 117.532C60.4699 117.442 60.4511 117.34 60.4626 117.239Z" fill="#E8DFD1"/>
<path d="M109.046 112.793L108.983 112.899C108.935 112.869 108.886 112.843 108.834 112.821L109.046 112.793Z" fill="#353642"/>
</svg>
