<svg width="149" height="149" viewBox="0 0 149 149" fill="none" xmlns="http://www.w3.org/2000/svg">
<path d="M31.271 57.067C30.8538 57.7643 29.9807 58.0593 29.2297 58.2098C28.2702 58.4065 27.2778 58.4586 26.3063 58.5451L25.7416 58.6836C25.6348 58.7165 25.5354 58.7703 25.4494 58.8417C25.3633 58.9132 25.2922 59.001 25.2402 59.0999C25.1881 59.1989 25.1562 59.3072 25.1461 59.4186C25.1359 59.5299 25.148 59.6423 25.1814 59.749C25.5308 60.9514 26.0115 62.1115 26.6148 63.2087L25.7208 64.1027C25.4675 63.76 25.4556 63.1596 25.1158 63.2177C24.7895 62.8914 24.4021 62.732 24.0013 63.1685C23.2176 64.0253 23.3442 65.8058 24.496 66.2975L24.2382 67.5804C24.1493 68.0289 23.9077 68.4328 23.5546 68.7232C23.2013 69.0136 22.7585 69.1726 22.3012 69.1732L22.4994 67.6549C21.1584 68.3329 19.6371 66.8667 19.7429 65.6583C19.8114 64.8299 19.6237 64.2577 19.0113 63.6572C18.9711 63.617 19.2169 63.468 19.1797 63.4278C19.0068 62.9048 18.983 62.2939 19.1543 61.9482C19.4523 61.3314 20.33 60.9708 19.9262 60.2973C19.749 60.0038 19.6197 59.6839 19.5432 59.3496C19.4622 58.9065 19.4769 58.4512 19.5867 58.0142C19.6966 57.5773 19.8986 57.1689 20.1795 56.8167C20.7755 56.1015 21.744 56.2937 22.5352 56.0404C23.4992 55.7424 23.9447 54.7098 24.9534 54.3909C25.4556 54.2315 25.9204 54.3045 26.4226 54.4192C26.8472 54.5176 27.2674 54.6278 27.6846 54.759C28.1018 54.8901 28.4683 54.9989 28.8766 54.8767C29.416 54.7277 29.8317 54.2241 30.4202 54.2196C30.7139 54.2129 31.0013 54.3047 31.2368 54.4803C31.6718 55.2626 31.6748 56.398 31.271 57.067Z" fill="#ED9107"/>
<path d="M12.8307 77.2417C12.8307 77.2417 -3.39088 59.3498 20.4983 50.4217C21.8835 49.9138 23.3273 49.5824 24.7954 49.4353C28.6083 49.0301 37.0373 47.5892 38.0088 42.7229" stroke="#E8DFD1" stroke-miterlimit="10"/>
<path d="M80.9268 52.1949V52.1904" stroke="#E8DFD1" stroke-miterlimit="10"/>
<path d="M38.3633 84.41V84.4055" stroke="black" stroke-miterlimit="10"/>
<path d="M25.6806 63.9838C25.5217 63.7093 25.3328 63.4534 25.1173 63.2209C24.791 62.8946 24.4036 62.7352 24.0028 63.1717C23.2191 64.0285 23.3457 65.809 24.4975 66.3007L24.2397 67.5836C24.1508 68.0321 23.9093 68.4359 23.5561 68.7263C23.2028 69.0167 22.76 69.1758 22.3027 69.1764" stroke="black" stroke-linecap="round" stroke-linejoin="round"/>
<path d="M21.5811 74.853C21.6466 74.3553 21.809 73.0486 21.9655 71.8029C22.1145 70.6482 22.2471 69.5367 22.2992 69.1701L22.4989 67.6548" stroke="black" stroke-linecap="round" stroke-linejoin="round"/>
<path d="M30.7805 59.9219C30.7805 59.9219 28.8778 60.0157 28.5098 61.5907" stroke="black" stroke-miterlimit="10"/>
<path d="M31.4723 64.0835C31.9908 64.0701 32.6643 63.9941 32.9087 63.4681L31.5975 62.0213C31.2775 61.6669 31.0883 61.2137 31.0611 60.7369C31.0089 59.9368 31.1028 58.6673 30.3369 57.8225" stroke="black" stroke-miterlimit="10"/>
<path d="M30.351 62.0808C30.5657 61.8433 30.5762 61.5033 30.3748 61.3212C30.1733 61.139 29.836 61.184 29.6214 61.4215C29.4067 61.6588 29.396 61.999 29.5975 62.1811C29.7989 62.3631 30.1362 62.3183 30.351 62.0808Z" fill="black"/>
<path d="M30.2222 73.5867L29.2344 68.7979" stroke="black" stroke-miterlimit="10"/>
<path d="M55.2641 95.1395L48.8973 100.346C56.5574 112.027 50.7598 114.171 50.7598 114.171C49.6352 114.387 48.4996 114.539 47.3581 114.629C41.8213 115.028 36.1414 113.599 31.5776 110.399C22.3396 103.917 14.2935 90.9451 18.5848 79.6509C18.9458 78.6957 19.387 77.7725 19.9034 76.8914C20.3485 76.1256 20.9151 75.4372 21.5811 74.8531C22.7469 73.8326 24.1825 73.1703 25.7156 72.9459C27.2485 72.7215 28.8138 72.9446 30.2231 73.5881C30.7627 73.8344 31.273 74.1403 31.7444 74.5C34.1567 76.3461 36.35 78.97 38.2408 81.7235C39.9196 84.2136 41.4305 86.813 42.763 89.5043C43.131 90.2388 43.4648 90.9332 43.7598 91.5694C46.4343 90.4877 48.6768 88.6505 50.7628 86.6658C48.2402 91.3742 55.2641 95.1395 55.2641 95.1395Z" fill="#353642"/>
<path d="M50.8091 98.9478C50.6869 99.0416 50.5602 99.14 50.4336 99.2338" stroke="black" stroke-miterlimit="10"/>
<path d="M31.9863 79.1562C33.6749 82.3896 35.3637 85.6288 37.0523 88.874C38.3263 91.3236 40.4793 92.8359 43.5115 91.6752C46.8103 90.4117 49.4715 87.9964 51.933 85.5349C54.3944 83.0735 56.8887 80.7193 60.4423 80.0845C65.036 79.2635 69.3823 81.7667 72.5113 84.93C72.7521 85.1712 72.9044 85.4867 72.9436 85.8252C72.9828 86.1637 72.9066 86.5057 72.7274 86.7955C72.6124 86.9808 72.4588 87.1394 72.2771 87.2601C72.0953 87.3808 71.8897 87.4609 71.6743 87.4949C71.4587 87.529 71.2384 87.5162 71.0283 87.4575C70.8183 87.3988 70.6232 87.2955 70.4566 87.1546C68.9741 85.8896 66.5618 84.0598 64.884 84.036" stroke="black" stroke-miterlimit="10"/>
<path d="M60.3066 88.3762C60.8222 88.7204 61.5374 89.1018 62.1334 89.1018" stroke="black" stroke-miterlimit="10"/>
<path d="M66.9136 84.6636C68.0133 85.2074 68.4141 86.7987 67.6378 87.7494C66.6535 88.9707 65.4202 89.9683 64.0201 90.6757C62.4884 91.4401 61.505 90.9737 59.9971 90.041" stroke="black" stroke-miterlimit="10"/>
<path d="M64.3682 86.0894C64.3682 86.0894 66.5465 86.6287 66.4884 88.743C66.4846 88.8332 66.4685 88.9224 66.4408 89.0083" stroke="black" stroke-miterlimit="10"/>
<path d="M62.8291 87.4211C62.8291 87.4211 65.751 89.309 64.3608 90.4965" stroke="black" stroke-miterlimit="10"/>
<path d="M119.272 94.8206C115.83 104.281 106.194 104.547 105.091 104.547C105.553 103.574 105.678 101.865 104.667 98.8704C105.345 97.8808 105.701 96.7065 105.689 95.5069C105.676 94.3075 105.295 93.1409 104.597 92.1654C104.61 92.1535 104.618 92.1371 104.629 92.1252C105.111 92.0959 105.589 92.0236 106.058 91.9092C107.721 91.5128 110.999 90.6427 113.601 89.4179C115.365 88.585 117.423 89.92 117.272 91.8674C117.272 91.8928 117.272 91.9166 117.263 91.9449C117.608 91.9448 117.947 92.0276 118.253 92.1867C118.558 92.3459 118.821 92.5764 119.018 92.8589C119.215 93.1412 119.341 93.4669 119.385 93.8086C119.429 94.1501 119.391 94.4974 119.272 94.8206Z" fill="#ED9107"/>
<path d="M75.1037 117.008C73.9445 118.998 72.1401 120.692 70.3968 122.17C64.2595 127.364 56.2418 130.001 48.1958 130.104C40.123 130.001 32.0755 127.355 25.9099 122.207C6.42809 105.939 9.94896 86.7316 13.1003 77.8378C13.2113 77.5302 13.3616 77.2384 13.5473 76.9691C13.7937 76.6087 14.1136 76.3044 14.486 76.0765C14.8583 75.8483 15.2747 75.7017 15.7078 75.646C17.3617 75.874 18.8636 77.2463 18.5984 79.371C18.5984 79.4529 18.5656 79.5662 18.5582 79.6481C14.27 90.9423 22.319 103.914 31.551 110.396C35.7394 113.336 40.868 114.781 45.9638 114.687H46.0219C46.4589 114.678 46.8955 114.658 47.3316 114.626C50.1939 114.417 52.9757 113.732 55.7307 112.902C58.964 111.935 62.1616 110.762 65.3919 109.941C66.5273 109.652 67.6656 109.374 68.8099 109.113C69.4703 108.977 70.1457 108.931 70.8185 108.974C74.7863 109.243 77.5741 112.771 75.1037 117.008Z" fill="#F2E3CC"/>
<path d="M76.0843 117.008C74.9251 118.998 73.1192 120.692 71.3759 122.17C64.9943 127.575 56.5743 130.216 48.1915 130.104C40.1187 130.001 32.0712 127.355 25.9056 122.207C6.42834 105.939 9.94921 86.7316 13.1006 77.8378C13.2116 77.5302 13.3618 77.2384 13.5476 76.9691C13.794 76.6087 14.1139 76.3044 14.4862 76.0765C14.8586 75.8483 15.2751 75.7017 15.708 75.646C17.3619 75.874 18.8639 77.2463 18.5986 79.371C18.5986 79.4529 18.5659 79.5662 18.5584 79.6481C14.2702 90.9423 22.3192 103.914 31.5512 110.396C35.7396 113.336 40.8682 114.781 45.964 114.687H46.0221C46.7899 114.699 47.5534 114.679 48.3122 114.626C51.1745 114.417 53.9549 113.732 56.7114 112.902C59.9447 111.935 63.1422 110.762 66.3725 109.941C67.5064 109.652 68.6463 109.374 69.7891 109.113C70.1288 109.043 70.4727 108.997 70.8187 108.974C75.2797 108.675 78.7544 112.428 76.0843 117.008Z" fill="#F2E3CC"/>
<path d="M49.5373 130.077L51.4981 132.851C51.4981 132.851 63.363 133.313 69.8564 138.764C71.0574 139.772 70.3392 141.732 68.7717 141.732C68.3787 141.733 67.998 141.595 67.6974 141.341C66.1642 140.054 60.307 136.007 47.0579 135.885C34.1486 135.764 29.1973 139.759 27.828 141.215C27.6719 141.379 27.4837 141.51 27.2751 141.599C27.0665 141.687 26.8419 141.733 26.6151 141.732H26.3604C24.7512 141.732 24.0702 139.699 25.3412 138.713C30.7618 134.498 42.9128 133.154 42.9128 133.154L44.9868 130.025" fill="#353642"/>
<path d="M102.046 114.693C102.046 114.693 105.68 118.145 104.546 128.848C104.463 129.612 104.197 130.345 103.771 130.985L103.376 131.581C102.729 132.55 101.752 133.253 100.627 133.559C98.2535 134.207 93.9474 135.709 91.2877 138.555C90.1643 139.761 91.0002 141.724 92.6481 141.724C92.9553 141.725 93.2581 141.65 93.5293 141.506C93.8003 141.361 94.0316 141.152 94.2022 140.896C95.2854 139.266 98.5649 135.805 106.475 135.878C115.397 135.96 118.991 139.507 120.143 141.036C120.302 141.249 120.509 141.422 120.747 141.542C120.984 141.661 121.246 141.724 121.512 141.724C121.846 141.724 122.172 141.626 122.45 141.443C122.729 141.259 122.948 140.999 123.081 140.693C123.214 140.387 123.254 140.049 123.198 139.72C123.141 139.392 122.99 139.087 122.762 138.843C119.283 135.063 115.028 133.653 112.68 133.13C111.5 132.876 110.458 132.19 109.758 131.207C109.222 130.448 108.917 129.551 108.88 128.623C108.749 125.305 108.68 117.25 110.929 114.696" fill="#353642"/>
<path d="M55.7607 112.906C62.1514 109.804 69.0873 107.769 75.907 105.852C82.77 103.924 89.7 102.242 96.6508 100.661C99.4282 100.031 102.231 99.4693 104.995 98.7585" stroke="black" stroke-miterlimit="10"/>
<path d="M61.7568 89.0591H61.7613H61.7643" stroke="black" stroke-miterlimit="10"/>
<path d="M61.0395 88.6553C60.6387 89.0516 59.2083 91.1689 58.8492 91.5489C56.8764 93.6631 54.7809 95.6592 52.5733 97.5268C52.0175 97.9887 51.429 98.4655 50.8091 98.9482C50.6869 99.0421 50.5603 99.1404 50.4336 99.2343C46.2318 102.423 40.7486 105.492 35.6826 103.526C35.5485 103.476 35.4174 103.42 35.2878 103.362C27.5174 99.8825 22.0864 91.1689 21.6126 82.7579C21.5962 82.4837 21.5872 82.2111 21.5843 81.9414C21.5425 79.6423 21.8823 77.3432 24.0875 76.1304" stroke="black" stroke-miterlimit="10"/>
<path d="M18.5968 79.6183L18.6281 79.374C19.1228 75.4076 13.4906 74.0696 12.1541 77.8378C9.00423 86.7301 5.48187 105.933 24.9681 122.204C37.5452 132.71 57.9075 132.783 70.4369 122.17C72.1802 120.693 73.9846 118.996 75.1453 117.007C78.0821 111.977 73.5972 107.943 68.5387 109.181" stroke="black" stroke-miterlimit="10"/>
<path d="M49.5373 130.077L51.4981 132.851C51.4981 132.851 63.363 133.313 69.8564 138.764C71.0574 139.772 70.3392 141.732 68.7717 141.732C68.3787 141.733 67.998 141.595 67.6974 141.341C66.1642 140.054 60.307 136.007 47.0579 135.885C34.1486 135.764 29.1973 139.759 27.828 141.215C27.6719 141.379 27.4837 141.51 27.2751 141.599C27.0665 141.687 26.8419 141.733 26.6151 141.732H26.3604C24.7512 141.732 24.0702 139.699 25.3412 138.713C30.7618 134.498 42.9128 133.154 42.9128 133.154L44.9868 130.025" stroke="black" stroke-miterlimit="10"/>
<path d="M42.9121 89.2664C47.8857 87.9254 49.9345 80.909 50.7599 76.1917" stroke="black" stroke-miterlimit="10"/>
<path d="M38.2363 81.7279C39.618 81.547 40.9302 81.0148 42.0475 80.182C43.1648 79.3494 44.0499 78.2441 44.618 76.9718C44.7369 76.7187 44.7947 76.4414 44.787 76.1618C44.7792 75.8823 44.7061 75.6086 44.5733 75.3626C44.0309 74.3583 43.2219 73.1947 43.4141 71.9907C43.5526 71.1414 44.2515 70.5439 45.0531 70.3517C45.4594 70.2452 45.8873 70.2525 46.2898 70.3726C46.531 70.441 46.7541 70.5621 46.9427 70.7272C47.1313 70.8925 47.2808 71.0975 47.3805 71.3277C47.5756 71.7851 47.3432 72.2381 46.9841 72.5361C46.625 72.8341 46.2048 72.9399 45.7668 73.0591C45.7102 73.0755 45.5552 73.1082 45.3839 73.141" stroke="black" stroke-miterlimit="10"/>
<path d="M104.988 98.7559C104.988 98.7559 114.792 96.7027 116.634 93.745C116.979 93.2058 117.195 92.5937 117.263 91.957" stroke="black" stroke-miterlimit="10"/>
<path d="M56.7456 93.7048C73.8463 91.8885 93.1478 92.1567 93.1478 92.1567H103.98C104.68 92.1577 105.378 92.0756 106.059 91.9123C107.721 91.516 110.999 90.6473 113.601 89.421C115.365 88.5881 117.423 89.9232 117.272 91.8721C117.272 91.8959 117.272 91.9213 117.263 91.9496C117.607 91.9497 117.946 92.0327 118.251 92.1914C118.555 92.3502 118.818 92.5801 119.015 92.8617C119.212 93.1434 119.338 93.4683 119.383 93.8091C119.428 94.1499 119.39 94.4964 119.272 94.8193C115.618 104.86 104.989 104.546 104.989 104.546C103.63 104.586 102.274 104.64 100.914 104.71C88.9296 105.293 77.0513 106.975 65.4234 109.944C62.1931 110.765 58.9955 111.936 55.7622 112.905C53.0057 113.738 50.2209 114.419 47.3586 114.627C41.8218 115.028 36.1419 113.598 31.578 110.397C21.5816 103.382 12.9784 88.7565 19.9039 76.8842C22.349 72.6943 27.8858 71.547 31.7449 74.5002C37.1879 78.6647 41.5357 86.7778 43.7662 91.5637" stroke="black" stroke-miterlimit="10"/>
<path d="M119.045 114.693H95.2471" stroke="black" stroke-miterlimit="10"/>
<path d="M90.4434 109.886C90.4469 108.612 90.9544 107.391 91.855 106.49C92.7557 105.589 93.9763 105.082 95.2501 105.078H119.051C120.325 105.081 121.546 105.589 122.447 106.49C123.348 107.391 123.856 108.612 123.86 109.886" stroke="black" stroke-miterlimit="10"/>
<path d="M124.327 111.591C124.328 111.998 124.249 112.402 124.093 112.779C123.938 113.157 123.709 113.499 123.421 113.787C123.132 114.076 122.79 114.304 122.412 114.459C122.035 114.615 121.631 114.694 121.223 114.693H93.0625C92.3575 114.626 91.707 114.285 91.2506 113.744C90.7942 113.203 90.5685 112.504 90.622 111.798C90.6755 111.092 91.0039 110.435 91.5365 109.968C92.0694 109.502 92.7639 109.263 93.4707 109.303H121.632C122.132 109.303 122.624 109.423 123.067 109.654C123.511 109.885 123.891 110.221 124.177 110.631C124.276 110.941 124.327 111.265 124.327 111.591Z" fill="#F2E3CC"/>
<path d="M124.327 111.591C124.328 111.998 124.249 112.402 124.093 112.779C123.938 113.156 123.709 113.499 123.421 113.787C123.132 114.076 122.789 114.304 122.412 114.459C122.035 114.615 121.631 114.694 121.223 114.693H93.0624C92.6492 114.702 92.2383 114.628 91.8538 114.476C91.4696 114.324 91.1193 114.097 90.824 113.808C90.5285 113.519 90.2937 113.174 90.1335 112.793C89.9732 112.412 89.8906 112.003 89.8906 111.59C89.8906 111.176 89.9732 110.767 90.1335 110.386C90.2937 110.005 90.5285 109.66 90.824 109.371C91.1193 109.082 91.4696 108.855 91.8538 108.703C92.2383 108.551 92.6492 108.478 93.0624 108.487H121.223C121.879 108.487 122.518 108.694 123.048 109.079C123.579 109.464 123.974 110.007 124.177 110.631C124.276 110.941 124.327 111.265 124.327 111.591Z" stroke="black" stroke-miterlimit="10"/>
<path d="M50.707 76.081L50.6504 76.5593C50.6244 76.7764 50.52 76.9764 50.3567 77.1216C50.1932 77.2669 49.9824 77.3472 49.7638 77.3475H46.6691C46.4505 77.3472 46.2397 77.2669 46.0762 77.1216C45.9129 76.9764 45.8085 76.7764 45.7825 76.5593L45.3832 73.1323C45.5546 73.0995 45.7095 73.0668 45.7661 73.0504C46.2042 72.9312 46.6289 72.8298 46.9835 72.5274C47.3381 72.2249 47.5795 71.7824 47.3798 71.319C47.2801 71.0889 47.1307 70.8838 46.9421 70.7187C46.7534 70.5534 46.5304 70.4323 46.2891 70.3639C45.8865 70.2438 45.4588 70.2365 45.0524 70.343L44.9586 69.5265C44.9447 69.4018 44.9574 69.2755 44.9957 69.156C45.0338 69.0363 45.0968 68.9262 45.1804 68.8326C45.264 68.7389 45.3665 68.664 45.481 68.6126C45.5955 68.5611 45.7197 68.5345 45.8451 68.5342H50.5937C50.7192 68.5346 50.843 68.5616 50.9575 68.613C51.0717 68.6646 51.174 68.7395 51.2574 68.8331C51.3408 68.9266 51.4037 69.0368 51.4419 69.1563C51.48 69.2758 51.4927 69.4018 51.4788 69.5265L51.3685 70.4578" stroke="black" stroke-miterlimit="10"/>
<path d="M51.1197 72.5869L51.1152 72.6197" stroke="black" stroke-miterlimit="10"/>
<path d="M50.8867 74.5554V74.542" stroke="black" stroke-miterlimit="10"/>
<path d="M50.9318 74.555C50.9186 74.5527 50.9049 74.5527 50.8916 74.555C50.8728 74.5529 50.8538 74.5529 50.835 74.555C50.6419 74.5557 50.4561 74.6289 50.3144 74.76C50.1727 74.8911 50.0854 75.0708 50.0697 75.2633C50.0542 75.4557 50.1116 75.647 50.2303 75.7993C50.3491 75.9515 50.5207 76.0536 50.7113 76.0852C50.7934 76.1016 50.878 76.1016 50.9601 76.0852C51.332 76.0259 51.6716 75.8381 51.9197 75.5547C52.2503 75.0109 52.4801 74.4118 52.5976 73.7861C52.5997 73.7799 52.5997 73.773 52.5976 73.7667C52.6885 73.3057 52.7231 72.8355 52.7005 72.3661C52.7005 72.165 52.6751 71.9653 52.6513 71.7701C52.6058 71.4435 52.4565 71.1403 52.2256 70.9051C51.9945 70.6698 51.6941 70.515 51.3684 70.4634C51.352 70.4634 51.3326 70.4634 51.3162 70.4545C50.6904 70.377 49.8128 70.6139 49.6504 71.3202C49.5014 71.9579 50.1928 72.5047 50.7605 72.5539C50.7605 72.5539 50.9095 72.5733 51.1196 72.5867C51.5397 72.615 52.2386 72.6105 52.7005 72.3661C52.7684 72.331 52.8323 72.2885 52.8912 72.2395" stroke="black" stroke-miterlimit="10"/>
<path d="M51.5837 72.6213H51.4809H50.6867H50.3366C50.0998 72.6221 49.8724 72.7134 49.7009 72.8767C49.5293 73.0399 49.4268 73.2625 49.4143 73.499C49.4027 73.7287 49.4767 73.9544 49.6221 74.1328C49.7674 74.3111 49.9736 74.4293 50.201 74.4645C51.2291 74.6299 52.4032 74.6641 52.6044 73.7433" stroke="black" stroke-miterlimit="10"/>
<path d="M102.046 114.693C102.046 114.693 105.68 118.145 104.546 128.848C104.463 129.612 104.197 130.345 103.771 130.985L103.376 131.581C102.729 132.55 101.752 133.253 100.627 133.559C98.2535 134.207 93.9474 135.709 91.2877 138.555C90.1643 139.761 91.0002 141.724 92.6481 141.724C92.9553 141.725 93.2581 141.65 93.5293 141.506C93.8003 141.361 94.0316 141.152 94.2022 140.896C95.2854 139.266 98.5649 135.805 106.475 135.878C115.397 135.96 118.991 139.507 120.143 141.036C120.302 141.249 120.509 141.422 120.747 141.542C120.984 141.661 121.246 141.724 121.512 141.724C121.846 141.724 122.172 141.626 122.45 141.443C122.729 141.259 122.948 140.999 123.081 140.693C123.214 140.387 123.254 140.049 123.198 139.72C123.141 139.392 122.99 139.087 122.762 138.843C119.283 135.063 115.028 133.653 112.68 133.13C111.5 132.876 110.458 132.19 109.758 131.207C109.222 130.448 108.917 129.551 108.88 128.623C108.749 125.305 108.68 117.25 110.929 114.696" stroke="black" stroke-miterlimit="10"/>
<path d="M94.4919 89.6768V89.9182C94.4919 91.5706 93.1599 91.8552 92.0096 91.8835L69.7475 92.402C68.7715 92.4259 67.9505 91.5736 67.9297 90.5068V90.4621C67.9297 89.4191 68.6985 88.5474 69.6611 88.5251C69.6611 88.5251 82.116 88.1734 91.7593 87.9082C91.944 88.4923 92.391 88.9423 92.9513 89.2954C93.4154 89.573 93.9518 89.7057 94.4919 89.6768Z" stroke="black" stroke-miterlimit="10"/>
<path d="M106.325 66.12C106.327 66.3919 106.264 66.6601 106.144 66.9037L96.1874 87.3137C96.0706 87.5506 95.9034 87.7592 95.6975 87.9248C95.4916 88.0902 95.252 88.2086 94.9954 88.2718C94.5843 88.3771 94.1491 88.3327 93.7676 88.1466C93.4619 87.9961 93.2046 87.7625 93.0252 87.4727C92.8458 87.1829 92.7515 86.8485 92.7529 86.5076C92.7537 86.4239 92.7597 86.3403 92.7708 86.2573C92.7973 86.0725 92.8526 85.8931 92.9347 85.7254L102.889 65.3124C103.069 64.9461 103.368 64.6514 103.736 64.4765C104.105 64.3017 104.522 64.2567 104.92 64.3492C105.317 64.4416 105.672 64.666 105.925 64.9856C106.179 65.3054 106.317 65.7014 106.316 66.1095L106.325 66.12Z" stroke="black" stroke-miterlimit="10"/>
<path d="M25.7222 64.1058C25.7102 64.0641 25.6939 64.0239 25.6804 63.9837C25.667 63.9434 25.6477 63.8972 25.6357 63.8525" stroke="black" stroke-linecap="round" stroke-linejoin="round"/>
<path d="M25.7227 64.1072L26.0281 63.8003L26.6122 63.2087" stroke="black" stroke-linecap="round" stroke-linejoin="round"/>
<path d="M29.1592 64.9153C29.1592 64.9153 29.5511 66.0849 31.0485 66.1639" stroke="black" stroke-miterlimit="10"/>
<path d="M22.4995 67.655C21.1585 68.3329 19.6372 66.8668 19.743 65.6584C19.8115 64.83 19.6238 64.2579 19.0114 63.6573C18.9712 63.6171 18.9339 63.5754 18.8981 63.5351C18.665 63.2816 18.5134 62.9637 18.4629 62.6228C18.4124 62.2821 18.4655 61.9338 18.615 61.6235C18.8937 60.9753 19.4941 60.5954 19.0769 59.8966C18.8938 59.5944 18.7602 59.265 18.6806 58.9206C18.5973 58.4641 18.613 57.995 18.7263 57.5449C18.8397 57.0949 19.0482 56.6744 19.3377 56.3116C19.9516 55.5666 20.9514 55.7722 21.7724 55.5115C22.7602 55.1971 23.2221 54.1347 24.2592 53.8084C24.7777 53.646 25.259 53.719 25.7775 53.8367C26.214 53.9395 26.6521 54.0543 27.0768 54.1884C27.5014 54.3225 27.8888 54.4372 28.3135 54.3106C28.8692 54.1481 29.2969 53.6371 29.9018 53.6326C30.5067 53.6281 30.9716 53.9842 31.2428 54.4819C31.6719 55.2627 31.6749 56.398 31.2711 57.0715C30.8539 57.7688 29.9808 58.0639 29.2298 58.2144C28.2702 58.411 27.2779 58.4632 26.3064 58.5496L25.7417 58.6882C25.5269 58.7549 25.3473 58.9039 25.2423 59.1028C25.1372 59.3018 25.1153 59.5342 25.1815 59.7491C25.5309 60.9515 26.0116 62.1118 26.6149 63.2088" stroke="black" stroke-miterlimit="10"/>
<path d="M26.6113 67.826C26.6113 67.826 29.5675 69.991 31.2527 68.7975C32.9379 67.604 31.9858 64.1055 31.9858 64.1055" stroke="black" stroke-linecap="round" stroke-linejoin="round"/>
<path d="M47.5005 67.0397C47.5005 67.0397 46.2444 66.1904 47.0431 65.3233C47.8417 64.4561 46.7779 63.3118 46.7779 63.3118" stroke="black" stroke-miterlimit="10"/>
<path d="M48.6592 67.1871C48.6592 67.1871 49.4906 66.6254 48.9572 66.0502C48.4238 65.4751 49.1345 64.7092 49.1345 64.7092" stroke="black" stroke-miterlimit="10"/>
<path d="M54.3878 59.0938C63.4332 59.0938 70.7659 51.7611 70.7659 42.7157C70.7659 33.6704 63.4332 26.3376 54.3878 26.3376C45.3425 26.3376 38.0098 33.6704 38.0098 42.7157C38.0098 51.7611 45.3425 59.0938 54.3878 59.0938Z" stroke="#E8DFD1" stroke-miterlimit="10"/>
<path d="M54.3887 51.7105C59.3565 51.7105 63.3838 47.6832 63.3838 42.7153C63.3838 37.7474 59.3565 33.7202 54.3887 33.7202C49.4207 33.7202 45.3936 37.7474 45.3936 42.7153C45.3936 47.6832 49.4207 51.7105 54.3887 51.7105Z" stroke="#E8DFD1" stroke-miterlimit="10"/>
<path d="M54.3878 44.2574C55.2395 44.2574 55.93 43.5669 55.93 42.7152C55.93 41.8636 55.2395 41.1731 54.3878 41.1731C53.5362 41.1731 52.8457 41.8636 52.8457 42.7152C52.8457 43.5669 53.5362 44.2574 54.3878 44.2574Z" stroke="#E8DFD1" stroke-miterlimit="10"/>
<path d="M57.5812 37.5662L55.2002 41.4044" stroke="#E8DFD1" stroke-miterlimit="10"/>
<path d="M54.3887 33.7202V35.3205" stroke="#E8DFD1" stroke-miterlimit="10"/>
<path d="M63.383 42.7153H61.8662" stroke="#E8DFD1" stroke-miterlimit="10"/>
<path d="M54.3887 51.7123V50.1567" stroke="#E8DFD1" stroke-miterlimit="10"/>
<path d="M45.3916 42.7153H46.7594" stroke="#E8DFD1" stroke-miterlimit="10"/>
<path d="M70.0853 69.9467C73.4509 69.9467 76.1794 67.2183 76.1794 63.8526C76.1794 60.4869 73.4509 57.7585 70.0853 57.7585C66.7197 57.7585 63.9912 60.4869 63.9912 63.8526C63.9912 67.2183 66.7197 69.9467 70.0853 69.9467Z" fill="#ED9107"/>
<path d="M72.0893 61.8171C72.0034 61.6189 71.8877 61.4351 71.7466 61.2718C71.5051 60.9861 71.1678 60.7983 70.7978 60.7434C70.4278 60.6886 70.0506 60.7705 69.7366 60.9738C69.5319 61.1073 69.3607 61.2864 69.2366 61.4971C69.1126 61.7077 69.0389 61.9442 69.0214 62.1881C68.7006 62.0706 68.3503 62.0604 68.0233 62.1594C67.6964 62.2582 67.4103 62.4608 67.2085 62.7364C67.0066 63.0121 66.9 63.3459 66.9044 63.6875C66.9089 64.029 67.0244 64.3599 67.2334 64.6302C67.67 65.1994 68.412 65.5734 69.084 65.7909C69.4364 65.9037 69.7994 65.9806 70.1672 66.0204C70.3535 66.0413 71.4159 66.1843 71.5082 66.0204C72.1713 64.9834 72.6421 63.0836 72.0893 61.8171Z" fill="white"/>
<g opacity="0.72">
<path opacity="0.72" d="M85.2744 61.3301C87.1277 61.3301 88.6299 59.8279 88.6299 57.9746C88.6299 56.1215 87.1277 54.6191 85.2744 54.6191C83.4213 54.6191 81.9189 56.1215 81.9189 57.9746C81.9189 59.8279 83.4213 61.3301 85.2744 61.3301Z" fill="#ED9107"/>
<path opacity="0.72" d="M86.7304 58.569C86.8136 58.4844 86.8828 58.3874 86.936 58.2815C87.0317 58.0988 87.0575 57.8874 87.0083 57.6871C86.9593 57.4868 86.8387 57.3113 86.6693 57.1938C86.5586 57.1173 86.4318 57.0676 86.2986 57.0483C86.1656 57.0293 86.0297 57.0413 85.902 57.0835C85.8948 56.8955 85.8266 56.7149 85.7078 56.569C85.5889 56.4231 85.4259 56.3199 85.2432 56.2747C85.0606 56.2297 84.8682 56.2452 84.6951 56.3191C84.5221 56.3929 84.3777 56.521 84.2838 56.6842C84.1013 57.0531 84.0304 57.4675 84.0797 57.8762C84.0965 58.0779 84.1333 58.2776 84.19 58.4722C84.2183 58.572 84.3673 59.1427 84.4686 59.1606C85.1346 59.2723 86.2015 59.1159 86.7304 58.569Z" fill="white"/>
</g>
<path d="M80.4665 73.8199L78.8715 77.1928C78.2931 78.4158 78.8156 79.876 80.0386 80.4544L83.4114 82.0494C84.6344 82.6278 86.0947 82.1052 86.6731 80.8822L88.2682 77.5094C88.8464 76.2864 88.3239 74.8261 87.1009 74.2478L83.7282 72.6527C82.5052 72.0743 81.0448 72.5969 80.4665 73.8199Z" fill="#ED9107"/>
<path d="M87.3574 78.0998L86.2026 80.542C85.9604 81.0506 85.5266 81.4428 84.9963 81.6329C84.4659 81.8229 83.8818 81.7955 83.3716 81.5566L80.4423 80.1709C79.9339 79.9284 79.542 79.4946 79.3524 78.9642C79.1625 78.4339 79.1901 77.85 79.4291 77.3399L79.5066 77.1761C80.3022 76.5413 81.6775 75.686 82.1796 76.8497C82.9023 78.5305 83.8425 77.9881 85.0434 77.2848C86.0462 76.6918 87.2501 76.4936 87.3574 78.0998Z" fill="white"/>
<path d="M82.8204 75.5046C83.3182 75.5046 83.7219 75.1009 83.7219 74.6031C83.7219 74.1052 83.3182 73.7017 82.8204 73.7017C82.3226 73.7017 81.9189 74.1052 81.9189 74.6031C81.9189 75.1009 82.3226 75.5046 82.8204 75.5046Z" fill="white"/>
<path d="M98.2007 62.7574C98.38 63.0842 98.5101 63.4357 98.5866 63.8004C98.7231 64.4676 98.6839 65.159 98.473 65.8064C98.2618 66.454 97.8862 67.0355 97.3827 67.4941C96.9834 67.8473 96.4753 68.1229 96.0715 68.4924C95.777 68.7466 95.56 69.0787 95.4457 69.4505C95.4249 69.5776 95.3738 69.6977 95.2967 69.8006C95.0613 70.0539 94.8304 69.6516 94.6262 69.5831C94.2972 69.4761 93.9404 69.4936 93.6235 69.6323C92.7901 69.9808 91.862 70.0303 90.9963 69.7725C90.1306 69.5147 89.3808 68.9654 88.8738 68.2178C88.3669 67.4703 88.1341 66.5703 88.2149 65.6708C88.2958 64.7712 88.6853 63.9272 89.3174 63.2819C89.9417 62.6457 90.7582 62.2389 91.5524 61.8247C92.2467 61.4566 92.9381 61.0648 93.692 60.8443C95.4591 60.3153 97.3455 61.1959 98.2007 62.7574Z" fill="#ED9107"/>
<path d="M91.0837 67.36C91.5527 67.36 91.933 66.9797 91.933 66.5107C91.933 66.0416 91.5527 65.6614 91.0837 65.6614C90.6146 65.6614 90.2344 66.0416 90.2344 66.5107C90.2344 66.9797 90.6146 67.36 91.0837 67.36Z" fill="white"/>
<path d="M93.3708 66.1366C93.8398 66.1366 94.2201 65.7563 94.2201 65.2873C94.2201 64.8182 93.8398 64.438 93.3708 64.438C92.9017 64.438 92.5215 64.8182 92.5215 65.2873C92.5215 65.7563 92.9017 66.1366 93.3708 66.1366Z" fill="white"/>
<path d="M95.5173 64.9894C95.9863 64.9894 96.3666 64.6091 96.3666 64.1401C96.3666 63.671 95.9863 63.2908 95.5173 63.2908C95.0482 63.2908 94.668 63.671 94.668 64.1401C94.668 64.6091 95.0482 64.9894 95.5173 64.9894Z" fill="white"/>
<path d="M69.6221 36.6943C69.6221 36.6943 75.214 53.9903 96.7401 53.056C103.892 52.162 112.404 53.056 119.984 63.039C131.506 78.2251 126.88 95.1424 121.644 105.881" stroke="#E8DFD1" stroke-miterlimit="10"/>
<g opacity="0.54">
<path opacity="0.54" d="M100.738 43.4872C100.717 43.7481 100.676 44.007 100.617 44.262L99.9466 47.1704C99.741 48.0644 99.51 49.0002 98.8723 49.6528C97.6803 50.8686 95.6986 50.59 94.0417 50.222L89.974 49.319C89.0398 49.1119 88.0907 48.8988 87.2533 48.4355C86.4159 47.9721 85.6888 47.2137 85.4951 46.2764C85.3461 45.5851 85.5055 44.8699 85.6575 44.1815L86.2714 41.3892C86.4755 40.4744 86.705 39.5089 87.3651 38.8428C88.5407 37.6583 90.4941 37.928 92.1182 38.2811L96.2842 39.187C98.7963 39.7294 100.937 40.8946 100.738 43.4872Z" fill="#ED9107"/>
<path opacity="0.54" d="M95.1279 43.5648C95.302 43.7268 95.4306 43.9318 95.5004 44.1592C95.5702 44.3867 95.5789 44.6285 95.5257 44.8604C95.4723 45.0922 95.3588 45.3059 95.1967 45.4801C95.0346 45.6541 94.8294 45.7824 94.6019 45.852L93.3622 46.2319L92.1225 46.6119C91.895 46.6814 91.6532 46.6899 91.4213 46.6364C91.1896 46.583 90.976 46.4696 90.8018 46.3073C90.6278 46.1452 90.4995 45.9402 90.4297 45.7127C90.36 45.4853 90.3512 45.2434 90.4046 45.0116L90.7026 43.7481L90.9931 42.4861C91.0462 42.2541 91.1594 42.0402 91.3215 41.8659C91.4836 41.6917 91.6886 41.5631 91.9162 41.4934C92.1437 41.4235 92.3855 41.415 92.6174 41.4684C92.8494 41.5219 93.063 41.6354 93.237 41.7977L94.1862 42.6812L95.1279 43.5648Z" fill="white"/>
</g>
<path d="M12.8857 141.725H141.55" stroke="black" stroke-miterlimit="10"/>
</svg>
