<svg width="149" height="149" viewBox="0 0 149 149" fill="none" xmlns="http://www.w3.org/2000/svg">
<path d="M99.2721 130.916L96.3278 133.695C96.2512 133.767 96.1902 133.855 96.1484 133.951C96.1067 134.048 96.0851 134.153 96.085 134.258V138.685C96.0848 138.877 96.1566 139.063 96.2861 139.205C96.4156 139.348 96.5936 139.437 96.7853 139.455L102.58 140.018L105.774 137.003C105.852 136.931 105.913 136.843 105.955 136.746C105.997 136.649 106.019 136.545 106.019 136.439V131.986C106.019 131.793 105.947 131.606 105.817 131.464C105.687 131.321 105.508 131.232 105.316 131.214L99.8755 130.709C99.766 130.699 99.6556 130.712 99.5516 130.748C99.4476 130.783 99.3522 130.841 99.2721 130.916Z" fill="#ED9107"/>
<path d="M98.9645 130.144L95.5092 133.406C95.4192 133.491 95.3475 133.593 95.2987 133.707C95.2496 133.821 95.2245 133.944 95.2246 134.067V139.261C95.2243 139.487 95.3083 139.705 95.4602 139.873C95.612 140.04 95.8208 140.144 96.0456 140.166L102.846 140.827L106.596 137.287C106.686 137.202 106.758 137.1 106.807 136.986C106.856 136.872 106.881 136.749 106.881 136.626V131.399C106.881 131.172 106.796 130.954 106.643 130.787C106.491 130.619 106.281 130.515 106.055 130.494L99.6723 129.898C99.5435 129.887 99.4139 129.902 99.2919 129.945C99.1698 129.987 99.0582 130.055 98.9645 130.144Z" fill="#ED9107"/>
<path d="M117.114 101.286V105.738C117.114 105.843 117.092 105.948 117.05 106.045C117.008 106.141 116.947 106.229 116.871 106.301L113.673 109.317L107.876 108.754C107.708 108.739 107.551 108.667 107.429 108.551C108.387 108.435 109.193 107.989 109.44 107.508C109.82 106.763 109.719 105.464 108.099 105.237C107.786 105.195 107.475 105.132 107.171 105.047V103.555C107.171 103.45 107.192 103.346 107.234 103.249C107.276 103.152 107.337 103.065 107.414 102.993L110.357 100.211C110.436 100.138 110.531 100.082 110.633 100.047C110.736 100.011 110.844 99.9974 110.953 100.006L116.393 100.512C116.588 100.526 116.772 100.613 116.906 100.757C117.04 100.9 117.114 101.089 117.114 101.286Z" fill="#ED9107"/>
<path d="M117.976 100.699V105.924C117.976 106.049 117.95 106.172 117.901 106.286C117.851 106.4 117.779 106.503 117.689 106.589L113.941 110.126L107.141 109.466C106.916 109.444 106.707 109.339 106.555 109.172C106.403 109.004 106.32 108.786 106.32 108.56V108.539C106.69 108.598 107.066 108.602 107.437 108.551C108.395 108.435 109.202 107.989 109.449 107.508C109.829 106.763 109.728 105.464 108.108 105.237C107.794 105.195 107.484 105.132 107.18 105.047C106.452 104.825 106.408 104.582 106.408 104.582L106.318 104.638V103.372C106.317 103.248 106.342 103.126 106.391 103.012C106.44 102.898 106.511 102.796 106.601 102.712L110.058 99.4486C110.152 99.3599 110.264 99.2923 110.386 99.25C110.508 99.2075 110.637 99.1914 110.766 99.2027L117.149 99.7987C117.374 99.82 117.583 99.9239 117.735 100.09C117.888 100.256 117.974 100.473 117.976 100.699Z" fill="#ED9107"/>
<path d="M118.192 114.775L114.712 118.053C114.622 118.139 114.549 118.242 114.5 118.356C114.45 118.471 114.425 118.594 114.425 118.719V123.95C114.425 124.178 114.509 124.398 114.662 124.566C114.815 124.735 115.025 124.84 115.252 124.862L122.106 125.528L125.883 121.964C125.974 121.879 126.046 121.775 126.095 121.661C126.145 121.546 126.17 121.423 126.17 121.298V116.038C126.171 115.81 126.086 115.59 125.932 115.421C125.778 115.252 125.566 115.147 125.339 115.127L118.911 114.531C118.781 114.517 118.649 114.532 118.525 114.575C118.401 114.617 118.287 114.685 118.192 114.775Z" fill="#ED9107"/>
<path d="M117.826 113.863L113.742 117.718C113.636 117.818 113.551 117.939 113.493 118.073C113.435 118.208 113.405 118.352 113.405 118.498V124.637C113.405 124.904 113.505 125.162 113.685 125.359C113.864 125.557 114.111 125.681 114.377 125.707L122.414 126.488L126.845 122.304C126.952 122.204 127.037 122.083 127.095 121.948C127.152 121.814 127.182 121.669 127.182 121.523V115.346C127.18 115.078 127.079 114.822 126.898 114.625C126.717 114.429 126.469 114.307 126.203 114.283L118.659 113.581C118.508 113.567 118.356 113.585 118.213 113.633C118.069 113.682 117.937 113.76 117.826 113.863Z" fill="#ED9107"/>
<path d="M127.623 117.969L124.002 121.387C123.908 121.476 123.833 121.584 123.782 121.703C123.73 121.822 123.704 121.951 123.704 122.08V127.523C123.704 127.76 123.792 127.988 123.951 128.164C124.111 128.339 124.329 128.449 124.565 128.472L131.692 129.165L135.621 125.458C135.715 125.369 135.79 125.261 135.841 125.142C135.893 125.023 135.919 124.895 135.919 124.765V119.283C135.919 119.046 135.83 118.817 135.67 118.642C135.51 118.466 135.29 118.357 135.053 118.334L128.365 117.71C128.23 117.698 128.094 117.714 127.966 117.759C127.838 117.804 127.721 117.876 127.623 117.969Z" fill="#ED9107"/>
<path d="M127.246 117.021L122.997 121.032C122.886 121.136 122.798 121.262 122.738 121.402C122.677 121.542 122.646 121.693 122.646 121.845V128.234C122.646 128.512 122.75 128.779 122.936 128.985C123.123 129.19 123.379 129.319 123.655 129.346L132.014 130.159L136.633 125.806C136.744 125.701 136.832 125.575 136.892 125.435C136.952 125.295 136.983 125.144 136.983 124.992V118.563C136.983 118.284 136.879 118.016 136.691 117.81C136.504 117.604 136.246 117.476 135.969 117.45L128.118 116.72C127.959 116.705 127.8 116.724 127.65 116.776C127.499 116.828 127.362 116.911 127.246 117.021Z" fill="#ED9107"/>
<path d="M117.166 121.919L112.09 126.711C111.957 126.836 111.852 126.986 111.78 127.153C111.708 127.32 111.671 127.5 111.671 127.682V135.314C111.672 135.646 111.796 135.965 112.019 136.21C112.241 136.455 112.547 136.61 112.876 136.643L122.868 137.615L128.381 132.413C128.513 132.288 128.618 132.137 128.69 131.97C128.762 131.803 128.8 131.624 128.8 131.442V123.762C128.798 123.43 128.674 123.11 128.449 122.864C128.225 122.618 127.918 122.465 127.587 122.433L118.209 121.56C118.02 121.542 117.829 121.565 117.649 121.627C117.469 121.689 117.304 121.789 117.166 121.919Z" fill="#ED9107"/>
<path d="M116.634 120.589L110.674 126.212C110.519 126.359 110.395 126.535 110.311 126.731C110.226 126.927 110.183 127.139 110.183 127.352V136.308C110.182 136.698 110.327 137.074 110.589 137.362C110.851 137.651 111.21 137.831 111.598 137.868L123.323 139.008L129.79 132.899C129.945 132.753 130.068 132.576 130.153 132.38C130.238 132.184 130.281 131.973 130.281 131.759V122.752C130.281 122.362 130.136 121.986 129.873 121.697C129.61 121.408 129.249 121.228 128.86 121.192L117.859 120.169C117.637 120.147 117.413 120.174 117.201 120.246C116.99 120.319 116.797 120.436 116.634 120.589Z" fill="#ED9107"/>
<path d="M81.3535 56.2457C85.5255 53.0809 91.8446 50.2395 100.299 51.7131" stroke="#CCDDE2" stroke-miterlimit="10"/>
<path d="M83.4727 58.7192C87.1857 56.14 92.2428 54.1598 98.8375 54.5844" stroke="white" stroke-width="4.59" stroke-linecap="round" stroke-linejoin="round"/>
<path d="M112.614 57.3843C116.691 61.1495 118.834 66.4569 119.617 71.8656C120.137 75.4629 120.141 79.1158 119.631 82.7143C119.592 82.9256 119.565 83.1391 119.552 83.3535C119.816 83.2346 120.089 83.1374 120.368 83.0629C123.739 82.1972 127.324 82.0572 130.585 83.3892C133.298 84.4963 135.608 86.4378 137.372 88.7532C139.731 91.8681 141.157 95.588 141.486 99.4812C142.082 106.931 138.519 112.939 133.176 117.176L133.115 117.226" stroke="#CCDDE2" stroke-linejoin="round"/>
<path d="M111.963 60.9697C117.246 67.1786 117.582 75.527 117.115 83.4836C117.105 83.658 117.039 84.1199 116.978 84.5892" stroke="white" stroke-linecap="round" stroke-linejoin="round"/>
<path d="M119.13 85.4875C123.028 85.1001 127.355 84.9854 130.67 86.9224C133.948 88.8385 136.389 91.9362 137.794 95.4437C139.389 99.425 139.646 104.086 137.862 108.052C135.861 112.492 132.547 115.67 128.797 118.646C128.787 118.653 129.244 118.755 129.721 118.862" stroke="white" stroke-linecap="round" stroke-linejoin="round"/>
<path d="M51.3004 131.258C50.4659 131.558 49.592 131.735 48.7063 131.784C36.1263 132.557 24.321 125.675 16.0068 117.97C15.6268 117.618 15.2618 117.258 14.9102 116.893" stroke="black" stroke-miterlimit="10"/>
<path d="M63.4023 126.315C64.1295 127.427 65.8355 126.983 65.8355 126.983C75.3507 125.031 72.5748 112.433 64.5258 106.586" stroke="black" stroke-miterlimit="10"/>
<path d="M74.4853 96.2544C71.0359 99.5623 67.9561 101.569 65.07 102.758L66.262 94.4247C53.2617 86.6499 49.8019 95.3187 49.8019 95.3187C49.3043 96.1323 49.0733 105.784 49.0078 109.079C48.9914 109.079 48.5787 109.079 48.5608 109.079C40.3658 108.641 32.959 101.145 32.959 101.145C37.0997 90.7474 51.882 77.9006 51.882 77.9006C62.1421 70.7054 69.9736 73.1252 69.9736 73.1252C67.5613 73.2995 70.8482 79.9792 70.8482 79.9792C75.6922 84.1855 77.4802 77.9036 77.4802 77.9036C82.1677 89.1233 74.4853 96.2544 74.4853 96.2544Z" fill="#353642"/>
<path d="M82.9615 91.4012C82.9615 91.4012 82.1108 102.332 74.7159 101.97C74.7159 101.97 71.943 98.9704 72.013 96.6892C72.0831 94.408 78.271 80.1621 78.271 80.1621C78.271 80.1621 82.2821 90.166 82.9615 91.4012Z" fill="#353642"/>
<path d="M15.5899 117.536V117.573L16.2217 118.169C16.2217 118.169 15.9595 118.412 15.5899 118.765C15.1087 119.212 14.4456 119.829 13.9509 120.3C13.0942 121.113 8.7136 125.493 7.54395 121.51C7.7749 120.117 8.65996 117.251 12.0527 113.771C16.8773 108.812 16.2053 109.427 17.4167 109.509C17.9754 109.545 18.6996 109.873 19.3194 110.217C17.7519 110.87 15.3754 112.68 15.5899 117.536Z" fill="#ED9107"/>
<path d="M20.6291 111.041C20.6291 111.041 15.8865 111.488 15.5899 117.536V117.573C15.5706 117.945 15.5706 118.337 15.5899 118.754C15.1087 119.201 14.4456 119.818 13.9509 120.289C13.0942 121.103 8.7136 125.482 7.54395 121.499C7.7749 120.106 8.65995 117.241 12.0527 113.76C16.8773 108.801 16.2053 109.417 17.4167 109.499C17.9754 109.534 18.6996 109.862 19.3194 110.206C19.77 110.462 20.2072 110.74 20.6291 111.041Z" fill="#ED9107"/>
<path d="M65.0381 103.01C70.4021 99.6469 79.0083 95.3408 78.9875 85.6737C78.9875 83.3776 78.7506 81.5017 78.2425 79.7256L78.1933 79.5557C78.0158 78.9807 77.7765 78.4268 77.4796 77.9033" stroke="black" stroke-miterlimit="10"/>
<path d="M39.1647 119.744C37.9235 118.687 36.803 117.668 36.058 116.965L36.0461 116.953C35.4591 116.406 35.1074 116.059 35.1074 116.059C34.6083 115.378 34.1642 114.718 33.7664 114.083C33.7587 114.074 33.753 114.063 33.75 114.051C30.8564 109.372 30.6821 105.644 33.3775 100.159C33.3932 100.12 33.4111 100.081 33.4312 100.043C33.7292 99.447 34.0585 98.8242 34.422 98.1805C39.8173 88.6445 55.6471 70.8763 69.3029 73.1232" stroke="black" stroke-miterlimit="10"/>
<path d="M16.0113 117.965C13.1803 121.478 11.1942 122.725 9.85166 123.001C8.50917 123.277 7.27247 122.086 7.46766 120.709C8.09048 116.359 13.1535 111.154 15.6448 108.827C16.0264 108.468 16.516 108.245 17.0373 108.194C17.5587 108.143 18.0823 108.266 18.5264 108.544L19.7736 109.32C23.4583 111.617 27.304 113.858 31.1706 115.924C34.7153 117.819 38.6102 120.255 42.806 119.704" stroke="black" stroke-miterlimit="10"/>
<path d="M66.7906 85.3354C66.8387 87.0649 66.7944 88.7958 66.658 90.5206C66.1856 96.7623 64.9102 102.919 64.2084 109.135C63.7614 113.114 63.4872 117.11 63.4336 121.113C63.3889 124.475 63.38 127.039 63.4798 130.401C63.5439 132.564 64.7671 133.945 66.6296 134.871C68.1986 135.648 69.2923 135.49 70.2697 137.059C72.2797 140.293 68.3327 140.522 66.7265 140.096C62.2207 138.904 55.5917 138.25 53.0185 133.769C50.9668 130.193 50.706 127.856 50.1875 123.859C49.6213 119.529 49.1445 115.182 49.0432 110.813C48.8867 103.779 49.4321 92.4636 51.9531 85.8108" stroke="black" stroke-miterlimit="10"/>
<path d="M123.074 118.698L123.05 118.722L122.491 118.665L122.512 118.646L123.074 118.698Z" fill="#ED9107"/>
<path d="M114.21 117.937L118.801 118.391L114.21 117.974V117.937Z" fill="#ED9107"/>
<path d="M123.073 118.698L123.05 118.721L122.491 118.665L122.43 118.721L122.163 118.698L122.224 118.641L122.244 118.62L122.512 118.645L123.073 118.698Z" fill="#ED9107"/>
<path d="M123.074 118.698L123.05 118.721L122.491 118.665L122.225 118.641L122.244 118.62L122.512 118.645L123.074 118.698Z" fill="#ED9107"/>
<path d="M111.352 126.669L118.139 127.332L111.352 126.723V126.669Z" fill="#ED9107"/>
<path d="M124.461 127.784L124.425 127.82L123.599 127.736L123.509 127.82L123.114 127.784L123.204 127.701L123.233 127.671L123.63 127.707L124.461 127.784Z" fill="#ED9107"/>
<path d="M124.461 127.784L124.425 127.82L123.598 127.736L123.203 127.701L123.233 127.671L123.629 127.707L124.461 127.784Z" fill="#ED9107"/>
<path d="M78.1904 79.5547C78.1904 79.5547 82.574 94.1775 87.7011 97.5837C92.5317 100.792 99.0176 99.4 104.112 97.6478C105.519 97.1635 106.933 96.6912 108.433 96.7135C110.544 96.7433 114.847 97.2112 115.406 99.6682" stroke="black" stroke-miterlimit="10"/>
<path d="M72.4287 98.1089C79.9934 113.428 93.4064 110.372 100.311 107.603C100.937 107.349 101.615 107.252 102.287 107.32C102.954 107.393 103.479 107.676 104.1 107.916C105.157 108.333 106.35 108.633 107.496 108.555C108.642 108.478 110.038 107.605 109.555 106.253C109.171 105.176 107.973 105.253 107.055 105.046C106.137 104.839 105.916 103.501 106.775 103.068C106.785 103.064 106.795 103.059 106.803 103.051" stroke="black" stroke-miterlimit="10"/>
<path d="M106.881 130.573L102.846 134.386L95.2246 133.677L99.264 129.865L106.881 130.573Z" stroke="black" stroke-linecap="square" stroke-linejoin="round"/>
<path d="M102.846 134.386V140.829L95.2246 140.088V133.677L102.846 134.386Z" stroke="black" stroke-linecap="square" stroke-linejoin="round"/>
<path d="M106.881 130.573V137.02L102.846 140.828V134.386L106.881 130.573Z" stroke="black" stroke-linecap="square" stroke-linejoin="round"/>
<path d="M130.344 121.386L123.439 127.911L110.401 126.696L113.453 123.815V125.44L122.43 126.315L127.182 121.827V121.089L130.344 121.386Z" stroke="black" stroke-linecap="square" stroke-linejoin="round"/>
<path d="M123.439 127.909V138.931L110.401 137.664V126.698L123.439 127.909Z" stroke="black" stroke-linecap="square" stroke-linejoin="round"/>
<path d="M130.342 121.387V132.416L123.438 138.93V127.909L130.342 121.387Z" stroke="black" stroke-linecap="square" stroke-linejoin="round"/>
<path d="M127.182 114.234L122.43 118.722L113.453 117.889L118.209 113.399L127.182 114.234Z" stroke="black" stroke-linecap="square" stroke-linejoin="round"/>
<path d="M122.43 120.37V118.722L113.453 117.889V124.817" stroke="black" stroke-linecap="square" stroke-linejoin="round"/>
<path d="M127.181 114.234V121.827L122.43 126.315V118.722L127.181 114.234Z" stroke="black" stroke-linecap="square" stroke-linejoin="round"/>
<path d="M127.314 116.907L127.519 116.715L137.001 117.597L131.978 122.346L130.57 122.213" stroke="black" stroke-linecap="square" stroke-linejoin="round"/>
<path d="M130.487 122.204L131.978 122.346V130.363L130.344 130.205" stroke="black" stroke-linecap="square" stroke-linejoin="round"/>
<path d="M136.999 117.597V125.622L131.977 130.363V122.342L136.999 117.597Z" stroke="black" stroke-linecap="square" stroke-linejoin="round"/>
<path d="M117.975 99.9041L113.94 103.717L106.318 103.008L110.358 99.1948L117.975 99.9041Z" stroke="black" stroke-linecap="square" stroke-linejoin="round"/>
<path d="M106.317 108.518V109.421L113.939 110.162V103.719L106.803 103.054L106.317 103.01V103.569V104.148" stroke="black" stroke-linecap="square" stroke-linejoin="round"/>
<path d="M117.975 99.9048V106.352L113.94 110.16V103.718L117.975 99.9048Z" stroke="black" stroke-linecap="square" stroke-linejoin="round"/>
<path d="M78.9873 72.2783C79.6802 73.2066 80.896 73.3913 81.7021 72.7521" stroke="black" stroke-miterlimit="10"/>
<path d="M90.0028 63.0273C89.7042 63.7702 89.1794 64.4002 88.503 64.8281C87.8264 65.2559 87.0322 65.46 86.2331 65.4113C86.2155 65.0847 86.1188 64.7672 85.9515 64.486C85.2348 63.3178 84.5613 65.2027 81.9657 63.3804C78.3704 60.8474 76.7239 61.7414 76.7239 61.7414C76.5749 61.8189 76.4572 62.7159 76.417 62.8723C76.1711 63.7812 75.9268 64.6857 75.672 65.5931C75.523 66.1473 75.374 66.6972 75.225 67.247C75.1867 67.1452 75.1424 67.0457 75.0924 66.949C74.9285 65.6393 74.5247 64.0628 73.0585 64.492C72.7614 64.5845 72.4902 64.7457 72.2673 64.9628C71.1811 66.0147 71.6937 67.2678 72.5102 68.2617C72.707 68.5617 72.9359 68.8395 73.1926 69.0901C72.9885 69.3881 72.1571 70.5801 72.1571 70.5801C72.0707 70.6993 70.2305 67.8445 70.1053 67.5435C69.9605 66.8341 69.9358 66.1052 70.0323 65.3874C70.4451 62.4372 72.1645 59.1935 74.8003 57.8689C75.4559 57.5411 75.3278 57.109 75.453 56.5458C75.4568 56.513 75.4714 56.4823 75.4947 56.4588C75.5178 56.4351 75.5482 56.4199 75.5809 56.4154C75.6137 56.4109 75.6471 56.4177 75.6757 56.4342C75.7043 56.4509 75.7265 56.4765 75.739 56.507C76.3648 57.4636 78.2244 57.6633 78.2244 57.6633C84.609 57.0211 86.5922 60.2157 87.8289 60.9189C88.3279 61.195 88.9057 61.2932 89.4679 61.1976C89.4716 61.3795 89.5253 61.557 89.623 61.7104C89.7207 61.8639 89.8589 61.9876 90.0222 62.0677L89.9447 62.3657C89.8885 62.5865 89.9089 62.8197 90.0028 63.0273Z" fill="#ED9107"/>
<path d="M86.229 65.4116C87.0267 65.4602 87.8195 65.2569 88.4954 64.8305C89.1713 64.4041 89.696 63.7759 89.9957 63.035C90.1125 62.7518 90.2034 62.4586 90.2669 62.1589L90.2192 62.1455C90.1506 62.1288 90.0845 62.1032 90.0225 62.0695C89.8592 61.9892 89.7211 61.8655 89.6233 61.7121C89.5256 61.5586 89.472 61.3813 89.4682 61.1994C89.4633 61.0989 89.4745 60.9984 89.501 60.9014L89.8869 59.474C89.8869 59.474 88.5951 60.1593 87.3837 59.459C86.1723 58.7587 84.4439 55.5731 77.7792 56.2034C77.7792 56.2034 76.3145 56.0678 75.6932 55.0934C75.6802 55.0634 75.6577 55.0385 75.6293 55.0224C75.6008 55.0065 75.5679 55.0004 75.5355 55.0048C75.5032 55.0095 75.4733 55.0245 75.4503 55.0478C75.4274 55.071 75.4128 55.1011 75.4086 55.1336C75.2834 55.6968 75.0093 56.0663 74.3552 56.3941C71.7134 57.7202 69.9924 60.9639 69.5872 63.9127C69.4347 65.1438 69.6126 66.3935 70.1027 67.5334C70.2279 67.8314 72.068 70.6892 72.1544 70.57C72.1544 70.57 72.9858 69.378 73.19 69.08L73.2391 69.0144L73.1751 68.9563C72.937 68.7367 72.7139 68.5013 72.5076 68.2515C71.691 67.2577 71.1785 66.0046 72.2647 64.9527C72.4876 64.7356 72.7588 64.5742 73.0559 64.4818C74.522 64.0527 74.9258 65.6291 75.0897 66.9389C75.1213 67.1889 75.1258 67.4417 75.1031 67.6928L75.2223 67.2458C75.3713 66.696 75.5203 66.1462 75.6693 65.5919C75.9182 64.6845 76.1625 63.78 76.4143 62.8711C76.4546 62.7147 76.5782 61.8177 76.7213 61.7402C76.7213 61.7402 78.3677 60.8552 81.9631 63.3792C84.5587 65.2015 85.2322 63.3167 85.9489 64.4848C86.1163 64.7658 86.2129 65.0834 86.2305 65.4101C86.2342 65.515 86.2312 65.62 86.2215 65.7245C86.2238 65.7384 86.2238 65.7524 86.2215 65.7662C86.2007 65.9942 86.1709 66.2222 86.1411 66.4442C85.8431 68.5868 85.262 70.7845 84.1191 72.6426C82.7334 74.894 79.67 76.8578 77.0327 75.3067C76.2117 74.8224 75.5084 74.1341 74.8796 73.4218" stroke="black" stroke-miterlimit="10"/>
<path d="M84.2908 69.9923C84.4555 69.6716 84.374 69.3014 84.1091 69.1655C83.844 69.0295 83.4958 69.1791 83.3311 69.4997C83.1666 69.8203 83.248 70.1906 83.5131 70.3267C83.778 70.4627 84.1263 70.3129 84.2908 69.9923Z" fill="black"/>
<path d="M80.1337 69.2223C80.2982 68.9016 80.2168 68.5315 79.9518 68.3955C79.6868 68.2594 79.3385 68.409 79.174 68.7297C79.0093 69.0503 79.0908 69.4206 79.3558 69.5566C79.6208 69.6927 79.969 69.5429 80.1337 69.2223Z" fill="black"/>
<path d="M80.8408 70.5231C80.8408 70.5231 82.1118 71.5244 82.3204 70.7183C82.3859 70.4694 83.1026 68.0497 83.1026 68.0497C83.1026 68.0497 84.4079 67.0305 85.9962 68.1719" stroke="black" stroke-miterlimit="10"/>
<path d="M81.6804 67.1232C81.6804 67.1232 79.6063 65.66 77.8779 67.0517" stroke="black" stroke-miterlimit="10"/>
<path d="M71.617 69.8916L70.5412 73.3603L69.312 73.1294C68.5387 74.4197 69.5355 78.5902 70.8541 79.9834C74.6164 83.9706 76.9303 79.368 76.9303 79.368L77.4802 77.8989L78.2773 75.7741" stroke="black" stroke-miterlimit="10"/>
<path d="M104.203 59.2632C104.484 59.515 104.708 59.8228 104.862 60.1667C105.016 60.5106 105.096 60.883 105.097 61.2598V61.6859C105.098 61.9872 105.163 62.2849 105.285 62.5598C105.409 62.8347 105.588 63.081 105.811 63.2826C106.035 63.4842 106.299 63.6368 106.585 63.7305C106.871 63.8244 107.174 63.8572 107.474 63.8271C108.587 63.7138 109.4 62.7021 109.4 61.5772V61.2583C109.399 60.8843 109.477 60.5143 109.627 60.1721C109.778 59.8297 109.999 59.5227 110.275 59.2706" stroke="#CCDDE2" stroke-linejoin="round"/>
<path d="M104.203 59.2632C104.484 59.515 104.708 59.8228 104.862 60.1667C105.016 60.5106 105.096 60.883 105.097 61.2598V61.6859C105.098 61.9872 105.163 62.2849 105.285 62.5598C105.409 62.8347 105.588 63.081 105.811 63.2826C106.035 63.4842 106.299 63.6368 106.585 63.7305C106.871 63.8244 107.174 63.8572 107.474 63.8271C108.587 63.7138 109.4 62.7021 109.4 61.5772V61.2583C109.399 60.8843 109.477 60.5143 109.627 60.1721C109.778 59.8297 109.999 59.5227 110.275 59.2706" stroke="#CCDDE2" stroke-linejoin="round"/>
<path d="M104.203 59.2634C104.061 59.1391 103.906 59.0293 103.741 58.9356C102.481 58.2124 101.476 57.1168 100.864 55.7993C100.251 54.482 100.061 53.0072 100.32 51.5775C100.578 50.1479 101.273 48.8334 102.309 47.8143C103.344 46.7952 104.67 46.1216 106.104 45.8857C107.537 45.65 109.009 45.8637 110.316 46.4974C111.623 47.1311 112.703 48.154 113.406 49.4254C114.109 50.697 114.401 52.1548 114.243 53.599C114.084 55.0433 113.483 56.4031 112.521 57.4918C112.505 57.5063 112.492 57.5222 112.48 57.5395C111.972 58.0978 111.379 58.573 110.724 58.9475C110.562 59.0374 110.412 59.1465 110.277 59.2724" stroke="#CCDDE2" stroke-linejoin="round"/>
<path d="M106.495 58.8048C106.041 57.9793 105.275 56.8857 104.735 56.1064C104.149 55.2799 103.67 54.3822 103.309 53.4348C103.262 53.3326 103.243 53.2191 103.256 53.107C103.263 53.0515 103.292 53.0008 103.336 52.9658C103.38 52.9309 103.435 52.9142 103.491 52.9193C103.591 52.9387 103.64 53.043 103.692 53.1339C103.907 53.5595 104.212 53.9329 104.586 54.2275C104.796 54.3899 105.094 54.5255 105.313 54.3765C105.38 54.3183 105.433 54.2466 105.47 54.1661C105.507 54.0858 105.526 53.9985 105.527 53.9101C105.592 53.2827 105.428 52.6526 105.065 52.137C104.916 51.9344 104.656 51.7377 104.446 51.8703C104.236 52.0029 104.297 52.3307 104.422 52.5513C104.645 52.96 104.948 53.3192 105.314 53.6068C105.68 53.8945 106.1 54.1047 106.55 54.2245C106.771 54.2984 107.009 54.301 107.231 54.232C107.354 54.1758 107.462 54.0904 107.545 53.9832C107.628 53.8759 107.683 53.7501 107.706 53.6166C107.751 53.3484 107.728 53.0735 107.639 52.8165C107.517 52.4157 107.28 52.0059 106.882 51.8718C106.758 51.8234 106.62 51.8234 106.495 51.8718C106.412 51.9161 106.344 51.9828 106.297 52.0642C106.251 52.1455 106.228 52.2385 106.231 52.3322C106.241 52.5198 106.298 52.7019 106.398 52.8612C106.629 53.2641 106.954 53.605 107.346 53.8547C107.738 54.1043 108.184 54.2552 108.647 54.2946C108.956 54.3385 109.27 54.2634 109.526 54.0845C109.632 53.9855 109.718 53.8663 109.778 53.7337C109.839 53.6013 109.872 53.4581 109.876 53.3127C109.91 52.8765 109.787 52.4426 109.529 52.0894C109.477 52.0193 109.398 51.9404 109.313 51.9687C109.228 51.997 109.204 52.0923 109.193 52.1773C109.155 52.511 109.183 52.8491 109.276 53.172C109.369 53.4947 109.525 53.7959 109.736 54.0577C109.968 54.3422 110.321 54.5896 110.679 54.5047C110.814 54.4634 110.936 54.386 111.03 54.281C111.125 54.1761 111.19 54.0474 111.217 53.9087C111.268 53.6305 111.241 53.3433 111.136 53.0802C111.008 53.1589 110.899 53.2642 110.815 53.3892C110.731 53.5143 110.676 53.6558 110.652 53.8044C110.587 54.1024 110.591 54.4004 110.54 54.6984C110.26 56.3701 108.419 57.1166 108.061 58.7214" stroke="#CCDDE2" stroke-linejoin="round"/>
<path d="M107.24 43.2727L107.17 39.0381" stroke="#CCDDE2" stroke-linejoin="round"/>
<path d="M99.1623 47.2127L96.2314 44.1567" stroke="#CCDDE2" stroke-linejoin="round"/>
<path d="M115.345 47.4031L118.341 44.4097" stroke="#CCDDE2" stroke-linejoin="round"/>
<path d="M116.946 87.4092C117.793 87.4092 118.481 86.7222 118.481 85.8745C118.481 85.027 117.793 84.3398 116.946 84.3398C116.098 84.3398 115.411 85.027 115.411 85.8745C115.411 86.7222 116.098 87.4092 116.946 87.4092Z" fill="#ED9107"/>
</svg>
