<svg width="149" height="149" viewBox="0 0 149 149" fill="none" xmlns="http://www.w3.org/2000/svg">
<path d="M65.2039 30.962C65.1966 30.949 65.1901 30.9355 65.1846 30.9218L65.1935 30.9128C65.1981 30.9289 65.2017 30.9453 65.2039 30.962Z" fill="#ED9107"/>
<path d="M65.2398 31.1409C65.2259 31.0922 65.2159 31.0423 65.21 30.9919C65.2342 31.0377 65.2445 31.0894 65.2398 31.1409Z" fill="#ED9107"/>
<path d="M71.933 82.446C71.8957 82.531 71.8644 82.6144 71.8272 82.7023C69.0767 89.3999 67.1575 97.4131 66.712 107.003C59.0758 88.2973 46.4078 79.2425 35.124 74.8947C35.3267 68.6442 36.1953 57.7746 39.743 51.0964C39.743 51.0964 45.7507 52.5015 53.3125 58.4257C59.2784 63.0999 66.2203 70.5961 71.933 82.446Z" fill="#ED9107"/>
<path d="M73.0595 82.345L72.8018 82.2869C72.839 82.1975 72.8718 82.1125 72.9075 82.0261C72.9582 82.1304 73.0104 82.2481 73.0595 82.345Z" fill="#ED9107"/>
<path d="M73.0595 82.345L72.8018 82.2869C72.839 82.1975 72.8718 82.1125 72.9075 82.0261C72.9582 82.1304 73.0104 82.2481 73.0595 82.345Z" fill="#ED9107"/>
<path d="M68.1213 125.28C68.0483 125.28 67.9723 125.28 67.9008 125.28C39.409 125.28 15.8074 103.689 11.5788 75.4801C11.2942 73.0723 11.251 71.6344 11.251 71.6344C11.251 71.6344 21.532 70.5914 33.452 75.2834C44.0236 79.445 55.8869 88.1095 63.0374 106.007V106.021C63.0807 106.128 63.1239 106.234 63.1626 106.345C65.2993 111.762 67.0009 118.018 68.1124 125.24C68.1169 125.254 68.1213 125.267 68.1213 125.28Z" fill="#ED9107"/>
<path d="M134.446 72.4988C131.724 104.449 105.805 129.536 74.2021 129.664C74.22 128.213 74.6745 111.812 84.574 96.9437C88.9989 90.2341 94.9434 84.6622 101.925 80.6804C102.123 80.5656 102.315 80.4569 102.521 80.3481C102.764 80.2095 103.013 80.0769 103.266 79.9443C103.33 79.9071 103.399 79.8728 103.469 79.8355C103.712 79.7074 103.954 79.5793 104.203 79.4556C104.331 79.39 104.46 79.323 104.594 79.2619C104.859 79.1248 105.13 78.9907 105.401 78.8626C105.672 78.7344 105.911 78.6212 106.169 78.5035L106.26 78.4603C106.453 78.3694 106.645 78.2845 106.842 78.1995C107.086 78.0848 107.329 77.9805 107.577 77.8762C108.298 77.5633 109.041 77.2653 109.8 76.9822L110.062 76.8824C110.382 76.7587 110.704 76.641 111.03 76.5262C117.586 74.2018 125.327 72.7253 134.446 72.4988Z" fill="#ED9107"/>
<path d="M91.4337 57.6763C84.9775 62.5665 77.7048 70.2742 72.907 82.0259C67.1988 69.942 60.2763 62.2953 54.3223 57.5288C57.8387 50.9728 65.8087 37.6477 73.059 31.415C73.059 31.415 84.0359 42.2578 91.4337 57.6763Z" fill="#ED9107"/>
<path d="M110.379 75.2793C110.061 75.391 109.745 75.5072 109.429 75.6279L109.173 75.7263C108.428 76.0049 107.7 76.2984 106.993 76.6054C106.75 76.7082 106.511 76.8095 106.273 76.9212C106.079 77.0062 105.89 77.0896 105.701 77.1775L105.61 77.2192C105.358 77.3355 105.106 77.4517 104.865 77.5739C104.624 77.696 104.333 77.8286 104.071 77.9642C103.941 78.0238 103.814 78.0894 103.689 78.155C103.445 78.2756 103.207 78.4008 102.968 78.5275C102.901 78.5647 102.833 78.596 102.77 78.6333C102.527 78.7644 102.284 78.894 102.044 79.0296C101.846 79.1369 101.657 79.2427 101.463 79.3544C94.612 83.26 88.7779 88.7256 84.4341 95.3078C74.7252 109.892 74.2782 125.981 74.2603 127.404L74.238 127.362C73.0758 119.811 71.2982 113.27 69.0632 107.608L69.239 107.031L68.9336 107.268C68.9336 107.268 68.9336 107.268 68.9336 107.259C69.3702 97.6665 71.2476 89.6458 73.9415 82.9513L74.1933 83.0064L74.0443 82.695C78.7512 71.1669 85.8853 63.6066 92.2223 58.8103C99.6857 53.1632 106.048 51.335 106.048 51.335C109.442 55.5308 110.217 68.3657 110.379 75.2793Z" fill="#ED9107"/>
<path d="M67.3984 108.673V108.658C67.3984 108.658 67.3984 108.667 67.3984 108.673Z" stroke="#F2E3CC" stroke-width="2" stroke-miterlimit="10"/>
<path d="M72.9062 82.1719C72.8675 82.2627 72.8332 82.3521 72.7945 82.4475C69.8905 89.668 67.8656 98.3175 67.3932 108.663C59.3323 88.4835 45.9566 78.7136 34.0381 74.0245C34.2512 67.2808 35.169 55.556 38.9178 48.3503C38.9178 48.3503 45.2608 49.8657 53.2457 56.2578C59.5454 61.2999 66.8747 69.3877 72.9062 82.1719Z" stroke="#F2E3CC" stroke-width="2" stroke-miterlimit="10"/>
<path d="M73.0666 82.5084L72.7939 82.4473C72.8327 82.3519 72.867 82.2625 72.9057 82.1716C72.9593 82.2819 73.01 82.3966 73.0666 82.5084Z" stroke="#F2E3CC" stroke-width="2" stroke-miterlimit="10"/>
<path d="M67.3984 108.673V108.658C67.3984 108.658 67.3984 108.667 67.3984 108.673Z" stroke="#F2E3CC" stroke-width="2" stroke-miterlimit="10"/>
<path d="M73.0666 82.5084L72.7939 82.4473C72.8327 82.3519 72.867 82.2625 72.9057 82.1716C72.9593 82.2819 73.01 82.3966 73.0666 82.5084Z" stroke="#F2E3CC" stroke-width="2" stroke-miterlimit="10"/>
<path opacity="0.9" d="M23.7676 106.555C23.2416 105.913 22.7246 105.256 22.2269 104.589C15.5278 95.6762 11.1148 85.2576 9.37419 74.2448C8.9406 71.5464 9.00765 69.9103 9.00765 69.9103C9.00765 69.9103 20.5924 68.7362 34.0397 74.0242C45.9597 78.7148 59.3309 88.4772 67.3933 108.662V108.679C67.4425 108.799 67.4931 108.92 67.5334 109.045C69.9472 115.154 71.8633 122.205 73.1179 130.352C73.1179 130.367 73.1179 130.382 73.1179 130.398C73.033 130.398 72.9525 130.398 72.8676 130.398C56.2436 130.375 41.0829 123.744 29.6516 112.912C28.4596 111.784 27.2989 110.605 26.1903 109.385" stroke="#F2E3CC" stroke-width="2" stroke-miterlimit="10"/>
<path d="M67.3984 108.673V108.658C67.3984 108.658 67.3984 108.667 67.3984 108.673Z" stroke="#F2E3CC" stroke-width="2" stroke-miterlimit="10"/>
<path opacity="0.9" d="M136.875 69.9153C133.995 103.716 106.579 130.251 73.1445 130.387C73.1639 128.852 73.6452 111.503 84.1154 95.7727C88.798 88.6754 95.0875 82.7816 102.474 78.5692C102.684 78.4485 102.888 78.3338 103.101 78.2191C103.359 78.0701 103.621 77.933 103.883 77.7914C103.95 77.7512 104.023 77.7169 104.096 77.6767C104.354 77.5411 104.612 77.4055 104.874 77.2759C105.01 77.2044 105.145 77.1269 105.287 77.0688C105.568 76.9198 105.855 76.7842 106.142 76.6486C106.43 76.513 106.68 76.3923 106.953 76.2671L107.049 76.221C107.254 76.1256 107.458 76.0362 107.666 75.9453C107.924 75.8246 108.18 75.7144 108.443 75.6041C109.206 75.2733 109.992 74.9574 110.794 74.6565L111.071 74.5507C111.411 74.421 111.75 74.2944 112.096 74.1752C119.041 71.7107 127.23 70.1552 136.875 69.9153Z" stroke="#F2E3CC" stroke-width="2" stroke-miterlimit="10"/>
<path d="M92.5036 56.4146C85.675 61.5864 77.9806 69.7397 72.9057 82.1722C66.8741 69.388 59.5448 61.3003 53.2451 56.2581C56.9701 49.3192 65.3976 35.2268 73.0621 28.6335C73.0666 28.6335 84.6692 40.1036 92.5036 56.4146Z" stroke="#F2E3CC" stroke-width="2" stroke-miterlimit="10"/>
<path d="M28.2 93.3394C28.2015 93.3296 28.2015 93.3195 28.2 93.3096C28.2 93.2992 28.2 93.2888 28.2 93.2694C28.1976 93.2526 28.1976 93.2356 28.2 93.2188C28.2042 93.2545 28.2112 93.2898 28.2209 93.3245C28.2187 93.3284 28.2157 93.3317 28.2121 93.3342C28.2084 93.3368 28.2044 93.3385 28.2 93.3394Z" fill="white"/>
<path d="M28.2548 102.972C28.0249 103.714 27.7312 104.434 27.3772 105.125C27.2758 105.32 27.176 105.511 27.0657 105.702C26.6894 106.408 26.2275 107.066 25.6905 107.66C25.5951 107.628 25.4998 107.588 25.4148 107.554C25.3955 107.554 25.3791 107.539 25.3642 107.533C23.6283 106.776 22.3246 105.356 21.9372 103.76C21.5915 102.355 21.9029 100.836 21.2354 99.5169C20.4129 97.8928 18.1958 96.8766 17.9186 95.0409C17.6683 93.3244 19.2134 91.7495 18.9616 90.0688C18.6756 88.166 16.3377 87.0381 15.9056 85.1816C15.63 84.0283 15.8758 82.6977 15.776 81.5087C15.6607 80.1796 15.4354 78.8625 15.1025 77.5707C15.2635 77.5602 15.4244 77.5557 15.5853 77.5498C18.8633 77.4947 22.107 79.3378 23.1709 81.9349C24.0291 84.0328 23.5926 86.4555 24.7309 88.4223C24.7999 88.5494 24.8769 88.6719 24.9619 88.7889C25.1112 88.9963 25.2719 89.1952 25.4431 89.3849L25.8052 89.7618C25.8648 89.8214 25.9304 89.8766 25.99 89.9421C26.0496 90.0077 26.1151 90.0628 26.1762 90.1284C26.7424 90.6692 27.3205 91.2161 27.696 91.8642C27.7307 91.9204 27.761 91.9792 27.7869 92.04C27.8221 92.0989 27.8519 92.1607 27.8763 92.2248C27.9086 92.2902 27.9375 92.3574 27.9627 92.426C27.9925 92.5005 28.0179 92.575 28.0417 92.6569C28.0775 92.7776 28.1132 92.8923 28.1371 93.013C28.1371 93.0428 28.1371 93.0681 28.1475 93.0935C28.1579 93.1188 28.1475 93.1128 28.1475 93.1233C28.1497 93.1331 28.1497 93.1432 28.1475 93.1531C28.1496 93.1702 28.1532 93.1872 28.1579 93.2037V93.2142C28.1585 93.2328 28.1615 93.2514 28.1669 93.2693C28.1669 93.2887 28.1669 93.2991 28.1669 93.3095C28.1683 93.3194 28.1683 93.3295 28.1669 93.3393V93.3497L27.7809 98.9492C28.0283 100.304 28.6466 101.654 28.2548 102.972Z" fill="white"/>
<path d="M31.1696 89.3804C31.4214 88.1661 31.4408 86.8921 32.0129 85.7329C33.0768 83.5962 36.1849 82.0451 39.4436 81.9453H39.5032C39.8012 81.9453 40.0992 81.9453 40.3972 81.9602C40.06 83.071 39.8301 84.2116 39.7103 85.3664C39.6 86.3945 39.8593 87.5447 39.5747 88.5326C39.1173 90.1373 36.6841 91.1118 36.3891 92.7523C36.1268 94.2065 37.7375 95.5669 37.4723 97.0465C37.1862 98.6318 34.8782 99.5094 34.0259 100.92C33.3376 102.06 33.6594 103.369 33.3033 104.578C32.8861 105.958 31.5153 107.187 29.7109 107.834C29.5947 107.874 29.4904 107.915 29.3742 107.95C29.3131 107.965 29.243 107.991 29.1834 108.005C29.1626 107.991 29.1432 107.97 29.1179 107.95C28.5353 107.454 27.8827 106.617 27.3418 105.715L27.382 105.143C27.7361 104.452 28.0297 103.732 28.2596 102.99C28.6515 101.671 28.0332 100.321 27.8126 98.9671L28.1985 93.3677L28.3192 93.2678C28.3633 93.2353 28.4051 93.2 28.4444 93.162C29.0404 92.6808 29.6841 92.2189 30.1445 91.672C30.7166 91 30.9834 90.2625 31.1532 89.4892" fill="white"/>
<path d="M31.1543 89.4611C31.1543 89.4358 31.1647 89.4119 31.1692 89.3806L31.1543 89.4611Z" fill="white"/>
<path d="M31.1694 89.3764C31.1694 89.4077 31.159 89.4315 31.1545 89.4569C30.9847 90.2302 30.7179 90.9677 30.1458 91.6397C29.6854 92.1866 29.0432 92.6484 28.4457 93.1297C28.4065 93.1677 28.3646 93.203 28.3205 93.2355L28.1998 93.3398C28.2019 93.3334 28.2019 93.3267 28.1998 93.3204C28.1952 93.3032 28.1899 93.2863 28.1835 93.2698C28.1811 93.2529 28.1811 93.2358 28.1835 93.2191V93.2087C28.1787 93.192 28.1753 93.1752 28.173 93.158C28.1753 93.1482 28.1753 93.1379 28.173 93.1282C28.1753 93.1235 28.1765 93.1184 28.1765 93.1133C28.1765 93.1081 28.1753 93.1031 28.173 93.0984C28.1693 93.0712 28.1638 93.0443 28.1566 93.018C28.1328 92.8973 28.097 92.7826 28.0613 92.6619C28.0374 92.5859 28.0121 92.5054 27.9823 92.4309C27.9571 92.3624 27.9282 92.2952 27.8959 92.2298C27.8747 92.1644 27.8446 92.1021 27.8065 92.045C27.7807 91.9842 27.7503 91.9254 27.7156 91.8692C27.3401 91.221 26.762 90.6772 26.1958 90.1333C26.1347 90.0678 26.0706 90.0022 26.0095 89.9471C25.9485 89.892 25.8844 89.8264 25.8248 89.7668L25.4627 89.3898C25.2915 89.2001 25.1309 89.0011 24.9814 88.7938C24.9814 88.7938 25.3152 82.9932 28.2803 81.238C31.08 79.5662 31.1694 88.3975 31.1694 89.3764Z" fill="white"/>
<path d="M31.1543 89.4611C31.1543 89.4358 31.1647 89.4119 31.1692 89.3806L31.1543 89.4611Z" fill="white"/>
<path d="M28.1951 93.32V93.3438C28.1966 93.334 28.1966 93.3239 28.1951 93.314C28.1951 93.3036 28.1951 93.2932 28.1951 93.2738C28.1928 93.257 28.1928 93.24 28.1951 93.2231C28.1929 93.2555 28.1929 93.2878 28.1951 93.32Z" fill="white"/>
<path d="M38.2309 83.802C32.8863 89.5534 30.3742 101.682 29.3952 107.94C29.3148 108.469 29.2462 108.952 29.1807 109.387" fill="white"/>
<path d="M38.7242 112.91L36.2657 127.417C36.2074 127.813 36.0111 128.176 35.7113 128.442C35.4113 128.708 35.0272 128.858 34.6267 128.868H21.774C21.3702 128.858 20.9832 128.704 20.6827 128.434C20.3823 128.164 20.188 127.795 20.135 127.395L17.8672 112.91H38.7242Z" fill="white"/>
<path d="M41.0582 111.293C41.0359 111.722 40.8522 112.128 40.5439 112.428C40.2356 112.728 39.8254 112.9 39.3954 112.911H17.2287C16.8028 112.901 16.3964 112.732 16.089 112.437C15.7814 112.142 15.5955 111.743 15.5673 111.318C15.4735 110.284 16.2438 109.381 17.2287 109.381H39.3954C40.3699 109.389 41.1372 110.26 41.0582 111.293Z" fill="white"/>
<path d="M28.2107 93.35C28.2104 93.3175 28.2049 93.2853 28.1943 93.2546L28.2107 93.35Z" fill="white"/>
<path d="M17.2266 79.7014C22.3566 86.3647 24.7704 100.412 25.7196 107.664C25.8 108.293 25.8686 108.87 25.9297 109.385" fill="white"/>
<path d="M28.6622 86.782C28.02 88.7592 27.9887 90.7558 28.0662 92.0208C28.0868 92.4291 28.13 92.836 28.1959 93.2396" fill="white"/>
<path d="M28.2 93.3394C28.2015 93.3296 28.2015 93.3195 28.2 93.3096C28.2 93.2992 28.2 93.2888 28.2 93.2694C28.1976 93.2526 28.1976 93.2356 28.2 93.2188C28.2042 93.2545 28.2112 93.2898 28.2209 93.3245C28.2187 93.3284 28.2157 93.3317 28.2121 93.3342C28.2084 93.3368 28.2044 93.3385 28.2 93.3394Z" stroke="#F2E3CC" stroke-width="2" stroke-miterlimit="10"/>
<path d="M28.2548 102.972C28.0249 103.714 27.7312 104.434 27.3772 105.125C27.2758 105.32 27.176 105.511 27.0657 105.702C26.6894 106.408 26.2275 107.066 25.6905 107.66C25.5951 107.628 25.4998 107.588 25.4148 107.554C25.3955 107.554 25.3791 107.539 25.3642 107.533C23.6283 106.776 22.3246 105.356 21.9372 103.76C21.5915 102.355 21.9029 100.836 21.2354 99.5169C20.4129 97.8928 18.1958 96.8766 17.9186 95.0409C17.6683 93.3244 19.2134 91.7495 18.9616 90.0688C18.6756 88.166 16.3377 87.0381 15.9056 85.1816C15.63 84.0283 15.8758 82.6977 15.776 81.5087C15.6607 80.1796 15.4354 78.8625 15.1025 77.5707C15.2635 77.5602 15.4244 77.5557 15.5853 77.5498C18.8633 77.4947 22.107 79.3378 23.1709 81.9349C24.0291 84.0328 23.5926 86.4555 24.7309 88.4223C24.7999 88.5494 24.8769 88.6719 24.9619 88.7889C25.1112 88.9963 25.2719 89.1952 25.4431 89.3849L25.8052 89.7618C25.8648 89.8214 25.9304 89.8766 25.99 89.9421C26.0496 90.0077 26.1151 90.0628 26.1762 90.1284C26.7424 90.6692 27.3205 91.2161 27.696 91.8642C27.7307 91.9204 27.761 91.9792 27.7869 92.04C27.8221 92.0989 27.8519 92.1607 27.8763 92.2248C27.9086 92.2902 27.9375 92.3574 27.9627 92.426C27.9925 92.5005 28.0179 92.575 28.0417 92.6569C28.0775 92.7776 28.1132 92.8923 28.1371 93.013C28.1371 93.0428 28.1371 93.0681 28.1475 93.0935C28.1579 93.1188 28.1475 93.1128 28.1475 93.1233C28.1497 93.1331 28.1497 93.1432 28.1475 93.1531C28.1496 93.1702 28.1532 93.1872 28.1579 93.2037V93.2142C28.1585 93.2328 28.1615 93.2514 28.1669 93.2693C28.1669 93.2887 28.1669 93.2991 28.1669 93.3095C28.1683 93.3194 28.1683 93.3295 28.1669 93.3393V93.3497L27.7809 98.9492C28.0283 100.304 28.6466 101.654 28.2548 102.972Z" stroke="#F2E3CC" stroke-width="2" stroke-miterlimit="10"/>
<path d="M31.1696 89.3804C31.4214 88.1661 31.4408 86.8921 32.0129 85.7329C33.0768 83.5962 36.1849 82.0451 39.4436 81.9453H39.5032C39.8012 81.9453 40.0992 81.9453 40.3972 81.9602C40.06 83.071 39.8301 84.2116 39.7103 85.3664C39.6 86.3945 39.8593 87.5447 39.5747 88.5326C39.1173 90.1373 36.6841 91.1118 36.3891 92.7523C36.1268 94.2065 37.7375 95.5669 37.4723 97.0465C37.1862 98.6318 34.8782 99.5094 34.0259 100.92C33.3376 102.06 33.6594 103.369 33.3033 104.578C32.8861 105.958 31.5153 107.187 29.7109 107.834C29.5947 107.874 29.4904 107.915 29.3742 107.95C29.3131 107.965 29.243 107.991 29.1834 108.005C29.1626 107.991 29.1432 107.97 29.1179 107.95C28.5353 107.454 27.8827 106.617 27.3418 105.715L27.382 105.143C27.7361 104.452 28.0297 103.732 28.2596 102.99C28.6515 101.671 28.0332 100.321 27.8126 98.9671L28.1985 93.3677L28.3192 93.2678C28.3633 93.2353 28.4051 93.2 28.4444 93.162C29.0404 92.6808 29.6841 92.2189 30.1445 91.672C30.7166 91 30.9834 90.2625 31.1532 89.4892" stroke="#F2E3CC" stroke-width="2" stroke-miterlimit="10"/>
<path d="M31.1543 89.4611C31.1543 89.4358 31.1647 89.4119 31.1692 89.3806" stroke="#F2E3CC" stroke-width="2" stroke-miterlimit="10"/>
<path d="M31.1694 89.3764C31.1694 89.4077 31.159 89.4315 31.1545 89.4569C30.9847 90.2302 30.7179 90.9677 30.1458 91.6397C29.6854 92.1866 29.0432 92.6485 28.4457 93.1297C28.4065 93.1677 28.3646 93.203 28.3205 93.2355L28.1998 93.3398C28.2019 93.3334 28.2019 93.3267 28.1998 93.3204C28.1952 93.3032 28.1899 93.2863 28.1835 93.2698C28.1811 93.2529 28.1811 93.2358 28.1835 93.2191V93.2087C28.1787 93.192 28.1753 93.1752 28.173 93.158C28.1753 93.1482 28.1753 93.1379 28.173 93.1282C28.1753 93.1235 28.1765 93.1184 28.1765 93.1133C28.1765 93.1081 28.1753 93.1031 28.173 93.0984C28.1693 93.0712 28.1638 93.0443 28.1566 93.018C28.1328 92.8973 28.097 92.7826 28.0613 92.6619C28.0374 92.5859 28.0121 92.5054 27.9823 92.4309C27.9571 92.3624 27.9282 92.2952 27.8959 92.2298C27.8747 92.1644 27.8446 92.1021 27.8065 92.045C27.7807 91.9842 27.7503 91.9254 27.7156 91.8692C27.3401 91.221 26.762 90.6772 26.1958 90.1333C26.1347 90.0678 26.0706 90.0022 26.0095 89.9471C25.9485 89.892 25.8844 89.8264 25.8248 89.7668L25.4627 89.3898C25.2915 89.2001 25.1309 89.0011 24.9814 88.7938C24.9814 88.7938 25.3152 82.9932 28.2803 81.238C31.08 79.5662 31.1694 88.3975 31.1694 89.3764Z" stroke="#F2E3CC" stroke-width="2" stroke-miterlimit="10"/>
<path d="M31.1543 89.4611C31.1543 89.4358 31.1647 89.4119 31.1692 89.3806" stroke="#F2E3CC" stroke-width="2" stroke-miterlimit="10"/>
<path d="M28.1951 93.32V93.3438C28.1966 93.334 28.1966 93.3239 28.1951 93.314C28.1951 93.3036 28.1951 93.2932 28.1951 93.2738C28.1928 93.257 28.1928 93.24 28.1951 93.2231C28.1929 93.2555 28.1929 93.2878 28.1951 93.32Z" stroke="#F2E3CC" stroke-width="2" stroke-miterlimit="10"/>
<path d="M38.2309 83.802C32.8863 89.5534 30.3742 101.682 29.3952 107.94C29.3148 108.469 29.2462 108.952 29.1807 109.387" stroke="#F2E3CC" stroke-width="2" stroke-miterlimit="10"/>
<path d="M38.7242 112.91L36.2657 127.417C36.2074 127.813 36.0111 128.176 35.7113 128.442C35.4113 128.708 35.0272 128.858 34.6267 128.868H21.774C21.3702 128.858 20.9832 128.704 20.6827 128.434C20.3823 128.164 20.188 127.795 20.135 127.395L17.8672 112.91H38.7242Z" stroke="#F2E3CC" stroke-width="2" stroke-miterlimit="10"/>
<path d="M41.0582 111.293C41.0359 111.722 40.8522 112.128 40.5439 112.428C40.2356 112.728 39.8254 112.9 39.3954 112.911H17.2287C16.8028 112.901 16.3964 112.732 16.089 112.437C15.7814 112.142 15.5955 111.743 15.5673 111.318C15.4735 110.284 16.2438 109.381 17.2287 109.381H39.3954C40.3699 109.389 41.1372 110.26 41.0582 111.293Z" stroke="#F2E3CC" stroke-width="2" stroke-miterlimit="10"/>
<path d="M28.2107 93.35C28.2104 93.3175 28.2049 93.2853 28.1943 93.2546L28.2107 93.35Z" stroke="#F2E3CC" stroke-width="2" stroke-miterlimit="10"/>
<path d="M17.2266 79.7014C22.3566 86.3647 24.7704 100.412 25.7196 107.664C25.8 108.293 25.8686 108.87 25.9297 109.385" stroke="#F2E3CC" stroke-width="2" stroke-miterlimit="10"/>
<path d="M28.6622 86.782C28.02 88.7592 27.9887 90.7558 28.0662 92.0208C28.0868 92.4291 28.13 92.836 28.1959 93.2396" stroke="#F2E3CC" stroke-width="2" stroke-miterlimit="10"/>
<path d="M112.095 74.1751C111.75 74.2943 111.41 74.4209 111.07 74.5506L110.793 74.6563C109.992 74.9543 109.205 75.2732 108.442 75.604C108.18 75.7142 107.923 75.8245 107.666 75.9452C107.457 76.0361 107.253 76.1255 107.049 76.2208L106.952 76.267C106.679 76.3922 106.408 76.5173 106.141 76.6485C105.875 76.7796 105.568 76.9241 105.286 77.0686C105.137 77.1342 105.009 77.2042 104.873 77.2758C104.611 77.4054 104.353 77.541 104.096 77.6766C104.023 77.7168 103.947 77.7511 103.883 77.7913C103.62 77.9329 103.358 78.0729 103.1 78.2189C102.887 78.3337 102.683 78.4484 102.473 78.5691C95.0868 82.7815 88.7974 88.6753 84.1148 95.7726C73.6445 111.503 73.1632 128.851 73.1439 130.387L73.1185 130.342C71.8655 122.199 69.9478 115.144 67.5385 109.035L67.7277 108.414L67.3984 108.67C67.3984 108.67 67.3984 108.67 67.3984 108.66C67.8708 98.3146 69.8957 89.6651 72.7997 82.4446L73.0724 82.5057C73.0187 82.3939 72.9651 82.2792 72.9114 82.1689C77.9864 69.7364 85.6807 61.5831 92.5094 56.4113C100.555 50.3202 107.42 48.3474 107.42 48.3474C111.085 52.877 111.92 66.7191 112.095 74.1751Z" stroke="#F2E3CC" stroke-width="2" stroke-miterlimit="10"/>
<path d="M112.583 127.693C111.514 127.478 110.467 127.222 109.442 126.924C105.237 125.695 100.353 123.597 98.6782 119.186C98.259 118.047 98.127 116.822 98.2936 115.619C98.46 114.416 98.9203 113.273 99.6332 112.291C100.389 111.243 101.451 110.455 102.673 110.036C105.332 109.176 108.275 110.516 110.248 112.498C112.221 114.479 113.49 117.03 115.035 119.361C113.638 116.232 112.219 113.012 112.027 109.591C111.878 106.924 112.602 104.031 114.441 102.027C116.133 100.183 120.091 98.7389 122.421 100.09C123.959 100.984 124.573 102.886 124.837 104.644C125.561 109.455 124.631 114.344 123.706 119.121C124.327 116.567 124.995 113.989 126.261 111.686C127.528 109.382 129.469 107.347 131.956 106.493C133.698 105.897 135.766 105.961 137.224 107.089C138.585 108.132 139.193 109.909 139.38 111.617C139.693 114.481 139.02 117.385 137.861 120.021C133.535 129.859 121.539 129.481 112.583 127.693Z" fill="white"/>
<path d="M122.343 122.822C122.343 122.822 129.011 124.674 131.365 115.406L122.343 122.822Z" fill="white"/>
<path d="M119.376 107.003C117.522 111.205 119.376 123.812 119.376 123.812V107.003Z" fill="white"/>
<path d="M113.197 122.536C112.918 122.488 110.244 122.114 107.964 121.067C106.198 120.256 104.668 119.04 104.668 117.261" fill="white"/>
<path d="M108.499 117.263C108.499 117.263 105.893 120.301 107.964 121.068L108.499 117.263Z" fill="white"/>
<path d="M106.77 123.832C107.141 123.317 109.07 124.351 110.331 121.917L106.77 123.832Z" fill="white"/>
<path d="M118.552 112.565C117.894 112.071 116.168 112.565 115.915 108.609L118.552 112.565Z" fill="white"/>
<path d="M118.84 116.272C118.84 116.272 121.724 115.229 121.724 112.972L118.84 116.272Z" fill="white"/>
<path d="M125.039 122.876C125.039 122.876 126.544 118.991 127.162 117.261L125.039 122.876Z" fill="white"/>
<path d="M129.712 119.164C129.712 119.164 131.364 120.474 133.342 118.373L129.712 119.164Z" fill="white"/>
<path d="M129.712 117.263C129.712 117.263 128.645 116.8 129.14 114.134L129.712 117.263Z" fill="white"/>
<path d="M112.583 127.693C111.504 127.544 110.466 127.223 109.442 126.924C105.237 125.695 100.353 123.597 98.6782 119.186C98.259 118.047 98.127 116.822 98.2936 115.619C98.46 114.416 98.9203 113.273 99.6332 112.291C100.389 111.243 101.451 110.455 102.673 110.036C105.332 109.176 108.275 110.516 110.248 112.498C112.221 114.479 113.49 117.03 115.035 119.361C113.638 116.232 112.219 113.012 112.027 109.591C111.878 106.924 112.602 104.031 114.441 102.027C116.133 100.183 120.091 98.7389 122.421 100.09C123.959 100.984 124.573 102.886 124.837 104.644C125.561 109.455 124.631 114.344 123.706 119.121C124.327 116.567 124.995 113.989 126.261 111.686C127.528 109.382 129.469 107.347 131.956 106.493C133.698 105.897 135.766 105.961 137.224 107.089C138.585 108.132 139.193 109.909 139.38 111.617C139.693 114.481 139.06 117.404 137.861 120.021C133.465 129.6 121.377 128.876 112.583 127.693Z" stroke="#F2E3CC" stroke-width="2" stroke-miterlimit="10"/>
<path d="M122.343 122.822C122.343 122.822 129.011 124.674 131.365 115.406" stroke="#F2E3CC" stroke-width="2" stroke-miterlimit="10"/>
<path d="M119.376 107.003C117.522 111.205 119.376 123.812 119.376 123.812" stroke="#F2E3CC" stroke-width="2" stroke-miterlimit="10"/>
<path d="M113.197 122.536C112.918 122.488 110.244 122.114 107.964 121.067C106.198 120.256 104.668 119.04 104.668 117.261" stroke="#F2E3CC" stroke-width="2" stroke-miterlimit="10"/>
<path d="M108.499 117.263C108.499 117.263 105.893 120.301 107.964 121.068" stroke="#F2E3CC" stroke-width="2" stroke-miterlimit="10"/>
<path d="M106.77 123.832C107.141 123.317 109.07 124.351 110.331 121.917" stroke="#F2E3CC" stroke-width="2" stroke-miterlimit="10"/>
<path d="M118.552 112.565C117.894 112.071 116.168 112.565 115.915 108.609" stroke="#F2E3CC" stroke-width="2" stroke-miterlimit="10"/>
<path d="M118.84 116.272C118.84 116.272 121.724 115.229 121.724 112.972" stroke="#F2E3CC" stroke-width="2" stroke-miterlimit="10"/>
<path d="M125.039 122.876C125.039 122.876 126.544 118.991 127.162 117.261" stroke="#F2E3CC" stroke-width="2" stroke-miterlimit="10"/>
<path d="M129.712 119.164C129.712 119.164 131.364 120.474 133.342 118.373" stroke="#F2E3CC" stroke-width="2" stroke-miterlimit="10"/>
<path d="M129.712 117.263C129.712 117.263 128.645 116.8 129.14 114.134" stroke="#F2E3CC" stroke-width="2" stroke-miterlimit="10"/>
<path d="M130.167 94.083C131.499 95.2309 132.688 96.5351 133.709 97.9674C135.584 100.532 136.646 103.601 136.754 106.776" stroke="#F2E3CC" stroke-width="2" stroke-miterlimit="10"/>
<path d="M83.6982 41.5532C86.3802 39.938 89.177 38.5032 92.151 37.49C99.5667 34.957 107.835 35.5187 113.71 41.0779C118.803 45.8921 121.21 53.0441 121.702 59.8981C121.702 59.9979 121.719 60.1037 121.723 60.2095C121.948 63.7408 121.763 67.6401 121.738 71.5424" stroke="#F2E3CC" stroke-width="2" stroke-miterlimit="10"/>
<path d="M25.2382 71.3262C25.9102 67.0365 25.0892 63.0015 24.6422 58.5867C23.4919 47.0839 27.1499 33.3207 40.4005 31.5998C47.6001 30.6611 53.4439 33.3505 58.3117 38.5089C59.4054 39.6666 60.4991 41.027 61.6568 42.3412" stroke="#F2E3CC" stroke-width="2" stroke-miterlimit="10"/>
<path d="M20.0703 109.315C20.0703 109.315 10.0351 104.896 11.0394 96.5921C11.3195 94.2483 12.4236 92.1519 13.8182 90.2253" stroke="#F2E3CC" stroke-width="2" stroke-miterlimit="10"/>
<path d="M110.707 114.852C110.325 114.577 109.928 114.316 109.515 114.068C105.393 111.629 99.7777 110.683 95.0693 110.4C94.7817 110.379 94.4986 110.364 94.2185 110.352C93.8473 110.336 93.4844 110.239 93.1546 110.068C92.813 109.895 92.5162 109.646 92.2875 109.339C92.0565 108.431 91.7789 107.536 91.456 106.657L90.7945 103.677C90.5477 102.815 90.3542 101.939 90.2149 101.053C89.5295 96.5727 89.0229 91.0045 88.8441 88.92C88.8655 88.9293 88.888 88.9357 88.9111 88.9394L90.9569 89.595C90.9643 89.5944 90.9718 89.5944 90.9792 89.595L91.7049 89.8081C94.518 90.6067 97.4697 91.2057 100.401 91.2697C103.163 91.3279 106.194 90.8749 108.554 89.3462C108.752 89.221 108.945 89.0869 109.132 88.9439C110.953 87.5731 112.218 85.4692 112.934 83.334C114.253 79.3848 114.538 75.1634 113.761 71.0728C113.541 69.9465 113.232 68.8394 112.836 67.762C111.793 64.8938 110.287 62.2058 108.993 59.418C108.695 58.7684 108.269 58.0874 108.217 57.3663C108.154 56.5066 108.596 55.6796 108.734 54.8437C108.896 53.8393 108.97 52.8228 108.958 51.8056C108.956 50.599 108.725 49.4037 108.277 48.2832C107.891 47.3416 107.205 45.7622 105.988 45.8203C105.598 44.5717 104.945 43.1264 103.796 42.9639C103.498 42.9182 103.194 42.9921 102.95 43.1696C102.866 43.0487 102.775 42.9328 102.677 42.8224C102.197 42.283 101.29 41.7973 100.561 42.0774C99.1161 42.6496 99.7777 44.6387 100.494 46.1481C100.125 46.0687 99.747 46.0436 99.3709 46.0736C98.5291 46.1481 97.5546 46.4878 97.2283 47.2984C97.051 47.7454 97.1136 48.5514 97.5665 48.8047C98.1417 49.1191 98.8479 48.9105 99.4231 49.2056C100.065 49.5363 100.317 50.4229 100.223 51.0934C100.205 51.3562 100.1 51.6056 99.9252 51.8026C98.909 52.8188 98.2117 50.0146 97.8258 49.5527C97.3013 48.9225 96.5325 49.0372 95.9856 49.5691C94.9054 50.6121 95.3747 52.713 95.8277 53.9736C96.3194 55.3533 96.9586 56.8046 97.9793 57.8788C99.6764 59.6594 99.8626 62.4978 100.311 64.7939C100.496 65.7431 100.673 66.7011 100.816 67.6577C101.099 69.5143 101.263 71.3827 101.114 73.2571C101.077 73.7716 100.933 74.2729 100.692 74.7293C100.452 75.1856 100.119 75.5872 99.716 75.909C99.3128 76.2309 98.8473 76.4659 98.3491 76.5992C97.8507 76.7326 97.3301 76.7615 96.82 76.6841C95.6057 76.4994 94.1842 76.2789 92.6704 76.0419C92.6704 76.0419 92.6823 76.03 92.6898 76.027C90.6261 75.3253 88.8009 75.2388 86.9845 75.1435C81.8604 74.3508 77.2593 73.6058 77.2593 73.6058C77.1546 73.5864 77.0598 73.5313 76.9914 73.4496C76.9229 73.3681 76.8849 73.2653 76.8838 73.1588L76.8213 67.47C77.1714 67.8991 77.9313 67.9587 78.3962 67.7099C78.5809 67.6157 78.7329 67.4677 78.8322 67.2857C78.9312 67.1034 78.9731 66.8956 78.952 66.6892C79.2534 66.6867 79.5496 66.6105 79.8147 66.4672C79.8933 66.4233 79.9686 66.3735 80.0397 66.3182C80.1867 66.1863 80.3053 66.0259 80.3882 65.8465C80.4709 65.6671 80.516 65.4726 80.5209 65.2752C80.5273 65.1661 80.5218 65.0568 80.5045 64.9489C80.5045 64.9087 80.4926 64.8699 80.4852 64.8267C80.4688 64.7433 80.4494 64.6613 80.4256 64.5734C80.4136 64.5228 80.3987 64.4721 80.3824 64.4244C80.3436 64.2754 80.3004 64.1264 80.2676 63.9774C80.2849 63.9797 80.3025 63.9797 80.3198 63.9774C80.4668 63.9691 80.6129 63.9482 80.7563 63.9148C80.8927 63.8824 81.0259 63.8374 81.1542 63.7807C81.2261 63.7488 81.2963 63.7131 81.3643 63.6735C81.376 63.6694 81.3866 63.6627 81.3956 63.6541C81.5109 63.5835 81.6199 63.5031 81.7219 63.4142C81.7564 63.3859 81.7892 63.3555 81.8202 63.3233C81.8783 63.2686 81.9336 63.211 81.9856 63.1505C82.0522 63.0725 82.1143 62.9909 82.1718 62.9061C82.2 62.87 82.2249 62.8318 82.2463 62.7914C82.4532 62.4597 82.6041 62.0963 82.6933 61.7156C82.7008 61.6798 82.7097 61.6441 82.7172 61.6098C83.0152 60.1913 82.5682 58.5717 81.3225 58.0427C81.0737 57.937 80.1916 57.8341 80.1916 57.4602C80.1921 57.4335 80.1961 57.4068 80.2036 57.3812C80.2022 57.3758 80.2022 57.3702 80.2036 57.3648C80.2271 57.3092 80.2609 57.2587 80.3034 57.2158C80.3228 57.192 80.3496 57.1681 80.3734 57.1443C80.4256 57.0981 80.4837 57.0549 80.5388 57.0102C80.5954 56.9728 80.6497 56.9321 80.7012 56.888C80.7231 56.8698 80.744 56.8503 80.7638 56.8299C80.8025 56.7867 80.8428 56.7435 80.8785 56.7003C80.914 56.6576 80.9469 56.6128 80.9769 56.5662C81.0082 56.5185 81.0394 56.4708 81.0678 56.4172C81.0989 56.3702 81.1253 56.3203 81.1467 56.2682C81.1916 56.1798 81.2285 56.0876 81.257 55.9925C81.3072 55.8364 81.3388 55.6748 81.3509 55.5112C81.3509 55.4531 81.3509 55.3935 81.3509 55.3339C81.3509 54.0257 80.284 52.6713 78.9356 52.5283C78.7176 52.5044 78.4969 52.5303 78.2904 52.6042C78.1889 52.6394 78.0894 52.6802 77.9924 52.7264L77.8434 52.7965C77.7421 52.8441 77.6393 52.8948 77.5335 52.9455C77.4442 52.9879 77.3475 53.0122 77.2489 53.017C77.2262 53.0162 77.2039 53.0133 77.1818 53.008L77.1386 52.9961C77.1073 52.9893 77.0787 52.9732 77.0567 52.9499C77.0304 52.9309 77.0087 52.9066 76.9926 52.8784C76.9792 52.8511 76.9697 52.8219 76.9643 52.792C76.9632 52.7902 76.9627 52.7881 76.9627 52.786C76.9627 52.7839 76.9632 52.7819 76.9643 52.7801C76.9568 52.7453 76.9533 52.7099 76.9539 52.6743C76.9537 52.6007 76.9643 52.5274 76.9852 52.4567C77.0272 52.3028 77.0483 52.144 77.0477 51.9844C77.0476 51.9266 77.0436 51.8689 77.0358 51.8116C77.0282 51.732 77.0163 51.6529 77.0001 51.5747C76.8542 50.9983 76.5076 50.4928 76.0226 50.1487C74.6563 49.1832 72.095 49.1787 71.3887 50.9682C71.3738 50.995 71.3664 51.0234 71.3544 51.0502C71.2636 50.9444 71.1727 50.8341 71.0818 50.7239C71.0189 50.6835 70.9532 50.6476 70.8851 50.6166C69.9389 50.2039 68.5845 50.3812 67.8947 51.1887C67.3225 51.8592 67.1348 52.8948 67.6429 53.6547C67.358 53.2867 66.9716 53.0101 66.5313 52.859C66.5839 53.0064 66.6539 53.1471 66.7399 53.2777C66.6995 53.2229 66.6563 53.1701 66.6103 53.1198C66.5745 53.0796 66.5388 53.0438 66.503 53.0095C66.4672 52.9753 66.4166 52.9261 66.3734 52.8903C66.3302 52.8546 66.2825 52.8158 66.2363 52.7801C65.3497 52.1304 64.0445 52.0634 63.2176 52.8754C62.5709 53.5102 62.4368 54.3878 62.6663 55.2386C62.8957 56.0894 63.4455 56.6809 63.8583 57.414C62.4591 57.7656 61.3402 59.3167 61.7812 60.7709C61.8733 61.0718 62.0346 61.3468 62.2523 61.574C62.4699 61.8011 62.7378 61.9743 63.0343 62.0792C63.1405 62.1058 63.2485 62.1243 63.3576 62.1343C63.3941 62.138 63.4293 62.1492 63.4612 62.1672C63.4932 62.1852 63.5211 62.2095 63.5431 62.2387C63.5652 62.2679 63.581 62.3015 63.5896 62.3371C63.5983 62.3727 63.5994 62.4096 63.593 62.4457C63.5708 62.5434 63.5594 62.6434 63.5588 62.7437C63.5597 62.9837 63.6224 63.2196 63.7408 63.4284C63.8593 63.6371 64.0296 63.8119 64.2352 63.9357C64.2658 63.9527 64.2924 63.9759 64.3137 64.0036C64.3351 64.0314 64.3504 64.0632 64.3589 64.0971C64.3674 64.131 64.3689 64.1663 64.3632 64.2008C64.3577 64.2353 64.345 64.2683 64.3261 64.2978C64.119 64.5923 63.9973 64.9385 63.9743 65.298C63.9515 65.6574 64.0284 66.016 64.1965 66.3346C64.6569 67.2569 65.7848 68.057 66.8487 67.7412C67.1909 67.6375 67.4871 67.419 67.6876 67.1228C67.709 67.1005 67.7275 67.0754 67.7427 67.0483C67.7466 67.0394 67.7521 67.0313 67.7591 67.0245C67.9122 66.7958 68.014 66.5365 68.0571 66.2646C68.3192 66.6801 68.6125 67.0751 68.9347 67.4461L69.1284 67.6622L68.5398 71.2918L68.4534 71.9459C68.4215 72.1723 68.3089 72.3795 68.1365 72.5294C67.9641 72.6795 67.7433 72.7622 67.5147 72.7625C67.3851 72.7625 67.251 72.7625 67.1214 72.7625C66.8576 72.7625 66.5969 72.7699 66.3376 72.7774C65.5494 72.7967 64.7642 72.8325 63.9804 72.8802C63.3844 72.9189 62.8018 72.9621 62.2163 73.0143C61.9183 73.0381 61.6322 73.0649 61.3372 73.0962C61.0422 73.1275 60.7501 73.1558 60.4581 73.1871C59.8874 73.2512 59.3123 73.3167 58.7401 73.3927C58.0502 73.4836 57.3648 73.5775 56.675 73.6758C55.5962 73.8338 54.5204 74.0066 53.4402 74.1929C52.3882 74.3746 51.3408 74.5639 50.2888 74.7561C48.8107 75.0287 47.3178 75.2567 45.8188 75.5011C45.4252 75.5647 45.0226 75.5435 44.6379 75.4391C44.2531 75.3346 43.8949 75.1493 43.5875 74.8954C43.2802 74.6416 43.0304 74.325 42.8551 73.967C42.6797 73.6089 42.5827 73.2177 42.5706 72.8191C42.4023 67.9021 45.1871 58.9338 45.1871 58.9338C45.2511 58.2364 46.0811 57.7418 46.5668 57.3454C47.957 56.2473 48.778 54.2805 49.2577 52.6251C49.5975 51.4435 49.9193 49.7569 48.9195 48.7884C48.3712 48.2564 47.6024 48.1417 47.0794 48.772C46.6935 49.2368 45.9961 52.038 44.9785 51.0219C44.8035 50.8249 44.6986 50.5755 44.6805 50.3126C44.5926 49.6436 44.8295 48.7571 45.4791 48.4248C46.0542 48.1268 46.7605 48.3384 47.3356 48.024C47.7826 47.7707 47.8512 46.9601 47.6739 46.5176C47.3476 45.707 46.3746 45.3673 45.5313 45.2928C45.1552 45.2629 44.7767 45.2879 44.4078 45.3673C45.1245 43.8579 45.7875 41.8688 44.3407 41.2981C43.6121 41.0106 42.7017 41.4948 42.2249 42.0342C42.1281 42.1447 42.0375 42.2607 41.9538 42.3814C41.709 42.2045 41.4045 42.1306 41.106 42.1757C39.9512 42.3381 39.306 43.7834 38.9157 45.0336C37.7102 44.974 37.0278 46.5236 36.6374 47.4637C36.1951 48.5467 35.9601 49.7032 35.9446 50.8729C35.9073 52.1172 35.9953 53.3622 36.2068 54.5889C36.3052 55.1179 36.4825 55.6215 36.6091 56.1385C36.7477 56.7017 36.5972 57.2605 36.3931 57.7894C35.593 59.8144 34.465 61.7096 33.6187 63.7196C32.701 65.8469 31.9654 68.0479 31.4195 70.2995C30.3675 74.7442 30.1515 79.457 31.3807 83.8898C33.7051 92.2666 45.4821 89.516 52.2288 87.1678C55.0494 86.1874 56.9968 85.2725 56.9968 85.2725C56.9968 85.2725 57.0117 85.9221 57.0117 87.0218V87.1708C57.0043 88.6608 56.8746 100.548 54.8721 109.276L54.805 109.391C54.8214 109.379 54.8527 109.379 54.8721 109.485C54.7621 109.723 54.586 109.925 54.3646 110.066C54.1432 110.207 53.886 110.282 53.6234 110.281C48.8286 110.261 28.6376 110.942 32.4654 123.989C33.1821 126.44 35.0536 128.012 37.6804 128.941C39.7664 129.686 42.3307 130.01 45.1707 130.034H45.19C39.6383 131.086 38.3465 139.345 44.5404 140.593C46.9244 141.073 48.8122 139.529 50.9549 138.871C52.1793 138.509 53.4543 138.347 54.7305 138.391C55.5633 138.411 56.3938 138.489 57.2158 138.623C66.2171 140.097 75.3511 140.594 84.459 140.104C90.6172 139.766 96.8945 138.993 102.738 136.932C107.143 135.377 111.976 132.654 114.146 128.439C114.914 126.956 115.312 125.308 115.303 123.637C115.298 119.666 113.462 116.841 110.707 114.852Z" fill="white"/>
<path d="M17.7933 128.718L17.5684 128.505" stroke="#F2E3CC" stroke-width="2" stroke-miterlimit="10"/>
<path d="M91.4613 106.439L90.7983 103.452C90.5518 102.59 90.3587 101.714 90.2202 100.828C89.5348 96.3477 89.0282 90.781 88.8479 88.6965L90.9845 89.3775L90.2395 87.7191C90.2395 87.7191 87.7855 79.46 92.6951 75.8229C89.1444 74.6145 86.3 75.2359 82.9773 74.4715C81.6974 74.1735 80.3459 73.9127 78.853 73.6684L77.7727 73.4792C77.7295 76.4145 75.6867 77.0805 74.006 77.3993C69.8683 78.192 67.003 75.1733 67.1222 72.5449C62.5285 72.5971 57.9885 73.2035 53.4425 73.9753C54.0296 75.6978 55.2663 80.8591 51.7871 86.9622L52.2341 86.9473C55.0547 85.9654 57.0021 85.052 57.0021 85.052C57.0021 85.052 57.0185 85.7016 57.0185 86.8012V86.9502C57.0111 88.4313 56.8814 100.327 54.8789 109.054C54.7299 109.339 54.8461 108.989 54.8789 109.305C54.7573 109.547 54.6738 109.807 54.6315 110.075L54.7284 109.689C54.189 110.462 55.5389 111.4 57.4893 111.872C62.5881 113.118 90.694 115.299 92.2808 110.075C92.3743 109.763 92.3774 109.432 92.2898 109.118C92.0593 108.212 91.7827 107.318 91.4613 106.439Z" fill="#353642"/>
<path d="M54.7297 138.166C53.455 138.123 52.1817 138.286 50.9585 138.647C48.8144 139.304 46.9236 140.85 44.5426 140.368C38.3487 139.12 39.642 130.861 45.1937 129.809C45.7257 129.797 46.2576 129.794 46.7851 129.794H46.8208C49.3777 129.794 51.8689 129.861 53.9132 129.155C53.721 129.332 48.7399 133.75 54.7297 138.166Z" fill="#ED9107"/>
<path d="M77.7674 73.4734V73.4809C77.7242 76.4162 75.6814 77.0822 74.0007 77.4011C69.8629 78.1937 66.9977 75.175 67.1169 72.5466" stroke="black" stroke-width="2" stroke-miterlimit="10"/>
<path d="M45.1976 129.809C39.6459 130.861 38.3526 139.12 44.5465 140.368C46.9305 140.85 48.8183 139.305 50.9625 138.648C52.1865 138.286 53.4609 138.123 54.7366 138.166C55.5676 138.189 56.396 138.269 57.216 138.406C66.2168 139.883 75.3509 140.382 84.4591 139.896C90.6173 139.556 96.8932 138.785 102.737 136.724C107.143 135.167 111.975 132.445 114.144 128.231C114.914 126.747 115.311 125.099 115.302 123.427C115.302 119.452 113.462 116.627 110.713 114.636C110.33 114.361 109.932 114.101 109.521 113.852C105.4 111.413 99.7853 110.467 95.0769 110.184C94.7893 110.165 94.5047 110.148 94.2261 110.136C93.8549 110.121 93.4918 110.024 93.1622 109.853C92.8201 109.682 92.523 109.432 92.2951 109.125C92.0732 108.833 91.917 108.497 91.8376 108.14L91.4636 106.441L90.8006 103.454L90.2195 100.828C89.5341 96.3479 89.0275 90.7813 88.8472 88.6968" stroke="black" stroke-miterlimit="10"/>
<path d="M97.0242 125.802C95.1871 130.002 90.6441 128.564 85.6526 125.541C82.5549 123.665 79.9116 123.399 78.3516 123.455C80.5508 123.258 82.4729 122.581 83.0138 120.094C83.4503 118.073 82.312 116.22 80.3422 115.624C85.0774 115.415 89.9363 115.773 93.7895 118.753C93.7924 118.753 98.8644 121.597 97.0242 125.802Z" fill="#ED9107"/>
<path d="M80.3685 63.8352C80.3507 63.8376 80.3327 63.8376 80.3149 63.8352C80.3637 64.0844 80.4567 64.3512 80.5181 64.6164C80.5674 64.8169 80.5887 65.0233 80.5811 65.2298C80.515 66.1963 79.8392 66.7202 78.9224 66.7458C78.9456 66.9675 78.9021 67.1913 78.7975 67.3875C78.6929 67.5836 78.532 67.7431 78.3364 67.8448C77.8449 68.1068 77.04 68.0477 76.6698 67.586C76.2319 67.0509 76.4493 66.3864 76.7155 65.8001C76.8116 65.594 76.9077 65.3991 76.9864 65.2218C77.0825 65.0014 77.166 64.7825 77.24 64.5589C77.5022 63.7312 77.7054 62.8855 77.8481 62.0285C78.0223 61.1627 78.1376 60.2857 78.1931 59.4039C78.1348 59.1898 78.1726 58.8799 78.0891 58.6563C77.9677 58.3111 77.7484 58.01 77.459 57.7905C76.8604 57.3432 76.0633 57.3719 75.4269 56.9758C74.8507 56.6119 74.3961 56.0802 74.1227 55.4502C74.0691 55.3192 74.0187 55.1499 73.9431 55.0029C73.9094 54.9231 73.8582 54.8521 73.7934 54.7953C73.5067 54.5508 73.3398 54.9822 73.1633 55.1499C72.9825 55.3192 72.7681 55.4477 72.5345 55.5264C72.3009 55.6052 72.0534 55.6325 71.8086 55.6068C71.6235 55.582 71.4433 55.528 71.2746 55.447C71.1507 55.3786 71.0349 55.2962 70.9296 55.201C70.8046 55.0775 70.659 54.9775 70.4996 54.9055C70.2003 54.7921 70.1846 55.2937 70.142 55.4678C70.1135 55.6183 70.0519 55.7603 69.9615 55.8831C69.8712 56.006 69.7547 56.1064 69.6206 56.1771C69.4587 56.2577 69.2812 56.3009 69.1008 56.3033C68.8907 56.3119 68.6805 56.2831 68.4802 56.2186C68.2866 56.1603 68.1024 56.0737 67.9336 55.9614C67.9031 55.9406 67.8679 55.929 67.8313 55.9277C67.7948 55.9264 67.7587 55.9355 67.727 55.9539C67.6954 55.9724 67.6694 55.9996 67.6522 56.0322C67.6349 56.0647 67.6272 56.1017 67.6295 56.1387C67.6878 57.7905 66.1646 58.3656 65.5392 58.5349C65.3291 61.2609 65.9859 63.9836 67.4137 66.3033C67.361 66.6389 67.2261 66.9558 67.0215 67.225C65.9929 67.487 64.8051 67.2027 64.3593 66.3033C63.8868 65.3448 63.9514 64.0173 64.6854 63.3336C64.1766 63.2538 64.0348 62.4918 64.3263 62.0445C64.3515 62.0014 64.3625 61.9758 64.3467 61.9343C64.2837 61.7601 63.5355 61.6148 63.3307 61.5509C63.0385 61.4451 62.7747 61.2716 62.5603 61.0442C62.3459 60.8167 62.1868 60.5418 62.0957 60.241C61.6625 58.7921 62.7621 57.2457 64.1357 56.8959C63.7277 56.1643 63.1905 55.5732 62.9621 54.7282C62.7337 53.8831 62.8629 53.0045 63.4993 52.3655C63.7581 52.1159 64.0744 51.9357 64.4194 51.8414C64.7643 51.7472 65.127 51.7417 65.4746 51.8256C65.6772 51.975 65.8568 52.1542 66.007 52.3576C65.9146 52.2189 65.8404 52.0684 65.7865 51.9103C66.2526 52.0707 66.6616 52.3675 66.9616 52.7633C66.4245 51.9486 66.6245 50.8368 67.2278 50.1179C67.9572 49.2521 69.3906 49.062 70.3893 49.5061C70.4616 49.539 70.5316 49.577 70.5989 49.6195C70.6934 49.7393 70.7895 49.8575 70.8855 49.971C70.8961 49.9403 70.9087 49.9104 70.9234 49.8815C71.1261 50.0928 71.3179 50.3146 71.4983 50.546C72.1473 48.6738 74.726 48.669 76.0885 49.6451C76.4094 49.8772 76.6722 50.1825 76.8557 50.5365C76.9247 50.8475 76.9189 51.1708 76.8384 51.479C76.7549 51.7745 76.821 51.9981 77.0085 52.062C77.1495 52.0968 77.2982 52.0774 77.4259 52.0077C77.9253 51.7793 78.338 51.4997 78.9177 51.5636C80.808 51.7665 82.1863 54.2585 81.0663 55.8847C80.9998 55.9857 80.9244 56.0804 80.841 56.1675C80.6835 56.3272 80.3291 56.5141 80.2503 56.7426C80.2481 56.7481 80.2481 56.7544 80.2503 56.7601C80.1085 57.2394 81.1545 57.3464 81.4333 57.4694C83.9033 58.5253 83.3819 63.6755 80.3685 63.8352Z" fill="#ED9107"/>
<path d="M39.6936 51.6269C39.1379 50.4438 39.5446 48.7855 40.1779 47.5324C40.6621 46.5594 40.2762 44.9994 39.0395 44.825C37.7551 44.6522 37.037 46.2718 36.6361 47.2493C36.1929 48.3325 35.9573 49.4895 35.9418 50.6599C35.9089 51.9045 36.0002 53.1494 36.2145 54.3759C36.3128 54.9034 36.4901 55.4085 36.6153 55.9241C36.7539 56.4873 36.6034 57.0475 36.3992 57.575C35.5991 59.5999 34.4727 61.4952 33.6249 63.5052C32.7085 65.6327 31.9733 67.8338 31.4271 70.085C30.3752 74.5297 30.1576 79.2426 31.3869 83.6753C33.7113 92.0521 45.4897 89.3015 52.235 86.9533C55.0555 85.9714 57.003 85.058 57.003 85.058C57.003 85.058 57.0193 85.7077 57.0193 86.8073C57.0193 86.8579 57.0193 86.9101 57.0193 86.9563C57.0283 91.3771 56.851 102.485 54.9468 109.084C54.8644 109.369 54.6912 109.619 54.4537 109.796C54.2162 109.973 53.9274 110.068 53.6311 110.066C48.8363 110.047 28.6468 110.728 32.4731 123.767C33.7664 128.171 38.7743 129.755 45.1724 129.81H45.2007C45.7207 129.81 46.2526 129.81 46.792 129.795H46.8277C49.2044 129.713 51.5747 129.498 53.9276 129.153C62.2627 127.979 71.1311 125.473 76.8602 123.667C77.1905 123.58 77.5282 123.523 77.8689 123.499C78.0105 123.482 78.1669 123.47 78.3427 123.463H78.3576C79.9147 123.4 82.558 123.667 85.6586 125.549C90.6501 128.572 95.1946 130.01 97.0303 125.81C98.866 121.609 93.7925 118.753 93.7925 118.753C89.9394 115.773 85.0805 115.42 80.3453 115.624C78.8836 115.688 77.4294 115.81 76.0243 115.922C70.401 116.37 64.7767 116.817 59.1515 117.263L51.782 117.859" stroke="black" stroke-miterlimit="10"/>
<path d="M41.6979 50.8371C41.6979 50.8371 40.8948 49.2144 41.8886 46.6769C42.2984 45.6339 42.7707 44.372 42.577 43.2292C42.5164 42.8061 42.2915 42.4239 41.9512 42.1652C41.7065 41.9882 41.4018 41.9147 41.1034 41.9611C39.9501 42.122 39.3035 43.5689 38.9131 44.8176" stroke="black" stroke-miterlimit="10"/>
<path d="M43.3752 49.8953C43.3752 49.8953 42.6124 48.6035 43.6524 46.6173C43.8267 46.2866 44.1217 45.7576 44.3974 45.1557C45.1156 43.6463 45.7771 41.6571 44.3303 41.085C43.6017 40.7974 42.6913 41.2817 42.2145 41.8225C42.1177 41.9325 42.0271 42.048 41.9434 42.1682" stroke="black" stroke-miterlimit="10"/>
<path d="M44.4024 45.1467C44.7712 45.0667 45.1498 45.0415 45.5259 45.0722C46.3692 45.1467 47.3422 45.485 47.67 46.297C47.8473 46.744 47.7832 47.5501 47.3303 47.8019C46.7551 48.1178 46.0504 47.9092 45.4752 48.2042C44.833 48.535 44.5812 49.4215 44.6751 50.092C44.6933 50.3549 44.798 50.6043 44.9731 50.8013C45.9893 51.8175 46.6866 49.0133 47.0725 48.5514C47.597 47.9211 48.3643 48.0344 48.9126 48.5663C49.9139 49.5348 49.5906 51.22 49.2494 52.403C48.7711 54.0584 47.9501 56.0252 46.5674 57.1219C46.0727 57.5122 45.2502 58.0159 45.1876 58.7132C45.1876 58.7132 42.4028 67.6755 42.5697 72.597C42.5818 72.9954 42.6786 73.3866 42.854 73.7446C43.0292 74.1025 43.2788 74.419 43.5862 74.6727C43.8934 74.9266 44.2513 75.112 44.6359 75.2166C45.0205 75.321 45.4229 75.3423 45.8164 75.279C47.3064 75.0361 48.8054 74.8082 50.2864 74.534C51.3384 74.3418 52.3858 74.1526 53.4378 73.9708C58.1149 73.1751 62.7845 72.5568 67.5123 72.5359C67.7407 72.5364 67.9617 72.4541 68.1342 72.3042C68.3068 72.1545 68.4193 71.9472 68.451 71.7209L68.5404 71.0727L69.129 67.4356" stroke="black" stroke-miterlimit="10"/>
<path d="M105.208 52.4152C105.763 51.2321 105.357 49.5738 104.723 48.3207C104.235 47.3477 104.625 45.7877 105.862 45.6133C105.905 45.6133 105.948 45.6059 105.988 45.6059C107.206 45.5463 107.891 47.1272 108.277 48.0689C108.726 49.1892 108.957 50.3845 108.96 51.5912C108.971 52.6086 108.896 53.6249 108.735 54.6293C108.597 55.4637 108.155 56.2922 108.219 57.1504C108.27 57.8716 108.696 58.554 108.995 59.2036C110.287 61.9855 111.799 64.6719 112.836 67.5476C113.232 68.6246 113.541 69.7311 113.762 70.8569C114.54 74.9464 114.258 79.1672 112.942 83.1166C112.224 85.2533 110.961 87.3572 109.14 88.728C108.951 88.8701 108.758 89.0042 108.56 89.1303C106.2 90.659 103.169 91.112 100.408 91.0524C97.4761 90.9898 94.5259 90.3908 91.7113 89.5907C91.2196 89.4497 90.7298 89.3007 90.2421 89.1437C89.7296 88.9813 89.2215 88.8159 88.7134 88.6431C88.1815 88.4583 87.6495 88.272 87.1221 88.0754" stroke="black" stroke-miterlimit="10"/>
<path d="M105.988 45.606C105.598 44.3574 104.945 42.9106 103.798 42.7496C103.499 42.7033 103.195 42.7768 102.95 42.9538C102.61 43.2124 102.385 43.5946 102.324 44.0176C102.13 45.1605 102.603 46.421 103.012 47.4655C104.006 49.9985 103.202 51.6271 103.202 51.6271" stroke="black" stroke-miterlimit="10"/>
<path d="M102.95 42.9534C102.867 42.8312 102.773 42.718 102.679 42.6062C102.198 42.0668 101.292 41.5826 100.562 41.8701C99.1167 42.4408 99.7783 44.4315 100.496 45.9408C100.78 46.5368 101.075 47.0717 101.241 47.4025C102.284 49.3917 101.517 50.6805 101.517 50.6805" stroke="black" stroke-miterlimit="10"/>
<path d="M100.496 45.9414C100.127 45.8615 99.7487 45.8359 99.3725 45.8654C98.5291 45.9414 97.5562 46.2796 97.2284 47.0916C97.0511 47.5386 97.1151 48.3447 97.5681 48.5965C98.1432 48.9124 98.848 48.7023 99.4232 48.9988C100.065 49.3296 100.317 50.2162 100.223 50.8867C100.205 51.1495 100.1 51.3989 99.9253 51.5959C98.9091 52.6121 98.2118 49.8079 97.8259 49.346C97.3014 48.7143 96.534 48.829 95.9857 49.3609C94.9055 50.4039 95.3748 52.5048 95.8278 53.7668C96.321 55.1451 96.9587 56.5978 97.9793 57.6706C99.6779 59.4586 99.8627 62.2896 100.313 64.5857C100.497 65.5364 100.675 66.4929 100.816 67.451C101.099 69.3061 101.263 71.176 101.114 73.0504C101.076 73.5649 100.933 74.0662 100.692 74.5225C100.451 74.9789 100.119 75.3806 99.7152 75.7023C99.3118 76.0242 98.8464 76.2591 98.3478 76.3925C97.8494 76.5259 97.3288 76.5548 96.8186 76.4774C90.1553 75.4568 77.2594 73.3842 77.2594 73.3842C77.1539 73.366 77.0581 73.3112 76.989 73.2295C76.9197 73.1477 76.8815 73.0443 76.8809 72.9372L76.8184 67.2469" stroke="black" stroke-miterlimit="10"/>
<path d="M66.2781 58.7939C66.0054 61.7248 67.0231 65.0385 68.9303 67.2229C72.4884 71.2921 75.4863 67.2229 75.4863 67.2229" stroke="black" stroke-miterlimit="10"/>
<path d="M78.2919 59.703C78.1876 59.5093 78.2487 59.1591 78.1593 58.9133C78.0438 58.5911 77.8366 58.31 77.5633 58.1042C76.9941 57.6885 76.2417 57.7138 75.6412 57.3473C75.0958 57.0061 74.6651 56.5094 74.4045 55.9213C74.321 55.7336 74.2555 55.4475 74.0961 55.3119C73.8234 55.084 73.6654 55.4848 73.5001 55.6427C73.264 55.8626 72.9674 56.0066 72.6487 56.056C72.3298 56.1054 72.0035 56.058 71.7121 55.9198C71.4439 55.7872 71.2576 55.5205 70.9775 55.4147C70.6974 55.3089 70.6795 55.7753 70.6378 55.9392C70.6111 56.0794 70.5531 56.2117 70.4684 56.3266C70.3834 56.4413 70.2738 56.5355 70.1476 56.6023C69.6544 56.8451 68.9809 56.6857 68.5518 56.3981C68.523 56.3782 68.4892 56.367 68.4543 56.3655C68.4193 56.3642 68.3847 56.3727 68.3545 56.3901C68.3242 56.4077 68.2995 56.4333 68.2833 56.4643C68.267 56.4951 68.2599 56.5301 68.2627 56.565C68.3298 58.502 66.0352 58.8492 66.0352 58.8492" stroke="black" stroke-miterlimit="10"/>
<path d="M69.5165 63.0567C70.6637 63.0567 71.5936 62.1268 71.5936 60.9796C71.5936 59.8325 70.6637 58.9026 69.5165 58.9026C68.3694 58.9026 67.4395 59.8325 67.4395 60.9796C67.4395 62.1268 68.3694 63.0567 69.5165 63.0567Z" stroke="black" stroke-miterlimit="10"/>
<path d="M74.8993 62.8717C76.0465 62.8717 76.9764 61.9417 76.9764 60.7946C76.9764 59.6474 76.0465 58.7175 74.8993 58.7175C73.7522 58.7175 72.8223 59.6474 72.8223 60.7946C72.8223 61.9417 73.7522 62.8717 74.8993 62.8717Z" stroke="black" stroke-miterlimit="10"/>
<path d="M68.6475 62.1882C68.6475 62.1882 69.4848 63.1493 70.3461 62.1882" stroke="black" stroke-miterlimit="10"/>
<path d="M74.0527 62.1882C74.0527 62.1882 74.8901 63.1493 75.7528 62.1882" stroke="black" stroke-miterlimit="10"/>
<path d="M72.4572 65.7701C72.8613 65.7701 73.1888 65.4426 73.1888 65.0385C73.1888 64.6344 72.8613 64.3069 72.4572 64.3069C72.0531 64.3069 71.7256 64.6344 71.7256 65.0385C71.7256 65.4426 72.0531 65.7701 72.4572 65.7701Z" stroke="black" stroke-miterlimit="10"/>
<path d="M71.5928 60.9796C71.5928 60.9796 72.0636 60.2122 72.822 60.7948" stroke="black" stroke-miterlimit="10"/>
<path d="M70.6382 57.8968C70.6382 57.8968 68.4822 56.2488 66.6748 57.8029" stroke="black" stroke-miterlimit="10"/>
<path d="M76.9464 57.0326C76.9464 57.0326 74.3851 56.1386 73.1484 58.1724" stroke="black" stroke-miterlimit="10"/>
<path d="M67.989 65.9725C67.9841 66.3179 67.8706 66.6528 67.6647 66.9303C67.4587 67.2075 67.1709 67.413 66.8417 67.5176C65.7779 67.832 64.6514 67.0334 64.1895 66.1111C64.0212 65.7923 63.9443 65.4333 63.9675 65.0734C63.9906 64.7137 64.1128 64.3673 64.3206 64.0727C64.3393 64.0432 64.3516 64.0103 64.357 63.9759C64.3624 63.9415 64.3607 63.9063 64.3521 63.8726C64.3434 63.8388 64.328 63.8072 64.3066 63.7797C64.2855 63.7521 64.2588 63.7291 64.2283 63.7122C64.0215 63.5877 63.8504 63.4119 63.732 63.2017C63.6133 62.9914 63.5514 62.7541 63.5518 62.5127C63.5524 62.4126 63.5633 62.3126 63.5846 62.2147C63.5914 62.1785 63.5906 62.1413 63.5822 62.1055C63.5739 62.0696 63.5581 62.0359 63.5359 62.0064C63.5137 61.9771 63.4857 61.9525 63.4536 61.9344C63.4214 61.9164 63.3858 61.9054 63.3492 61.9018C63.2407 61.892 63.1331 61.8741 63.0273 61.8482C62.731 61.743 62.4632 61.57 62.2455 61.3428C62.028 61.1157 61.8666 60.8406 61.7742 60.5399C61.3272 59.0857 62.4522 57.5331 63.8513 57.183C63.4341 56.4499 62.8813 55.8584 62.6593 55.0076C62.4373 54.1568 62.5654 53.2777 63.2106 52.6429C64.2164 51.6581 65.9224 51.965 66.733 53.0452C66.1861 52.2257 66.3903 51.1082 67.0056 50.3901C67.7506 49.5229 69.2034 49.3337 70.2211 49.7747C70.7053 49.9878 71.0167 50.4288 71.3475 50.8177C72.0091 48.9463 74.6255 48.9343 76.0171 49.9148C76.7413 50.4318 77.2092 51.369 76.9782 52.2243C76.856 52.6578 77.081 52.9171 77.534 52.7174C77.9869 52.5178 78.3967 52.2436 78.945 52.3032C80.8433 52.5044 82.1917 55.1044 80.7643 56.5974C80.6153 56.7553 80.28 56.9207 80.2055 57.1338C80.0431 57.5808 81.0519 57.697 81.3201 57.8118C83.6772 58.8011 83.1602 63.6555 80.2771 63.7539C80.3635 64.1666 80.5602 64.624 80.5289 65.0502C80.4663 65.9516 79.8271 66.4403 78.9599 66.4687C78.9812 66.6749 78.9396 66.8827 78.8407 67.0648C78.7418 67.2469 78.5902 67.395 78.4056 67.4893C77.9407 67.7366 77.1794 67.6785 76.8292 67.2479C76.269 66.5715 76.8441 65.6849 77.1272 65.0383C77.5444 64.0921 77.75 63.0715 77.9393 62.0583C78.1125 61.2188 78.224 60.3677 78.273 59.5118V59.4761" stroke="black" stroke-miterlimit="10"/>
<path d="M7.4502 128.718H37.7315" stroke="black" stroke-miterlimit="10"/>
<path d="M113.929 128.718H141.55" stroke="black" stroke-miterlimit="10"/>
</svg>
