<svg width="149" height="149" viewBox="0 0 149 149" fill="none" xmlns="http://www.w3.org/2000/svg">
<g opacity="0.38">
<g opacity="0.38">
<path opacity="0.38" d="M56.5154 83.4656L56.4707 84.5801H56.4931V86.3428H58.8443V86.0656L58.737 83.4656H56.5154Z" fill="#F2E3CC"/>
<path opacity="0.38" d="M55.4281 80.1326C56.0688 80.8022 56.4542 81.6753 56.5173 82.6H58.7403C58.795 81.7576 59.1194 80.9551 59.6656 80.3114C60.043 79.8757 60.5099 79.5266 61.0345 79.2877C61.559 79.0487 62.1289 78.9258 62.7052 78.9272H63.3847L63.5158 75.7147C63.5499 75.1725 63.4721 74.6293 63.2872 74.1185C63.1023 73.6077 62.8141 73.1404 62.4408 72.7459C62.0675 72.3513 61.6169 72.0378 61.1172 71.8249C60.6174 71.612 60.0793 71.5043 59.536 71.5085H55.7261C55.1834 71.5037 54.6457 71.6108 54.1461 71.8228C53.6466 72.035 53.196 72.3476 52.8227 72.7413C52.4493 73.1351 52.1608 73.6015 51.9753 74.1115C51.7899 74.6214 51.7114 75.1642 51.7448 75.7058L51.8759 78.9272H52.5583C53.0929 78.9264 53.6222 79.0327 54.1151 79.2396C54.608 79.4467 55.0544 79.7502 55.4281 80.1326Z" fill="#F2E3CC"/>
<path opacity="0.38" d="M70.4871 83.4656L70.4424 84.5801H70.4647V86.3428H72.816V86.0656L72.7102 83.4656H70.4871Z" fill="#F2E3CC"/>
<path opacity="0.38" d="M69.3988 80.1326C70.0384 80.8029 70.4236 81.6756 70.4879 82.6H72.7125C72.7672 81.7576 73.0916 80.9551 73.6378 80.3114C74.0154 79.8758 74.4822 79.5269 75.0067 79.2879C75.5313 79.049 76.1011 78.926 76.6774 78.9272H77.3583L77.488 75.7147C77.5221 75.1727 77.4443 74.6294 77.2596 74.1188C77.0746 73.6082 76.7868 73.141 76.4135 72.7465C76.0403 72.3519 75.59 72.0383 75.0904 71.8254C74.5908 71.6123 74.0528 71.5044 73.5097 71.5085H69.6908C69.1483 71.5037 68.6105 71.6107 68.1112 71.8227C67.6118 72.0347 67.1614 72.3473 66.788 72.7408C66.4146 73.1343 66.1261 73.6006 65.9406 74.1104C65.755 74.6202 65.6764 75.1627 65.7095 75.7043L65.8421 78.9257H66.5231C67.0587 78.9245 67.5891 79.0307 68.0831 79.238C68.577 79.4454 69.0243 79.7495 69.3988 80.1326Z" fill="#F2E3CC"/>
<path opacity="0.38" d="M84.4603 83.4656L84.4141 84.5801H84.4364V86.3428H86.7876V86.0656L86.6818 83.4656H84.4603Z" fill="#F2E3CC"/>
<path opacity="0.38" d="M83.37 80.1326C84.0107 80.8022 84.3962 81.6753 84.4592 82.6H86.6808C86.7385 81.7571 87.0649 80.9551 87.6121 80.3114C87.9896 79.8758 88.4564 79.5269 88.9809 79.2879C89.5056 79.049 90.0753 78.926 90.6517 78.9272H91.3371L91.4667 75.7147C91.5008 75.1727 91.423 74.6294 91.2383 74.1188C91.0534 73.6082 90.7654 73.141 90.3923 72.7465C90.019 72.3519 89.5687 72.0383 89.0691 71.8254C88.5695 71.6123 88.0315 71.5044 87.4884 71.5085H83.6636C83.1209 71.5037 82.5832 71.6108 82.0836 71.8228C81.5841 72.035 81.1337 72.3476 80.7601 72.7413C80.3868 73.1351 80.0983 73.6015 79.9128 74.1115C79.7274 74.6214 79.6489 75.1642 79.6823 75.7058L79.8134 78.9272H80.4943C81.0298 78.9258 81.5603 79.0318 82.0541 79.2389C82.548 79.4458 82.9955 79.7498 83.37 80.1326Z" fill="#F2E3CC"/>
<path opacity="0.38" d="M98.4324 83.4656L98.3877 84.5801H98.41V86.3428H100.76V86.0656L100.654 83.4656H98.4324Z" fill="#F2E3CC"/>
<path opacity="0.38" d="M97.3417 80.1326C97.9824 80.8022 98.3679 81.6753 98.4309 82.6H100.654C100.709 81.7571 101.035 80.9548 101.582 80.3114C101.96 79.8757 102.426 79.5266 102.951 79.2877C103.476 79.0487 104.046 78.9258 104.622 78.9272H105.301L105.432 75.7147C105.467 75.1725 105.389 74.6293 105.204 74.1185C105.019 73.6077 104.731 73.1404 104.357 72.7459C103.984 72.3513 103.534 72.0378 103.034 71.8249C102.534 71.612 101.996 71.5043 101.453 71.5085H97.6353C97.0926 71.5037 96.5549 71.6108 96.0553 71.8228C95.5558 72.035 95.1054 72.3476 94.7318 72.7413C94.3584 73.1351 94.07 73.6015 93.8845 74.1115C93.6991 74.6214 93.6206 75.1642 93.654 75.7058L93.7851 78.9272H94.466C95.0015 78.9255 95.532 79.0315 96.026 79.2386C96.52 79.4455 96.9673 79.7495 97.3417 80.1326Z" fill="#F2E3CC"/>
<path opacity="0.38" d="M112.404 83.4656L112.359 84.5801H112.382V86.3428H114.733V86.0641L114.626 83.4656H112.404Z" fill="#F2E3CC"/>
<path opacity="0.38" d="M111.313 80.1326C111.954 80.8022 112.34 81.6753 112.403 82.6H114.626C114.681 81.7571 115.007 80.9548 115.554 80.3114C115.931 79.8757 116.398 79.5266 116.923 79.2877C117.447 79.0487 118.017 78.9258 118.594 78.9272H119.275L119.404 75.7147C119.438 75.1727 119.361 74.6294 119.176 74.1188C118.991 73.6082 118.703 73.141 118.33 72.7465C117.957 72.3519 117.506 72.0383 117.007 71.8254C116.507 71.6123 115.969 71.5044 115.426 71.5085H111.601C111.058 71.5037 110.521 71.6108 110.021 71.8228C109.522 72.035 109.071 72.3476 108.698 72.7413C108.324 73.1351 108.036 73.6015 107.85 74.1115C107.665 74.6214 107.586 75.1642 107.62 75.7058L107.752 78.9272H108.433C108.97 78.9249 109.501 79.0306 109.996 79.2377C110.49 79.4446 110.939 79.749 111.313 80.1326Z" fill="#F2E3CC"/>
<path opacity="0.38" d="M126.376 83.4656L126.331 84.5801H126.352V86.3427H128.703V84.5801H132.014C132.307 84.5804 132.589 84.467 132.8 84.2639C133.012 84.0608 133.136 83.7838 133.148 83.4909L133.17 82.9172C133.026 83.084 132.849 83.2188 132.65 83.3133C132.451 83.4077 132.234 83.4596 132.014 83.4656H126.376Z" fill="#F2E3CC"/>
<path opacity="0.38" d="M125.286 80.1324C125.927 80.802 126.312 81.6753 126.375 82.5998H132.014C132.306 82.5997 132.588 82.4866 132.799 82.2838C133.01 82.0811 133.135 81.8047 133.147 81.5121L133.381 75.713C133.416 75.1711 133.338 74.6279 133.153 74.1172C132.968 73.6065 132.68 73.1394 132.307 72.7448C131.934 72.3503 131.483 72.0368 130.984 71.8237C130.484 71.6108 129.946 71.5029 129.403 71.5068H125.58C125.037 71.5017 124.499 71.6084 123.999 71.8204C123.5 72.0323 123.049 72.3449 122.675 72.7387C122.302 73.1325 122.013 73.5992 121.828 74.1093C121.643 74.6195 121.565 75.1623 121.598 75.7041L121.733 78.9255H122.414C122.949 78.9249 123.479 79.0313 123.972 79.2385C124.465 79.4458 124.912 79.7497 125.286 80.1324Z" fill="#F2E3CC"/>
<path opacity="0.38" d="M56.5154 98.3015L56.4707 99.4145H56.4931V101.179H58.8443V100.9L58.737 98.3015H56.5154Z" fill="#F2E3CC"/>
<path opacity="0.38" d="M55.4281 94.9668C56.0686 95.6371 56.4541 96.5107 56.5173 97.4357H58.7403C58.7955 96.5921 59.121 95.7885 59.6686 95.1441C60.0466 94.7092 60.5136 94.3605 61.0379 94.1217C61.5624 93.883 62.132 93.7596 62.7082 93.7599H63.3876L63.5188 90.5474C63.5527 90.0055 63.4748 89.4623 63.2898 88.9517C63.1047 88.4412 62.8165 87.9741 62.4433 87.5797C62.0699 87.1853 61.6195 86.8719 61.1197 86.6591C60.6201 86.4462 60.0821 86.3386 59.539 86.3427H55.7261C55.1834 86.3381 54.6457 86.445 54.1461 86.6572C53.6466 86.8692 53.196 87.182 52.8227 87.5756C52.4493 87.9693 52.1608 88.4357 51.9753 88.9457C51.7899 89.4557 51.7114 89.9984 51.7448 90.5401L51.8759 93.7599H52.5583C53.0929 93.7597 53.6222 93.8664 54.1149 94.0737C54.6078 94.2809 55.0542 94.5846 55.4281 94.9668Z" fill="#F2E3CC"/>
<path opacity="0.38" d="M70.4871 98.3015L70.4424 99.4145H70.4647V101.179H72.816V100.9L72.7102 98.3015H70.4871Z" fill="#F2E3CC"/>
<path opacity="0.38" d="M69.3979 94.9668C70.0373 95.6379 70.4224 96.5112 70.4871 97.4357H72.7117C72.7668 96.5921 73.0924 95.7885 73.6399 95.1441C74.0179 94.7092 74.4849 94.3605 75.0092 94.1217C75.5337 93.883 76.1033 93.7596 76.6795 93.7599H77.3605L77.4901 90.5474C77.5241 90.0057 77.4461 89.4626 77.2612 88.9521C77.0762 88.4416 76.7881 87.9747 76.415 87.5803C76.042 87.1859 75.5915 86.8725 75.0921 86.6596C74.5926 86.4467 74.0547 86.3388 73.5118 86.3427H69.6899C69.1473 86.3381 68.6095 86.445 68.1099 86.6572C67.6105 86.8692 67.1599 87.182 66.7865 87.5756C66.4131 87.9693 66.1247 88.4357 65.9392 88.9457C65.7538 89.4557 65.6753 89.9984 65.7087 90.5401L65.8413 93.7599H66.5222C67.0577 93.7596 67.588 93.8661 68.0818 94.0734C68.5756 94.2806 69.023 94.5845 69.3979 94.9668Z" fill="#F2E3CC"/>
<path opacity="0.38" d="M84.4603 98.3015L84.4141 99.4145H84.4364V101.179H86.7876V100.9L86.6818 98.3015H84.4603Z" fill="#F2E3CC"/>
<path opacity="0.38" d="M83.37 94.9668C84.0106 95.6371 84.3961 96.5107 84.4592 97.4357H86.6808C86.7382 96.5919 87.0645 95.7888 87.6121 95.1441C87.9901 94.7092 88.457 94.3605 88.9814 94.1217C89.5059 93.883 90.0755 93.7596 90.6517 93.7599H91.3371L91.4667 90.5474C91.5007 90.0057 91.4227 89.4626 91.2378 88.9521C91.0528 88.4416 90.7648 87.9747 90.3917 87.5803C90.0186 87.1859 89.5681 86.8725 89.0687 86.6596C88.5692 86.4467 88.0313 86.3388 87.4884 86.3427H83.6636C83.1209 86.3381 82.5832 86.445 82.0836 86.6572C81.5841 86.8692 81.1337 87.182 80.7601 87.5756C80.3868 87.9693 80.0983 88.4357 79.9128 88.9457C79.7274 89.4557 79.6489 89.9984 79.6823 90.5401L79.8134 93.7599H80.4943C81.0298 93.7596 81.5601 93.8661 82.0539 94.0734C82.5477 94.2806 82.9952 94.5845 83.37 94.9668Z" fill="#F2E3CC"/>
<path opacity="0.38" d="M98.4324 98.3015L98.3877 99.4145H98.41V101.179H100.76V100.9L100.654 98.3015H98.4324Z" fill="#F2E3CC"/>
<path opacity="0.38" d="M97.3417 94.9668C97.9823 95.6371 98.3677 96.5107 98.4309 97.4357H100.654C100.709 96.5921 101.035 95.7885 101.582 95.1441C101.96 94.7092 102.427 94.3605 102.952 94.1217C103.476 93.883 104.046 93.7596 104.622 93.7599H105.301L105.432 90.5474C105.466 90.0055 105.388 89.4623 105.203 88.9517C105.018 88.4412 104.73 87.9741 104.357 87.5797C103.984 87.1853 103.533 86.8719 103.033 86.6591C102.534 86.4462 101.996 86.3386 101.453 86.3427H97.6353C97.0926 86.3381 96.5549 86.445 96.0553 86.6572C95.5558 86.8692 95.1054 87.182 94.7318 87.5756C94.3584 87.9693 94.07 88.4357 93.8845 88.9457C93.6991 89.4557 93.6206 89.9984 93.654 90.5401L93.7851 93.7599H94.466C95.0017 93.759 95.532 93.8654 96.0259 94.0726C96.5198 94.2799 96.9671 94.584 97.3417 94.9668Z" fill="#F2E3CC"/>
<path opacity="0.38" d="M112.404 98.3015L112.359 99.4145H112.382V101.179H114.733V100.9L114.626 98.3015H112.404Z" fill="#F2E3CC"/>
<path opacity="0.38" d="M111.313 94.9668C111.954 95.6371 112.34 96.5107 112.403 97.4357H114.626C114.681 96.5921 115.006 95.7885 115.554 95.1441C115.932 94.7092 116.399 94.3605 116.923 94.1217C117.448 93.883 118.017 93.7596 118.594 93.7599H119.275L119.404 90.5474C119.438 90.0057 119.36 89.4626 119.175 88.9521C118.99 88.4416 118.702 87.9747 118.329 87.5803C117.956 87.1859 117.506 86.8725 117.006 86.6596C116.507 86.4467 115.969 86.3388 115.426 86.3427H111.601C111.058 86.3381 110.521 86.445 110.021 86.6572C109.522 86.8692 109.071 87.182 108.698 87.5756C108.324 87.9693 108.036 88.4357 107.85 88.9457C107.665 89.4557 107.586 89.9984 107.62 90.5401L107.752 93.7599H108.433C108.97 93.7584 109.501 93.8645 109.996 94.0717C110.49 94.279 110.938 94.5834 111.313 94.9668Z" fill="#F2E3CC"/>
<path opacity="0.38" d="M126.376 98.3015L126.331 99.4145H126.352V101.179H128.703V99.4145H132.014C132.307 99.4147 132.588 99.3016 132.8 99.099C133.011 98.8962 133.136 98.6195 133.148 98.3268L133.17 97.7517C133.026 97.9189 132.849 98.054 132.65 98.1488C132.451 98.2434 132.234 98.2954 132.014 98.3015H126.376Z" fill="#F2E3CC"/>
<path opacity="0.38" d="M125.286 94.9671C125.927 95.6373 126.312 96.511 126.375 97.436H132.014C132.307 97.4354 132.588 97.3219 132.799 97.1189C133.01 96.916 133.135 96.6395 133.147 96.3468L133.381 90.5477C133.415 90.0058 133.337 89.4627 133.152 88.9522C132.967 88.4418 132.679 87.9748 132.306 87.5804C131.933 87.186 131.483 86.8726 130.983 86.6597C130.484 86.4468 129.946 86.3389 129.403 86.343H125.58C125.037 86.3377 124.499 86.4444 123.999 86.6565C123.5 86.8683 123.049 87.1811 122.675 87.5749C122.302 87.9687 122.013 88.4352 121.828 88.9454C121.643 89.4556 121.565 89.9985 121.598 90.5403L121.73 93.7602H122.411C122.946 93.7597 123.476 93.8663 123.97 94.0735C124.464 94.2808 124.911 94.5846 125.286 94.9671Z" fill="#F2E3CC"/>
<path opacity="0.38" d="M56.5154 113.137L56.4707 114.251H56.4931V116.013H58.8443V115.736L58.737 113.137H56.5154Z" fill="#F2E3CC"/>
<path opacity="0.38" d="M55.4281 109.803C56.0686 110.473 56.4541 111.346 56.5173 112.27H58.7403C58.7955 111.427 59.121 110.624 59.6686 109.98C60.0466 109.545 60.5136 109.197 61.0379 108.958C61.5624 108.719 62.132 108.596 62.7082 108.596H63.3876L63.5188 105.384C63.5527 104.842 63.4748 104.298 63.2898 103.788C63.1047 103.277 62.8165 102.81 62.4433 102.416C62.0699 102.021 61.6195 101.708 61.1197 101.495C60.6201 101.282 60.0821 101.175 59.539 101.179H55.7261C55.1834 101.174 54.6457 101.281 54.1461 101.493C53.6466 101.705 53.196 102.018 52.8227 102.412C52.4493 102.805 52.1608 103.272 51.9753 103.782C51.7899 104.292 51.7114 104.835 51.7448 105.376L51.8759 108.596H52.5583C53.0929 108.596 53.6222 108.703 54.1149 108.91C54.6078 109.117 55.0542 109.421 55.4281 109.803Z" fill="#F2E3CC"/>
<path opacity="0.38" d="M70.4871 113.137L70.4424 114.251H70.4647V116.013H72.816V115.736L72.7102 113.137H70.4871Z" fill="#F2E3CC"/>
<path opacity="0.38" d="M69.3979 109.803C70.0373 110.473 70.4226 111.346 70.4871 112.27H72.7117C72.7668 111.427 73.0924 110.624 73.6399 109.98C74.0179 109.545 74.4849 109.197 75.0092 108.958C75.5337 108.719 76.1033 108.596 76.6795 108.596H77.3605L77.4901 105.384C77.5241 104.842 77.4461 104.299 77.2612 103.788C77.0762 103.278 76.7881 102.811 76.415 102.416C76.042 102.022 75.5915 101.709 75.0921 101.496C74.5926 101.283 74.0547 101.175 73.5118 101.179H69.6899C69.1473 101.174 68.6095 101.281 68.1099 101.493C67.6105 101.705 67.1599 102.018 66.7865 102.412C66.4131 102.805 66.1247 103.272 65.9392 103.782C65.7538 104.292 65.6753 104.835 65.7087 105.376L65.8413 108.596H66.5222C67.0577 108.596 67.588 108.702 68.0818 108.91C68.5756 109.117 69.023 109.421 69.3979 109.803Z" fill="#F2E3CC"/>
<path opacity="0.38" d="M84.4603 113.137L84.4141 114.251H84.4364V116.013H86.7876V115.736L86.6818 113.137H84.4603Z" fill="#F2E3CC"/>
<path opacity="0.38" d="M83.37 109.803C84.0106 110.473 84.3961 111.346 84.4592 112.27H86.6808C86.7382 111.427 87.0646 110.624 87.6121 109.98C87.9901 109.545 88.457 109.197 88.9814 108.958C89.5059 108.719 90.0755 108.596 90.6517 108.596H91.3371L91.4667 105.384C91.5007 104.842 91.4227 104.299 91.2378 103.788C91.0528 103.278 90.7648 102.811 90.3917 102.416C90.0186 102.022 89.5681 101.709 89.0687 101.496C88.5692 101.283 88.0313 101.175 87.4884 101.179H83.6636C83.1209 101.174 82.5832 101.281 82.0836 101.493C81.5841 101.705 81.1337 102.018 80.7601 102.412C80.3868 102.805 80.0983 103.272 79.9128 103.782C79.7274 104.292 79.6489 104.835 79.6823 105.376L79.8134 108.596H80.4943C81.0298 108.596 81.5601 108.702 82.0539 108.91C82.5477 109.117 82.9952 109.421 83.37 109.803Z" fill="#F2E3CC"/>
<path opacity="0.38" d="M98.4324 113.137L98.3877 114.251H98.41V116.013H100.76V115.736L100.654 113.137H98.4324Z" fill="#F2E3CC"/>
<path opacity="0.38" d="M97.3417 109.803C97.9823 110.473 98.3677 111.346 98.4309 112.27H100.654C100.709 111.427 101.035 110.624 101.582 109.98C101.96 109.545 102.427 109.197 102.952 108.958C103.476 108.719 104.046 108.596 104.622 108.596H105.301L105.432 105.384C105.466 104.842 105.388 104.298 105.203 103.788C105.018 103.277 104.73 102.81 104.357 102.416C103.984 102.021 103.533 101.708 103.033 101.495C102.534 101.282 101.996 101.175 101.453 101.179H97.6353C97.0926 101.174 96.5549 101.281 96.0553 101.493C95.5558 101.705 95.1054 102.018 94.7318 102.412C94.3584 102.805 94.07 103.272 93.8845 103.782C93.6991 104.292 93.6206 104.835 93.654 105.376L93.7851 108.596H94.466C95.0017 108.595 95.532 108.701 96.0259 108.909C96.5198 109.116 96.9671 109.42 97.3417 109.803Z" fill="#F2E3CC"/>
<path opacity="0.38" d="M112.404 113.137L112.359 114.251H112.382V116.013H114.733V115.735L114.626 113.137H112.404Z" fill="#F2E3CC"/>
<path opacity="0.38" d="M111.313 109.803C111.954 110.473 112.34 111.346 112.403 112.27H114.626C114.681 111.427 115.006 110.624 115.554 109.98C115.932 109.545 116.399 109.197 116.923 108.958C117.448 108.719 118.017 108.596 118.594 108.596H119.275L119.404 105.384C119.438 104.842 119.36 104.299 119.175 103.788C118.99 103.278 118.702 102.811 118.329 102.416C117.956 102.022 117.506 101.709 117.006 101.496C116.507 101.283 115.969 101.175 115.426 101.179H111.601C111.058 101.174 110.521 101.281 110.021 101.493C109.522 101.705 109.071 102.018 108.698 102.412C108.324 102.805 108.036 103.272 107.85 103.782C107.665 104.292 107.586 104.835 107.62 105.376L107.752 108.596H108.433C108.97 108.594 109.501 108.701 109.996 108.908C110.49 109.115 110.938 109.419 111.313 109.803Z" fill="#F2E3CC"/>
<path opacity="0.38" d="M126.376 113.137L126.331 114.25H126.352V116.013H128.703V114.25H132.014C132.307 114.251 132.589 114.137 132.8 113.934C133.012 113.731 133.136 113.454 133.148 113.161L133.17 112.588C133.026 112.755 132.849 112.89 132.65 112.985C132.451 113.079 132.234 113.131 132.014 113.137H126.376Z" fill="#F2E3CC"/>
<path opacity="0.38" d="M125.286 109.803C125.927 110.473 126.312 111.346 126.375 112.27H132.014C132.306 112.27 132.588 112.157 132.799 111.954C133.01 111.752 133.135 111.475 133.147 111.183L133.381 105.384C133.415 104.842 133.337 104.299 133.152 103.788C132.967 103.278 132.679 102.811 132.306 102.416C131.933 102.022 131.483 101.709 130.983 101.496C130.484 101.283 129.946 101.175 129.403 101.179H125.58C125.037 101.174 124.499 101.281 123.999 101.492C123.5 101.704 123.049 102.017 122.675 102.411C122.302 102.805 122.013 103.271 121.828 103.781C121.643 104.292 121.565 104.834 121.598 105.376L121.73 108.596H122.411C122.946 108.596 123.476 108.702 123.97 108.91C124.464 109.117 124.911 109.421 125.286 109.803Z" fill="#F2E3CC"/>
<path opacity="0.38" d="M56.5154 127.972L56.4707 129.086H56.4931V130.849H58.8443V130.572L58.737 127.972H56.5154Z" fill="#F2E3CC"/>
<path opacity="0.38" d="M55.4281 124.638C56.0688 125.308 56.4542 126.181 56.5173 127.106H58.7403C58.7955 126.263 59.121 125.46 59.6686 124.816C60.046 124.38 60.5128 124.031 61.0375 123.792C61.562 123.553 62.1319 123.43 62.7082 123.432H63.3877L63.5188 120.219C63.5529 119.677 63.4751 119.134 63.2902 118.623C63.1053 118.112 62.8171 117.645 62.4437 117.25C62.0705 116.856 61.6199 116.542 61.1202 116.329C60.6204 116.117 60.0821 116.009 59.539 116.013H55.7261C55.1834 116.008 54.6457 116.115 54.1461 116.327C53.6466 116.539 53.196 116.852 52.8227 117.246C52.4493 117.639 52.1608 118.106 51.9753 118.616C51.7899 119.126 51.7114 119.669 51.7448 120.21L51.8759 123.432H52.5583C53.0929 123.431 53.6223 123.537 54.1152 123.745C54.6081 123.952 55.0545 124.256 55.4281 124.638Z" fill="#F2E3CC"/>
<path opacity="0.38" d="M70.4871 127.972L70.4424 129.086H70.4647V130.849H72.816V130.572L72.7102 127.972H70.4871Z" fill="#F2E3CC"/>
<path opacity="0.38" d="M69.3979 124.638C70.0376 125.309 70.4227 126.182 70.4871 127.106H72.7117C72.7668 126.263 73.0924 125.46 73.6399 124.816C74.0175 124.38 74.4843 124.031 75.0088 123.792C75.5334 123.554 76.1032 123.431 76.6795 123.432H77.3605L77.4901 120.219C77.5242 119.677 77.4464 119.134 77.2617 118.623C77.0768 118.113 76.7887 117.645 76.4156 117.251C76.0424 116.856 75.5921 116.543 75.0925 116.33C74.5929 116.117 74.0549 116.009 73.5118 116.013H69.6899C69.1473 116.008 68.6095 116.115 68.1099 116.327C67.6105 116.539 67.1599 116.852 66.7865 117.246C66.4131 117.639 66.1247 118.106 65.9392 118.616C65.7538 119.126 65.6753 119.669 65.7087 120.21L65.8413 123.432H66.5222C67.0578 123.431 67.5883 123.537 68.0822 123.744C68.5762 123.951 69.0235 124.256 69.3979 124.638Z" fill="#F2E3CC"/>
<path opacity="0.38" d="M84.4603 127.972L84.4141 129.086H84.4364V130.849H86.7876V130.572L86.6818 127.972H84.4603Z" fill="#F2E3CC"/>
<path opacity="0.38" d="M83.37 124.638C84.0107 125.308 84.3962 126.181 84.4592 127.106H86.6808C86.7382 126.263 87.0646 125.46 87.6121 124.816C87.9896 124.38 88.4564 124.031 88.9809 123.792C89.5056 123.554 90.0753 123.431 90.6517 123.432H91.3371L91.4667 120.219C91.5008 119.677 91.423 119.134 91.2383 118.623C91.0534 118.113 90.7654 117.645 90.3923 117.251C90.019 116.856 89.5687 116.543 89.0691 116.33C88.5695 116.117 88.0315 116.009 87.4884 116.013H83.6636C83.1209 116.008 82.5832 116.115 82.0836 116.327C81.5841 116.539 81.1337 116.852 80.7601 117.246C80.3868 117.639 80.0983 118.106 79.9128 118.616C79.7274 119.126 79.6489 119.669 79.6823 120.21L79.8134 123.432H80.4943C81.03 123.431 81.5604 123.537 82.0544 123.744C82.5483 123.951 82.9956 124.256 83.37 124.638Z" fill="#F2E3CC"/>
<path opacity="0.38" d="M98.4324 127.972L98.3877 129.086H98.41V130.849H100.76V130.572L100.654 127.972H98.4324Z" fill="#F2E3CC"/>
<path opacity="0.38" d="M97.3417 124.638C97.9824 125.308 98.3679 126.181 98.4309 127.106H100.654C100.709 126.263 101.035 125.46 101.582 124.816C101.96 124.38 102.426 124.031 102.951 123.792C103.476 123.553 104.046 123.43 104.622 123.432H105.301L105.432 120.219C105.467 119.677 105.389 119.134 105.204 118.623C105.019 118.112 104.731 117.645 104.357 117.25C103.984 116.856 103.534 116.542 103.034 116.329C102.534 116.117 101.996 116.009 101.453 116.013H97.6353C97.0926 116.008 96.5549 116.115 96.0553 116.327C95.5558 116.539 95.1054 116.852 94.7318 117.246C94.3584 117.639 94.07 118.106 93.8845 118.616C93.6991 119.126 93.6206 119.669 93.654 120.21L93.7851 123.432H94.466C95.0017 123.43 95.5323 123.536 96.0262 123.744C96.5201 123.951 96.9674 124.255 97.3417 124.638Z" fill="#F2E3CC"/>
<path opacity="0.38" d="M112.404 127.972L112.359 129.086H112.382V130.849H114.733V130.57L114.626 127.972H112.404Z" fill="#F2E3CC"/>
<path opacity="0.38" d="M111.313 124.638C111.954 125.308 112.34 126.181 112.403 127.106H114.626C114.681 126.263 115.006 125.46 115.554 124.816C115.931 124.38 116.398 124.031 116.923 123.792C117.447 123.553 118.017 123.43 118.594 123.432H119.275L119.404 120.219C119.438 119.677 119.361 119.134 119.176 118.623C118.991 118.113 118.703 117.645 118.33 117.251C117.957 116.856 117.506 116.543 117.007 116.33C116.507 116.117 115.969 116.009 115.426 116.013H111.601C111.058 116.008 110.521 116.115 110.021 116.327C109.522 116.539 109.071 116.852 108.698 117.246C108.324 117.639 108.036 118.106 107.85 118.616C107.665 119.126 107.586 119.669 107.62 120.21L107.752 123.432H108.433C108.97 123.43 109.501 123.535 109.996 123.743C110.491 123.95 110.939 124.255 111.313 124.638Z" fill="#F2E3CC"/>
<path opacity="0.38" d="M126.376 127.972L126.331 129.086H126.352V130.849H128.703V129.086H132.014C132.307 129.086 132.589 128.973 132.8 128.77C133.011 128.567 133.136 128.29 133.148 127.997L133.17 127.424C133.026 127.59 132.849 127.725 132.65 127.82C132.451 127.914 132.234 127.966 132.014 127.972H126.376Z" fill="#F2E3CC"/>
<path opacity="0.38" d="M125.286 124.639C125.927 125.308 126.312 126.181 126.375 127.106H132.014C132.306 127.106 132.588 126.993 132.799 126.79C133.01 126.587 133.135 126.311 133.147 126.018L133.381 120.219C133.416 119.677 133.338 119.134 133.153 118.623C132.968 118.113 132.68 117.646 132.307 117.251C131.934 116.856 131.483 116.543 130.984 116.33C130.484 116.117 129.946 116.009 129.403 116.013H125.58C125.037 116.008 124.499 116.115 123.999 116.327C123.5 116.538 123.049 116.851 122.675 117.245C122.302 117.639 122.013 118.105 121.828 118.616C121.643 119.126 121.565 119.669 121.598 120.21L121.733 123.432H122.414C122.949 123.431 123.479 123.537 123.972 123.745C124.465 123.952 124.912 124.256 125.286 124.639Z" fill="#F2E3CC"/>
</g>
</g>
<path d="M53.8358 39.571H43.6651C43.2471 39.5709 42.8333 39.653 42.4473 39.8127C42.0611 39.9726 41.7102 40.2068 41.4147 40.5023C41.1191 40.7978 40.8847 41.1485 40.7247 41.5346C40.5648 41.9205 40.4824 42.3344 40.4824 42.7522V52.9214C40.4824 53.7657 40.8177 54.5753 41.4146 55.1724C42.0113 55.7696 42.8208 56.1051 43.6651 56.1056H53.8358C54.6797 56.1048 55.489 55.769 56.0854 55.1719C56.6818 54.5749 57.017 53.7654 57.017 52.9214V42.7522C57.017 42.3344 56.9347 41.9208 56.7748 41.5349C56.615 41.149 56.3806 40.7982 56.0853 40.5027C55.7898 40.2074 55.4392 39.973 55.0531 39.8132C54.6672 39.6533 54.2536 39.571 53.8358 39.571ZM50.6606 50.9576C50.4233 51.1856 50.143 51.3642 49.836 51.4829C49.5291 51.6016 49.2016 51.6581 48.8726 51.649C48.259 51.6715 47.6593 51.463 47.1919 51.0649C46.9691 50.8739 46.7868 50.6404 46.6555 50.378C46.6112 50.283 46.5904 50.1787 46.5946 50.0738C46.5989 49.969 46.6281 49.8666 46.6798 49.7755C46.7315 49.6843 46.8043 49.6066 46.8921 49.5493C46.9799 49.4918 47.0801 49.4562 47.1844 49.4453C47.3342 49.4228 47.4872 49.4486 47.6212 49.519C47.7553 49.5895 47.8631 49.701 47.9294 49.8371C47.9837 49.9659 48.0632 50.0824 48.1634 50.1798C48.256 50.2712 48.3659 50.3431 48.4867 50.3914C48.6074 50.4398 48.7366 50.4635 48.8667 50.4615C49.0078 50.4634 49.1475 50.4343 49.2763 50.3764C49.405 50.3184 49.5194 50.233 49.6117 50.1262C49.8216 49.8708 49.928 49.546 49.9097 49.2158C49.9247 48.9053 49.8201 48.6009 49.6176 48.365C49.5296 48.2643 49.4206 48.1837 49.2985 48.1289C49.1763 48.0742 49.0437 48.0465 48.9099 48.0477H48.9024C48.8243 48.0505 48.7466 48.0362 48.6746 48.0059C48.6025 47.9757 48.5378 47.9302 48.4852 47.8726C48.4325 47.8149 48.3928 47.7464 48.3691 47.672C48.3456 47.5975 48.3383 47.5187 48.3481 47.4412V47.4174C48.3617 47.3086 48.4091 47.207 48.4837 47.1267C48.5584 47.0465 48.6564 46.9918 48.7638 46.9704C48.9592 46.9443 49.1433 46.8643 49.2958 46.7394C49.3953 46.6508 49.4737 46.5408 49.5252 46.4179C49.5768 46.2948 49.6002 46.1619 49.5938 46.0287C49.6021 45.9186 49.5868 45.808 49.5486 45.7045C49.5105 45.6008 49.4506 45.5066 49.3728 45.4281C49.295 45.3497 49.2015 45.2889 49.0982 45.2499C48.9949 45.2108 48.8844 45.1945 48.7743 45.2018C48.6579 45.1995 48.5423 45.2208 48.4344 45.2646C48.3265 45.3084 48.2288 45.3738 48.147 45.4565C48.0591 45.5446 47.9893 45.6488 47.9414 45.7635C47.8831 45.887 47.7855 45.9876 47.6638 46.0496C47.5422 46.1116 47.4035 46.1315 47.2694 46.1062H47.2515C47.1529 46.0902 47.0591 46.0519 46.9776 45.9941C46.8961 45.9365 46.8288 45.8609 46.781 45.7732C46.7331 45.6856 46.7059 45.588 46.7014 45.4883C46.6971 45.3884 46.7154 45.2889 46.7553 45.1973C46.8026 45.093 46.8595 44.9932 46.9252 44.8993C47.1214 44.621 47.3892 44.4007 47.7 44.2616C48.0501 44.1039 48.4305 44.0251 48.8145 44.0306C49.5197 44.0306 50.0844 44.2552 50.5086 44.7041C50.6736 44.8668 50.8047 45.0605 50.8947 45.274C50.9847 45.4875 51.0318 45.7165 51.0331 45.9482C51.0331 46.6049 50.6745 47.1283 49.9573 47.5187C50.3626 47.5971 50.7269 47.8167 50.9854 48.1385C51.2457 48.4666 51.3819 48.8761 51.3699 49.2948C51.3733 49.606 51.312 49.9145 51.19 50.2007C51.0678 50.4871 50.8875 50.7447 50.6606 50.9576Z" fill="#F2E3CC"/>
<path d="M71.3709 39.571H61.2046C60.3607 39.571 59.5512 39.9061 58.9541 40.5026C58.3571 41.0992 58.0213 41.9083 58.0205 42.7522V52.9214C58.0213 53.7657 58.357 54.5752 58.954 55.1721C59.5509 55.7691 60.3604 56.1048 61.2046 56.1056H71.3709C72.2148 56.1048 73.0241 55.769 73.6205 55.1719C74.217 54.5749 74.5521 53.7654 74.5521 52.9214V42.7522C74.5521 42.3344 74.4698 41.9208 74.3099 41.5349C74.1501 41.149 73.9157 40.7982 73.6204 40.5027C73.3249 40.2074 72.9741 39.973 72.5882 39.8132C72.2023 39.6533 71.7887 39.571 71.3709 39.571ZM68.0065 50.299C68.0953 50.299 68.1832 50.3166 68.2653 50.3506C68.3474 50.3846 68.422 50.4343 68.4848 50.4972C68.5477 50.5599 68.5974 50.6346 68.6314 50.7167C68.6654 50.7988 68.6829 50.8867 68.6829 50.9755C68.6829 51.0643 68.6654 51.1524 68.6314 51.2345C68.5974 51.3164 68.5477 51.3911 68.4848 51.4538C68.422 51.5167 68.3474 51.5664 68.2653 51.6006C68.1832 51.6345 68.0953 51.652 68.0065 51.652H64.9132C64.7444 51.6524 64.5784 51.6085 64.432 51.5247C64.2855 51.441 64.1635 51.3201 64.0781 51.1746C63.9927 51.029 63.9471 50.8635 63.9456 50.6946C63.9443 50.526 63.9871 50.3597 64.0699 50.2126C64.0742 50.2086 64.0774 50.2034 64.0788 50.1977C64.356 49.7398 64.9024 49.1324 65.7178 48.3755C66.3754 47.7626 66.7787 47.3474 66.9277 47.1298C67.115 46.8688 67.2189 46.5571 67.2257 46.2358C67.2344 46.1004 67.2156 45.9646 67.1706 45.8366C67.1255 45.7087 67.0551 45.5909 66.9635 45.4908C66.8452 45.3658 66.6963 45.2739 66.5315 45.224C66.3669 45.174 66.192 45.1678 66.0242 45.2061C65.8564 45.2442 65.7013 45.3254 65.5745 45.4418C65.4476 45.558 65.3532 45.7054 65.3006 45.8693C65.2561 46.0198 65.161 46.1501 65.0317 46.2389C64.9022 46.3276 64.7462 46.3692 64.5899 46.3565L64.505 46.3461C64.4019 46.3358 64.3026 46.3021 64.2146 46.2476C64.1267 46.1931 64.0523 46.119 63.9973 46.0312C63.9425 45.9435 63.9084 45.8444 63.8977 45.7414C63.8869 45.6385 63.9 45.5343 63.9358 45.4372C64.054 45.0843 64.2724 44.7737 64.5646 44.5432C65.0602 44.181 65.6632 43.9962 66.2766 44.0187C67.0276 44.0187 67.6172 44.2209 68.0452 44.6251C68.254 44.8163 68.4194 45.0499 68.5304 45.3102C68.6414 45.5705 68.6955 45.8515 68.6889 46.1345C68.6904 46.4694 68.6281 46.8017 68.5056 47.1134C68.3575 47.4636 68.1609 47.7911 67.9216 48.0864C67.6258 48.4316 67.306 48.7559 66.965 49.0564C66.5061 49.4795 66.22 49.7582 66.0903 49.8982C65.9768 50.0218 65.8768 50.1572 65.7923 50.302L68.0065 50.299Z" fill="#F2E3CC"/>
<path d="M113.044 110.615C111.758 111.835 110.41 112.984 109.17 114.238" stroke="#F2E3CC" stroke-width="2" stroke-miterlimit="10"/>
<path d="M94.3604 54.6504C94.4498 54.6683 94.5377 54.6906 94.6315 54.7174C101.959 56.6246 109.003 61.184 115.088 69.6741C118.197 74.0129 120.645 78.9121 121.635 84.1971C122.864 90.762 121.525 97.3434 118.552 103.199" stroke="#F2E3CC" stroke-width="2" stroke-miterlimit="10"/>
<path d="M103.853 122.241C102.727 124.312 101.489 126.3 99.5904 127.79C96.3571 130.336 91.7799 130.722 87.8492 129.502C83.0812 128.021 77.9676 124.326 76.2853 119.464C74.4318 114.1 72.0537 108.736 65.6974 108.065C60.171 107.493 54.8353 110.406 49.3521 108.375C38.6584 104.415 47.956 88.9875 44.9432 81.4421C43.7065 78.3415 41.2659 76.549 38.3216 75.3331C32.8384 73.0534 25.6224 72.7465 21.2135 69.625C13.5593 64.2014 11.4808 53.4912 10.0623 44.9684C8.41886 34.9491 8.41281 24.7293 10.0444 14.708" stroke="#F2E3CC" stroke-width="2" stroke-miterlimit="10"/>
<path d="M39.1872 14.1951L38.8177 14.9759C38.6344 15.3663 38.4556 15.7641 38.2887 16.1679C37.4536 18.1353 36.8026 20.1759 36.3443 22.2635C36.0126 23.7569 35.7827 25.2714 35.6559 26.7961C35.6336 27.0598 35.6157 27.325 35.6023 27.5888C35.5057 29.1162 35.5141 30.6486 35.6276 32.175C35.6276 32.2316 35.6276 32.2912 35.638 32.3493H24.0637C24.1951 31.3787 24.2757 30.4019 24.3051 29.4229C24.3051 29.1756 24.3155 28.9223 24.3155 28.6779C24.3155 28 24.2917 27.3206 24.238 26.6471C24.1671 25.6227 24.0342 24.6037 23.8402 23.5956C23.7136 22.9206 23.5601 22.2471 23.3753 21.5826C22.7833 19.3885 21.9163 17.2784 20.7946 15.3022L20.6456 15.0266L20.1748 14.1951H39.1872Z" stroke="black" stroke-miterlimit="10"/>
<path d="M39.1875 14.1951L38.8179 14.9759C38.6347 15.3663 38.4559 15.7641 38.289 16.1679C37.4538 18.1353 36.8029 20.1759 36.3445 22.2635C35.2917 22.6347 34.183 22.8231 33.0665 22.8208C32.7062 22.82 32.3461 22.8011 31.9878 22.7641C29.7838 22.5202 27.7252 21.5438 26.1419 19.9914C24.5586 18.4388 23.542 16.3999 23.2549 14.201L39.1875 14.1951Z" stroke="black" stroke-miterlimit="10"/>
<path d="M39.1873 14.1951L38.8178 14.9759C38.6345 15.3663 38.4557 15.7641 38.2888 16.1679C37.4537 18.1353 36.8027 20.1759 36.3444 22.2635C36.0129 23.7569 35.7828 25.2714 35.656 26.7961C35.4459 26.8065 35.2358 26.811 35.0242 26.811C31.2274 26.8159 27.5595 25.4333 24.7105 22.9236C24.2374 22.5034 23.7896 22.0556 23.3695 21.5826C22.7776 19.3885 21.9105 17.2784 20.7888 15.3022L20.6398 15.0266L20.1689 14.1951H39.1873Z" stroke="black" stroke-miterlimit="10"/>
<path d="M20.7354 14.1951H39.1875L38.818 14.9759C38.6347 15.3663 38.4559 15.7641 38.289 16.1679C37.4539 18.1353 36.8029 20.1759 36.3446 22.2635C36.0129 23.7569 35.783 25.2714 35.6562 26.7961" stroke="black" stroke-miterlimit="10"/>
<path d="M35.6111 27.5831C35.5145 29.1105 35.523 30.6429 35.6364 32.1693C34.3239 32.1288 33.0219 31.9199 31.7624 31.548C28.8274 30.6847 26.2113 28.9774 24.2394 26.6384C24.1676 25.617 24.0342 24.601 23.8401 23.5958C23.7134 22.9209 23.5599 22.2474 23.3752 21.5829C22.7834 19.3888 21.9162 17.2787 20.7945 15.3025L20.6455 15.0269" stroke="black" stroke-miterlimit="10"/>
<path d="M30.0005 14.1951C29.4931 16.5635 28.4418 18.7815 26.9296 20.6737C26.2703 21.4958 25.5278 22.2478 24.714 22.9176C24.4309 23.159 24.1388 23.3825 23.8334 23.5956C23.7067 22.9206 23.5532 22.2471 23.3685 21.5826C22.7767 19.3885 21.9095 17.2784 20.7878 15.3022L20.6388 15.0266L20.168 14.1951H30.0005Z" stroke="black" stroke-miterlimit="10"/>
<path d="M31.995 22.7582C31.3465 23.8839 30.5591 24.9236 29.6512 25.8529C28.7167 26.8013 27.6652 27.6269 26.5222 28.3099C26.3956 28.3889 26.2674 28.4589 26.1363 28.5304C25.5467 28.8673 24.9343 29.1625 24.3036 29.414C24.3036 29.1667 24.314 28.9134 24.314 28.669C24.314 27.9911 24.2902 27.3116 24.2365 26.6381C24.1658 25.6169 24.0333 24.6009 23.8402 23.5956C23.7136 22.9206 23.5601 22.2471 23.3753 21.5826C22.7833 19.3885 21.9163 17.2784 20.7946 15.3022L20.6456 15.0266L20.1748 14.1951H34.0974C34.2301 17.1918 33.5005 20.1636 31.995 22.7582Z" stroke="black" stroke-miterlimit="10"/>
<path d="M39.3672 13.5945H11.1555C10.54 13.5945 10.041 14.0935 10.041 14.709C10.041 15.3245 10.54 15.8235 11.1555 15.8235H39.3672C39.9827 15.8235 40.4817 15.3245 40.4817 14.709C40.4817 14.0935 39.9827 13.5945 39.3672 13.5945Z" fill="black"/>
<path d="M82.8354 41.2148C82.5211 40.8736 82.1754 40.6426 81.7924 40.5979C76.6251 40.9361 71.8303 43.6598 67.2128 46.0498C63.376 48.0375 59.6063 50.1577 55.9424 52.4568C53.2098 54.1688 50.5307 55.9777 47.9575 57.9296C46.2023 59.2557 44.4858 60.6533 42.8617 62.1433C42.5429 62.4413 39.3349 65.174 39.9696 65.8385C40.6044 66.503 41.6086 65.6031 42.1659 65.2708C42.7231 64.9385 43.5799 64.2859 44.1521 63.9805C43.3771 65.2507 42.7792 66.6208 42.3745 68.0526C42.2359 68.5712 42.0452 69.1388 42.0765 69.6797C42.0892 69.8767 42.1784 70.0609 42.3252 70.1929C42.4719 70.3249 42.6646 70.3942 42.8617 70.386C43.0259 70.3794 43.1842 70.3227 43.315 70.2233C43.4459 70.1239 43.5431 69.9867 43.5933 69.8302L45.9401 64.1444C45.6257 65.022 44.9596 67.1244 44.7481 68.5533C44.6512 69.188 44.9075 69.7065 45.5065 69.565C45.6564 69.5231 45.7942 69.4461 45.9085 69.3403C46.0228 69.2347 46.1102 69.1032 46.1636 68.9571L48.2764 63.4858C47.8446 64.9379 47.6087 66.4412 47.5746 67.9558C47.573 68.0291 47.5861 68.1021 47.613 68.1704C47.6402 68.2386 47.6804 68.3009 47.7318 68.3533C47.7832 68.4058 47.8444 68.4475 47.9121 68.476C47.9799 68.5044 48.0524 68.519 48.1259 68.519C48.7725 68.519 48.8709 67.4462 49.0393 66.9977C49.5272 65.7256 50.2597 64.5613 51.1953 63.5707C51.8509 62.8749 52.7389 62.3996 53.5674 61.9317C55.1974 61.0476 56.8978 60.3 58.6513 59.6967C62.567 58.2857 66.6079 57.2576 70.6145 56.149C70.6666 56.1356 70.7158 56.1177 70.7635 56.1043C70.8827 56.073 70.9989 56.0373 71.1181 56.006C73.4738 55.3459 75.825 54.665 78.1345 53.8589C78.2835 53.8068 78.4325 53.7576 78.5696 53.7099C78.5718 53.7072 78.5745 53.705 78.5775 53.7035C78.5806 53.7019 78.584 53.701 78.5875 53.701C79.9493 53.0901 81.2695 52.348 82.3408 51.457C82.3408 51.457 82.3408 51.457 82.3497 51.4481C86.0643 47.8959 83.8248 42.967 82.8354 41.2148ZM45.9848 64.0371C46.0158 63.9344 46.0557 63.8347 46.104 63.7391L45.9848 64.0371Z" fill="white"/>
<path d="M45.9443 64.1387C45.9443 64.1387 45.9443 64.1253 45.9533 64.1208L45.9846 64.0374" fill="white"/>
<path d="M45.9443 64.1387C45.9443 64.1387 45.9443 64.1253 45.9533 64.1208L45.9846 64.0374" fill="white"/>
<path d="M99.9617 88.6176C99.9617 88.6176 100.26 97.5576 107.263 99.0968C114.266 100.636 113.762 102.352 118.903 103.199C124.043 104.045 115.415 111.096 115.415 111.096L106.744 109.281L108.888 113.761L105.312 123.434C105.312 123.434 90.3468 108.397 85.0871 99.0849C79.8274 89.7724 92.0245 86.5957 92.3881 86.5957C92.7516 86.5957 99.9617 88.6176 99.9617 88.6176Z" fill="white"/>
<path d="M88.025 98.2894C88.2291 98.5337 88.4422 98.7736 88.6597 99.0165C89.1932 99.5425 88.0086 100.858 86.7347 101.453C82.8085 95.9292 79.0925 89.9588 76.2093 83.9094C76.0096 83.4877 75.81 83.0616 75.6133 82.6354C75.5686 82.5431 75.5239 82.4447 75.4852 82.3479C75.2274 81.7519 74.9294 81.0575 74.6865 80.463C76.8157 78.7987 80.2934 75.2644 82.3421 72.4826C83.7651 70.5456 85.5844 70.1939 87.0386 70.3057C87.0565 70.3057 87.0744 70.3057 87.0878 70.3057C87.7154 70.3599 88.3339 70.491 88.9294 70.6961C88.9473 70.6961 88.9637 70.7095 88.9816 70.7125C89.0397 70.7303 89.0933 70.7482 89.15 70.7706C89.2066 70.7929 89.2572 70.8063 89.3109 70.8287C89.8185 71.0088 90.3096 71.2326 90.7785 71.4977C98.1108 77.3087 99.0868 84.4771 100.244 90.0258C97.0216 93.5914 91.7023 100.138 88.025 98.2894Z" fill="#ED9107"/>
<path d="M91.0468 68.3985C90.6698 69.5726 90.421 70.2744 90.421 70.2744C90.421 70.2744 90.123 71.1118 89.4719 70.8868C88.8207 70.6618 84.9304 68.9751 82.3482 72.4826C80.2994 75.2644 76.8218 78.7987 74.6926 80.463C74.2795 80.8115 73.8251 81.1077 73.3397 81.3451C71.7915 81.9664 70.0214 83.2389 70.0617 81.652C70.1019 80.0652 69.3256 56.5098 70.6264 56.1462C71.9271 55.7827 86.4651 53.272 84.7575 45.4704C84.7575 45.4704 83.64 40.7992 81.7954 40.5995C79.9508 40.3999 82.7758 40.5638 82.7758 40.5638C82.7758 40.5638 91.771 40.3641 94.1222 46.7875C95.9877 51.9057 92.5294 63.7899 91.0468 68.3985Z" fill="#2E2E2E"/>
<path d="M116.601 29.7998C116.072 29.6269 115.647 27.0194 114.653 27.7138C114.018 28.1608 114.862 30.6938 114.918 31.1333C115.05 32.15 114.957 33.1833 114.644 34.1595C114.613 34.1767 114.58 34.1911 114.546 34.2027C114.364 34.2868 114.177 34.3589 113.986 34.4188C113.898 34.4501 113.804 34.4769 113.711 34.5037C113.619 34.5305 113.562 34.5439 113.494 34.5618L113.249 34.614C113.135 34.6363 113.023 34.6587 112.908 34.6766C112.559 34.7306 112.206 34.7575 111.852 34.757C111.724 34.757 111.596 34.757 111.47 34.7481C111.391 34.7481 111.321 34.7347 111.237 34.7302C111.187 34.7302 111.134 34.7213 111.088 34.7123C110.837 34.6862 110.588 34.6445 110.343 34.5872C110.259 34.5708 110.179 34.5529 110.1 34.5305C110.02 34.5131 109.941 34.4908 109.864 34.4635C109.73 34.4233 109.598 34.38 109.469 34.3353C109.425 34.3175 109.375 34.2996 109.32 34.2772C109.2 34.2325 109.08 34.1804 108.964 34.1282C108.953 34.127 108.943 34.1224 108.934 34.1148C108.657 33.9849 108.388 33.8355 108.131 33.6678C108.116 33.6622 108.102 33.6529 108.091 33.641C107.074 32.6946 106.366 31.4637 106.058 30.1088C105.751 28.754 105.858 27.338 106.367 26.0451C106.876 24.7524 107.762 23.6428 108.911 22.8609C110.059 22.0789 111.416 21.661 112.805 21.6614C114.138 21.6574 115.442 22.0427 116.559 22.77C116.642 22.8489 116.727 22.9294 116.808 23.0143C116.888 23.0993 116.972 23.1872 117.05 23.2751C115.636 23.3377 117.042 26.118 117.259 27.0194C117.433 27.6825 118.009 30.2468 116.601 29.7998Z" fill="#ED9107"/>
<path d="M106.416 109.2C107.83 111.955 109.174 114.324 110.412 116.333C114.622 123.187 117.54 125.923 117.54 125.923L114.09 140.428C114.039 140.642 113.941 140.841 113.801 141.011C113.662 141.181 113.486 141.317 113.286 141.408C113.096 141.504 112.887 141.555 112.674 141.557C112.288 141.556 111.917 141.402 111.644 141.129C111.371 140.855 111.217 140.485 111.215 140.098V129.725C111.215 129.725 108.35 127.043 104.136 122.548C99.3579 117.45 92.8466 110.032 86.8241 101.576C86.7928 101.536 86.766 101.491 86.7347 101.452C82.8085 95.9289 79.0925 89.9584 76.2093 83.909C76.0096 83.4874 75.81 83.0612 75.6133 82.6351C75.5686 82.5427 75.5239 82.4444 75.4852 82.3475C75.205 81.7396 74.9428 81.1317 74.6865 80.5193" stroke="black" stroke-linecap="round" stroke-linejoin="round"/>
<path d="M78.1436 82.0109C78.1436 82.0109 81.6346 90.8109 88.0252 98.2892C88.0833 98.3562 88.137 98.4218 88.1936 98.4888C88.3426 98.6661 88.5005 98.839 88.66 99.0163C92.0184 102.783 96.1293 106.122 100.915 107.675C102.739 108.271 104.579 108.767 106.416 109.2C110.186 110.106 113.947 110.766 117.541 111.534C125.831 113.295 133.22 115.597 137.718 122.615C137.899 122.884 138.172 123.079 138.486 123.163C138.8 123.246 139.133 123.213 139.424 123.07C139.716 122.926 139.945 122.682 140.069 122.382C140.194 122.082 140.206 121.747 140.102 121.439L135.623 109.121C135.623 109.121 126.844 106.141 118.298 103.106C113.209 101.305 108.201 99.4916 105.168 98.2758C101.957 96.9899 101.066 93.9071 100.258 90.0301C100.014 88.8634 99.7783 87.6223 99.4908 86.3394C98.4075 81.5267 96.5808 76.0941 90.7922 71.502" stroke="black" stroke-linecap="round" stroke-linejoin="round"/>
<path d="M44.1581 63.9764C43.5829 64.2818 42.7307 64.9344 42.1704 65.2652C41.6102 65.596 40.6029 66.4885 39.9742 65.8329C39.3454 65.1773 42.5474 62.4312 42.8677 62.1332C44.4889 60.6432 46.2039 59.2486 47.9606 57.9195C50.5368 55.9706 53.2128 54.1602 55.9485 52.4467C59.6109 50.1521 63.3821 48.0334 67.2173 46.0397C73.1252 42.9793 79.3221 39.3824 86.2178 40.9216C88.642 41.4625 91.0186 42.6709 92.6874 44.5438C95.3396 47.5148 95.2845 51.6958 94.5037 55.3686C93.4056 60.5375 91.6548 66.0415 90.1723 71.109" stroke="black" stroke-linecap="round" stroke-linejoin="round"/>
<path d="M90.5449 42.5286C95.3576 43.4226 100.646 44.6579 105.467 43.141C109.019 42.0191 113.415 38.2389 114.644 34.1683C114.957 33.1916 115.051 32.1578 114.918 31.1406C114.862 30.7025 114.024 28.174 114.653 27.721C115.647 27.0252 116.072 29.6327 116.601 29.807C118.01 30.254 117.433 27.6868 117.27 27.0267C117.052 26.1252 115.647 23.3449 117.061 23.2823C117.061 23.2823 117.079 23.2823 117.088 23.2823C117.918 23.2644 118.84 26.091 118.903 26.3919C119.572 29.4524 119.367 32.6589 118.88 35.7462C117.577 43.9754 111.593 52.4208 102.849 53.5114C100.167 53.8437 97.4421 53.9197 94.7408 54.0881" stroke="black" stroke-linecap="round" stroke-linejoin="round"/>
<path d="M90.5429 42.5277C90.5429 42.5277 89.6176 39.3584 92.8718 36.6541C96.1259 33.9497 95.4927 29.0551 93.2324 27.6172C90.972 26.1794 87.6523 25.2005 85.0776 27.2328C82.5029 29.2652 81.6208 30.9578 81.6208 30.9578L82.4343 31.7028C82.4343 31.7028 79.2815 35.9091 81.9337 36.9893C84.5859 38.0696 86.6361 36.7867 86.6361 36.7867" stroke="black" stroke-linecap="round" stroke-linejoin="round"/>
<path d="M85.3896 27.8377C85.3896 27.8377 86.5012 27.7021 86.163 29.3277" stroke="black" stroke-linecap="round" stroke-linejoin="round"/>
<path d="M87.9971 26.0867C87.9971 26.0867 89.7538 26.8823 89.4155 27.8344C89.0773 28.7865 88.5141 28.5154 88.7272 30.2765C88.8122 30.877 88.7409 31.4893 88.5201 32.0541C88.4009 32.3402 88.0313 32.5697 88.1461 32.9168C88.2683 33.2893 88.8464 33.4011 89.1697 33.3355C89.5735 33.2551 89.7821 32.972 90.1144 32.7783C90.4505 32.6106 90.8263 32.5385 91.2006 32.5697C91.8726 32.5965 92.5952 32.9407 92.4745 33.7259C92.3717 34.3979 91.6654 34.7108 91.1782 35.0669C90.3438 35.6912 89.7687 37.9292 91.0843 38.4045" stroke="black" stroke-linecap="round" stroke-linejoin="round"/>
<path d="M44.1583 63.9759C43.3842 65.2462 42.7857 66.6156 42.3792 68.0466C42.2422 68.5666 42.0514 69.1313 42.0812 69.6736C42.092 69.8708 42.1806 70.0557 42.3275 70.1875C42.4746 70.3194 42.6678 70.3875 42.865 70.3769C43.0293 70.3711 43.1879 70.3149 43.3191 70.216C43.4505 70.1172 43.5484 69.9804 43.5995 69.8241L45.9448 64.1368C45.9448 64.1368 45.9448 64.1234 45.9448 64.1189L45.9746 64.037C46.0098 63.9307 46.0516 63.8267 46.0998 63.7256L45.9746 64.037L45.9448 64.1189C45.9448 64.1189 45.9448 64.1323 45.9448 64.1368C45.6304 65.0189 44.9659 67.1168 44.7528 68.5487C44.6574 69.1804 44.9122 69.7019 45.5127 69.5574C45.6625 69.5164 45.8001 69.4399 45.914 69.3344C46.0278 69.2287 46.1145 69.0973 46.1668 68.951L48.2767 63.4871C47.8459 64.9395 47.6109 66.4427 47.5778 67.9571C47.5765 68.0303 47.5896 68.1029 47.6167 68.1708C47.6437 68.2388 47.6839 68.3006 47.7352 68.3527C47.7863 68.4049 47.8474 68.4463 47.9149 68.4746C47.9822 68.5029 48.0546 68.5174 48.1277 68.5174C48.7758 68.5174 48.8727 67.4476 49.0425 66.9991C49.5305 65.7272 50.2624 64.5631 51.1971 63.5721C51.8556 62.8718 52.7392 62.4009 53.5691 61.9331C55.1984 61.0476 56.899 60.2999 58.653 59.6981C62.7326 58.226 66.9538 57.1651 71.1258 56.0088C73.4815 55.3503 75.8342 54.6678 78.1452 53.8647C89.0326 50.0682 83.3855 41.9358 83.3855 41.9358" stroke="black" stroke-linecap="round" stroke-linejoin="round"/>
<path d="M85.2666 70.3754C85.8532 70.2709 86.4513 70.2474 87.0442 70.3054C87.0621 70.3054 87.0799 70.3054 87.0933 70.3054C87.7193 70.37 88.3366 70.5008 88.935 70.6957L88.9871 70.7121C89.0452 70.73 89.0989 70.7479 89.1555 70.7702C89.2121 70.7926 89.2628 70.806 89.3164 70.8283C89.8241 71.0085 90.3152 71.2323 90.7841 71.4974" stroke="black" stroke-width="2" stroke-linecap="round" stroke-linejoin="round"/>
<path d="M85.2063 29.5153C85.3663 29.2081 85.3346 28.8749 85.1353 28.7711C84.9361 28.6672 84.6448 28.8322 84.4848 29.1394C84.3248 29.4466 84.3565 29.7799 84.5557 29.8836C84.7549 29.9875 85.0462 29.8226 85.2063 29.5153Z" fill="black"/>
<path d="M83.8933 37.4153L82.4346 40.5637" stroke="black" stroke-linecap="round" stroke-linejoin="round"/>
<path d="M82.2305 33.7675C82.2305 33.7675 84.0274 34.2145 84.5012 33.2251" stroke="black" stroke-linecap="round" stroke-linejoin="round"/>
<path d="M116.6 29.8002C116.071 29.6274 115.647 27.0199 114.653 27.7142C114.018 28.1612 114.862 30.6942 114.918 31.1337C115.05 32.1504 114.957 33.1835 114.644 34.1599L114.546 34.1987C114.364 34.284 114.177 34.3578 113.985 34.4192C113.897 34.4505 113.804 34.4773 113.711 34.5041C113.619 34.5309 113.562 34.5444 113.494 34.5622L113.249 34.6144C113.135 34.6367 113.023 34.6591 112.908 34.677C112.559 34.7309 112.205 34.7579 111.852 34.7574C111.724 34.7574 111.595 34.7574 111.47 34.7485C111.391 34.7485 111.321 34.7351 111.236 34.7306C111.187 34.7306 111.134 34.7217 111.087 34.7127C110.837 34.6866 110.588 34.6448 110.342 34.5876C110.259 34.5712 110.178 34.5533 110.099 34.5309C110.02 34.5135 109.941 34.491 109.864 34.4639C109.73 34.4237 109.597 34.3805 109.469 34.3358C109.425 34.3179 109.375 34.3 109.32 34.2776C109.2 34.2329 109.08 34.1808 108.964 34.1286C108.953 34.1274 108.942 34.1227 108.934 34.1152C108.656 33.9852 108.388 33.8359 108.131 33.6682C108.116 33.6624 108.102 33.6533 108.091 33.6414C107.285 33.1224 106.596 32.4417 106.067 31.6421C105.538 30.8426 105.181 29.9419 105.019 28.9972C104.857 28.0524 104.894 27.0844 105.126 26.1543C105.358 25.2243 105.781 24.3528 106.368 23.5949C106.955 22.8371 107.693 22.2095 108.535 21.7523C109.378 21.295 110.306 21.0178 111.261 20.9386C112.216 20.8591 113.178 20.9792 114.084 21.2912C114.99 21.6033 115.822 22.1003 116.526 22.751L116.559 22.7704C116.642 22.8493 116.727 22.9298 116.807 23.0147C116.888 23.0997 116.971 23.1876 117.05 23.2755C115.636 23.3381 117.041 26.1184 117.259 27.0199C117.433 27.6829 118.008 30.2472 116.6 29.8002Z" stroke="black" stroke-linecap="round" stroke-linejoin="round"/>
<path d="M70.0557 56.4426L70.0914 82.905" stroke="black" stroke-linecap="round" stroke-linejoin="round"/>
<path d="M76.2096 83.9097C76.2096 83.9097 72.3282 84.3001 71.0468 83.8158C70.7763 83.7333 70.5236 83.6008 70.3018 83.4255C70.2273 83.3626 70.1693 83.2826 70.1329 83.1921C70.0966 83.1017 70.0829 83.0038 70.0932 82.9069C70.1148 82.7937 70.1703 82.6897 70.2526 82.6089C70.634 82.1783 71.2718 82.1202 71.7918 81.9697C72.8322 81.6515 73.8126 81.1626 74.6928 80.5229" stroke="black" stroke-width="2" stroke-linecap="round" stroke-linejoin="round"/>
<path d="M76.2096 83.9097C76.2096 83.9097 72.3282 84.3001 71.0468 83.8158C70.7763 83.7333 70.5236 83.6008 70.3018 83.4255C70.2273 83.3626 70.1693 83.2826 70.1329 83.1921C70.0966 83.1017 70.0829 83.0038 70.0932 82.9069C70.1148 82.7937 70.1703 82.6897 70.2526 82.6089C70.634 82.1783 71.2718 82.1202 71.7918 81.9697C72.8322 81.6515 73.8126 81.1626 74.6928 80.5229" fill="black"/>
</svg>
