<svg width="362" height="362" viewBox="0 0 362 362" fill="none" xmlns="http://www.w3.org/2000/svg">
<g clip-path="url(#clip0_683_1270)">
<path d="M181 361.094C280.463 361.094 361.094 280.463 361.094 181C361.094 81.5368 280.463 0.906006 181 0.906006C81.537 0.906006 0.90625 81.5368 0.90625 181C0.90625 280.463 81.537 361.094 181 361.094Z" fill="#FFF6E8"/>
<path d="M242.515 280.67C236.174 280.67 230.224 279.27 225.142 275.977C218.141 271.443 213.834 264.304 212.336 254.758C212.299 254.522 212.462 254.299 212.699 254.262C212.943 254.226 213.157 254.388 213.195 254.624C214.651 263.916 218.83 270.854 225.614 275.249C245.765 288.305 280.103 270.852 296.963 254.947C314.689 238.223 324.174 222.831 332.96 204.865C333.066 204.65 333.326 204.56 333.541 204.666C333.755 204.772 333.846 205.032 333.739 205.247C324.912 223.298 315.382 238.766 297.559 255.579C284.718 267.693 261.816 280.668 242.515 280.668V280.67Z" fill="#D3BBA3"/>
<path d="M341.612 233.129C333.21 235.877 326.5 231.936 325.811 227.604C325.122 223.274 330.275 217.338 339.115 217.444C347.913 217.55 357.423 222.569 357.423 222.569C357.423 222.569 350.595 230.19 341.612 233.129Z" fill="#ED9107"/>
<path d="M320.17 228.86C319.96 228.86 319.777 228.708 319.743 228.494C319.706 228.258 319.867 228.035 320.103 227.998L349.991 223.239C350.227 223.199 350.45 223.363 350.487 223.599C350.524 223.835 350.363 224.057 350.127 224.095L320.239 228.854C320.216 228.858 320.194 228.86 320.17 228.86Z" fill="#D3BBA3"/>
<path d="M314.854 208.703C317.824 219.111 312.689 227.137 307.359 227.779C302.027 228.421 295.006 221.837 295.548 211.027C296.087 200.267 302.671 188.865 302.671 188.865C302.671 188.865 311.677 197.574 314.852 208.703H314.854Z" fill="#ED9107"/>
<path d="M309.067 243.206C308.851 243.206 308.664 243.045 308.636 242.824L303.235 197.978C303.208 197.74 303.377 197.523 303.615 197.496C303.847 197.466 304.07 197.637 304.097 197.876L309.498 242.722C309.526 242.96 309.357 243.177 309.118 243.204C309.101 243.206 309.083 243.208 309.067 243.208V243.206Z" fill="#D3BBA3"/>
<path d="M342.018 188.192C342.61 196.175 337.689 201.22 333.731 200.885C329.773 200.553 325.673 194.732 327.687 186.983C329.69 179.27 336.166 171.999 336.166 171.999C336.166 171.999 341.384 179.656 342.018 188.192Z" fill="#ED9107"/>
<path d="M333.35 205.491C333.338 205.491 333.326 205.491 333.314 205.491C333.076 205.471 332.897 205.26 332.917 205.022L335.095 178.677C335.115 178.439 335.324 178.268 335.564 178.28C335.802 178.3 335.981 178.51 335.961 178.748L333.783 205.093C333.763 205.32 333.574 205.491 333.35 205.491Z" fill="#D3BBA3"/>
<path d="M315.299 273.627C304.589 272.053 299.387 264.072 300.995 258.948C302.604 253.825 311.492 250.133 321.123 255.075C330.708 259.993 338.392 270.685 338.392 270.685C338.392 270.685 326.75 275.31 315.299 273.627Z" fill="#ED9107"/>
<path d="M329.722 268.297C329.679 268.297 329.636 268.292 329.592 268.278L295.16 257.47C294.932 257.399 294.804 257.155 294.876 256.927C294.947 256.699 295.191 256.571 295.42 256.644L329.852 267.451C330.08 267.522 330.208 267.766 330.135 267.994C330.078 268.179 329.907 268.297 329.722 268.297Z" fill="#D3BBA3"/>
<path d="M286.435 243.289C290.172 251.3 287.066 258.435 282.851 259.639C278.635 260.844 272.122 256.441 271.165 247.653C270.212 238.906 274.052 228.86 274.052 228.86C274.052 228.86 282.437 234.721 286.435 243.287V243.289Z" fill="#ED9107"/>
<path d="M284.342 265.573C284.153 265.573 283.98 265.449 283.925 265.259L275.607 236.16C275.542 235.93 275.674 235.69 275.907 235.623C276.135 235.56 276.377 235.69 276.444 235.922L284.762 265.02C284.827 265.251 284.695 265.491 284.462 265.558C284.423 265.57 284.384 265.573 284.342 265.573Z" fill="#D3BBA3"/>
<path d="M245.86 267.012C240.707 274.194 232.966 274.982 229.85 271.895C226.734 268.809 227.384 260.976 234.576 255.837C241.736 250.721 252.372 249.148 252.372 249.148C252.372 249.148 251.371 259.33 245.86 267.01V267.012Z" fill="#ED9107"/>
<path d="M225.786 276.326C225.675 276.326 225.565 276.285 225.48 276.2C225.309 276.031 225.309 275.757 225.477 275.586L246.771 254.079C246.94 253.908 247.214 253.908 247.385 254.075C247.556 254.244 247.556 254.518 247.389 254.689L226.095 276.196C226.01 276.283 225.898 276.324 225.786 276.324V276.326Z" fill="#D3BBA3"/>
<path d="M270.252 290.029C261.418 290.328 256.071 284.673 256.614 280.321C257.157 275.97 263.763 271.704 272.22 274.269C280.64 276.822 288.375 284.291 288.375 284.291C288.375 284.291 279.696 289.708 270.25 290.029H270.252Z" fill="#ED9107"/>
<path d="M281.002 283.726C280.985 283.726 280.967 283.726 280.947 283.722L250.916 279.969C250.678 279.939 250.51 279.723 250.54 279.485C250.57 279.247 250.784 279.083 251.024 279.109L281.056 282.862C281.294 282.892 281.461 283.108 281.432 283.346C281.404 283.567 281.217 283.726 281 283.726H281.002Z" fill="#D3BBA3"/>
<path d="M114.468 294.38C92.5556 294.38 69.167 269.907 59.1506 251.211C47.5793 229.613 43.446 211.923 40.7987 192.004C40.7672 191.766 40.9345 191.548 41.1707 191.516C41.4109 191.485 41.6274 191.652 41.6589 191.888C44.2943 211.714 48.4079 229.318 59.9162 250.8C70.8616 271.23 97.8875 298.673 121.146 292.678C128.974 290.66 135.136 285.405 139.465 277.056C139.575 276.841 139.837 276.761 140.049 276.871C140.262 276.981 140.344 277.243 140.234 277.456C135.788 286.033 129.438 291.438 121.361 293.52C119.091 294.105 116.787 294.378 114.466 294.378L114.468 294.38Z" fill="#D3BBA3"/>
<path d="M24.4898 215.952C31.5873 221.223 39.2004 219.613 41.2277 215.724C43.255 211.834 40.2495 204.572 31.8333 201.869C23.4545 199.181 12.8438 200.924 12.8438 200.924C12.8438 200.924 16.9023 210.317 24.4898 215.952Z" fill="#ED9107"/>
<path d="M46.3155 218.723C46.2486 218.723 46.1797 218.708 46.1147 218.674L19.2778 204.682C19.0652 204.572 18.9825 204.31 19.0928 204.097C19.203 203.885 19.4648 203.802 19.6773 203.912L46.5143 217.905C46.7268 218.015 46.8095 218.277 46.6993 218.489C46.6225 218.639 46.471 218.723 46.3135 218.723H46.3155Z" fill="#D3BBA3"/>
<path d="M57.6133 201.271C51.496 210.199 53.8205 219.44 58.6722 221.741C63.5239 224.039 72.2727 220.022 75.1857 209.598C78.0849 199.222 75.4573 186.32 75.4573 186.32C75.4573 186.32 64.1557 191.723 57.6133 201.271Z" fill="#ED9107"/>
<path d="M52.2972 235.851C52.2342 235.851 52.1712 235.837 52.1121 235.809C51.8956 235.707 51.8031 235.449 51.9055 235.233L71.2493 194.413C71.3517 194.197 71.6095 194.104 71.828 194.207C72.0445 194.309 72.137 194.567 72.0347 194.783L52.6908 235.603C52.616 235.76 52.4605 235.851 52.2991 235.851H52.2972Z" fill="#D3BBA3"/>
<path d="M38.3561 173.206C35.262 180.589 38.3305 186.932 42.1902 187.871C46.0499 188.81 51.7834 184.59 52.3306 176.605C52.8758 168.655 49.0416 159.706 49.0416 159.706C49.0416 159.706 41.6647 165.311 38.3561 173.206Z" fill="#ED9107"/>
<path d="M41.2277 192.382C41.1942 192.382 41.1588 192.378 41.1234 192.37C40.8911 192.313 40.7474 192.079 40.8045 191.845L47.0911 166.169C47.1481 165.937 47.3824 165.793 47.6166 165.85C47.8488 165.907 47.9925 166.142 47.9354 166.376L41.6489 192.052C41.5997 192.25 41.4225 192.382 41.2277 192.382Z" fill="#D3BBA3"/>
<path d="M36.6044 262.704C47.2585 264.607 54.726 258.686 54.8244 253.317C54.9248 247.948 47.6639 241.628 36.9646 243.261C26.3144 244.887 15.6367 252.591 15.6367 252.591C15.6367 252.591 25.2122 260.67 36.6044 262.704Z" fill="#ED9107"/>
<path d="M60.8352 253.768H60.8274L24.7436 253.098C24.5035 253.095 24.3126 252.896 24.3185 252.656C24.3224 252.419 24.5173 252.23 24.7515 252.23H24.7594L60.8431 252.9C61.0832 252.904 61.2742 253.102 61.2682 253.343C61.2643 253.579 61.0695 253.768 60.8352 253.768Z" fill="#D3BBA3"/>
<path d="M73.5991 243.084C67.5133 249.497 68.1982 257.248 71.8139 259.728C75.4315 262.208 83.0033 260.096 86.6957 252.065C90.3724 244.07 89.9158 233.328 89.9158 233.328C89.9158 233.328 80.1041 236.227 73.5971 243.084H73.5991Z" fill="#ED9107"/>
<path d="M68.6531 264.904C68.5684 264.904 68.4838 264.88 68.409 264.827C68.2102 264.691 68.161 264.422 68.2968 264.223L85.4126 239.264C85.5484 239.067 85.8201 239.016 86.0169 239.152C86.2157 239.287 86.2649 239.557 86.1291 239.756L69.0133 264.715C68.9286 264.837 68.7928 264.904 68.6551 264.904H68.6531Z" fill="#D3BBA3"/>
<path d="M104.556 278.449C107.166 286.895 114.257 290.097 118.192 288.159C122.126 286.22 123.994 278.585 118.802 271.431C113.633 264.31 104.044 259.444 104.044 259.444C104.044 259.444 101.767 269.419 104.556 278.449Z" fill="#ED9107"/>
<path d="M120.78 293.672C120.621 293.672 120.465 293.583 120.39 293.43L107.014 266.282C106.908 266.067 106.997 265.805 107.211 265.701C107.428 265.597 107.685 265.683 107.792 265.898L121.168 293.046C121.274 293.26 121.186 293.522 120.971 293.626C120.91 293.656 120.843 293.672 120.78 293.672Z" fill="#D3BBA3"/>
<path d="M74.1249 292.544C82.4092 295.628 89.2724 291.961 90.1365 287.663C91.0006 283.364 86.0898 277.225 77.2544 276.975C68.4583 276.727 58.7549 281.356 58.7549 281.356C58.7549 281.356 65.2678 289.245 74.1268 292.544H74.1249Z" fill="#ED9107"/>
<path d="M95.7382 289.143C95.7106 289.143 95.6811 289.141 95.6516 289.135L65.9804 283.173C65.7462 283.126 65.5927 282.898 65.6399 282.661C65.6871 282.427 65.9174 282.272 66.1516 282.321L95.8228 288.283C96.0571 288.33 96.2106 288.558 96.1633 288.794C96.122 289.001 95.9409 289.143 95.7382 289.143Z" fill="#D3BBA3"/>
<path d="M201.112 293.918C201.112 293.918 214.809 289.997 224.05 296.673C232.255 302.604 229 325.156 229 325.156C229 325.156 233.771 334.765 233.149 343.618C232.56 352.002 228.447 358.33 224.961 357.968C222.174 357.679 220.03 348.196 220.03 348.196C220.03 348.196 207.241 332.495 204.887 328.913C202.533 325.333 197.964 318.22 197.964 318.22L182.691 312.049L189.023 288.794L201.112 293.914V293.918Z" fill="#BC8271"/>
<path d="M240.274 274.842C233.668 273.602 227.209 272.793 221.032 272.383V259.009H143.118V271.871C137.235 272.293 131.105 273.078 124.843 274.253C87.2059 281.317 55.9896 302.856 58.936 318.55C61.8825 334.243 97.8737 338.15 135.51 331.086C154.541 327.514 171.136 321.03 182.514 313.464C183.211 313.927 185.911 316.277 185.911 316.277L182.656 341.144C182.656 341.144 299.658 341.144 303.137 315.773C305.285 300.108 277.909 281.908 240.274 274.844V274.842Z" fill="#363E44"/>
<path d="M183.171 295.538C182.975 295.538 182.795 295.402 182.748 295.201C182.695 294.967 182.841 294.735 183.075 294.681C196.894 291.507 211.067 289.661 225.203 289.196C243.84 288.582 262.56 290.349 280.835 294.447C281.07 294.5 281.217 294.731 281.164 294.965C281.111 295.199 280.881 295.347 280.647 295.294C262.442 291.211 243.799 289.452 225.233 290.062C211.152 290.527 197.034 292.365 183.27 295.526C183.236 295.534 183.205 295.538 183.171 295.538Z" fill="#40484C"/>
<path d="M183.451 295.538C183.419 295.538 183.386 295.534 183.352 295.526C169.589 292.363 155.47 290.525 141.39 290.062C122.825 289.452 104.18 291.212 85.9757 295.294C85.7435 295.347 85.5093 295.199 85.4581 294.965C85.405 294.731 85.5526 294.498 85.7868 294.447C104.062 290.347 122.778 288.578 141.419 289.196C155.555 289.661 169.73 291.507 183.547 294.682C183.781 294.735 183.927 294.969 183.874 295.201C183.829 295.402 183.65 295.538 183.451 295.538Z" fill="#40484C"/>
<path d="M178.276 291.577C178.276 291.577 166.992 280.327 156.002 283.36C144.397 286.562 143.086 299.978 138.919 305.883C136.018 309.994 129.34 313.811 126.498 321.721C123.654 329.629 125.311 336.44 128.059 336.987C132.038 337.778 135.691 330.346 135.691 330.346C135.691 330.346 154.49 322.199 158.259 320.16C162.028 318.121 169.539 314.476 169.539 314.476L185.913 316.275L191.349 292.794L178.276 291.577Z" fill="#BC8271"/>
<path d="M176.997 301.751C176.873 301.751 176.749 301.698 176.662 301.596C176.184 301.021 174.828 299.651 172.55 299.33C170.598 299.055 168.956 299.681 168.151 300.078C167.937 300.184 167.677 300.096 167.571 299.881C167.465 299.667 167.553 299.407 167.768 299.301C168.661 298.86 170.486 298.163 172.671 298.472C175.155 298.822 176.654 300.234 177.327 301.043C177.481 301.228 177.455 301.501 177.272 301.653C177.192 301.72 177.093 301.753 176.995 301.753L176.997 301.751Z" fill="#363E44"/>
<path d="M75.9791 171.448C80.508 192.794 147.153 222.217 147.153 222.217L168.502 183.635L91.2664 151.801C91.2664 151.801 73.0936 157.857 75.9771 171.446L75.9791 171.448Z" fill="white"/>
<path d="M153.205 177.914C153.205 177.914 169.048 177.325 181.67 177.3C221.194 177.221 210.103 177.3 210.103 177.3L222.548 220.016L240.274 274.84L122.609 274.684L143.029 221.804L153.205 177.912V177.914Z" fill="white"/>
<path d="M287.754 171.235C283.225 192.581 216.58 222.004 216.58 222.004L195.231 183.423L272.467 151.588C272.467 151.588 290.639 157.645 287.756 171.233L287.754 171.235Z" fill="white"/>
<path d="M85.2534 150.547C95.7481 134.856 112.443 110.7 116.275 105.368C116.676 104.809 117.381 103.821 118.609 102.831C123.164 99.1664 127.628 101.369 134.176 99.6998C141.604 97.8063 144.716 92.5334 146.308 93.673C147.416 94.4662 146.802 96.7848 143.931 100.674C146.452 97.9697 150.032 94.4524 151.524 95.8499C153.158 97.5563 149.438 102.184 147.05 104.872C149.942 101.617 152.451 100.751 153.089 101.737C154.091 103.29 152.437 106.337 148.45 110.49C152.004 108.39 153.179 108.411 153.53 109.421C154.169 111.263 150.827 114.617 147.418 117.129C143.58 119.957 139.624 120.817 137.115 121.301C137.115 121.301 132.056 122.266 132.056 122.268C122.144 144.833 119.481 150.545 112.315 166.645C110.898 169.83 85.2534 150.545 85.2534 150.543V150.547Z" fill="#BC8271"/>
<path d="M128.527 102.632C132.473 96.153 132.523 92.9802 131.475 92.3877C129.716 91.3918 124.083 95.5428 117.123 104.286C120.341 104.111 125.307 102.808 128.525 102.632H128.527Z" fill="#BC8271"/>
<path d="M122.142 101.693C121.951 101.693 121.776 101.566 121.723 101.373C121.66 101.14 121.798 100.902 122.028 100.841C123.679 100.394 125.384 100.353 127.191 100.308C128.025 100.286 128.885 100.267 129.785 100.204C130.039 100.198 130.231 100.369 130.247 100.607C130.263 100.847 130.082 101.054 129.844 101.07C128.927 101.133 128.055 101.154 127.212 101.174C125.46 101.217 123.805 101.258 122.254 101.678C122.217 101.688 122.177 101.693 122.14 101.693H122.142Z" fill="#363E44"/>
<path d="M137.861 104.398C137.674 104.398 137.5 104.276 137.445 104.089C137.376 103.859 137.506 103.616 137.737 103.549C138.597 103.294 139.435 102.955 140.23 102.548C141.384 101.955 142.456 101.207 143.419 100.326C143.596 100.164 143.87 100.176 144.033 100.353C144.194 100.53 144.183 100.804 144.005 100.967C142.988 101.9 141.85 102.693 140.628 103.321C139.785 103.754 138.896 104.11 137.986 104.382C137.945 104.394 137.904 104.4 137.862 104.4L137.861 104.398Z" fill="#363E44"/>
<path d="M141.338 108.161C141.151 108.161 140.978 108.039 140.923 107.85C140.854 107.62 140.986 107.38 141.214 107.311C142.073 107.055 142.911 106.719 143.706 106.309C144.86 105.717 145.932 104.969 146.895 104.087C147.072 103.926 147.345 103.937 147.509 104.115C147.67 104.292 147.658 104.565 147.481 104.729C146.462 105.664 145.324 106.455 144.104 107.083C143.259 107.516 142.372 107.874 141.462 108.144C141.421 108.155 141.38 108.161 141.338 108.161Z" fill="#363E44"/>
<path d="M142.49 114.288C142.303 114.288 142.13 114.166 142.075 113.979C142.006 113.749 142.136 113.507 142.366 113.44C143.226 113.184 144.064 112.846 144.86 112.438C146.015 111.846 147.088 111.098 148.048 110.216C148.225 110.055 148.499 110.067 148.662 110.244C148.824 110.421 148.812 110.694 148.635 110.858C147.617 111.791 146.48 112.582 145.257 113.212C144.417 113.645 143.527 114.001 142.616 114.273C142.575 114.284 142.533 114.29 142.492 114.29L142.49 114.288Z" fill="#363E44"/>
<path d="M275.74 148.843C275.74 148.843 249.003 109.742 245.171 104.41C244.769 103.851 244.065 102.863 242.837 101.873C238.282 98.2079 233.818 100.41 227.27 98.7413C219.842 96.8478 216.73 91.5749 215.138 92.7145C214.029 93.5077 214.644 95.8263 217.515 99.7155C214.994 97.0112 211.414 93.4939 209.922 94.8914C208.288 96.5978 212.008 101.225 214.396 103.914C211.504 100.658 208.995 99.7923 208.357 100.778C207.355 102.331 209.009 105.378 212.996 109.531C209.442 107.431 208.266 107.453 207.916 108.462C207.276 110.305 210.619 113.659 214.028 116.17C217.866 118.998 221.554 120.354 224.062 120.839C224.062 120.839 230.002 122.364 230.004 122.364C241.425 146.05 241.788 147.619 249.129 165.687C250.442 168.915 267.725 156.604 275.738 148.841L275.74 148.843Z" fill="#BC8271"/>
<path d="M232.918 101.674C228.972 95.1945 228.923 92.0217 229.97 91.4292C231.73 90.4333 237.363 94.5843 244.322 103.327C241.104 103.152 236.138 101.849 232.92 101.674H232.918Z" fill="#BC8271"/>
<path d="M239.303 100.735C239.266 100.735 239.227 100.731 239.189 100.719C237.638 100.3 235.985 100.259 234.233 100.215C233.391 100.194 232.519 100.172 231.602 100.111C231.364 100.095 231.182 99.8886 231.198 99.6485C231.214 99.4104 231.417 99.2352 231.661 99.245C232.558 99.306 233.42 99.3277 234.255 99.3493C236.06 99.3946 237.766 99.4359 239.418 99.8827C239.65 99.9457 239.786 100.184 239.723 100.414C239.67 100.607 239.494 100.735 239.303 100.735Z" fill="#363E44"/>
<path d="M223.585 103.439C223.544 103.439 223.503 103.433 223.461 103.422C222.55 103.15 221.66 102.792 220.82 102.361C219.598 101.731 218.46 100.94 217.442 100.007C217.265 99.8453 217.253 99.5698 217.415 99.3926C217.576 99.2155 217.852 99.2037 218.029 99.3651C218.991 100.247 220.064 100.993 221.217 101.587C222.011 101.995 222.851 102.333 223.711 102.589C223.942 102.658 224.071 102.9 224.003 103.128C223.947 103.317 223.774 103.437 223.587 103.437L223.585 103.439Z" fill="#363E44"/>
<path d="M220.107 107.203C220.066 107.203 220.025 107.197 219.983 107.185C219.074 106.913 218.184 106.557 217.342 106.124C216.12 105.496 214.984 104.705 213.964 103.77C213.787 103.609 213.775 103.333 213.937 103.156C214.098 102.979 214.374 102.967 214.551 103.128C215.513 104.01 216.586 104.758 217.739 105.351C218.537 105.76 219.375 106.097 220.231 106.352C220.462 106.421 220.591 106.661 220.523 106.892C220.467 107.081 220.294 107.203 220.107 107.203Z" fill="#363E44"/>
<path d="M218.954 113.33C218.913 113.33 218.871 113.324 218.83 113.312C217.919 113.04 217.029 112.682 216.189 112.251C214.964 111.621 213.829 110.83 212.811 109.897C212.634 109.736 212.622 109.46 212.784 109.283C212.945 109.106 213.22 109.094 213.398 109.255C214.358 110.137 215.433 110.883 216.586 111.478C217.379 111.885 218.218 112.224 219.08 112.479C219.31 112.548 219.44 112.79 219.371 113.019C219.316 113.208 219.143 113.328 218.956 113.328L218.954 113.33Z" fill="#363E44"/>
<path d="M77.3804 162.225L96.366 126.844L136.39 162.857L95.8838 185.306L77.3804 162.225Z" fill="white"/>
<path d="M95.8838 185.741C95.7303 185.741 95.5827 185.661 95.5039 185.517C95.3878 185.308 95.4646 185.043 95.6732 184.927L128.374 166.803C128.582 166.687 128.848 166.764 128.964 166.972C129.08 167.181 129.003 167.447 128.795 167.563L96.0944 185.686C96.0275 185.724 95.9566 185.741 95.8838 185.741Z" fill="#363E44"/>
<path d="M286.47 162.225L267.487 126.844L222.042 159.853L267.969 185.306L286.47 162.225Z" fill="white"/>
<path d="M267.967 185.741C267.896 185.741 267.823 185.724 267.756 185.686L235.056 167.563C234.845 167.447 234.771 167.183 234.887 166.972C235.003 166.762 235.267 166.687 235.477 166.803L268.177 184.926C268.388 185.043 268.463 185.306 268.347 185.517C268.268 185.661 268.118 185.741 267.967 185.741Z" fill="#363E44"/>
<path d="M183.539 259.546C179.252 259.546 175.763 256.061 175.757 251.774L175.747 244.424C175.747 244.184 175.94 243.991 176.18 243.989L190.879 243.97C190.993 243.97 191.103 244.015 191.186 244.096C191.267 244.176 191.314 244.287 191.314 244.403L191.324 251.752C191.328 253.831 190.519 255.787 189.05 257.259C187.582 258.732 185.63 259.542 183.549 259.546H183.539ZM176.615 244.857L176.625 251.772C176.631 255.582 179.731 258.678 183.541 258.678H183.551C185.397 258.676 187.133 257.954 188.438 256.647C189.743 255.34 190.46 253.602 190.458 251.754L190.448 244.84L176.617 244.857H176.615Z" fill="#363E44"/>
<path d="M202.269 232.08C204.063 221.726 197.123 211.878 186.769 210.084C176.415 208.29 166.567 215.229 164.773 225.583C162.979 235.937 169.919 245.785 180.273 247.579C190.627 249.373 200.475 242.434 202.269 232.08Z" fill="#ED9107"/>
<path d="M183.476 254.714C181.599 254.714 179.833 254.61 178.499 254.421C176.745 254.173 176.062 253.854 176.062 253.283C176.062 253.043 176.257 252.848 176.495 252.848C176.686 252.848 176.849 252.972 176.906 253.146C177.296 253.405 179.499 253.846 183.472 253.846H183.543C187.56 253.84 189.785 253.39 190.178 253.128C190.235 252.955 190.399 252.831 190.59 252.831C190.83 252.831 191.023 253.023 191.023 253.264C191.023 253.834 190.342 254.155 188.588 254.409C187.238 254.604 185.447 254.712 183.543 254.714H183.476Z" fill="#363E44"/>
<path d="M183.469 251.492C181.183 251.492 176.058 251.349 176.056 250.061C176.056 249.821 176.249 249.626 176.489 249.626C176.68 249.626 176.843 249.75 176.901 249.924C177.292 250.183 179.493 250.624 183.467 250.624H183.537C187.555 250.618 189.779 250.168 190.172 249.906C190.229 249.733 190.393 249.609 190.584 249.609C190.824 249.609 191.017 249.802 191.017 250.042C191.017 250.612 190.336 250.933 188.582 251.187C187.232 251.382 185.441 251.49 183.537 251.492H183.467H183.469Z" fill="#363E44"/>
<path d="M180.987 243.643C180.819 243.643 180.658 243.544 180.587 243.379L174.59 229.336C174.495 229.115 174.598 228.859 174.818 228.767C175.037 228.672 175.293 228.775 175.387 228.995L181.384 243.039C181.479 243.259 181.376 243.515 181.156 243.607C181.101 243.631 181.044 243.643 180.985 243.643H180.987Z" fill="#363E44"/>
<path d="M186.069 243.637C186.012 243.637 185.955 243.625 185.9 243.603C185.679 243.509 185.577 243.255 185.669 243.035L191.631 228.976C191.726 228.755 191.979 228.653 192.2 228.745C192.42 228.84 192.525 229.094 192.43 229.314L186.468 243.373C186.398 243.539 186.238 243.637 186.069 243.637Z" fill="#363E44"/>
<path d="M180.089 231.294C179.3 231.294 178.511 231.103 177.824 230.712C177.615 230.593 177.542 230.328 177.662 230.119C177.78 229.911 178.046 229.838 178.255 229.958C179.4 230.609 180.884 230.578 182.024 229.932C181.008 229.275 180.205 228.293 179.841 227.133C179.542 226.181 179.57 225.242 179.92 224.49C180.359 223.553 181.319 222.959 182.25 223.055C183.325 223.161 184.073 224.081 184.413 224.905C185.071 226.498 184.724 228.438 183.608 229.737C184.148 229.909 184.717 229.975 185.283 229.918C187.273 229.718 188.992 228.001 189.196 226.011C189.22 225.773 189.436 225.608 189.673 225.624C189.911 225.647 190.084 225.862 190.06 226.1C189.816 228.484 187.756 230.54 185.372 230.782C184.53 230.867 183.677 230.721 182.9 230.397C182.093 230.989 181.089 231.296 180.089 231.296V231.294ZM182.059 223.911C181.524 223.911 180.969 224.293 180.707 224.856C180.447 225.409 180.436 226.126 180.67 226.872C181.004 227.94 181.79 228.832 182.764 229.371C183.823 228.322 184.183 226.616 183.612 225.234C183.368 224.642 182.861 223.984 182.168 223.915C182.132 223.911 182.097 223.909 182.061 223.909L182.059 223.911Z" fill="white"/>
<path d="M181.811 156.515C192.166 156.515 200.561 148.121 200.561 137.766C200.561 127.411 192.166 119.016 181.811 119.016C171.456 119.016 163.062 127.411 163.062 137.766C163.062 148.121 171.456 156.515 181.811 156.515Z" fill="#363E44"/>
<path d="M191.34 153.185H172.683V185.306H191.34V153.185Z" fill="#BC8271"/>
<path d="M197.291 144.583C197.291 154.57 190.375 165.106 181.841 165.106C173.307 165.106 166.39 154.57 166.39 144.583C166.39 143.446 166.481 142.332 166.652 141.253C166.652 141.253 173.804 139.791 178.768 136.6C183.742 133.402 187.259 128.753 187.259 128.753C193.119 131.321 197.291 136.829 197.291 144.583Z" fill="#BC8271"/>
<path d="M181.841 165.539C178.692 165.539 175.601 164.162 172.901 161.558C172.728 161.39 172.724 161.117 172.889 160.944C173.056 160.77 173.33 160.766 173.503 160.932C176.038 163.378 178.922 164.67 181.841 164.67C185.016 164.67 188.112 163.162 190.79 160.31C190.954 160.135 191.229 160.127 191.404 160.29C191.58 160.454 191.587 160.729 191.424 160.904C188.576 163.935 185.264 165.537 181.843 165.537L181.841 165.539Z" fill="#363E44"/>
<path d="M167.983 151.443C170.041 150.504 170.578 147.264 169.182 144.206C167.787 141.149 164.987 139.431 162.929 140.37C160.871 141.309 160.334 144.55 161.73 147.607C163.125 150.665 165.925 152.382 167.983 151.443Z" fill="#BC8271"/>
<path d="M164.43 148.746C164.329 148.746 164.229 148.713 164.148 148.642C163.637 148.205 163.204 147.619 162.897 146.947C162.495 146.068 162.349 145.129 162.487 144.304C162.635 143.416 163.087 142.757 163.763 142.45C164.274 142.216 164.861 142.212 165.459 142.436C165.684 142.521 165.798 142.771 165.713 142.995C165.628 143.22 165.379 143.332 165.154 143.249C164.892 143.151 164.499 143.07 164.125 143.239C163.719 143.424 163.444 143.853 163.345 144.446C163.237 145.103 163.359 145.863 163.69 146.587C163.944 147.144 164.298 147.626 164.715 147.983C164.898 148.138 164.92 148.412 164.764 148.595C164.678 148.695 164.556 148.746 164.434 148.746H164.43Z" fill="#363E44"/>
<path d="M202.238 147.65C203.634 144.592 203.097 141.352 201.039 140.413C198.981 139.473 196.181 141.191 194.786 144.249C193.39 147.306 193.928 150.546 195.986 151.486C198.043 152.425 200.843 150.707 202.238 147.65Z" fill="#BC8271"/>
<path d="M196.256 151.63C196.211 151.63 196.166 151.624 196.121 151.608C195.892 151.533 195.768 151.289 195.843 151.061C196.526 148.979 196.87 146.78 196.87 144.526C196.87 143.566 196.806 142.601 196.68 141.663C196.648 141.424 196.813 141.206 197.052 141.174C197.292 141.143 197.508 141.308 197.54 141.546C197.672 142.525 197.738 143.528 197.738 144.526C197.738 146.871 197.378 149.16 196.668 151.331C196.609 151.514 196.437 151.63 196.254 151.63H196.256Z" fill="#363E44"/>
<path d="M167.431 151.555C167.248 151.555 167.079 151.439 167.02 151.258C166.315 149.13 165.957 146.884 165.957 144.584C165.957 143.442 166.048 142.298 166.225 141.184C166.262 140.948 166.481 140.785 166.721 140.824C166.957 140.862 167.118 141.084 167.081 141.32C166.912 142.389 166.825 143.487 166.825 144.582C166.825 146.79 167.168 148.943 167.843 150.984C167.917 151.213 167.795 151.457 167.567 151.533C167.522 151.549 167.477 151.555 167.431 151.555Z" fill="#363E44"/>
<path d="M182.15 153.604C182.006 153.604 181.866 153.533 181.784 153.403C181.656 153.2 181.715 152.933 181.918 152.805C182.38 152.51 182.658 152.179 182.742 151.823C182.825 151.474 182.711 151.191 182.485 150.677C182.319 150.303 182.114 149.837 181.996 149.236C181.847 148.471 181.874 147.66 182.079 146.827C182.136 146.595 182.372 146.453 182.605 146.508C182.837 146.566 182.98 146.802 182.923 147.034C182.75 147.745 182.725 148.429 182.851 149.071C182.949 149.577 183.126 149.977 183.28 150.329C183.518 150.868 183.742 151.376 183.587 152.025C183.449 152.61 183.043 153.12 182.384 153.539C182.311 153.584 182.231 153.606 182.152 153.606L182.15 153.604Z" fill="#363E44"/>
<path d="M182.012 158.979C181.943 158.979 181.874 158.963 181.809 158.928C180.798 158.391 180.325 157.198 180.735 156.214C181.038 155.486 181.786 154.99 182.638 154.952C182.87 154.94 183.081 155.127 183.091 155.367C183.1 155.608 182.915 155.81 182.675 155.82C182.158 155.844 181.709 156.129 181.536 156.548C181.301 157.115 181.606 157.84 182.217 158.164C182.429 158.277 182.51 158.54 182.396 158.751C182.317 158.898 182.167 158.981 182.012 158.981V158.979Z" fill="#363E44"/>
<path d="M199.313 148.746C199.191 148.746 199.069 148.695 198.983 148.595C198.827 148.412 198.849 148.138 199.032 147.983C199.449 147.626 199.803 147.144 200.057 146.587C200.388 145.863 200.51 145.103 200.402 144.446C200.303 143.851 200.026 143.422 199.622 143.239C199.246 143.068 198.855 143.149 198.591 143.247C198.368 143.33 198.116 143.218 198.032 142.993C197.947 142.769 198.061 142.519 198.286 142.434C198.884 142.21 199.471 142.216 199.982 142.45C200.657 142.757 201.11 143.416 201.258 144.304C201.396 145.129 201.25 146.068 200.848 146.947C200.541 147.619 200.108 148.205 199.597 148.642C199.514 148.713 199.416 148.746 199.315 148.746H199.313Z" fill="#363E44"/>
<path d="M180.656 120.64C186.512 120.64 191.259 115.893 191.259 110.037C191.259 104.181 186.512 99.4341 180.656 99.4341C174.8 99.4341 170.053 104.181 170.053 110.037C170.053 115.893 174.8 120.64 180.656 120.64Z" fill="#363E44"/>
<path d="M178.495 121.366C171.838 121.366 166.424 117.589 166.424 112.948C166.424 108.307 171.838 104.53 178.495 104.53C185.152 104.53 190.566 108.307 190.566 112.948C190.566 117.589 185.152 121.366 178.495 121.366ZM178.495 105.398C172.319 105.398 167.292 108.785 167.292 112.948C167.292 117.111 172.317 120.498 178.495 120.498C184.673 120.498 189.698 117.111 189.698 112.948C189.698 108.785 184.673 105.398 178.495 105.398Z" fill="#363E44"/>
<path d="M176.657 123.874C173.988 123.874 171.671 122.921 170.343 121.014C167.691 117.203 169.976 111.011 175.438 107.209C178.06 105.382 181.02 104.367 183.772 104.349H183.849C186.626 104.349 188.862 105.366 190.153 107.221C191.456 109.092 191.625 111.57 190.633 114.202C189.661 116.776 187.681 119.199 185.059 121.026C182.331 122.925 179.32 123.874 176.657 123.874ZM183.851 105.215H183.78C181.201 105.233 178.416 106.193 175.936 107.919C170.868 111.448 168.679 117.101 171.057 120.518C173.437 123.935 179.497 123.842 184.565 120.313C187.045 118.587 188.911 116.308 189.824 113.895C190.714 111.539 190.58 109.344 189.444 107.715C188.32 106.101 186.336 105.215 183.851 105.215Z" fill="#363E44"/>
<path d="M174.299 148.298C171.047 148.298 168.48 145.396 168.372 145.274C168.215 145.093 168.234 144.82 168.414 144.662C168.595 144.505 168.868 144.522 169.026 144.704C169.049 144.731 171.445 147.431 174.299 147.431C177.153 147.431 179.548 144.731 179.571 144.704C179.729 144.524 180.003 144.505 180.184 144.662C180.365 144.82 180.382 145.093 180.225 145.274C180.117 145.398 177.55 148.298 174.299 148.298Z" fill="#363E44"/>
<path d="M189.629 148.298C186.376 148.298 183.811 145.396 183.703 145.274C183.545 145.093 183.565 144.82 183.744 144.662C183.923 144.505 184.199 144.522 184.356 144.704C184.38 144.731 186.775 147.431 189.629 147.431C192.483 147.431 194.878 144.731 194.902 144.704C195.06 144.524 195.333 144.505 195.514 144.662C195.695 144.82 195.713 145.093 195.556 145.274C195.447 145.398 192.881 148.298 189.629 148.298Z" fill="#363E44"/>
<path d="M182.055 201.474C195.24 201.474 205.928 195.81 205.928 188.824C205.928 181.837 195.24 176.174 182.055 176.174C168.871 176.174 158.183 181.837 158.183 188.824C158.183 195.81 168.871 201.474 182.055 201.474Z" fill="#BC8271"/>
<path d="M221.64 7.29492H148.186V80.3146H221.64V7.29492Z" fill="white"/>
<path d="M221.64 80.7476H148.185C147.945 80.7476 147.752 80.5527 147.752 80.3146V7.29483C147.752 7.0547 147.947 6.86182 148.185 6.86182H221.64C221.88 6.86182 222.073 7.05667 222.073 7.29483V80.3146C222.073 80.5547 221.878 80.7476 221.64 80.7476ZM148.62 79.8796H221.207V7.72784H148.62V79.8796Z" fill="#D3BBA3"/>
<path d="M217.867 20.114H209.658V28.3235H217.867V20.114Z" fill="#ED9107"/>
<path d="M208.173 20.114H199.964V28.3235H208.173V20.114Z" fill="#ED9107"/>
<path d="M198.482 20.114H190.272V28.3235H198.482V20.114Z" fill="#ED9107"/>
<path d="M188.79 20.114H180.581V28.3235H188.79V20.114Z" fill="#ED9107"/>
<path d="M179.099 20.114H170.889V28.3235H179.099V20.114Z" fill="#ED9107"/>
<path d="M169.405 20.114H161.195V28.3235H169.405V20.114Z" fill="#ED9107"/>
<path d="M159.719 20.114H151.51V28.3235H159.719V20.114Z" fill="#ED9107"/>
<path d="M217.867 29.7407H209.658V37.9503H217.867V29.7407Z" fill="#ED9107"/>
<path d="M208.173 29.7407H199.964V37.9503H208.173V29.7407Z" fill="#ED9107"/>
<path d="M198.482 29.7407H190.272V37.9503H198.482V29.7407Z" fill="#ED9107"/>
<path d="M188.79 29.7407H180.581V37.9503H188.79V29.7407Z" fill="#ED9107"/>
<path d="M179.099 29.7407H170.889V37.9503H179.099V29.7407Z" fill="#ED9107"/>
<path d="M169.405 29.7407H161.195V37.9503H169.405V29.7407Z" fill="#ED9107"/>
<path d="M159.713 29.7407H151.504V37.9503H159.713V29.7407Z" fill="#ED9107"/>
<path d="M217.867 39.3655H209.658V47.575H217.867V39.3655Z" fill="#ED9107"/>
<path d="M208.173 39.3655H199.964V47.575H208.173V39.3655Z" fill="#ED9107"/>
<path d="M198.482 39.3655H190.272V47.575H198.482V39.3655Z" fill="#ED9107"/>
<path d="M188.79 39.3655H180.581V47.575H188.79V39.3655Z" fill="#ED9107"/>
<path d="M179.099 39.3655H170.889V47.575H179.099V39.3655Z" fill="#ED9107"/>
<path d="M169.405 39.3655H161.195V47.575H169.405V39.3655Z" fill="#ED9107"/>
<path d="M159.713 39.3655H151.504V47.575H159.713V39.3655Z" fill="#ED9107"/>
<path d="M217.867 48.9919H209.658V57.2015H217.867V48.9919Z" fill="#ED9107"/>
<path d="M208.173 48.9919H199.964V57.2015H208.173V48.9919Z" fill="#ED9107"/>
<path d="M198.482 48.9919H190.272V57.2015H198.482V48.9919Z" fill="#ED9107"/>
<path d="M188.79 48.9919H180.581V57.2015H188.79V48.9919Z" fill="#ED9107"/>
<path d="M179.099 48.9919H170.889V57.2015H179.099V48.9919Z" fill="#ED9107"/>
<path d="M169.405 48.9919H161.195V57.2015H169.405V48.9919Z" fill="#ED9107"/>
<path d="M159.713 48.9919H151.504V57.2015H159.713V48.9919Z" fill="#ED9107"/>
<path d="M217.316 11.7825C217.913 11.7825 218.396 11.2987 218.396 10.7019C218.396 10.1051 217.913 9.62134 217.316 9.62134C216.719 9.62134 216.235 10.1051 216.235 10.7019C216.235 11.2987 216.719 11.7825 217.316 11.7825Z" fill="#F2E6DC"/>
<path d="M210.805 11.7825C211.402 11.7825 211.886 11.2987 211.886 10.7019C211.886 10.1051 211.402 9.62134 210.805 9.62134C210.208 9.62134 209.725 10.1051 209.725 10.7019C209.725 11.2987 210.208 11.7825 210.805 11.7825Z" fill="#F2E6DC"/>
<path d="M204.292 11.7825C204.889 11.7825 205.373 11.2987 205.373 10.7019C205.373 10.1051 204.889 9.62134 204.292 9.62134C203.695 9.62134 203.211 10.1051 203.211 10.7019C203.211 11.2987 203.695 11.7825 204.292 11.7825Z" fill="#F2E6DC"/>
<path d="M197.781 11.7825C198.378 11.7825 198.862 11.2987 198.862 10.7019C198.862 10.1051 198.378 9.62134 197.781 9.62134C197.184 9.62134 196.701 10.1051 196.701 10.7019C196.701 11.2987 197.184 11.7825 197.781 11.7825Z" fill="#F2E6DC"/>
<path d="M191.268 11.7825C191.865 11.7825 192.349 11.2987 192.349 10.7019C192.349 10.1051 191.865 9.62134 191.268 9.62134C190.671 9.62134 190.188 10.1051 190.188 10.7019C190.188 11.2987 190.671 11.7825 191.268 11.7825Z" fill="#F2E6DC"/>
<path d="M185.838 10.7019C185.838 11.2983 185.354 11.7825 184.757 11.7825C184.161 11.7825 183.677 11.2983 183.677 10.7019C183.677 10.1055 184.161 9.62134 184.757 9.62134C185.354 9.62134 185.838 10.1055 185.838 10.7019Z" fill="#F2E6DC"/>
<path d="M178.245 11.7825C178.841 11.7825 179.325 11.2987 179.325 10.7019C179.325 10.1051 178.841 9.62134 178.245 9.62134C177.648 9.62134 177.164 10.1051 177.164 10.7019C177.164 11.2987 177.648 11.7825 178.245 11.7825Z" fill="#F2E6DC"/>
<path d="M171.733 11.7825C172.33 11.7825 172.814 11.2987 172.814 10.7019C172.814 10.1051 172.33 9.62134 171.733 9.62134C171.137 9.62134 170.653 10.1051 170.653 10.7019C170.653 11.2987 171.137 11.7825 171.733 11.7825Z" fill="#F2E6DC"/>
<path d="M165.223 11.7825C165.819 11.7825 166.303 11.2987 166.303 10.7019C166.303 10.1051 165.819 9.62134 165.223 9.62134C164.626 9.62134 164.142 10.1051 164.142 10.7019C164.142 11.2987 164.626 11.7825 165.223 11.7825Z" fill="#F2E6DC"/>
<path d="M159.792 10.7019C159.792 11.2983 159.308 11.7825 158.711 11.7825C158.115 11.7825 157.631 11.2983 157.631 10.7019C157.631 10.1055 158.115 9.62134 158.711 9.62134C159.308 9.62134 159.792 10.1055 159.792 10.7019Z" fill="#F2E6DC"/>
<path d="M152.199 11.7825C152.796 11.7825 153.279 11.2987 153.279 10.7019C153.279 10.1051 152.796 9.62134 152.199 9.62134C151.602 9.62134 151.118 10.1051 151.118 10.7019C151.118 11.2987 151.602 11.7825 152.199 11.7825Z" fill="#F2E6DC"/>
<path d="M152.334 11.068C152.094 11.068 151.901 10.8731 151.901 10.635V4.62002C151.901 4.3799 152.096 4.18701 152.334 4.18701C152.573 4.18701 152.767 4.38186 152.767 4.62002V10.635C152.767 10.8751 152.573 11.068 152.334 11.068Z" fill="#D3BBA3"/>
<path d="M158.831 11.068C158.591 11.068 158.398 10.8731 158.398 10.635V4.62002C158.398 4.3799 158.593 4.18701 158.831 4.18701C159.07 4.18701 159.264 4.38186 159.264 4.62002V10.635C159.264 10.8751 159.07 11.068 158.831 11.068Z" fill="#D3BBA3"/>
<path d="M165.329 11.068C165.088 11.068 164.896 10.8731 164.896 10.635V4.62002C164.896 4.3799 165.09 4.18701 165.329 4.18701C165.567 4.18701 165.762 4.38186 165.762 4.62002V10.635C165.762 10.8751 165.567 11.068 165.329 11.068Z" fill="#D3BBA3"/>
<path d="M171.826 11.068C171.586 11.068 171.393 10.8731 171.393 10.635V4.62002C171.393 4.3799 171.588 4.18701 171.826 4.18701C172.064 4.18701 172.259 4.38186 172.259 4.62002V10.635C172.259 10.8751 172.064 11.068 171.826 11.068Z" fill="#D3BBA3"/>
<path d="M178.323 11.068C178.083 11.068 177.89 10.8731 177.89 10.635V4.62002C177.89 4.3799 178.085 4.18701 178.323 4.18701C178.561 4.18701 178.756 4.38186 178.756 4.62002V10.635C178.756 10.8751 178.561 11.068 178.323 11.068Z" fill="#D3BBA3"/>
<path d="M184.82 11.068C184.58 11.068 184.387 10.8731 184.387 10.635V4.62002C184.387 4.3799 184.582 4.18701 184.82 4.18701C185.058 4.18701 185.253 4.38186 185.253 4.62002V10.635C185.253 10.8751 185.058 11.068 184.82 11.068Z" fill="#D3BBA3"/>
<path d="M191.317 11.068C191.077 11.068 190.884 10.8731 190.884 10.635V4.62002C190.884 4.3799 191.079 4.18701 191.317 4.18701C191.555 4.18701 191.75 4.38186 191.75 4.62002V10.635C191.75 10.8751 191.555 11.068 191.317 11.068Z" fill="#D3BBA3"/>
<path d="M197.814 11.068C197.574 11.068 197.381 10.8731 197.381 10.635V4.62002C197.381 4.3799 197.576 4.18701 197.814 4.18701C198.053 4.18701 198.247 4.38186 198.247 4.62002V10.635C198.247 10.8751 198.053 11.068 197.814 11.068Z" fill="#D3BBA3"/>
<path d="M204.313 11.068C204.073 11.068 203.88 10.8731 203.88 10.635V4.62002C203.88 4.3799 204.075 4.18701 204.313 4.18701C204.552 4.18701 204.746 4.38186 204.746 4.62002V10.635C204.746 10.8751 204.552 11.068 204.313 11.068Z" fill="#D3BBA3"/>
<path d="M210.811 11.068C210.571 11.068 210.378 10.8731 210.378 10.635V4.62002C210.378 4.3799 210.573 4.18701 210.811 4.18701C211.049 4.18701 211.244 4.38186 211.244 4.62002V10.635C211.244 10.8751 211.049 11.068 210.811 11.068Z" fill="#D3BBA3"/>
<path d="M217.308 11.068C217.068 11.068 216.875 10.8731 216.875 10.635V4.62002C216.875 4.3799 217.07 4.18701 217.308 4.18701C217.546 4.18701 217.741 4.38186 217.741 4.62002V10.635C217.741 10.8751 217.546 11.068 217.308 11.068Z" fill="#D3BBA3"/>
<path d="M117.88 81.2554C131.624 67.5112 131.624 45.2275 117.88 31.4834C104.136 17.7393 81.8523 17.7393 68.1081 31.4834C54.364 45.2276 54.364 67.5112 68.1081 81.2554C81.8523 94.9995 104.136 94.9995 117.88 81.2554Z" fill="white"/>
<path d="M92.9724 88.5085C77.0316 88.5085 63.1614 76.6184 61.1125 60.3981C58.8923 42.8178 71.3867 26.7078 88.967 24.4876C97.4796 23.411 105.908 25.7158 112.692 30.9769C119.475 36.238 123.803 43.8256 124.879 52.3421C127.1 69.9224 114.605 86.0325 97.025 88.2527C95.6649 88.4239 94.3108 88.5085 92.9743 88.5085H92.9724ZM93.059 25.0958C91.7383 25.0958 90.4077 25.1784 89.0752 25.3477C71.9693 27.5088 59.8115 43.1839 61.9726 60.2899C63.0197 68.5762 67.2298 75.959 73.8293 81.0765C80.4288 86.1958 88.6245 88.4377 96.9128 87.3906C114.019 85.2294 126.177 69.5544 124.015 52.4484C122.968 44.1621 118.758 36.7793 112.159 31.6599C106.62 27.3632 99.9557 25.0938 93.057 25.0938L93.059 25.0958Z" fill="#ED9107"/>
<path d="M113.662 69.0917C113.587 69.0917 113.511 69.072 113.442 69.0307L92.7734 56.743C92.6572 56.6741 92.5805 56.5579 92.5647 56.4241L90.1064 36.9641C90.0769 36.726 90.2442 36.5095 90.4823 36.4799C90.7185 36.4543 90.937 36.6177 90.9665 36.8559L93.3993 56.1053L113.885 68.2847C114.091 68.4067 114.158 68.6725 114.036 68.8791C113.956 69.0149 113.81 69.0917 113.662 69.0917Z" fill="#ED9107"/>
<path d="M294.071 51.8478C291.45 63.6592 264.276 84.9812 264.276 84.9812C264.276 84.9812 248.674 54.1684 251.295 42.355C253.917 30.5436 265.618 23.0919 277.43 25.7136C289.241 28.3353 296.693 40.0364 294.071 51.8478Z" fill="#ED9107"/>
<path d="M284.072 50.7239C282.647 57.1423 276.29 61.191 269.872 59.766C263.453 58.341 259.404 51.9836 260.829 45.5651C262.254 39.1467 268.612 35.098 275.03 36.523C281.449 37.948 285.497 44.3055 284.072 50.7239Z" fill="#F2E6DC"/>
<path d="M315.687 117.424L345.143 129.875C338.266 146.144 319.505 153.757 303.236 146.882C286.966 140.005 279.353 121.244 286.228 104.975L315.685 117.426L315.687 117.424Z" fill="white"/>
<path d="M318.07 115.306L314.183 84.0425C331.449 81.8951 347.187 94.1514 349.334 111.419C350.048 117.168 349.346 122.234 347.088 127.57L318.07 115.306Z" fill="#73988C"/>
<path d="M315.309 114.47L287.352 102.654C291.698 92.3721 300.484 85.7293 311.563 84.3516L315.309 114.47Z" fill="#ED9107"/>
<path d="M26.3318 94.1313L18.5088 125.696L71.8348 138.912L79.6579 107.348L26.3318 94.1313Z" fill="#ED9107"/>
<path d="M51.8601 116.235C48.9471 116.235 46.1227 115.072 44.0068 112.903L28.4971 96.9818C28.3298 96.8105 28.3337 96.535 28.505 96.3677C28.6762 96.2004 28.9517 96.2023 29.119 96.3755L44.6288 112.297C47.3371 115.076 51.3129 116.062 55.0034 114.869L76.8567 107.809C77.087 107.734 77.3291 107.86 77.4039 108.089C77.4767 108.317 77.3527 108.561 77.1244 108.636L55.271 115.696C54.1452 116.06 52.9958 116.237 51.8601 116.237V116.235Z" fill="#E0AA63"/>
<path d="M69.3221 133.985C69.2867 133.985 69.2513 133.981 69.2178 133.973L54.769 130.391C54.5367 130.334 54.395 130.097 54.4521 129.865L56.5404 121.443C56.5679 121.331 56.6388 121.234 56.7372 121.175C56.8356 121.116 56.9537 121.099 57.0659 121.126L71.5148 124.708C71.6269 124.736 71.7234 124.807 71.7824 124.905C71.8415 125.004 71.8592 125.122 71.8316 125.234L69.7433 133.656C69.6941 133.855 69.517 133.987 69.3221 133.987V133.985ZM55.3988 129.653L69.0052 133.026L70.8849 125.447L57.2785 122.073L55.3988 129.653Z" fill="#F7F1EB"/>
</g>
<defs>
<clipPath id="clip0_683_1270">
<rect width="362" height="362" fill="white"/>
</clipPath>
</defs>
</svg>
