<svg width="149" height="124" viewBox="0 0 149 124" fill="none" xmlns="http://www.w3.org/2000/svg">
<g clip-path="url(#clip0_1145_3051)">
<path d="M51.427 123.55C79.29 123.55 101.877 123.01 101.877 122.342C101.877 121.675 79.29 121.134 51.427 121.134C23.564 121.134 0.976562 121.675 0.976562 122.342C0.976562 123.01 23.564 123.55 51.427 123.55Z" fill="#E5E9FC"/>
<path d="M122.207 28.3029C121.525 27.642 120.833 26.9669 120.385 26.1248C119.936 25.2836 119.764 24.2328 120.167 23.3677C121.057 21.4552 124.191 21.2793 124.682 19.223C125.082 17.5433 123.339 16.114 123.085 14.4059C122.878 13.022 123.724 11.6434 124.872 10.8706C126.02 10.0978 127.419 9.82332 128.787 9.65899C132.625 9.19709 136.548 9.47246 140.286 10.4673C141.663 10.8333 143.266 11.6043 143.353 13.0477C143.42 14.1439 142.492 15.0845 141.471 15.4416C140.449 15.7987 139.339 15.7268 138.259 15.7561C137.179 15.7854 136.03 15.9515 135.215 16.6728C134.4 17.394 134.135 18.8348 134.934 19.5739C136.376 20.9071 139.083 18.6945 140.513 20.0402C141.066 20.5616 141.142 21.4685 140.837 22.1703C140.532 22.872 139.917 23.389 139.257 23.7594C137.583 24.6956 135.602 24.8102 133.739 25.241C132.509 25.5253 131.227 26.0103 130.284 26.8923C129.083 28.0142 129.277 29.3208 128.674 30.7101C127.117 34.3005 123.651 29.7037 122.207 28.3029Z" fill="#FFF1F1"/>
<path d="M137.723 21.864C138.079 21.864 138.367 21.5709 138.367 21.2093C138.367 20.8478 138.079 20.5547 137.723 20.5547C137.368 20.5547 137.079 20.8478 137.079 21.2093C137.079 21.5709 137.368 21.864 137.723 21.864Z" fill="#CCCCCC"/>
<path d="M134.114 27.4411C134.47 27.4411 134.758 27.148 134.758 26.7865C134.758 26.4249 134.47 26.1318 134.114 26.1318C133.758 26.1318 133.47 26.4249 133.47 26.7865C133.47 27.148 133.758 27.4411 134.114 27.4411Z" fill="#E6E6E6"/>
<path d="M147.475 13.2229C147.831 13.2229 148.119 12.9298 148.119 12.5682C148.119 12.2067 147.831 11.9136 147.475 11.9136C147.119 11.9136 146.831 12.2067 146.831 12.5682C146.831 12.9298 147.119 13.2229 147.475 13.2229Z" fill="#E6E6E6"/>
<path d="M131.648 19.8669C132.004 19.8669 132.292 19.5738 132.292 19.2123C132.292 18.8507 132.004 18.5576 131.648 18.5576C131.292 18.5576 131.004 18.8507 131.004 19.2123C131.004 19.5738 131.292 19.8669 131.648 19.8669Z" fill="#CCCCCC"/>
<path d="M127.726 15.5046C128.082 15.5046 128.37 15.2115 128.37 14.85C128.37 14.4884 128.082 14.1953 127.726 14.1953C127.37 14.1953 127.082 14.4884 127.082 14.85C127.082 15.2115 127.37 15.5046 127.726 15.5046Z" fill="#CCCCCC"/>
<path d="M127.726 26.7522C128.082 26.7522 128.37 26.4591 128.37 26.0975C128.37 25.736 128.082 25.4429 127.726 25.4429C127.37 25.4429 127.082 25.736 127.082 26.0975C127.082 26.4591 127.37 26.7522 127.726 26.7522Z" fill="#CCCCCC"/>
<path d="M122.335 19.8669C122.69 19.8669 122.979 19.5738 122.979 19.2123C122.979 18.8507 122.69 18.5576 122.335 18.5576C121.979 18.5576 121.69 18.8507 121.69 19.2123C121.69 19.5738 121.979 19.8669 122.335 19.8669Z" fill="#E6E6E6"/>
<path d="M119.735 29.2668C120.063 29.1284 120.219 28.7454 120.083 28.4114C119.947 28.0773 119.57 27.9187 119.242 28.0571C118.913 28.1954 118.757 28.5784 118.893 28.9125C119.029 29.2465 119.406 29.4051 119.735 29.2668Z" fill="#E6E6E6"/>
<path d="M114.798 5.74193C115.154 5.74193 115.443 5.44883 115.443 5.08727C115.443 4.72572 115.154 4.43262 114.798 4.43262C114.443 4.43262 114.154 4.72572 114.154 5.08727C114.154 5.44883 114.443 5.74193 114.798 5.74193Z" fill="#E6E6E6"/>
<path d="M112.342 16.1594C112.698 16.1594 112.987 15.8663 112.987 15.5048C112.987 15.1432 112.698 14.8501 112.342 14.8501C111.987 14.8501 111.698 15.1432 111.698 15.5048C111.698 15.8663 111.987 16.1594 112.342 16.1594Z" fill="#E6E6E6"/>
<path d="M131.648 7.12279C132.004 7.12279 132.292 6.82969 132.292 6.46813C132.292 6.10658 132.004 5.81348 131.648 5.81348C131.292 5.81348 131.004 6.10658 131.004 6.46813C131.004 6.82969 131.292 7.12279 131.648 7.12279Z" fill="#E6E6E6"/>
<path d="M135.67 23.223C135.67 23.4789 135.466 23.6858 135.214 23.6858C134.962 23.6858 134.759 23.4789 134.759 23.223C134.759 22.9672 134.962 22.7603 135.214 22.7603C135.466 22.7603 135.67 22.9681 135.67 23.223Z" fill="#CCCCCC"/>
<path d="M138.178 17.6332C138.178 17.889 137.975 18.096 137.723 18.096C137.471 18.096 137.268 17.889 137.268 17.6332C137.268 17.3774 137.471 17.1704 137.723 17.1704C137.975 17.1704 138.178 17.3774 138.178 17.6332Z" fill="#E6E6E6"/>
<path d="M124.779 28.6629C125.03 28.6629 125.234 28.4557 125.234 28.2001C125.234 27.9445 125.03 27.7373 124.779 27.7373C124.527 27.7373 124.323 27.9445 124.323 28.2001C124.323 28.4557 124.527 28.6629 124.779 28.6629Z" fill="#CCCCCC"/>
<path d="M119.94 18.5584C120.191 18.5584 120.395 18.3512 120.395 18.0956C120.395 17.84 120.191 17.6328 119.94 17.6328C119.688 17.6328 119.484 17.84 119.484 18.0956C119.484 18.3512 119.688 18.5584 119.94 18.5584Z" fill="#E6E6E6"/>
<path d="M130.517 32.0512C130.517 32.307 130.314 32.514 130.062 32.514C129.81 32.514 129.606 32.307 129.606 32.0512C129.606 31.7953 129.81 31.5884 130.062 31.5884C130.314 31.5884 130.517 31.7962 130.517 32.0512Z" fill="#E6E6E6"/>
<path d="M137.346 28.0082C137.346 28.264 137.143 28.471 136.891 28.471C136.639 28.471 136.436 28.264 136.436 28.0082C136.436 27.7524 136.639 27.5454 136.891 27.5454C137.142 27.5454 137.346 27.7524 137.346 28.0082Z" fill="#E6E6E6"/>
<path d="M145.088 10.621C145.088 10.8768 144.885 11.0838 144.633 11.0838C144.381 11.0838 144.178 10.8768 144.178 10.621C144.178 10.3652 144.381 10.1582 144.633 10.1582C144.885 10.1582 145.088 10.3661 145.088 10.621Z" fill="#E6E6E6"/>
<path d="M123.434 0.835837C123.434 1.09166 123.231 1.29862 122.979 1.29862C122.727 1.29862 122.523 1.09166 122.523 0.835837C122.523 0.580016 122.727 0.373047 122.979 0.373047C123.231 0.373047 123.434 0.580016 123.434 0.835837Z" fill="#E6E6E6"/>
<path d="M113.254 2.85244C113.254 3.10826 113.05 3.31523 112.798 3.31523C112.546 3.31523 112.343 3.10826 112.343 2.85244C112.343 2.59661 112.546 2.38965 112.798 2.38965C113.05 2.38965 113.254 2.59661 113.254 2.85244Z" fill="#E6E6E6"/>
<path d="M117.995 14.1952C117.995 14.451 117.791 14.658 117.539 14.658C117.288 14.658 117.084 14.451 117.084 14.1952C117.084 13.9394 117.288 13.7324 117.539 13.7324C117.791 13.7324 117.995 13.9394 117.995 14.1952Z" fill="#E6E6E6"/>
<path d="M130.062 12.5683C130.062 12.8241 129.858 13.031 129.607 13.031C129.355 13.031 129.151 12.8241 129.151 12.5683C129.151 12.3124 129.355 12.1055 129.607 12.1055C129.858 12.1055 130.062 12.3124 130.062 12.5683Z" fill="#CCCCCC"/>
<path d="M140.102 13.4934C140.353 13.4934 140.557 13.2862 140.557 13.0307C140.557 12.7751 140.353 12.5679 140.102 12.5679C139.85 12.5679 139.646 12.7751 139.646 13.0307C139.646 13.2862 139.85 13.4934 140.102 13.4934Z" fill="#CCCCCC"/>
<path d="M121.051 10.1342C120.304 10.7933 119.45 11.3715 118.479 11.5714C117.51 11.7713 116.408 11.5288 115.762 10.7675C115.116 10.0063 115.106 8.69874 115.876 8.06718C116.394 7.64259 117.191 7.52623 117.485 6.91865C117.695 6.48429 117.551 5.95488 117.314 5.53473C117.077 5.11458 116.751 4.74506 116.567 4.29914C116.248 3.5299 116.418 2.5759 116.982 1.96921C117.547 1.36253 118.474 1.13602 119.248 1.41671C120.085 1.7205 120.665 2.52261 121.481 2.88058C123.191 3.63028 125.402 2.2508 126.944 3.31139C127.79 3.89321 128.082 5.16698 127.577 6.06858C126.887 7.29972 125.592 6.88845 124.518 7.34591C123.142 7.93483 122.152 9.16331 121.051 10.1342Z" fill="#FFF1F1"/>
<path d="M118.183 4.16136C118.539 4.16136 118.827 3.86826 118.827 3.5067C118.827 3.14515 118.539 2.85205 118.183 2.85205C117.827 2.85205 117.539 3.14515 117.539 3.5067C117.539 3.86826 117.827 4.16136 118.183 4.16136Z" fill="#CCCCCC"/>
<path d="M125.422 5.74193C125.778 5.74193 126.067 5.44883 126.067 5.08727C126.067 4.72572 125.778 4.43262 125.422 4.43262C125.067 4.43262 124.778 4.72572 124.778 5.08727C124.778 5.44883 125.067 5.74193 125.422 5.74193Z" fill="#CCCCCC"/>
<path d="M119.94 5.0872C120.191 5.0872 120.395 4.88 120.395 4.62441C120.395 4.36882 120.191 4.16162 119.94 4.16162C119.688 4.16162 119.484 4.36882 119.484 4.62441C119.484 4.88 119.688 5.0872 119.94 5.0872Z" fill="#CCCCCC"/>
<path d="M118.662 9.4412C118.914 9.4412 119.118 9.234 119.118 8.97841C119.118 8.72282 118.914 8.51562 118.662 8.51562C118.411 8.51562 118.207 8.72282 118.207 8.97841C118.207 9.234 118.411 9.4412 118.662 9.4412Z" fill="#CCCCCC"/>
<path d="M35.1564 13.6066C36.6291 16.0458 34.7202 19.3537 32.1758 20.5786C29.6315 21.8035 26.6903 21.68 23.9038 22.0904C21.1173 22.5008 18.0843 23.7844 17.1325 26.4776C15.9132 29.9259 18.9435 33.6184 22.3672 34.7669C25.7909 35.9154 29.5091 35.4056 33.1067 35.6507C36.7043 35.8959 40.6874 37.2887 42.1278 40.6473C42.6916 41.9619 42.8279 43.5048 43.7536 44.5876C45.0192 46.0684 47.2253 46.1181 49.1544 46.0524C55.618 45.8321 62.0808 45.6127 68.5444 45.3924C72.399 45.2609 76.5228 45.0389 79.6108 42.6903C82.6988 40.3417 83.8535 35.0263 80.8362 32.5853C79.1685 31.236 76.8453 31.1756 74.7187 31.3151C72.5921 31.4546 70.3589 31.7139 68.4107 30.8363C66.4624 29.9587 65.0508 27.4245 66.1591 25.5742C67.1503 23.9194 69.408 23.7497 71.3143 23.7666C74.9381 23.7995 78.5619 23.8323 82.1858 23.8643C85.3918 23.8936 88.8155 23.8599 91.4848 22.0558C94.1542 20.2517 95.419 15.9623 93.1115 13.6998C91.5959 12.2138 89.2639 12.1578 87.1653 11.973C85.0667 11.7883 82.6578 11.1319 81.844 9.15723C81.1343 7.43399 81.9646 5.39008 81.3904 3.61532C80.4394 0.674259 76.5726 0.264768 73.5283 0.396231C62.9618 0.85369 52.4836 1.27473 41.9277 1.0953C38.5381 1.03756 34.2255 1.95337 31.6986 4.46006C26.9568 9.16345 33.5341 10.2249 35.1564 13.6066Z" fill="#FFF1F1"/>
<path d="M85.6647 31.9758C86.0205 31.9758 86.3089 31.6827 86.3089 31.3212C86.3089 30.9596 86.0205 30.6665 85.6647 30.6665C85.3089 30.6665 85.0205 30.9596 85.0205 31.3212C85.0205 31.6827 85.3089 31.9758 85.6647 31.9758Z" fill="#E6E6E6"/>
<path d="M75.6735 28.2673C76.0292 28.2673 76.3177 27.9742 76.3177 27.6127C76.3177 27.2511 76.0292 26.958 75.6735 26.958C75.3177 26.958 75.0293 27.2511 75.0293 27.6127C75.0293 27.9742 75.3177 28.2673 75.6735 28.2673Z" fill="#E6E6E6"/>
<path d="M83.2708 30.6668C83.5223 30.6668 83.7262 30.4596 83.7262 30.204C83.7262 29.9484 83.5223 29.7412 83.2708 29.7412C83.0193 29.7412 82.8154 29.9484 82.8154 30.204C82.8154 30.4596 83.0193 30.6668 83.2708 30.6668Z" fill="#E6E6E6"/>
<path d="M81.3248 26.3046C81.3248 26.5604 81.1212 26.7674 80.8694 26.7674C80.6177 26.7674 80.4141 26.5604 80.4141 26.3046C80.4141 26.0488 80.6177 25.8418 80.8694 25.8418C81.1212 25.8418 81.3248 26.0488 81.3248 26.3046Z" fill="#E6E6E6"/>
<path d="M75.9205 7.44114C76.2763 7.44114 76.5647 7.14805 76.5647 6.78649C76.5647 6.42493 76.2763 6.13184 75.9205 6.13184C75.5648 6.13184 75.2764 6.42493 75.2764 6.78649C75.2764 7.14805 75.5648 7.44114 75.9205 7.44114Z" fill="#CCCCCC"/>
<path d="M89.4811 18.2878C89.8369 18.2878 90.1253 17.9947 90.1253 17.6332C90.1253 17.2716 89.8369 16.9785 89.4811 16.9785C89.1253 16.9785 88.8369 17.2716 88.8369 17.6332C88.8369 17.9947 89.1253 18.2878 89.4811 18.2878Z" fill="#CCCCCC"/>
<path d="M37.5621 9.17064C37.9179 9.17064 38.2063 8.87754 38.2063 8.51598C38.2063 8.15443 37.9179 7.86133 37.5621 7.86133C37.2064 7.86133 36.918 8.15443 36.918 8.51598C36.918 8.87754 37.2064 9.17064 37.5621 9.17064Z" fill="#CCCCCC"/>
<path d="M75.914 34.2735C75.971 33.9166 75.7325 33.5803 75.3813 33.5224C75.0301 33.4645 74.6993 33.7069 74.6423 34.0638C74.5853 34.4206 74.8238 34.7569 75.1749 34.8148C75.5261 34.8728 75.857 34.6304 75.914 34.2735Z" fill="#CCCCCC"/>
<path d="M70.5807 39.3826C70.9365 39.3826 71.2249 39.0895 71.2249 38.7279C71.2249 38.3663 70.9365 38.0732 70.5807 38.0732C70.2249 38.0732 69.9365 38.3663 69.9365 38.7279C69.9365 39.0895 70.2249 39.3826 70.5807 39.3826Z" fill="#CCCCCC"/>
<path d="M21.5416 26.7522C21.8974 26.7522 22.1858 26.4591 22.1858 26.0975C22.1858 25.736 21.8974 25.4429 21.5416 25.4429C21.1859 25.4429 20.8975 25.736 20.8975 26.0975C20.8975 26.4591 21.1859 26.7522 21.5416 26.7522Z" fill="#CCCCCC"/>
<path d="M22.1852 31.4118C22.541 31.4118 22.8294 31.1187 22.8294 30.7572C22.8294 30.3956 22.541 30.1025 22.1852 30.1025C21.8294 30.1025 21.541 30.3956 21.541 30.7572C21.541 31.1187 21.8294 31.4118 22.1852 31.4118Z" fill="#CCCCCC"/>
<path d="M78.2565 4.50429C78.2565 4.76011 78.0528 4.96708 77.8011 4.96708C77.5494 4.96708 77.3457 4.76011 77.3457 4.50429C77.3457 4.24847 77.5494 4.0415 77.8011 4.0415C78.0528 4.0415 78.2565 4.24847 78.2565 4.50429Z" fill="#CCCCCC"/>
<path d="M79.1656 18.5585C79.1656 18.8143 78.962 19.0213 78.7103 19.0213C78.4585 19.0213 78.2549 18.8143 78.2549 18.5585C78.2549 18.3027 78.4585 18.0957 78.7103 18.0957C78.962 18.0957 79.1656 18.3027 79.1656 18.5585Z" fill="#CCCCCC"/>
<path d="M83.7242 19.8671C83.7242 20.1229 83.5206 20.3299 83.2689 20.3299C83.0171 20.3299 82.8135 20.1229 82.8135 19.8671C82.8135 19.6113 83.0171 19.4043 83.2689 19.4043C83.5197 19.4043 83.7242 19.6113 83.7242 19.8671Z" fill="#CCCCCC"/>
<path d="M86.7819 13.7328C86.7819 13.9886 86.5782 14.1956 86.3265 14.1956C86.0748 14.1956 85.8711 13.9886 85.8711 13.7328C85.8711 13.477 86.0748 13.27 86.3265 13.27C86.5782 13.27 86.7819 13.477 86.7819 13.7328Z" fill="#CCCCCC"/>
<path d="M88.8375 21.8407C88.8375 22.0965 88.6339 22.3035 88.3821 22.3035C88.1304 22.3035 87.9268 22.0965 87.9268 21.8407C87.9268 21.5849 88.1304 21.3779 88.3821 21.3779C88.6339 21.3779 88.8375 21.5858 88.8375 21.8407Z" fill="#CCCCCC"/>
<path d="M74.0269 16.9773C74.0767 16.6194 74.4028 16.3707 74.7541 16.4204C75.1064 16.471 75.3511 16.8024 75.3022 17.1594C75.2524 17.5174 74.9263 17.7661 74.575 17.7164C74.2227 17.6658 73.9771 17.3344 74.0269 16.9773Z" fill="#CCCCCC"/>
<path d="M80.6736 15.6735C80.7086 15.4203 80.9393 15.2444 81.1884 15.28C81.4375 15.3155 81.6106 15.55 81.5757 15.8031C81.5407 16.0563 81.3099 16.2322 81.0608 16.1966C80.8117 16.1611 80.6378 15.9266 80.6736 15.6735Z" fill="#CCCCCC"/>
<path d="M85.4207 16.9137C85.4557 16.6605 85.6864 16.4847 85.9355 16.5202C86.1846 16.5557 86.3577 16.7902 86.3227 17.0434C86.2878 17.2965 86.057 17.4724 85.8079 17.4369C85.5588 17.4014 85.3849 17.1668 85.4207 16.9137Z" fill="#CCCCCC"/>
<path d="M76.8025 21.3141C76.8375 21.0609 77.0682 20.885 77.3174 20.9206C77.5665 20.9561 77.7395 21.1906 77.7046 21.4438C77.6696 21.6969 77.4388 21.8728 77.1897 21.8373C76.9406 21.8008 76.7667 21.5663 76.8025 21.3141Z" fill="#CCCCCC"/>
<path d="M37.3737 5.0873C37.3737 5.34312 37.17 5.55009 36.9183 5.55009C36.6665 5.55009 36.4629 5.34312 36.4629 5.0873C36.4629 4.83148 36.6665 4.62451 36.9183 4.62451C37.17 4.62451 37.3737 4.83148 37.3737 5.0873Z" fill="#CCCCCC"/>
<path d="M78.7106 36.5292C78.7106 36.785 78.5069 36.992 78.2552 36.992C78.0035 36.992 77.7998 36.785 77.7998 36.5292C77.7998 36.2734 78.0035 36.0664 78.2552 36.0664C78.5069 36.0664 78.7106 36.2743 78.7106 36.5292Z" fill="#CCCCCC"/>
<path d="M32.7454 8.32402C32.9969 8.32402 33.2008 8.11682 33.2008 7.86123C33.2008 7.60564 32.9969 7.39844 32.7454 7.39844C32.4939 7.39844 32.29 7.60564 32.29 7.86123C32.29 8.11682 32.4939 8.32402 32.7454 8.32402Z" fill="#CCCCCC"/>
<path d="M75.732 40.7221C75.732 40.9779 75.5284 41.1849 75.2767 41.1849C75.0249 41.1849 74.8213 40.9779 74.8213 40.7221C74.8213 40.4662 75.0249 40.2593 75.2767 40.2593C75.5284 40.2593 75.732 40.4671 75.732 40.7221Z" fill="#CCCCCC"/>
<path d="M45.3395 9.58462C44.996 9.49135 44.7915 9.13338 44.8833 8.7834C44.975 8.43342 45.3273 8.22645 45.6717 8.31972C46.0152 8.41299 46.2197 8.77096 46.1279 9.12094C46.0361 9.47003 45.683 9.67788 45.3395 9.58462Z" fill="#CCCCCC"/>
<path d="M42.2136 3.79989C41.8701 3.70662 41.6655 3.34865 41.7573 2.99867C41.8491 2.64958 42.2013 2.44173 42.5457 2.535C42.8892 2.62826 43.0937 2.98624 43.0019 3.33622C42.9102 3.68531 42.5571 3.89316 42.2136 3.79989Z" fill="#CCCCCC"/>
<path d="M42.377 11.7174C42.1341 11.6517 41.9898 11.3985 42.0545 11.1516C42.1192 10.9046 42.3683 10.7581 42.6113 10.8238C42.8543 10.8895 42.9985 11.1427 42.9338 11.3896C42.8691 11.6366 42.62 11.7831 42.377 11.7174Z" fill="#CCCCCC"/>
<path d="M39.1573 7.71204C38.9143 7.64631 38.7701 7.39315 38.8348 7.14621C38.8995 6.89927 39.1486 6.75271 39.3916 6.81844C39.6346 6.88417 39.7788 7.13733 39.7141 7.38427C39.6503 7.63121 39.4003 7.77777 39.1573 7.71204Z" fill="#CCCCCC"/>
<path d="M54.4639 9.89091C54.6885 9.61111 55.0941 9.56936 55.3703 9.79764C55.6456 10.0259 55.6867 10.4381 55.4621 10.7188C55.2374 10.9986 54.8319 11.0403 54.5557 10.812C54.2795 10.5829 54.2384 10.1707 54.4639 9.89091Z" fill="#CCCCCC"/>
<path d="M60.9385 9.3748C61.1631 9.09499 61.5687 9.05325 61.8449 9.28153C62.1202 9.50982 62.1613 9.92197 61.9367 10.2027C61.712 10.4825 61.3065 10.5242 61.0303 10.2959C60.7541 10.0677 60.713 9.65549 60.9385 9.3748Z" fill="#CCCCCC"/>
<path d="M53.7707 6.26875C53.9298 6.07067 54.2165 6.04135 54.4114 6.20302C54.6063 6.36468 54.6351 6.65604 54.476 6.85412C54.317 7.05221 54.0303 7.08152 53.8354 6.91985C53.6405 6.75819 53.6116 6.46595 53.7707 6.26875Z" fill="#CCCCCC"/>
<path d="M58.6877 4.93428C58.8468 4.7362 59.1334 4.70688 59.3284 4.86855C59.5233 5.03021 59.5521 5.32156 59.393 5.51965C59.234 5.71773 58.9473 5.74705 58.7524 5.58538C58.5574 5.42372 58.5286 5.13236 58.6877 4.93428Z" fill="#CCCCCC"/>
<path d="M25.9651 28.2C26.2166 28.2 26.4205 27.9928 26.4205 27.7372C26.4205 27.4816 26.2166 27.2744 25.9651 27.2744C25.7136 27.2744 25.5098 27.4816 25.5098 27.7372C25.5098 27.9928 25.7136 28.2 25.9651 28.2Z" fill="#CCCCCC"/>
<path d="M31.047 32.9612C30.8713 32.6468 30.9797 32.247 31.2891 32.0694C31.5985 31.8908 31.9919 32.001 32.1667 32.3154C32.3424 32.6299 32.234 33.0296 31.9246 33.2073C31.6152 33.3858 31.2218 33.2757 31.047 32.9612Z" fill="#CCCCCC"/>
<path d="M28.2238 29.2312C28.0481 28.9168 28.1565 28.5171 28.4659 28.3394C28.7753 28.1609 29.1686 28.271 29.3434 28.5855C29.5191 28.8999 29.4107 29.2996 29.1013 29.4773C28.7919 29.6558 28.3995 29.5457 28.2238 29.2312Z" fill="#CCCCCC"/>
<path d="M26.5681 33.6592C26.444 33.4372 26.5209 33.1547 26.7395 33.0286C26.958 32.9024 27.2359 32.9806 27.36 33.2027C27.4841 33.4247 27.4072 33.7072 27.1887 33.8334C26.9702 33.9595 26.6923 33.8813 26.5681 33.6592Z" fill="#CCCCCC"/>
<path d="M21.4879 8.81712C21.8437 8.81712 22.1321 8.52402 22.1321 8.16247C22.1321 7.80091 21.8437 7.50781 21.4879 7.50781C21.1322 7.50781 20.8438 7.80091 20.8438 8.16247C20.8438 8.52402 21.1322 8.81712 21.4879 8.81712Z" fill="#E6E6E6"/>
<path d="M22.1325 13.4758C22.4882 13.4758 22.7766 13.1827 22.7766 12.8212C22.7766 12.4596 22.4882 12.1665 22.1325 12.1665C21.7767 12.1665 21.4883 12.4596 21.4883 12.8212C21.4883 13.1827 21.7767 13.4758 22.1325 13.4758Z" fill="#E6E6E6"/>
<path d="M26.3668 9.80117C26.3668 10.057 26.1632 10.264 25.9114 10.264C25.6597 10.264 25.4561 10.057 25.4561 9.80117C25.4561 9.54534 25.6597 9.33838 25.9114 9.33838C26.1632 9.33838 26.3668 9.54534 26.3668 9.80117Z" fill="#E6E6E6"/>
<path d="M87.3649 4.79319C87.7207 4.79319 88.0091 4.5001 88.0091 4.13854C88.0091 3.77699 87.7207 3.48389 87.3649 3.48389C87.0091 3.48389 86.7207 3.77699 86.7207 4.13854C86.7207 4.5001 87.0091 4.79319 87.3649 4.79319Z" fill="#E6E6E6"/>
<path d="M88.0075 9.45286C88.3632 9.45286 88.6516 9.15976 88.6516 8.79821C88.6516 8.43665 88.3632 8.14355 88.0075 8.14355C87.6517 8.14355 87.3633 8.43665 87.3633 8.79821C87.3633 9.15976 87.6517 9.45286 88.0075 9.45286Z" fill="#E6E6E6"/>
<path d="M91.7874 6.241C92.0389 6.241 92.2428 6.03381 92.2428 5.77822C92.2428 5.52263 92.0389 5.31543 91.7874 5.31543C91.5359 5.31543 91.332 5.52263 91.332 5.77822C91.332 6.03381 91.5359 6.241 91.7874 6.241Z" fill="#E6E6E6"/>
<path d="M30.9933 15.0261C30.8176 14.7117 30.926 14.312 31.2354 14.1343C31.5448 13.9558 31.9382 14.0659 32.113 14.3804C32.2887 14.6948 32.1803 15.0945 31.8709 15.2722C31.5623 15.4507 31.169 15.3406 30.9933 15.0261Z" fill="#E6E6E6"/>
<path d="M28.171 11.2962C27.9954 10.9817 28.1037 10.582 28.4132 10.4043C28.7226 10.2258 29.1159 10.3359 29.2907 10.6504C29.4664 10.9648 29.358 11.3646 29.0486 11.5422C28.7392 11.7208 28.3459 11.6106 28.171 11.2962Z" fill="#E6E6E6"/>
<path d="M26.5144 15.7242C26.3903 15.5021 26.4672 15.2197 26.6857 15.0935C26.9043 14.9674 27.1822 15.0456 27.3063 15.2676C27.4304 15.4897 27.3535 15.7722 27.135 15.8983C26.9165 16.0244 26.6385 15.9463 26.5144 15.7242Z" fill="#E6E6E6"/>
<path d="M21.8561 44.9626C22.2119 44.9626 22.5003 44.6695 22.5003 44.308C22.5003 43.9464 22.2119 43.6533 21.8561 43.6533C21.5003 43.6533 21.2119 43.9464 21.2119 44.308C21.2119 44.6695 21.5003 44.9626 21.8561 44.9626Z" fill="#E6E6E6"/>
<path d="M38.7047 46.3445C39.0605 46.3445 39.3489 46.0514 39.3489 45.6898C39.3489 45.3283 39.0605 45.0352 38.7047 45.0352C38.349 45.0352 38.0605 45.3283 38.0605 45.6898C38.0605 46.0514 38.349 46.3445 38.7047 46.3445Z" fill="#E6E6E6"/>
<path d="M30.4918 40.0575C30.4918 40.3133 30.2882 40.5203 30.0364 40.5203C29.7847 40.5203 29.5811 40.3133 29.5811 40.0575C29.5811 39.8017 29.7847 39.5947 30.0364 39.5947C30.2882 39.5947 30.4918 39.8017 30.4918 40.0575Z" fill="#E6E6E6"/>
<path d="M19.8548 42.5364C20.1063 42.5364 20.3102 42.3292 20.3102 42.0736C20.3102 41.818 20.1063 41.6108 19.8548 41.6108C19.6033 41.6108 19.3994 41.818 19.3994 42.0736C19.3994 42.3292 19.6033 42.5364 19.8548 42.5364Z" fill="#E6E6E6"/>
<path d="M28.1075 49.3559C27.3602 50.015 26.5063 50.5932 25.5361 50.7931C24.5667 50.9929 23.4646 50.7504 22.8186 49.9892C22.1727 49.228 22.1622 47.9204 22.9323 47.2889C23.4506 46.8643 24.2477 46.7479 24.5414 46.1403C24.752 45.706 24.6078 45.1766 24.371 44.7564C24.1341 44.3363 23.8081 43.9667 23.6236 43.5208C23.3046 42.7516 23.4742 41.7976 24.0388 41.1909C24.6035 40.5842 25.5308 40.3577 26.3044 40.6384C27.1417 40.9422 27.7212 41.7443 28.5376 42.1023C30.2472 42.852 32.4586 41.4725 34.0004 42.5331C34.8465 43.1149 35.1384 44.3887 34.6332 45.2903C33.9436 46.5214 32.6483 46.1101 31.5749 46.5676C30.1983 47.1565 29.2088 48.385 28.1075 49.3559Z" fill="#FFF1F1"/>
<path d="M25.2409 43.383C25.5966 43.383 25.885 43.0899 25.885 42.7284C25.885 42.3668 25.5966 42.0737 25.2409 42.0737C24.8851 42.0737 24.5967 42.3668 24.5967 42.7284C24.5967 43.0899 24.8851 43.383 25.2409 43.383Z" fill="#CCCCCC"/>
<path d="M32.4801 44.9626C32.8359 44.9626 33.1243 44.6695 33.1243 44.308C33.1243 43.9464 32.8359 43.6533 32.4801 43.6533C32.1243 43.6533 31.8359 43.9464 31.8359 44.308C31.8359 44.6695 32.1243 44.9626 32.4801 44.9626Z" fill="#CCCCCC"/>
<path d="M27.4528 43.8451C27.4528 44.1009 27.2491 44.3079 26.9974 44.3079C26.7456 44.3079 26.542 44.1009 26.542 43.8451C26.542 43.5893 26.7456 43.3823 26.9974 43.3823C27.2491 43.3823 27.4528 43.5902 27.4528 43.8451Z" fill="#CCCCCC"/>
<path d="M26.1754 48.2001C26.1754 48.4559 25.9718 48.6629 25.72 48.6629C25.4683 48.6629 25.2646 48.4559 25.2646 48.2001C25.2646 47.9443 25.4683 47.7373 25.72 47.7373C25.9718 47.7373 26.1754 47.9443 26.1754 48.2001Z" fill="#CCCCCC"/>
<path d="M26.2037 121.842H14.467L17.3432 88.6145L26.3481 90.488L26.2037 121.842Z" fill="white" stroke="black"/>
<path d="M26.1928 121.841H24.8285L23.5273 100.133L23.5064 99.7839L23.1718 99.6836L23.1718 99.6836L23.1717 99.6836L23.1712 99.6834L23.1687 99.6827L23.158 99.6794L23.1144 99.6661C23.0758 99.6542 23.0183 99.6363 22.9444 99.6128C22.7966 99.5658 22.5829 99.4964 22.3215 99.4073C21.7983 99.229 21.0865 98.9727 20.3305 98.6605C19.573 98.3476 18.7798 97.9822 18.0902 97.5868C17.4855 97.2401 16.9925 96.8881 16.6692 96.5503L16.8945 95.0297L25.7275 95.8457L26.1928 121.841Z" fill="#F2AFB3" stroke="black"/>
<path d="M101.313 78.2315C99.4801 82.2349 95.608 89.2167 89.4818 93.2352C88.4696 93.8996 87.3963 94.4832 86.26 94.9585L83.2349 91.7465L80.5262 88.8711L80.3418 88.6748L80.8269 84.9956L84.5574 57.0693C85.6228 57.0693 90.6941 63.6354 95.9647 70.8331C96.7941 71.9647 97.628 73.1133 98.4531 74.2547C99.4277 75.6022 100.39 76.9417 101.313 78.2315Z" fill="#ED9107"/>
<path d="M98.4523 74.2528C97.4322 75.8357 95.9306 78.0288 93.9858 80.5097C91.4485 83.7475 87.7818 87.9268 83.2341 91.7463L80.5254 88.871C84.8983 85.2353 88.4382 81.2079 90.8812 78.0981C93.346 74.9598 95.0845 72.2693 95.9647 70.832C96.7942 71.9637 97.628 73.1122 98.4523 74.2528Z" fill="white"/>
<path d="M28.7326 96.6177C15.4574 97.4224 9.21582 92.4899 9.21582 92.4899C9.21582 92.4899 9.83902 90.5668 10.8853 87.6612C11.2865 86.5482 11.7497 85.2905 12.2636 83.9403C15.4216 75.6465 20.499 63.8965 24.8693 60.9785L27.6951 87.0448L28.1321 91.0713L28.7326 96.6177Z" fill="#ED9107"/>
<path d="M28.1326 91.0714C26.9185 90.9675 25.5699 90.8245 24.1172 90.63C20.5135 90.1459 15.811 89.2629 10.8857 87.6614C11.2869 86.5484 11.7502 85.2906 12.2641 83.9404C16.8276 85.4087 21.1926 86.2277 24.5516 86.6825C25.666 86.8335 26.7201 86.9517 27.6956 87.0449L28.1326 91.0714Z" fill="white"/>
<path d="M46.4163 57.0674C46.4163 57.0674 33.2181 58.7098 24.8691 60.9766V122.341H84.5575V57.0674C77.2268 55.9259 63.7025 57.0674 63.7025 57.0674H46.4163Z" fill="#ED9107"/>
<path d="M24.8691 96.7064V75.0566" stroke="black" stroke-miterlimit="10" stroke-linecap="round" stroke-linejoin="round"/>
<path d="M84.5576 76.0122V93.1505" stroke="black" stroke-miterlimit="10" stroke-linecap="round" stroke-linejoin="round"/>
<path d="M46.915 60.0297V45.8218H63.2012V60.0297V60.0298C63.202 64.6129 59.5481 68.3138 55.0586 68.3138C50.569 68.3138 46.915 64.6129 46.915 60.0297Z" fill="white" stroke="black"/>
<path d="M51.5381 49.2153C51.5381 49.2153 58.583 52.7053 63.7023 52.303V49.2153H51.5381Z" fill="black"/>
<path d="M38.0864 27.6116L38.0865 27.6114C38.1982 27.1156 38.41 26.8666 38.6231 26.731C38.85 26.5867 39.1426 26.5307 39.471 26.5414C39.7974 26.5519 40.1204 26.6273 40.3692 26.7046C40.4918 26.7427 40.5921 26.7799 40.6605 26.8071C40.6947 26.8206 40.7206 26.8316 40.7372 26.8387L40.7547 26.8464L40.7571 26.8475L40.7574 26.8476L40.7577 26.8478L40.7579 26.8479L40.758 26.8479L41.4961 27.1899L41.467 26.3761L41.467 26.376L41.467 26.376L41.467 26.3751L41.4668 26.3708L41.4663 26.3518C41.4658 26.3347 41.4651 26.3086 41.4644 26.2742C41.463 26.2054 41.4616 26.1031 41.4612 25.9716C41.4605 25.7087 41.4645 25.3295 41.4831 24.8684C41.5204 23.9447 41.6163 22.6994 41.8494 21.4042C42.0831 20.1052 42.4507 18.7799 43.0199 17.6833C43.5896 16.5858 44.3366 15.7625 45.3098 15.3822L45.3099 15.3822C46.3518 14.9748 47.0934 15.004 47.6255 15.2066C48.1639 15.4115 48.5654 15.8232 48.8659 16.3247C49.1672 16.8275 49.3486 17.3915 49.4543 17.8409C49.5066 18.0634 49.5391 18.2527 49.5584 18.3848C49.568 18.4508 49.5743 18.5023 49.5781 18.5362C49.58 18.5531 49.5813 18.5656 49.582 18.5734L49.5828 18.5814L49.5828 18.5819L49.5828 18.5822L49.5828 18.5825L49.5829 18.5826L49.7145 20.1734L50.5138 18.7912L50.5138 18.7911L50.5139 18.791L50.5139 18.7909L50.5151 18.789L50.521 18.779C50.5265 18.7696 50.5352 18.7551 50.547 18.7356C50.5706 18.6967 50.6066 18.6384 50.6547 18.5633C50.7509 18.413 50.895 18.196 51.084 17.9342C51.4626 17.4098 52.0179 16.7098 52.7247 16.0067C54.1497 14.5892 56.1277 13.2202 58.4677 13.1503C59.6397 13.1153 60.3488 13.4074 60.7867 13.795C61.2301 14.1874 61.4629 14.7372 61.5627 15.3431C61.6627 15.9501 61.6223 16.5753 61.552 17.0596C61.5172 17.2994 61.4759 17.4991 61.4437 17.6376C61.4276 17.7068 61.4139 17.7603 61.4044 17.7956C61.3997 17.8132 61.3961 17.8263 61.3938 17.8344L61.3914 17.8428L61.3912 17.8436L61.3911 17.8439L61.391 17.8441L61.391 17.8442L61.1455 18.6683L61.9835 18.4734L61.9836 18.4734L61.9845 18.4732L61.989 18.4721L62.0084 18.4677C62.026 18.4638 62.0527 18.4579 62.0879 18.4503C62.1584 18.4351 62.2631 18.4131 62.3976 18.3867C62.6665 18.3339 63.0538 18.2633 63.524 18.193C64.4662 18.0521 65.7316 17.9139 67.0382 17.92C68.351 17.9261 69.6697 18.0782 70.7372 18.4945C71.7952 18.9072 72.5631 19.5594 72.8869 20.5568C73.5678 22.6549 72.573 24.3001 71.2952 25.485C70.659 26.075 69.9725 26.5289 69.4414 26.8363C69.1768 26.9894 68.9532 27.1048 68.7971 27.1813C68.7191 27.2195 68.6581 27.2479 68.6174 27.2664C68.6052 27.272 68.5949 27.2767 68.5864 27.2804C68.5808 27.2829 68.5761 27.285 68.5722 27.2867L68.5619 27.2913L68.5601 27.292L68.5599 27.2921L68.5599 27.2921L68.5597 27.2922L67.0946 27.9166L68.6536 28.2414L68.6537 28.2414L68.6538 28.2414L68.654 28.2414L68.6542 28.2415L68.656 28.2419L68.6682 28.2446C68.6796 28.2471 68.6975 28.2512 68.7208 28.2569C68.7675 28.2683 68.8358 28.2859 68.9183 28.3099C69.0851 28.3584 69.3021 28.4308 69.5146 28.5277C69.7317 28.6267 69.9172 28.7392 70.0414 28.8574C70.1362 28.9475 70.1721 29.0174 70.1834 29.07C70.171 29.0873 70.1483 29.1157 70.1083 29.1558C70.002 29.2623 69.8316 29.3928 69.5986 29.5413C69.1362 29.8362 68.5051 30.1535 67.8554 30.4493C67.2096 30.7434 66.5618 31.0089 66.0742 31.2013C65.8308 31.2973 65.6281 31.3749 65.4865 31.4283C65.4157 31.455 65.3603 31.4756 65.3227 31.4896L65.2801 31.5053L65.2797 31.5054L43.065 38.1411C43.0513 38.1199 43.037 38.0976 43.0221 38.0744C42.8659 37.8306 42.6431 37.4793 42.3772 37.0499C41.8451 36.1907 41.1423 35.0216 40.4573 33.7791C39.7709 32.5342 39.1087 31.227 38.6532 30.089C38.4253 29.5197 38.2538 29.0044 38.1555 28.5677C38.0547 28.1197 38.0428 27.8049 38.0864 27.6116Z" fill="#ED9107" stroke="black"/>
<path d="M47.1294 47.1289C47.0493 47.0983 46.9777 47.0708 46.915 47.0465V24.7905C46.9459 24.7804 46.9788 24.7696 47.0136 24.7582C47.2981 24.6656 47.7145 24.5335 48.2396 24.3767C49.2902 24.063 50.7746 23.6508 52.5077 23.2574C55.8797 22.4919 60.1581 21.8058 64.0066 22.0366C64.0572 22.2259 64.127 22.4902 64.212 22.8201C64.3975 23.5398 64.6555 24.5712 64.9447 25.8162C65.5234 28.3074 66.2261 31.6483 66.7249 35.0562C67.2248 38.471 67.5152 41.9227 67.2833 44.6467C67.1673 46.01 66.9227 47.1584 66.5296 48.0202C66.1386 48.8772 65.6224 49.4079 64.9754 49.6321C63.4315 50.1669 61.5206 50.283 59.4908 50.1367C57.4671 49.9908 55.3609 49.5869 53.4459 49.1097C51.5323 48.6329 49.8196 48.0856 48.585 47.6573C47.9681 47.4432 47.4713 47.2591 47.1294 47.1289Z" fill="white" stroke="black"/>
<path d="M47.7341 37.4467C50.2802 35.6568 48.1991 28.1056 48.1991 28.1056C48.1991 28.1056 57.7455 22.4847 65.1077 24.3385L64.842 21.2589C64.842 21.2589 54.737 19.6982 46.2167 24.128L45.375 38.223L47.7341 37.4467Z" fill="#ED9107"/>
<path d="M57.5774 34.1678C58.0452 34.1678 58.4244 33.7824 58.4244 33.307C58.4244 32.8317 58.0452 32.4463 57.5774 32.4463C57.1097 32.4463 56.7305 32.8317 56.7305 33.307C56.7305 33.7824 57.1097 34.1678 57.5774 34.1678Z" fill="black"/>
<path d="M63.93 33.6653C64.3977 33.6653 64.7769 33.28 64.7769 32.8046C64.7769 32.3292 64.3977 31.9438 63.93 31.9438C63.4622 31.9438 63.083 32.3292 63.083 32.8046C63.083 33.28 63.4622 33.6653 63.93 33.6653Z" fill="black"/>
<path d="M57.8748 29.9184C57.6563 29.8544 57.124 29.7318 56.4877 29.9184C55.7876 30.1244 55.3829 30.5819 55.2422 30.7578" stroke="black" stroke-miterlimit="10" stroke-linecap="round" stroke-linejoin="round"/>
<path d="M62.7842 29.7408C62.9765 29.6182 63.4555 29.3509 64.118 29.3535C64.847 29.3553 65.36 29.6822 65.5427 29.8119" stroke="black" stroke-miterlimit="10" stroke-linecap="round" stroke-linejoin="round"/>
<path d="M61.5078 32.8047L62.0357 37.2682C62.0357 37.2682 63.0872 36.3427 63.5881 37.1341C64.1824 38.0739 62.2674 39.0554 62.2674 39.0554" stroke="black" stroke-miterlimit="10" stroke-linecap="round" stroke-linejoin="round"/>
<path d="M58.9316 40.1123C59.0706 40.3113 59.5645 40.9668 60.484 41.228C61.5538 41.5318 62.4226 41.0823 62.6053 40.9819" stroke="black" stroke-miterlimit="10" stroke-linecap="round" stroke-linejoin="round"/>
<path d="M45.5657 37.0924C47.9 37.4844 49.4922 39.7295 49.1035 42.1202C48.7148 44.511 46.4967 46.1164 44.1624 45.7244C41.8281 45.3325 40.2359 43.0874 40.6246 40.6966C41.0132 38.3058 43.2314 36.7005 45.5657 37.0924Z" fill="#F4F4F4" stroke="black"/>
<path d="M47.2427 41.1505C47.2427 41.1505 44.1739 41.5156 42.4844 39.0542" stroke="black" stroke-miterlimit="10" stroke-linecap="round" stroke-linejoin="round"/>
<path d="M45.314 40.9819C45.314 40.9819 42.9069 42.1447 43.5825 44.4915" stroke="black" stroke-miterlimit="10" stroke-linecap="round" stroke-linejoin="round"/>
<path d="M100.851 103.365L100.851 103.365C109.342 111.449 123.251 105.229 123.083 93.3672C122.909 81.0876 122.699 67.5704 122.489 57.035C122.383 51.7671 122.278 47.2463 122.176 43.999C122.125 42.3748 122.076 41.0721 122.028 40.1547C122.003 39.6954 121.98 39.3372 121.958 39.0853C121.947 38.9689 121.937 38.8804 121.929 38.8175C121.893 38.796 121.837 38.7684 121.757 38.7376C121.563 38.6631 121.282 38.5907 120.918 38.526C120.193 38.3973 119.215 38.3115 118.122 38.2728C118.122 38.2728 118.122 38.2728 118.122 38.2728L100.851 103.365ZM100.851 103.365L98.3113 100.948V100.947L98.156 100.8L90.2771 93.3001M100.851 103.365L90.2771 93.3001M90.2771 93.3001C95.8466 89.4205 99.4928 83.2029 101.405 79.2162C103.277 81.8391 104.964 84.2311 106.246 86.0588L107.1 87.2767L107.155 85.7901C107.35 80.4951 108.056 61.7157 108.735 49.6089L108.735 49.6089C108.9 46.6722 109.063 44.1319 109.217 42.2732C109.294 41.3431 109.368 40.5893 109.438 40.0439C109.473 39.7705 109.507 39.5565 109.537 39.4019C109.553 39.3244 109.566 39.2682 109.577 39.2301C109.58 39.2225 109.582 39.2163 109.583 39.2114C109.597 39.197 109.634 39.1625 109.716 39.1147C109.827 39.0504 109.987 38.9815 110.198 38.9124C110.621 38.7742 111.194 38.6533 111.876 38.5539L112.304 38.4916V38.0592V27.8876C112.304 27.5485 112.573 27.2861 112.889 27.2861C113.035 27.2861 113.169 27.3411 113.273 27.4357L113.275 27.4373C113.379 27.5302 113.451 27.6614 113.469 27.8166L113.469 27.8167L113.805 30.6973L113.805 30.6974L114.049 32.7937L114.049 32.7937L114.05 32.7988L114.053 32.8212L114.053 32.8263L114.476 36.4479L114.476 36.448L90.2771 93.3001ZM121.969 38.8457C121.969 38.8457 121.968 38.8453 121.968 38.8444C121.969 38.8452 121.969 38.8457 121.969 38.8457ZM113.609 27.0651C113.802 27.2383 113.933 27.4808 113.966 27.7588L114.301 30.6394L114.546 32.7358L113.609 27.0651Z" fill="white" stroke="black"/>
<path d="M106.655 85.772L106.343 94.3917" stroke="black" stroke-miterlimit="10" stroke-linecap="round" stroke-linejoin="round"/>
<path d="M127.084 31.416V31.9872C127.084 32.4162 126.742 32.7644 126.32 32.7644H111.288C110.712 32.7644 110.243 32.2892 110.243 31.702C110.243 31.4089 110.36 31.1433 110.549 30.9505C110.739 30.7587 110.999 30.6396 111.288 30.6396H126.32C126.742 30.6396 127.084 30.987 127.084 31.416Z" fill="#DDE4F2"/>
<path d="M127.084 31.4166V31.9877C127.084 32.4168 126.742 32.765 126.32 32.765H126.071C126.367 32.765 126.605 32.5216 126.605 32.2222V31.1839C126.605 30.8836 126.366 30.6411 126.071 30.6411H126.32C126.742 30.6393 127.084 30.9875 127.084 31.4166Z" fill="#BAC7DD"/>
<path d="M115.356 31.701C115.356 32.2882 114.888 32.7634 114.31 32.7634H111.288C110.712 32.7634 110.243 32.2882 110.243 31.701C110.243 31.4079 110.36 31.1423 110.549 30.9496C110.739 30.7577 110.999 30.6387 111.288 30.6387H114.31C114.599 30.6387 114.86 30.7577 115.05 30.9496C115.238 31.1423 115.356 31.4088 115.356 31.701Z" fill="#C65961"/>
<path d="M111.289 32.7634C111.866 32.7634 112.334 32.2878 112.334 31.701C112.334 31.1143 111.866 30.6387 111.289 30.6387C110.711 30.6387 110.243 31.1143 110.243 31.701C110.243 32.2878 110.711 32.7634 111.289 32.7634Z" fill="#AD4B57"/>
<path d="M117.685 27.8561L117.685 27.8562L117.64 37.7605C117.6 37.8024 117.551 37.8523 117.492 37.906C117.322 38.0636 117.096 38.2355 116.847 38.341C116.603 38.4442 116.362 38.4744 116.123 38.3952C115.904 38.3225 115.623 38.1363 115.318 37.6934L116.521 27.7794C116.521 27.7793 116.521 27.7793 116.521 27.7792C116.562 27.443 116.859 27.2173 117.171 27.2559C117.46 27.2922 117.686 27.5446 117.685 27.8561Z" fill="#F4F4F4" stroke="black"/>
<path d="M115.847 40.1864L115.847 40.1864L112.663 41.0871L111.888 41.3064L112.427 41.9023C112.427 41.9022 112.427 41.9025 112.427 41.9028C112.427 41.9029 112.427 41.9028 112.427 41.9029L112.434 41.9102C112.44 41.9177 112.451 41.9306 112.466 41.9488C112.495 41.9851 112.539 42.0424 112.594 42.1198C112.703 42.2747 112.852 42.5093 113.001 42.8171C113.301 43.4325 113.603 44.3374 113.603 45.4864C113.603 45.7942 113.44 46.142 113.068 46.5281C112.7 46.9106 112.174 47.2803 111.569 47.6226C110.649 48.1427 109.601 48.5687 108.778 48.8658C108.928 46.2437 109.077 43.9736 109.217 42.2736C109.294 41.3435 109.368 40.5897 109.438 40.0443C109.473 39.7709 109.507 39.5569 109.537 39.4023C109.553 39.3248 109.566 39.2686 109.578 39.2306C109.58 39.2229 109.582 39.2167 109.583 39.2118C109.597 39.1974 109.634 39.1629 109.717 39.1151C109.828 39.0508 109.987 38.9819 110.198 38.9128C110.613 38.777 111.174 38.6579 111.841 38.5596H115.633C116.071 38.5596 116.439 38.9223 116.439 39.3875C116.439 39.7658 116.192 40.0888 115.847 40.1864Z" fill="#F4F4F4" stroke="black"/>
<path d="M111.805 38.0596H115.633C116.355 38.0596 116.94 38.6538 116.94 39.3875C116.94 39.9836 116.549 40.5068 115.984 40.6666L112.799 41.5674C112.799 41.5674 114.103 43.0081 114.103 45.4855" stroke="black" stroke-miterlimit="10" stroke-linecap="round" stroke-linejoin="round"/>
<path d="M96.5276 96.0052C96.4098 97.1741 96.4063 98.2981 96.5889 99.3082L90.2771 93.3004C95.0286 89.9905 98.3802 84.9791 100.449 81.103C100.324 81.6224 100.172 82.1803 100.001 82.7704C99.7196 83.7422 99.3896 84.7908 99.0444 85.8873L99.0382 85.9068C98.6955 86.9953 98.3384 88.1295 98.0035 89.2702C97.3309 91.561 96.7391 93.9054 96.5276 96.0052Z" fill="#F4F4F4" stroke="black"/>
</g>
<defs>
<clipPath id="clip0_1145_3051">
<rect width="149" height="124" fill="white"/>
</clipPath>
</defs>
</svg>
