<svg width="350" height="362" viewBox="0 0 350 362" fill="none" xmlns="http://www.w3.org/2000/svg">
<g clip-path="url(#clip0_683_1465)">
<path d="M236.171 32.9589C236.171 32.9589 178.459 12.4736 121.8 45.0923C65.1414 77.7033 36.5564 142.454 12.0074 194.32C-12.5417 246.187 1.58815 298.943 44.8375 323.001C88.0869 347.059 117.493 311.595 178.165 309.87C238.836 308.146 255.15 316.799 305.496 282.587C355.841 248.376 364.943 167.571 325.226 107.786C285.509 48 236.164 32.9666 236.164 32.9666L236.171 32.9589Z" fill="#FFF6E8"/>
<path opacity="0.7" d="M236.171 32.9589C236.171 32.9589 178.459 12.4736 121.8 45.0923C65.1414 77.7033 36.5564 142.454 12.0074 194.32C-12.5417 246.187 1.58815 298.943 44.8375 323.001C88.0869 347.059 117.493 311.595 178.165 309.87C238.836 308.146 255.15 316.799 305.496 282.587C355.841 248.376 364.943 167.571 325.226 107.786C285.509 48 236.164 32.9666 236.164 32.9666L236.171 32.9589Z" fill="white"/>
<path d="M250.99 148.958C224.644 140.304 172.068 125.131 171.944 125.093C171.944 125.093 120.158 140.312 93.8115 148.958C101.884 188.699 104.572 228.44 112.644 268.181C130.771 280.933 172.471 307.025 172.788 306.793C173.183 307.079 214.047 280.933 232.166 268.181C240.238 228.44 242.926 188.699 250.998 148.958H250.99Z" stroke="#FFF6E8" stroke-width="5" stroke-linecap="round" stroke-linejoin="round"/>
<path d="M121.08 260.803L171.921 212.981L104.905 158.415L121.08 260.803Z" fill="#BFBFBF"/>
<path d="M223.815 261.778L170.588 212.981L239.89 158.415L223.815 261.778Z" fill="#BFBFBF"/>
<path d="M171.921 211.891L239.89 158.415L171.255 138.123L104.905 158.415L170.588 211.891V212.981L171.255 212.44L171.921 212.981V211.891Z" fill="#DBDBDB"/>
<path d="M223.815 261.778L171.254 213.615L121.08 260.803L172.773 294.922L223.815 261.778Z" fill="#969696"/>
<path d="M170.449 361.613C229.062 361.613 276.578 359.363 276.578 356.587C276.578 353.811 229.062 351.56 170.449 351.56C111.836 351.56 64.3203 353.811 64.3203 356.587C64.3203 359.363 111.836 361.613 170.449 361.613Z" fill="#263238" stroke="#263238" stroke-linecap="round" stroke-linejoin="round"/>
<path d="M136.712 345.041C136.712 345.041 129.864 352.983 129.864 354.097C129.864 355.21 130.182 356.007 130.182 356.007H149.122C149.122 356.007 149.285 353.625 149.122 350.764C148.96 347.902 148.805 342.976 148.805 342.976C148.805 342.976 150.075 341.066 149.758 339.481C149.44 337.895 147.527 337.571 147.054 337.571C147.054 337.571 142.212 336.225 139.888 338.522L136.705 345.041H136.712Z" fill="#263238" stroke="#263238" stroke-linecap="round" stroke-linejoin="round"/>
<path d="M129.864 354.104C129.864 355.218 130.182 356.015 130.182 356.015H149.122C149.122 356.015 149.2 354.839 149.192 353.153H130.306C130.027 353.602 129.864 353.934 129.864 354.104Z" fill="white" stroke="#263238" stroke-linecap="round" stroke-linejoin="round"/>
<path d="M145.946 356.169L146.419 350.609" stroke="#263238" stroke-linecap="round" stroke-linejoin="round"/>
<path d="M210.468 345.041C210.468 345.041 217.316 352.983 217.316 354.097C217.316 355.21 216.998 356.007 216.998 356.007H198.058C198.058 356.007 197.895 353.625 198.058 350.764C198.22 347.902 198.375 342.976 198.375 342.976C198.375 342.976 197.105 341.066 197.423 339.481C197.74 337.895 199.654 337.571 200.126 337.571C200.126 337.571 204.968 336.225 207.292 338.522L210.476 345.041H210.468Z" fill="#263238" stroke="#263238" stroke-linecap="round" stroke-linejoin="round"/>
<path d="M217.308 354.104C217.308 355.218 216.991 356.015 216.991 356.015H198.05C198.05 356.015 197.973 354.839 197.981 353.153H216.867C217.146 353.602 217.308 353.934 217.308 354.104Z" fill="white" stroke="#263238" stroke-linecap="round" stroke-linejoin="round"/>
<path d="M201.234 356.169L200.753 350.609" stroke="#263238" stroke-linecap="round" stroke-linejoin="round"/>
<path d="M207.098 155.531C203.845 152.453 202.396 152.283 195.726 149.553C189.056 146.823 185.291 145.965 185.284 145.965C182.913 145.601 180.543 145.269 178.165 144.921C176.406 144.665 174.71 143.985 172.905 144.132C169.403 144.426 165.22 145.168 161.687 145.965C161.687 145.965 157.923 146.815 151.253 149.553C144.583 152.283 141.329 152.453 138.083 155.531C134.83 158.608 114.991 180.981 115.161 184.051C115.332 187.129 120.119 190.199 123.884 188.66C127.649 187.121 145.094 167.826 145.094 167.826C145.094 167.826 154.158 188.83 154.158 193.099C154.158 197.367 153.306 198.906 152.957 199.757C152.616 200.608 145.768 219.229 143.715 227.597C141.662 235.964 140.291 250.479 140.981 258.676C141.662 266.874 140.469 277.801 139.61 281.559C138.757 285.317 137.045 291.465 137.045 301.542C137.045 311.618 137.557 340.138 137.557 340.819V344.917L146.279 344.237L152.779 312.128L162.873 270.454L172.796 234.417L173.47 234.363L174.144 234.417L184.067 270.454L194.161 312.128L200.661 344.237L209.383 344.917V340.819C209.383 340.138 209.895 311.618 209.895 301.542C209.895 291.465 208.183 285.317 207.331 281.559C206.478 277.801 205.278 266.874 205.959 258.676C206.641 250.479 205.278 235.964 203.225 227.597C201.172 219.229 192.534 200.615 192.186 199.757C191.845 198.906 190.985 197.367 190.985 193.099C190.985 188.83 200.049 167.826 200.049 167.826C200.049 167.826 219.299 187.129 223.056 188.66C226.821 190.199 229.811 187.121 229.982 184.051C230.152 180.973 210.305 158.601 207.059 155.531H207.098Z" fill="white" stroke="#263238" stroke-linecap="round" stroke-linejoin="round"/>
<path d="M205.983 258.684C206.664 250.487 205.301 235.972 203.248 227.604C201.195 219.237 192.558 200.623 192.209 199.765C192.085 199.448 191.892 199.046 191.69 198.442H153.484C153.29 199.046 153.089 199.455 152.965 199.765C152.624 200.615 145.776 219.237 143.723 227.604C141.67 235.972 140.299 250.487 140.989 258.684C141.67 266.881 140.477 277.808 139.617 281.567C138.765 285.325 137.053 291.473 137.053 301.549C137.053 311.626 137.565 340.146 137.565 340.827V344.925L146.287 344.245L152.787 312.136L162.88 270.462L172.804 234.425L173.478 234.371L174.152 234.425L184.075 270.462L194.169 312.136L200.668 344.245L209.391 344.925V340.827C209.391 340.146 209.902 311.626 209.902 301.549C209.902 291.473 208.19 285.325 207.338 281.567C206.486 277.808 205.285 266.881 205.967 258.684H205.983Z" fill="#ED9107" stroke="#263238" stroke-linecap="round" stroke-linejoin="round"/>
<path d="M196.826 175.645L187.515 170.92L183.099 145.64C182.51 145.555 181.922 145.462 181.325 145.377L183.401 164.571H158.767L160.758 146.197C160.293 146.32 159.673 146.506 158.883 146.753L154.661 170.912L148.139 175.134C149.696 178.97 151.508 183.625 152.74 187.33H192.434C193.611 183.78 195.323 179.372 196.826 175.637V175.645Z" fill="#ED9107" stroke="#263238" stroke-linecap="round" stroke-linejoin="round"/>
<path d="M200.08 167.826L196.013 163.975" stroke="#ED9107" stroke-linecap="round" stroke-linejoin="round"/>
<path d="M145.094 167.827L148.673 164.246" stroke="#263238" stroke-linecap="round" stroke-linejoin="round"/>
<path d="M137.348 327.084C137.464 334.508 137.565 340.517 137.565 340.826V344.925L146.287 344.245L149.758 327.084H137.34H137.348Z" fill="white" stroke="#263238" stroke-linecap="round" stroke-linejoin="round"/>
<path d="M136.712 345.041V341.863C136.712 339.635 137.665 336.774 141.81 336.619C145.946 336.457 146.527 344.136 146.713 344.925L136.712 345.041Z" fill="#263238" stroke="#263238" stroke-linecap="round" stroke-linejoin="round"/>
<path d="M197.144 326.767L200.684 344.244L209.406 344.925V340.826C209.406 340.509 209.515 334.33 209.631 326.767H197.144Z" fill="white" stroke="#263238" stroke-linecap="round" stroke-linejoin="round"/>
<path d="M210.677 345.041V341.863C210.677 339.636 209.724 336.774 205.58 336.62C201.443 336.457 201.249 344.392 201.056 345.188L210.669 345.041H210.677Z" fill="#263238" stroke="#263238" stroke-linecap="round" stroke-linejoin="round"/>
<path d="M146.148 346.054H138.138C137.828 346.054 137.572 345.799 137.572 345.49C137.572 345.18 137.828 344.925 138.138 344.925H146.148C146.458 344.925 146.713 345.18 146.713 345.49C146.713 345.799 146.458 346.054 146.148 346.054Z" fill="white" stroke="#263238" stroke-width="0.5" stroke-linecap="round" stroke-linejoin="round"/>
<path d="M145.125 347.361H137.115C136.805 347.361 136.55 347.106 136.55 346.796C136.55 346.487 136.805 346.232 137.115 346.232H145.125C145.435 346.232 145.691 346.487 145.691 346.796C145.691 347.106 145.435 347.361 145.125 347.361Z" fill="white" stroke="#263238" stroke-width="0.5" stroke-linecap="round" stroke-linejoin="round"/>
<path d="M144.11 348.668H136.1C135.79 348.668 135.535 348.413 135.535 348.103C135.535 347.794 135.79 347.539 136.1 347.539H144.11C144.42 347.539 144.676 347.794 144.676 348.103C144.676 348.413 144.42 348.668 144.11 348.668Z" fill="white" stroke="#263238" stroke-width="0.5" stroke-linecap="round" stroke-linejoin="round"/>
<path d="M143.096 349.975H135.086C134.776 349.975 134.52 349.72 134.52 349.41C134.52 349.101 134.776 348.846 135.086 348.846H143.096C143.405 348.846 143.661 349.101 143.661 349.41C143.661 349.72 143.405 349.975 143.096 349.975Z" fill="white" stroke="#263238" stroke-width="0.5" stroke-linecap="round" stroke-linejoin="round"/>
<path d="M201.342 346.054H209.352C209.662 346.054 209.918 345.799 209.918 345.49C209.918 345.18 209.662 344.925 209.352 344.925H201.342C201.033 344.925 200.777 345.18 200.777 345.49C200.777 345.799 201.033 346.054 201.342 346.054Z" fill="white" stroke="#263238" stroke-width="0.5" stroke-linecap="round" stroke-linejoin="round"/>
<path d="M202.365 347.361H210.375C210.685 347.361 210.94 347.106 210.94 346.796C210.94 346.487 210.685 346.232 210.375 346.232H202.365C202.055 346.232 201.799 346.487 201.799 346.796C201.799 347.106 202.055 347.361 202.365 347.361Z" fill="white" stroke="#263238" stroke-width="0.5" stroke-linecap="round" stroke-linejoin="round"/>
<path d="M203.38 348.668H211.39C211.7 348.668 211.955 348.413 211.955 348.103C211.955 347.794 211.7 347.539 211.39 347.539H203.38C203.07 347.539 202.814 347.794 202.814 348.103C202.814 348.413 203.07 348.668 203.38 348.668Z" fill="white" stroke="#263238" stroke-width="0.5" stroke-linecap="round" stroke-linejoin="round"/>
<path d="M204.395 349.975H212.405C212.714 349.975 212.97 349.72 212.97 349.41C212.97 349.101 212.714 348.846 212.405 348.846H204.395C204.085 348.846 203.829 349.101 203.829 349.41C203.829 349.72 204.085 349.975 204.395 349.975Z" fill="white" stroke="#263238" stroke-width="0.5" stroke-linecap="round" stroke-linejoin="round"/>
<path d="M123.931 179.264C123.931 179.264 143.22 194.259 146.543 196.47C149.866 198.682 153.182 199.154 153.345 200.26C153.499 201.365 154.29 203.26 153.499 204.521C152.709 205.781 150.811 210.205 149.704 210.676C148.596 211.148 145.435 211.62 144.645 211.148C143.855 210.676 145.28 209.725 145.753 209.57C146.225 209.416 147.178 209.253 147.178 209.253C147.178 209.253 144.645 207.204 143.545 205.147C142.445 203.09 141.492 199.935 141.492 199.935C141.492 199.935 124.256 193.934 119.833 191.25C115.409 188.567 113.511 186.038 115.719 182.411" fill="white"/>
<path d="M123.931 179.264C123.931 179.264 143.22 194.259 146.543 196.47C149.866 198.682 153.182 199.154 153.345 200.26C153.499 201.365 154.29 203.26 153.499 204.521C152.709 205.781 150.811 210.205 149.704 210.676C148.596 211.148 145.435 211.62 144.645 211.148C143.855 210.676 145.28 209.725 145.753 209.57C146.225 209.416 147.178 209.253 147.178 209.253C147.178 209.253 144.645 207.204 143.545 205.147C142.445 203.09 141.492 199.935 141.492 199.935C141.492 199.935 124.256 193.934 119.833 191.25C115.409 188.567 113.511 186.038 115.719 182.411" stroke="#263238" stroke-linecap="round" stroke-linejoin="round"/>
<path d="M228.277 187.786C228.277 187.786 229.54 186.68 229.703 184.786C229.858 182.891 229.548 178.63 227.805 172.791C226.062 166.953 215 142.013 215 141.379C215 140.745 216.58 135.54 215.79 132.695C215 129.856 212.312 125.595 212.312 125.595L203.302 128.124C203.302 128.124 204.41 137.435 206.78 139.492C209.151 141.541 210.731 145.648 211.684 149.12C212.629 152.592 214.217 163.171 215.317 169.636C216.425 176.109 217.85 178.63 219.586 181.793" fill="white"/>
<path d="M228.277 187.786C228.277 187.786 229.54 186.68 229.703 184.786C229.858 182.891 229.548 178.63 227.805 172.791C226.062 166.953 215 142.013 215 141.379C215 140.745 216.58 135.54 215.79 132.695C215 129.856 212.312 125.595 212.312 125.595L203.302 128.124C203.302 128.124 204.41 137.435 206.78 139.492C209.151 141.541 210.731 145.648 211.684 149.12C212.629 152.592 214.217 163.171 215.317 169.636C216.425 176.109 217.85 178.63 219.586 181.793" stroke="#263238" stroke-linecap="round" stroke-linejoin="round"/>
<path d="M215.24 125.65L211.351 134.164L192.17 127.629L197.725 115.473L215.24 125.65Z" fill="white" stroke="#263238" stroke-linecap="round" stroke-linejoin="round"/>
<path d="M192.86 127.652L202.985 119.757L214.21 125.912L211.049 133.174L192.86 127.652Z" fill="#FFF6E8"/>
<path d="M210.096 143.273C210.096 143.273 205.51 140.745 204.402 139.484C203.295 138.224 202.822 135.223 202.505 132.54C202.187 129.856 200.452 126.229 200.452 126.229C200.452 126.229 201.242 125.124 202.985 126.384C204.728 127.645 205.518 131.906 205.518 131.906C205.518 131.906 209.786 134.117 210.422 136.801" fill="white"/>
<path d="M210.096 143.273C210.096 143.273 205.51 140.745 204.402 139.484C203.295 138.224 202.822 135.223 202.505 132.54C202.187 129.856 200.452 126.229 200.452 126.229C200.452 126.229 201.242 125.124 202.985 126.384C204.728 127.645 205.518 131.906 205.518 131.906C205.518 131.906 209.786 134.117 210.422 136.801" stroke="#263238" stroke-linecap="round" stroke-linejoin="round"/>
<path d="M157.071 105.149C157.071 105.149 151.253 100.88 144.072 99.3411C136.883 97.8022 128.842 108.219 127.479 117.955C126.108 127.691 124.915 145.276 124.915 145.276H146.303C146.303 145.276 142.709 118.465 145.102 110.438C147.496 102.411 156.048 106.51 156.048 106.51L157.079 105.141L157.071 105.149Z" fill="#263238" stroke="#263238" stroke-linecap="round" stroke-linejoin="round"/>
<path d="M181.023 101.22C181.023 101.22 187.693 93.7036 190.087 98.6606C192.48 103.61 189.575 109.077 187.182 110.786C184.788 112.495 184.277 111.637 183.928 110.616C183.587 109.588 179.481 102.249 179.481 102.249L181.023 101.228V101.22Z" fill="#263238" stroke="#263238" stroke-linecap="round" stroke-linejoin="round"/>
<path d="M165.453 138.966C165.453 138.966 159.635 140.165 156.559 143.915C153.476 147.674 153.825 158.09 153.825 161.679V172.954L164.43 173.124C164.43 173.124 163.059 157.92 162.888 154.17C162.718 150.411 163.059 144.774 163.57 143.072C164.081 141.363 165.453 138.974 165.453 138.974V138.966Z" fill="white" stroke="#263238" stroke-linecap="round" stroke-linejoin="round"/>
<path d="M177.77 139.306C177.77 139.306 185.299 141.696 187.011 147.163C188.723 152.631 189.746 165.947 190.095 169.195C190.435 172.443 190.606 173.634 190.606 173.634C190.606 173.634 186.5 175.003 184.277 175.003C182.054 175.003 180.001 174.663 180.001 174.663C180.001 174.663 180.342 155.879 179.319 150.581C178.289 145.284 177.266 142.554 177.266 142.554C177.266 142.554 177.607 139.995 177.777 139.306H177.77Z" fill="white" stroke="#263238" stroke-linecap="round" stroke-linejoin="round"/>
<path d="M163.4 151.943C163.4 151.943 162.199 149.723 163.059 144.766C163.911 139.817 163.4 132.64 163.4 132.64H158.953C156.389 132.64 150.742 130.421 150.06 126.322C149.379 122.224 150.231 108.729 158.613 102.071C166.994 95.4127 177.259 98.9932 177.259 98.9932C177.259 98.9932 181.194 100.192 183.076 104.801C184.959 109.41 188.553 115.558 189.576 115.558C190.598 115.558 193.511 115.558 193 117.947C192.489 120.337 191.288 121.365 191.288 121.365C191.288 121.365 191.117 129.392 191.117 131.782C191.117 134.172 189.576 134.512 185.64 134.86C184.866 134.929 183.998 134.953 183.076 134.937C183.076 134.937 180.164 135.711 178.971 138.781C177.77 141.858 179.141 152.105 179.141 152.105" fill="white"/>
<path d="M163.4 151.943C163.4 151.943 162.199 149.723 163.059 144.766C163.911 139.817 163.4 132.64 163.4 132.64H158.953C156.389 132.64 150.742 130.421 150.06 126.322C149.379 122.224 150.231 108.729 158.613 102.071C166.994 95.4127 177.259 98.9932 177.259 98.9932C177.259 98.9932 181.194 100.192 183.076 104.801C184.959 109.41 188.553 115.558 189.576 115.558C190.598 115.558 193.511 115.558 193 117.947C192.489 120.337 191.288 121.365 191.288 121.365C191.288 121.365 191.117 129.392 191.117 131.782C191.117 134.172 189.576 134.512 185.64 134.86C184.866 134.929 183.998 134.953 183.076 134.937C183.076 134.937 180.164 135.711 178.971 138.781C177.77 141.858 179.141 152.105 179.141 152.105" stroke="#263238" stroke-linecap="round" stroke-linejoin="round"/>
<path d="M170.929 132.648C174.632 134.156 178.304 134.813 182.046 134.868" stroke="#263238" stroke-linecap="round" stroke-linejoin="round"/>
<path d="M183.417 112.666L185.299 116.246" stroke="#263238" stroke-linecap="round" stroke-linejoin="round"/>
<path d="M186.671 115.906C186.671 115.906 185.129 117.445 182.735 117.615" stroke="#263238" stroke-linecap="round" stroke-linejoin="round"/>
<path d="M183.076 109.758C183.076 109.758 181.364 107.709 179.823 109.588C178.281 111.467 178.451 112.488 178.451 112.488" stroke="#263238" stroke-linecap="round" stroke-linejoin="round"/>
<path d="M177.258 99.0008C177.258 99.0008 166.994 95.4126 158.612 102.079C150.23 108.737 149.371 122.231 150.06 126.33C150.742 130.429 156.389 132.648 158.953 132.648H163.369L166.653 131.279C163.059 131.79 157.931 127.521 158.953 123.933C159.976 120.344 165.112 122.224 166.653 123.763C168.195 125.301 169.388 123.592 171.1 120.685C172.812 117.785 170.759 115.388 170.759 112.658C170.759 109.928 176.747 104.971 180.342 104.801C181.72 104.739 182.464 104.546 182.867 104.329C180.923 100.114 177.266 98.9931 177.266 98.9931L177.258 99.0008Z" fill="#263238" stroke="#263238" stroke-linecap="round" stroke-linejoin="round"/>
<path d="M211.576 39.4936L202.76 47.6213L206.331 59.0587L194.618 61.6803L191.992 73.3729L180.535 69.8079L172.401 78.6083L164.259 69.8079L152.802 73.3729L150.176 61.6803L138.463 59.0587L142.034 47.6213L133.219 39.4936L142.034 31.3738L138.471 19.9363L150.176 17.3147L152.802 5.62211L164.259 9.18713L172.401 0.386719L180.535 9.18713L191.992 5.62211L194.618 17.3147L206.331 19.9363L202.76 31.3738L211.576 39.4936Z" stroke="#ED9107" stroke-linecap="round" stroke-linejoin="round"/>
<path d="M172.401 67.4029C187.842 67.4029 200.359 54.9075 200.359 39.4937C200.359 24.0799 187.842 11.5845 172.401 11.5845C156.961 11.5845 144.444 24.0799 144.444 39.4937C144.444 54.9075 156.961 67.4029 172.401 67.4029Z" stroke="#ED9107" stroke-linecap="round" stroke-linejoin="round"/>
<path d="M313.467 168.453C313.467 168.453 313.552 158.678 303.846 151.525C294.131 144.372 284.27 143.204 276.492 148.957C268.715 154.711 264.222 160.975 265.174 169.961C266.119 178.947 272.557 188.66 280.125 193.601C287.694 198.535 299.802 197.932 306.069 191.196C312.336 184.461 314.799 177.779 313.467 168.461V168.453Z" stroke="#ED9107" stroke-linecap="round" stroke-linejoin="round"/>
<path d="M312.281 168.577C312.281 168.577 312.367 159.297 303.148 152.507C293.93 145.717 284.564 144.604 277.174 150.071C269.784 155.531 265.523 161.477 266.421 170.015C267.32 178.552 273.432 187.77 280.621 192.457C287.81 197.143 299.306 196.571 305.255 190.168C311.205 183.765 313.544 177.431 312.281 168.577V168.577Z" stroke="#ED9107" stroke-linecap="round" stroke-linejoin="round"/>
<path d="M290.537 152.832L289.452 160.944" stroke="#ED9107" stroke-linecap="round" stroke-linejoin="round"/>
<path d="M286.175 154.347L287.647 159.823" stroke="#ED9107" stroke-linecap="round" stroke-linejoin="round"/>
<path d="M282.256 155.097L285.734 160.936" stroke="#ED9107" stroke-linecap="round" stroke-linejoin="round"/>
<path d="M279.374 156.521C279.769 156.869 284.696 162.112 284.696 162.112" stroke="#ED9107" stroke-linecap="round" stroke-linejoin="round"/>
<path d="M278.034 158.84L282.813 163.728" stroke="#ED9107" stroke-linecap="round" stroke-linejoin="round"/>
<path d="M282.302 165.367L276.732 161.647" stroke="#ED9107" stroke-linecap="round" stroke-linejoin="round"/>
<path d="M282.008 166.504L276.12 163.666" stroke="#ED9107" stroke-linecap="round" stroke-linejoin="round"/>
<path d="M281.342 167.78L275.075 166.705" stroke="#ED9107" stroke-linecap="round" stroke-linejoin="round"/>
<path d="M282.922 169.164L276.027 169.86" stroke="#ED9107" stroke-linecap="round" stroke-linejoin="round"/>
<path d="M282.736 170.162L276.578 172.667" stroke="#ED9107" stroke-linecap="round" stroke-linejoin="round"/>
<path d="M283.968 171.94L277.925 174.315" stroke="#ED9107" stroke-linecap="round" stroke-linejoin="round"/>
<path d="M284.58 173.634L277.987 177.153" stroke="#ED9107" stroke-linecap="round" stroke-linejoin="round"/>
<path d="M285.285 174.949L278.855 179.078" stroke="#ED9107" stroke-linecap="round" stroke-linejoin="round"/>
<path d="M285.757 176.526L280.613 181.313" stroke="#ED9107" stroke-linecap="round" stroke-linejoin="round"/>
<path d="M287.399 177.037L284.742 183.772" stroke="#ED9107" stroke-linecap="round" stroke-linejoin="round"/>
<path d="M289.259 177.044L287.508 184.337" stroke="#ED9107" stroke-linecap="round" stroke-linejoin="round"/>
<path d="M291.188 178.034L290.939 185.721" stroke="#ED9107" stroke-linecap="round" stroke-linejoin="round"/>
<path d="M293.442 178.382L296.06 186.255" stroke="#ED9107" stroke-linecap="round" stroke-linejoin="round"/>
<path d="M295.239 177.4L300.491 183.865" stroke="#ED9107" stroke-linecap="round" stroke-linejoin="round"/>
<path d="M296.912 176.55L303.884 182.651" stroke="#ED9107" stroke-linecap="round" stroke-linejoin="round"/>
<path d="M297.416 174.655L306.65 179.504" stroke="#ED9107" stroke-linecap="round" stroke-linejoin="round"/>
<path d="M298.438 173.232L306.146 175.575" stroke="#ED9107" stroke-linecap="round" stroke-linejoin="round"/>
<path d="M297.47 171.685L304.45 170.363" stroke="#ED9107" stroke-linecap="round" stroke-linejoin="round"/>
<path d="M297.485 170.077L304.504 167.393" stroke="#ED9107" stroke-linecap="round" stroke-linejoin="round"/>
<path d="M303.582 164.725L295.681 168.955" stroke="#ED9107" stroke-linecap="round" stroke-linejoin="round"/>
<path d="M302.877 161.555L296.401 166.806" stroke="#ED9107" stroke-linecap="round" stroke-linejoin="round"/>
<path d="M300.894 159.583L296.409 164.95" stroke="#ED9107" stroke-linecap="round" stroke-linejoin="round"/>
<path d="M298.872 157.116L294.767 164.432" stroke="#ED9107" stroke-linecap="round" stroke-linejoin="round"/>
<path d="M296.285 157.402L293.813 163.132" stroke="#ED9107" stroke-linecap="round" stroke-linejoin="round"/>
<path d="M294.464 156.041L292.528 162.475" stroke="#ED9107" stroke-linecap="round" stroke-linejoin="round"/>
<path d="M292.915 155.152L290.932 162.707" stroke="#ED9107" stroke-linecap="round" stroke-linejoin="round"/>
<path d="M283.704 165.893C283.325 166.326 282.659 166.373 282.225 165.986C281.791 165.607 281.744 164.942 282.132 164.509C282.519 164.076 283.178 164.029 283.611 164.416C284.045 164.795 284.092 165.46 283.704 165.893Z" fill="#73988C"/>
<path d="M284.696 162.119C284.317 162.552 283.65 162.599 283.216 162.212C282.783 161.833 282.736 161.168 283.124 160.735C283.503 160.302 284.169 160.256 284.603 160.642C285.037 161.021 285.083 161.686 284.696 162.119Z" fill="#73988C"/>
<path d="M288.429 160.511C288.05 160.944 287.384 160.99 286.95 160.604C286.516 160.217 286.47 159.56 286.857 159.127C287.244 158.693 287.903 158.647 288.337 159.034C288.77 159.413 288.817 160.078 288.429 160.511Z" fill="#73988C"/>
<path d="M293.318 163.171C292.938 163.604 292.272 163.65 291.838 163.264C291.404 162.885 291.358 162.22 291.745 161.787C292.125 161.354 292.791 161.307 293.225 161.694C293.659 162.073 293.705 162.738 293.318 163.171Z" fill="#73988C"/>
<path d="M297.78 163.125C297.4 163.558 296.734 163.604 296.3 163.217C295.867 162.838 295.82 162.173 296.208 161.74C296.587 161.307 297.253 161.261 297.687 161.647C298.121 162.026 298.167 162.691 297.78 163.125Z" fill="#73988C"/>
<path d="M296.982 166.148C296.603 166.581 295.936 166.628 295.503 166.241C295.069 165.862 295.022 165.197 295.41 164.764C295.789 164.331 296.455 164.285 296.889 164.671C297.323 165.05 297.37 165.715 296.982 166.148Z" fill="#73988C"/>
<path d="M297.819 169.435C297.439 169.868 296.773 169.914 296.339 169.528C295.905 169.141 295.859 168.484 296.246 168.051C296.626 167.618 297.292 167.571 297.726 167.958C298.159 168.344 298.206 169.002 297.819 169.435Z" fill="#73988C"/>
<path d="M299.19 173.425C298.81 173.858 298.144 173.905 297.71 173.518C297.276 173.139 297.23 172.474 297.617 172.041C297.997 171.608 298.663 171.562 299.097 171.948C299.531 172.327 299.577 172.992 299.19 173.425Z" fill="#73988C"/>
<path d="M299.035 176.782C298.655 177.215 297.989 177.261 297.555 176.874C297.122 176.488 297.075 175.83 297.462 175.397C297.842 174.964 298.508 174.918 298.942 175.304C299.376 175.683 299.422 176.348 299.035 176.782Z" fill="#73988C"/>
<path d="M296.858 179.519C296.479 179.952 295.812 179.999 295.379 179.612C294.945 179.233 294.898 178.568 295.286 178.135C295.673 177.702 296.331 177.655 296.765 178.042C297.199 178.421 297.246 179.086 296.858 179.519Z" fill="#73988C"/>
<path d="M294.503 181.406C294.124 181.839 293.457 181.885 293.024 181.499C292.59 181.12 292.543 180.455 292.931 180.022C293.31 179.589 293.976 179.542 294.41 179.929C294.844 180.308 294.891 180.973 294.503 181.406Z" fill="#73988C"/>
<path d="M291.869 180.958C291.49 181.391 290.824 181.437 290.39 181.05C289.956 180.671 289.91 180.006 290.297 179.573C290.676 179.14 291.343 179.094 291.776 179.48C292.21 179.859 292.257 180.524 291.869 180.958Z" fill="#73988C"/>
<path d="M289.375 180.625C288.995 181.058 288.329 181.104 287.895 180.718C287.461 180.339 287.415 179.674 287.802 179.241C288.182 178.808 288.848 178.761 289.282 179.148C289.716 179.527 289.762 180.192 289.375 180.625Z" fill="#73988C"/>
<path d="M284.549 178.955C284.169 179.388 283.503 179.434 283.069 179.047C282.635 178.668 282.589 178.003 282.976 177.57C283.356 177.137 284.022 177.091 284.456 177.478C284.889 177.864 284.936 178.522 284.549 178.955Z" fill="#73988C"/>
<path d="M285.083 175.707C284.704 176.14 284.038 176.186 283.604 175.799C283.17 175.42 283.123 174.755 283.511 174.322C283.89 173.889 284.557 173.843 284.99 174.23C285.424 174.616 285.471 175.274 285.083 175.707Z" fill="#73988C"/>
<path d="M282.837 171.647C282.457 172.08 281.791 172.126 281.357 171.74C280.923 171.353 280.877 170.696 281.264 170.262C281.644 169.829 282.31 169.783 282.744 170.17C283.178 170.556 283.224 171.214 282.837 171.647Z" fill="#73988C"/>
<path d="M280.342 167.602C279.963 168.035 279.296 168.082 278.862 167.695C278.429 167.316 278.382 166.651 278.77 166.218C279.149 165.785 279.815 165.738 280.249 166.125C280.683 166.504 280.729 167.169 280.342 167.602Z" fill="#73988C"/>
<path d="M294.766 164.431C294.387 164.864 293.721 164.911 293.287 164.524C292.853 164.145 292.807 163.48 293.194 163.047C293.581 162.614 294.24 162.568 294.673 162.954C295.107 163.341 295.154 163.998 294.766 164.431Z" fill="#73988C"/>
<path d="M285.563 164.045C285.184 164.478 284.517 164.524 284.084 164.138C283.65 163.751 283.603 163.094 283.991 162.661C284.37 162.228 285.037 162.181 285.47 162.568C285.904 162.947 285.951 163.612 285.563 164.045Z" fill="#73988C"/>
<path d="M265.91 112.132C280.354 112.132 292.063 100.443 292.063 86.0244C292.063 71.6057 280.354 59.917 265.91 59.917C251.467 59.917 239.758 71.6057 239.758 86.0244C239.758 100.443 251.467 112.132 265.91 112.132Z" stroke="#ED9107" stroke-linecap="round" stroke-linejoin="round"/>
<path d="M265.91 110.129C279.246 110.129 290.057 99.3369 290.057 86.0244C290.057 72.7119 279.246 61.9199 265.91 61.9199C252.575 61.9199 241.764 72.7119 241.764 86.0244C241.764 99.3369 252.575 110.129 265.91 110.129Z" stroke="#ED9107" stroke-linecap="round" stroke-linejoin="round"/>
<path d="M262.277 67.6965L265.206 83.2944C265.33 83.9672 264.578 84.4621 264.013 84.0832L250.549 75.0663C248.581 73.7052 248.62 70.782 250.634 69.4751L257.134 65.5699C259.117 64.2784 261.782 65.3765 262.277 67.6888V67.6965Z" stroke="#ED9107" stroke-linecap="round" stroke-linejoin="round"/>
<path d="M250.355 75.6309L263.478 84.5937C264.043 84.9803 263.865 85.8619 263.191 85.9934L247.287 89.1253C244.925 89.5507 242.887 87.455 243.383 85.1118L245.219 77.7652C245.707 75.453 248.372 74.3471 250.355 75.6386V75.6309Z" stroke="#ED9107" stroke-linecap="round" stroke-linejoin="round"/>
<path d="M247.551 89.6589L263.176 86.7357C263.85 86.612 264.345 87.3621 263.966 87.9266L254.933 101.367C253.57 103.331 250.642 103.293 249.332 101.282L245.42 94.7937C244.127 92.814 245.227 90.1538 247.543 89.6589H247.551Z" stroke="#ED9107" stroke-linecap="round" stroke-linejoin="round"/>
<path d="M255.507 101.553L264.485 88.4525C264.872 87.888 265.756 88.0659 265.887 88.7387L269.025 104.615C269.451 106.974 267.351 109.007 265.004 108.513L257.645 106.68C255.329 106.193 254.221 103.532 255.515 101.553H255.507Z" stroke="#ED9107" stroke-linecap="round" stroke-linejoin="round"/>
<path d="M269.551 104.352L266.623 88.7542C266.499 88.0814 267.25 87.5865 267.816 87.9654L281.28 96.9824C283.247 98.3434 283.208 101.267 281.194 102.573L274.695 106.479C272.712 107.77 270.047 106.672 269.551 104.36V104.352Z" stroke="#ED9107" stroke-linecap="round" stroke-linejoin="round"/>
<path d="M281.474 96.4179L268.351 87.4551C267.785 87.0684 267.963 86.1868 268.637 86.0554L284.541 82.9234C286.904 82.4981 288.941 84.5938 288.446 86.937L286.61 94.2835C286.122 96.5958 283.457 97.7016 281.474 96.4102V96.4179Z" stroke="#ED9107" stroke-linecap="round" stroke-linejoin="round"/>
<path d="M284.278 82.3897L268.653 85.3128C267.979 85.4366 267.483 84.6864 267.863 84.1219L276.895 70.6816C278.259 68.7173 281.187 68.756 282.496 70.7666L286.408 77.2548C287.702 79.2345 286.602 81.8947 284.285 82.3897H284.278Z" stroke="#ED9107" stroke-linecap="round" stroke-linejoin="round"/>
<path d="M276.322 70.4959L267.343 83.596C266.956 84.1606 266.073 83.9827 265.941 83.3099L262.804 67.4336C262.378 65.0749 264.477 63.0411 266.824 63.536L274.184 65.3688C276.5 65.856 277.608 68.5162 276.314 70.4959H276.322Z" stroke="#ED9107" stroke-linecap="round" stroke-linejoin="round"/>
<path d="M253.152 61.4483C253.152 61.4483 248.225 55.5478 239.696 53.2588C231.159 50.962 225.581 55.5555 221.971 59.1592C218.361 62.7629 213.435 65.0597 213.435 65.0597C213.435 65.0597 219.671 67.6812 228.207 66.3666C236.744 65.0597 240.703 60.2264 242.98 59.484C248.674 57.628 253.152 61.4483 253.152 61.4483V61.4483Z" stroke="#ED9107" stroke-linecap="round" stroke-linejoin="round"/>
<path d="M33.7134 104.716C33.7134 104.716 28.5697 107.098 28.8021 111.258C29.0345 115.419 29.6697 116.517 29.2591 129.632C28.8486 142.748 27.9809 151.115 33.3881 158.91C38.7952 166.705 51.7321 175.459 55.923 175.892C60.1139 176.325 64.2816 174.307 65.552 172.938C66.8225 171.562 68.6584 169.311 70.4014 169.775C72.1444 170.239 76.4748 167.486 77.6213 162.808C78.76 158.129 80.5805 146.947 74.817 135.262C69.0535 123.577 60.1681 114.862 54.5131 107.608C48.8581 100.354 43.9855 101.073 42.4206 101.661C40.8558 102.249 39.4847 102.767 39.4847 102.767C39.4847 102.767 37.0832 102.334 33.7289 104.708L33.7134 104.716Z" stroke="#ED9107" stroke-linecap="round" stroke-linejoin="round"/>
<path d="M45.2017 119.711C45.5116 120.523 45.101 121.427 44.2876 121.729C43.4742 122.038 42.5679 121.628 42.2657 120.816C41.9636 120.004 42.3665 119.1 43.1798 118.798C43.9932 118.489 44.8996 118.899 45.2017 119.711Z" fill="#73988C"/>
<path d="M46.418 122.943C46.7279 123.755 46.3173 124.66 45.5039 124.961C44.6905 125.271 43.7842 124.861 43.4821 124.049C43.1799 123.237 43.5828 122.332 44.3962 122.03C45.2096 121.721 46.1159 122.131 46.418 122.943Z" fill="#73988C"/>
<path d="M57.0154 131.442C57.3253 132.254 56.9147 133.159 56.1013 133.46C55.2879 133.769 54.3816 133.36 54.0794 132.548C53.7696 131.736 54.1801 130.831 54.9935 130.529C55.8069 130.22 56.7133 130.63 57.0154 131.442Z" fill="#73988C"/>
<path d="M55.8069 135.517C56.1168 136.329 55.7062 137.234 54.8928 137.536C54.0794 137.845 53.1731 137.435 52.8709 136.623C52.5611 135.811 52.9716 134.906 53.785 134.605C54.5984 134.303 55.5048 134.705 55.8069 135.517Z" fill="#73988C"/>
<path d="M58.4176 143.56C58.0613 144.349 57.1317 144.697 56.3415 144.341C55.5514 143.985 55.2028 143.057 55.5591 142.268C55.9155 141.48 56.8451 141.132 57.6352 141.487C58.4254 141.843 58.774 142.771 58.4176 143.56Z" fill="#73988C"/>
<path d="M55.8532 152.02C55.4968 152.809 54.5672 153.157 53.7771 152.801C52.9869 152.445 52.6383 151.517 52.9947 150.728C53.351 149.94 54.2806 149.592 55.0708 149.947C55.8609 150.303 56.2095 151.231 55.8532 152.02Z" fill="#73988C"/>
<path d="M59.1613 154.147C58.8049 154.935 57.8753 155.283 57.0852 154.928C56.295 154.572 55.9464 153.644 56.3028 152.855C56.6591 152.066 57.5887 151.718 58.3789 152.074C59.169 152.43 59.5176 153.358 59.1613 154.147Z" fill="#73988C"/>
<path d="M56.7985 148.548C56.4421 149.336 55.5125 149.684 54.7224 149.329C53.9322 148.973 53.5836 148.045 53.94 147.256C54.2963 146.467 55.2259 146.119 56.0161 146.475C56.8062 146.831 57.1548 147.759 56.7985 148.548Z" fill="#73988C"/>
<path d="M57.5807 150.62C57.2244 151.409 56.2948 151.757 55.5046 151.401C54.7145 151.045 54.3659 150.117 54.7222 149.329C55.0785 148.54 56.0081 148.192 56.7983 148.548C57.5885 148.903 57.9371 149.831 57.5807 150.62Z" fill="#73988C"/>
<path d="M46.2399 146.777C45.8835 147.566 44.9539 147.914 44.1638 147.558C43.3736 147.202 43.025 146.274 43.3814 145.485C43.7377 144.697 44.6673 144.349 45.4575 144.704C46.2476 145.06 46.5962 145.988 46.2399 146.777Z" fill="#73988C"/>
<path d="M54.2727 128.48C54.5826 129.292 54.172 130.197 53.3586 130.498C52.5452 130.808 51.6389 130.398 51.3368 129.586C51.0269 128.774 51.4375 127.869 52.2509 127.568C53.0643 127.258 53.9706 127.668 54.2727 128.48Z" fill="#73988C"/>
<path d="M55.3186 140.196C55.6285 141.008 55.2179 141.913 54.4045 142.214C53.5911 142.524 52.6848 142.114 52.3827 141.302C52.0728 140.49 52.4834 139.585 53.2968 139.283C54.1102 138.974 55.0165 139.384 55.3186 140.196Z" fill="#73988C"/>
<path d="M51.7786 135.788C52.0885 136.6 51.6779 137.505 50.8645 137.806C50.0511 138.116 49.1447 137.706 48.8426 136.894C48.5328 136.082 48.9433 135.177 49.7567 134.875C50.5701 134.566 51.4765 134.976 51.7786 135.788Z" fill="#73988C"/>
<path d="M61.7176 138.912C62.0274 139.724 61.6168 140.629 60.8035 140.931C59.9901 141.24 59.0837 140.83 58.7816 140.018C58.4717 139.206 58.8823 138.301 59.6957 138C60.5091 137.69 61.4154 138.1 61.7176 138.912Z" fill="#73988C"/>
<path d="M63.0423 149.035C63.3521 149.847 62.9416 150.752 62.1282 151.053C61.3148 151.362 60.4084 150.953 60.1063 150.141C59.7964 149.329 60.207 148.424 61.0204 148.122C61.8338 147.821 62.7401 148.223 63.0423 149.035Z" fill="#73988C"/>
<path d="M66.6521 161.238C66.962 162.05 66.5514 162.955 65.738 163.256C64.9246 163.566 64.0183 163.156 63.7162 162.344C63.4063 161.532 63.8169 160.627 64.6303 160.325C65.4437 160.016 66.35 160.426 66.6521 161.238Z" fill="#73988C"/>
<path d="M62.9026 146.181C63.2125 146.993 62.8019 147.898 61.9885 148.2C61.1751 148.509 60.2688 148.099 59.9666 147.287C59.6568 146.475 60.0673 145.57 60.8807 145.269C61.6941 144.959 62.6005 145.369 62.9026 146.181Z" fill="#73988C"/>
<path d="M59.2928 146.073C59.6026 146.885 59.192 147.79 58.3786 148.091C57.5653 148.401 56.6589 147.991 56.3568 147.179C56.0469 146.367 56.4575 145.462 57.2709 145.161C58.0843 144.851 58.9906 145.261 59.2928 146.073Z" fill="#73988C"/>
<path d="M61.5857 154.456C61.8956 155.268 61.485 156.173 60.6716 156.474C59.8582 156.784 58.9519 156.374 58.6498 155.562C58.3399 154.75 58.7505 153.845 59.5639 153.543C60.3772 153.234 61.2836 153.644 61.5857 154.456Z" fill="#73988C"/>
<path d="M64.1114 143.258C64.4212 144.07 64.0107 144.975 63.1973 145.277C62.3839 145.586 61.4775 145.176 61.1754 144.364C60.8733 143.552 61.2761 142.647 62.0895 142.346C62.9029 142.036 63.8093 142.446 64.1114 143.258Z" fill="#73988C"/>
<path d="M60.656 147.682C60.9659 148.494 60.5553 149.398 59.7419 149.7C58.9285 150.009 58.0222 149.599 57.7201 148.787C57.4102 147.975 57.8208 147.071 58.6342 146.769C59.4476 146.467 60.3539 146.87 60.656 147.682Z" fill="#73988C"/>
<path d="M64.0261 153.311C64.336 154.123 63.9254 155.028 63.112 155.33C62.2987 155.639 61.3923 155.229 61.0902 154.417C60.7803 153.605 61.1909 152.7 62.0043 152.399C62.8177 152.09 63.724 152.499 64.0261 153.311Z" fill="#73988C"/>
<path d="M64.5139 159.251C64.8238 160.063 64.4132 160.967 63.5998 161.269C62.7864 161.578 61.8801 161.168 61.578 160.356C61.2681 159.544 61.6787 158.64 62.4921 158.338C63.3055 158.029 64.2118 158.439 64.5139 159.251Z" fill="#73988C"/>
<path d="M64.0491 156.497C64.359 157.309 63.9484 158.214 63.135 158.516C62.3216 158.825 61.4152 158.415 61.1131 157.603C60.8033 156.791 61.2138 155.886 62.0272 155.585C62.8406 155.276 63.747 155.685 64.0491 156.497Z" fill="#73988C"/>
<path d="M65.5056 163.751C65.8155 164.563 65.4049 165.468 64.5915 165.77C63.7781 166.079 62.8718 165.669 62.5697 164.857C62.2598 164.045 62.6704 163.14 63.4838 162.839C64.2972 162.529 65.2035 162.939 65.5056 163.751Z" fill="#73988C"/>
<path d="M54.3892 156.76C54.6991 157.572 54.2885 158.477 53.4751 158.779C52.6617 159.088 51.7554 158.678 51.4532 157.866C51.1511 157.054 51.554 156.149 52.3673 155.848C53.1807 155.538 54.0871 155.948 54.3892 156.76Z" fill="#73988C"/>
<path d="M50.6243 127.103C50.9342 127.915 50.5236 128.82 49.7102 129.122C48.8968 129.431 47.9904 129.021 47.6883 128.209C47.3785 127.397 47.789 126.492 48.6024 126.191C49.4158 125.889 50.3222 126.291 50.6243 127.103Z" fill="#73988C"/>
<path d="M48.7029 133.947C49.0128 134.759 48.6022 135.664 47.7888 135.966C46.9754 136.267 46.0691 135.865 45.7669 135.053C45.4571 134.241 45.8676 133.336 46.681 133.035C47.4944 132.725 48.4008 133.135 48.7029 133.947Z" fill="#73988C"/>
<path d="M51.1819 137.358C51.4918 138.17 51.0812 139.075 50.2678 139.376C49.4544 139.685 48.5481 139.276 48.2459 138.464C47.9361 137.652 48.3466 136.747 49.16 136.445C49.9734 136.136 50.8798 136.546 51.1819 137.358Z" fill="#73988C"/>
<path d="M42.7849 135.177C43.0948 135.989 42.6842 136.894 41.8708 137.195C41.0574 137.505 40.1511 137.095 39.849 136.283C39.5391 135.471 39.9497 134.566 40.7631 134.264C41.5765 133.955 42.4828 134.365 42.7849 135.177Z" fill="#73988C"/>
<path d="M41.5916 139.624C41.9014 140.436 41.4909 141.34 40.6775 141.642C39.8641 141.951 38.9577 141.541 38.6556 140.729C38.3457 139.917 38.7563 139.013 39.5697 138.711C40.3831 138.402 41.2895 138.812 41.5916 139.624Z" fill="#73988C"/>
<path d="M42.9397 141.866C43.2496 142.678 42.839 143.583 42.0256 143.884C41.2122 144.194 40.3059 143.784 40.0038 142.972C39.6939 142.16 40.1045 141.255 40.9179 140.954C41.7313 140.652 42.6376 141.054 42.9397 141.866Z" fill="#73988C"/>
<path d="M46.4334 142.176C46.7432 142.988 46.3327 143.892 45.5193 144.194C44.7059 144.503 43.7995 144.093 43.4974 143.281C43.1875 142.469 43.5981 141.565 44.4115 141.263C45.2249 140.954 46.1313 141.364 46.4334 142.176Z" fill="#73988C"/>
<path d="M51.8328 149.507C52.1427 150.319 51.7321 151.223 50.9187 151.525C50.1053 151.834 49.1989 151.425 48.8968 150.613C48.587 149.801 48.9975 148.896 49.8109 148.594C50.6243 148.285 51.5307 148.695 51.8328 149.507Z" fill="#73988C"/>
<path d="M42.9783 147.442C43.2882 148.254 42.8776 149.159 42.0642 149.46C41.2508 149.769 40.3444 149.36 40.0423 148.548C39.7325 147.736 40.143 146.831 40.9564 146.529C41.7698 146.22 42.6762 146.63 42.9783 147.442Z" fill="#73988C"/>
<path d="M45.1472 151.03C45.4571 151.842 45.0465 152.747 44.2331 153.048C43.4197 153.358 42.5134 152.948 42.2113 152.136C41.9014 151.324 42.312 150.419 43.1254 150.118C43.9388 149.808 44.8451 150.218 45.1472 151.03Z" fill="#73988C"/>
<path d="M47.9903 151.424C48.3002 152.236 47.8896 153.141 47.0762 153.443C46.2628 153.752 45.3564 153.342 45.0543 152.53C44.7522 151.718 45.155 150.813 45.9684 150.512C46.7818 150.203 47.6882 150.612 47.9903 151.424Z" fill="#73988C"/>
<path d="M48.2307 125.75C48.5406 126.562 48.13 127.467 47.3166 127.768C46.5032 128.078 45.5969 127.668 45.2948 126.856C44.9849 126.044 45.3955 125.139 46.2089 124.838C47.0223 124.528 47.9286 124.938 48.2307 125.75Z" fill="#73988C"/>
<path d="M51.2439 131.736C51.5538 132.548 51.1432 133.452 50.3298 133.754C49.5164 134.063 48.6101 133.654 48.308 132.842C47.9981 132.03 48.4087 131.125 49.2221 130.823C50.0355 130.514 50.9418 130.924 51.2439 131.736Z" fill="#73988C"/>
<path d="M49.3152 130.436C49.6251 131.248 49.2145 132.153 48.4011 132.455C47.5877 132.764 46.6814 132.354 46.3792 131.542C46.0694 130.73 46.4799 129.825 47.2933 129.524C48.1067 129.215 49.0131 129.624 49.3152 130.436Z" fill="#73988C"/>
<path d="M47.3011 137.845C47.6109 138.657 47.2003 139.562 46.387 139.863C45.5736 140.173 44.6672 139.763 44.3651 138.951C44.0552 138.139 44.4658 137.234 45.2792 136.932C46.0926 136.623 46.9989 137.033 47.3011 137.845Z" fill="#73988C"/>
<path d="M43.8303 130.661C44.1402 131.473 43.7296 132.378 42.9162 132.679C42.1029 132.988 41.1965 132.579 40.8944 131.767C40.5845 130.955 40.9951 130.05 41.8085 129.748C42.6219 129.439 43.5282 129.849 43.8303 130.661Z" fill="#73988C"/>
<path d="M51.2051 142.871C51.515 143.683 51.1044 144.588 50.291 144.89C49.4776 145.199 48.5713 144.789 48.2692 143.977C47.967 143.165 48.3699 142.26 49.1833 141.959C49.9967 141.65 50.903 142.059 51.2051 142.871Z" fill="#73988C"/>
<path d="M53.6453 145.702C53.9552 146.514 53.5446 147.419 52.7312 147.72C51.9178 148.03 51.0114 147.62 50.7093 146.808C50.3995 145.996 50.81 145.091 51.6234 144.789C52.4368 144.48 53.3432 144.89 53.6453 145.702Z" fill="#73988C"/>
<path d="M54.242 147.604C54.5518 148.416 54.1413 149.321 53.3279 149.623C52.5145 149.932 51.6081 149.522 51.306 148.71C50.9961 147.898 51.4067 146.993 52.2201 146.692C53.0335 146.382 53.9398 146.792 54.242 147.604Z" fill="#73988C"/>
<path d="M42.2268 144.627C42.5367 145.439 42.1261 146.344 41.3127 146.645C40.4993 146.955 39.593 146.545 39.2909 145.733C38.981 144.921 39.3916 144.016 40.205 143.715C41.0184 143.405 41.9247 143.815 42.2268 144.627Z" fill="#73988C"/>
<path d="M45.9607 148.223C46.2706 149.035 45.86 149.94 45.0466 150.241C44.2332 150.551 43.3269 150.141 43.0248 149.329C42.7149 148.517 43.1255 147.612 43.9389 147.31C44.7522 147.001 45.6586 147.411 45.9607 148.223Z" fill="#73988C"/>
<path d="M51.43 154.409C51.7398 155.221 51.3293 156.126 50.5159 156.428C49.7025 156.737 48.7961 156.327 48.494 155.515C48.1841 154.703 48.5947 153.799 49.4081 153.497C50.2215 153.188 51.1278 153.598 51.43 154.409Z" fill="#73988C"/>
<path d="M53.5911 152.84C53.901 153.652 53.4904 154.556 52.677 154.858C51.8636 155.167 50.9572 154.758 50.6551 153.946C50.3453 153.134 50.7558 152.229 51.5692 151.927C52.3826 151.626 53.289 152.028 53.5911 152.84Z" fill="#73988C"/>
<path d="M48.0681 155.268C48.378 156.08 47.9674 156.985 47.154 157.286C46.3406 157.596 45.4343 157.186 45.1322 156.374C44.8223 155.562 45.2329 154.657 46.0463 154.355C46.8597 154.054 47.766 154.456 48.0681 155.268Z" fill="#73988C"/>
<path d="M51.1199 157.897C51.4298 158.709 51.0192 159.614 50.2058 159.915C49.3924 160.217 48.486 159.815 48.1839 159.003C47.8741 158.191 48.2846 157.286 49.098 156.985C49.9114 156.675 50.8178 157.085 51.1199 157.897Z" fill="#73988C"/>
<path d="M59.688 150.264C59.9979 151.076 59.5873 151.981 58.7739 152.283C57.9605 152.592 57.0542 152.182 56.7521 151.37C56.45 150.558 56.8528 149.654 57.6662 149.352C58.4796 149.043 59.3859 149.452 59.688 150.264Z" fill="#73988C"/>
<path d="M62.6238 162.885C62.9337 163.697 62.5231 164.602 61.7097 164.903C60.8963 165.213 59.99 164.803 59.6878 163.991C59.378 163.179 59.7885 162.274 60.6019 161.973C61.4153 161.663 62.3217 162.073 62.6238 162.885Z" fill="#73988C"/>
<path d="M60.532 158.446C60.8419 159.258 60.4313 160.163 59.6179 160.464C58.8045 160.766 57.8982 160.364 57.596 159.552C57.2862 158.74 57.6967 157.835 58.5101 157.534C59.3235 157.224 60.2299 157.634 60.532 158.446Z" fill="#73988C"/>
<path d="M56.8914 157.441C57.2012 158.253 56.7907 159.158 55.9773 159.459C55.1639 159.761 54.2575 159.359 53.9554 158.547C53.6455 157.735 54.0561 156.83 54.8695 156.528C55.6829 156.219 56.5893 156.629 56.8914 157.441Z" fill="#73988C"/>
<path d="M58.0144 160.395C58.3243 161.207 57.9137 162.112 57.1003 162.413C56.2869 162.723 55.3806 162.313 55.0785 161.501C54.7686 160.689 55.1792 159.784 55.9926 159.483C56.806 159.173 57.7123 159.583 58.0144 160.395Z" fill="#73988C"/>
<path d="M58.3865 154.757C58.6964 155.569 58.2858 156.474 57.4724 156.776C56.659 157.085 55.7526 156.675 55.4505 155.863C55.1407 155.051 55.5512 154.146 56.3646 153.845C57.178 153.536 58.0844 153.945 58.3865 154.757Z" fill="#73988C"/>
<path d="M62.616 159.66C62.9259 160.472 62.5153 161.377 61.7019 161.679C60.8885 161.988 59.9821 161.578 59.68 160.766C59.3702 159.954 59.7807 159.049 60.5941 158.748C61.4075 158.438 62.3139 158.848 62.616 159.66Z" fill="#73988C"/>
<path d="M58.7893 135.146C59.0992 135.958 58.6886 136.863 57.8752 137.164C57.0618 137.474 56.1555 137.064 55.8534 136.252C55.5435 135.44 55.9541 134.535 56.7675 134.234C57.5809 133.924 58.4872 134.334 58.7893 135.146Z" fill="#73988C"/>
<path d="M56.3645 134.527C55.8997 133.801 56.1166 132.826 56.8448 132.362C57.573 131.898 58.5491 132.115 59.0139 132.842C59.4787 133.569 59.2618 134.543 58.5336 135.007C57.8054 135.471 56.8293 135.254 56.3645 134.527Z" fill="#73988C"/>
<path d="M42.0877 103.455C42.0877 103.455 40.4919 105.304 41.5532 108.652C42.6145 112.001 46.48 117.831 48.5174 121.017C50.5548 124.204 60.1373 129.13 63.3754 137.698" stroke="#ED9107" stroke-linecap="round" stroke-linejoin="round"/>
<path d="M64.3359 140.25C64.3359 140.25 66.1331 146.653 65.893 153.195" stroke="#ED9107" stroke-linecap="round" stroke-linejoin="round"/>
<path d="M41.6539 114.444C41.6539 114.444 40.4532 120.097 40.2363 125.595C40.0194 131.094 37.1764 135.703 39.1363 144.751" stroke="#ED9107" stroke-linecap="round" stroke-linejoin="round"/>
<path d="M51.3682 162.212C51.3682 162.212 55.869 163.643 58.7972 164.2" stroke="#ED9107" stroke-linecap="round" stroke-linejoin="round"/>
<path d="M67.1014 60.5667C67.1014 60.5667 63.9563 61.7731 63.6387 65.4773C63.3211 69.1815 65.3429 71.3468 65.3429 71.3468C65.3429 71.3468 61.826 74.4014 62.7556 78.0129C63.6852 81.6243 66.381 83.0472 66.381 83.0472C66.381 83.0472 66.0634 87.6253 71.0135 90.038C75.9635 92.4431 79.1164 90.3706 80.2707 88.5842C81.4249 86.8055 81.9672 85.8621 81.9672 85.8621C81.9672 85.8621 87.7462 84.2304 88.7377 81.0984C89.7293 77.9665 87.3743 74.8577 84.6785 73.4348C84.6785 73.4348 87.4518 71.4551 87.8004 69.3362C87.8004 69.3362 90.8603 73.2879 94.3385 72.1511C97.8168 71.0143 99.9548 68.2922 97.6386 65.021C97.6386 65.021 100.877 65.0674 102.837 64.0621C104.796 63.0568 105.447 61.6107 105.447 61.6107C105.447 61.6107 107.608 62.2216 109.599 61.0539C111.598 59.8784 113.829 57.5276 112.729 54.326C111.629 51.1244 109.638 50.1037 109.638 50.1037C109.638 50.1037 106.617 45.9818 103.952 44.3888C101.287 42.7958 99.8076 43.1979 99.8076 43.1979C99.8076 43.1979 95.3921 40.2825 90.4962 41.048C85.6003 41.8059 84.9496 43.252 84.9496 43.252C84.9496 43.252 79.8214 42.9968 74.879 45.6802C69.9444 48.3559 69.4874 52.7407 69.4874 52.7407C69.4874 52.7407 65.157 55.455 67.1014 60.5822V60.5667Z" stroke="#ED9107" stroke-linecap="round" stroke-linejoin="round"/>
<path d="M91.5034 50.2737C84.1751 50.4515 81.3553 57.4192 81.3553 57.4192C81.3553 57.4192 80.5806 57.3496 78.8609 57.1717C77.1411 56.9939 75.2122 57.8368 75.2122 57.8368C63.3134 63.6599 69.8593 74.6333 69.8593 74.6333C69.8593 74.6333 65.5677 77.1776 66.2571 81.9644" stroke="#ED9107" stroke-linecap="round" stroke-linejoin="round"/>
<path d="M84.7402 84.7563C84.7402 84.7563 92.0995 83.9752 96.1433 87.4243C100.179 90.8733 100.102 95.5905 100.536 96.0313C100.969 96.4721 106.012 94.1599 108.747 92.3503C111.489 90.5407 114.061 87.8187 113.999 86.8443C113.937 85.8699 108.352 78.7708 108.987 70.4885C109.622 62.1985 109.591 61.054 109.591 61.054" stroke="#ED9107" stroke-linecap="round" stroke-linejoin="round"/>
<path d="M94.3384 72.1511C94.3384 72.1511 95.6088 76.2652 98.599 79.2425" stroke="#ED9107" stroke-linecap="round" stroke-linejoin="round"/>
<path d="M100.637 64.9282C100.637 64.9282 101.086 72.6459 103.038 74.2699C104.99 75.8939 107.748 68.8257 105.44 61.6106" stroke="#ED9107" stroke-linecap="round" stroke-linejoin="round"/>
<path d="M102.325 73.3342C102.325 73.3342 103.17 75.7857 107.144 76.9456" stroke="#ED9107" stroke-linecap="round" stroke-linejoin="round"/>
<path d="M87.7773 76.1645C87.7773 76.1645 90.264 76.0563 94.269 80.557" stroke="#ED9107" stroke-linecap="round" stroke-linejoin="round"/>
<path d="M88.7144 78.3532C88.7144 78.3532 90.3179 77.2938 91.7046 78.0362" stroke="#ED9107" stroke-linecap="round" stroke-linejoin="round"/>
<path d="M288.499 241.779C288.499 241.779 286.199 240.047 287.872 237.518C289.545 234.99 295.177 232.043 297.431 232.19C299.686 232.337 300.615 233.08 301.336 232.523C302.056 231.966 303.048 230.597 301.281 229.955C299.515 229.313 295.611 228.981 290.839 231.456C286.075 233.93 283.968 237.186 282.55 236.938C281.132 236.699 280.071 234.518 277.561 232.469C275.051 230.419 268.699 230.605 265.05 234.51C261.394 238.415 257.265 248.469 254.74 254.779C252.214 261.097 253.09 267.253 256.289 269.124C259.488 270.988 260.542 269.851 260.542 269.851C260.542 269.851 262.238 273.957 266.801 274.483C271.372 275.009 272.278 273.787 272.278 273.787C272.278 273.787 275.617 272.426 278.258 268.908C280.908 265.389 283.906 259.937 287.461 257.532C291.017 255.127 294.596 250.015 293.279 245.932C291.962 241.849 288.492 241.779 288.492 241.779H288.499Z" stroke="#ED9107" stroke-linecap="round" stroke-linejoin="round"/>
<path d="M290.243 253.124C290.243 253.124 287.733 255.746 282.697 260.014C277.662 264.283 277.608 269.704 274.315 272.65" stroke="#ED9107" stroke-linecap="round" stroke-linejoin="round"/>
<path d="M274.803 234.178C274.803 234.178 282 234.874 282.008 240.527" stroke="#ED9107" stroke-linecap="round" stroke-linejoin="round"/>
<path d="M279.312 241.478C279.312 241.478 282.759 239.591 285.811 241.377C288.864 243.156 289.576 244.942 289.576 244.942" stroke="#ED9107" stroke-linecap="round" stroke-linejoin="round"/>
<path d="M262.138 265.157C261.728 265.892 261.394 266.549 261.169 267.113" stroke="#ED9107" stroke-linecap="round" stroke-linejoin="round"/>
<path d="M278.08 242.908C278.08 242.908 275.013 244.819 270.953 251.407C268.32 255.684 265.515 259.69 263.532 262.845" stroke="#ED9107" stroke-linecap="round" stroke-linejoin="round"/>
<path d="M45.2866 203.647C44.5352 203.747 43.776 203.863 43.0091 204.01C32.342 206.044 27.2447 215.069 26.1757 224.503C25.432 231.046 26.6095 237.835 30.08 243.612C33.7596 249.745 39.8097 253.139 45.2788 257.694C50.5775 262.118 54.7375 269.897 63.0806 269.016C76.7456 267.57 72.3068 252.289 72.7329 243.86C73.6082 226.785 70.3082 200.407 45.2788 203.639L45.2866 203.647Z" stroke="#ED9107" stroke-linecap="round" stroke-linejoin="round"/>
<path d="M45.7435 207.15C45.0772 207.235 44.3955 207.343 43.7138 207.475C34.1932 209.284 29.646 217.342 28.6854 225.771C28.0192 231.61 29.0727 237.673 32.1714 242.831C35.4559 248.306 40.8553 251.33 45.7357 255.405C50.4689 259.349 54.1795 266.301 61.624 265.512C73.8249 264.221 69.8587 250.58 70.246 243.063C71.0284 227.821 68.0847 204.273 45.7435 207.158V207.15Z" stroke="#ED9107" stroke-linecap="round" stroke-linejoin="round"/>
<path d="M56.9821 242.533C62.2752 239.609 63.901 232.431 60.6134 226.501C57.3259 220.57 50.3698 218.133 45.0767 221.057C39.7836 223.981 38.1578 231.159 41.4454 237.09C44.7329 243.02 51.689 245.457 56.9821 242.533Z" stroke="#ED9107" stroke-linecap="round" stroke-linejoin="round"/>
<path d="M29.9097 74.4557C27.5779 74.8191 25.3314 75.8476 23.5187 77.4562C21.0243 79.6679 19.1419 82.475 16.8179 84.8568C20.056 85.4832 23.1314 86.736 26.3075 87.6099C29.4836 88.4837 32.8999 88.9632 36.0527 88.0275C39.2133 87.0918 42.0409 84.447 42.343 81.1758C43.7916 80.967 45.248 80.7505 46.6966 80.5417V79.258L41.7775 80.1086C41.7775 80.1086 39.0042 76.822 38.6169 76.5359C36.076 74.6181 32.9231 73.9762 29.9097 74.4479V74.4557Z" stroke="#ED9107" stroke-linecap="round" stroke-linejoin="round"/>
<path d="M42.3429 81.1835C42.3429 81.1835 38.9964 80.9747 30.6532 82.4749C22.3101 83.9752 18.2432 84.184 18.2432 84.184" stroke="#ED9107" stroke-linecap="round" stroke-linejoin="round"/>
<path d="M22.0933 81.1914L25.9433 83.5346L24.0144 85.8855" stroke="#ED9107" stroke-linecap="round" stroke-linejoin="round"/>
<path d="M28.0815 78.6238L31.5055 82.6837C31.5055 82.6837 28.7245 86.1018 28.7245 86.7437" stroke="#ED9107" stroke-linecap="round" stroke-linejoin="round"/>
<path d="M34.2865 76.9148L37.0676 81.4001L33.6436 86.3184" stroke="#ED9107" stroke-linecap="round" stroke-linejoin="round"/>
<path d="M115.347 24.4603C113.906 22.5966 111.915 21.135 109.622 20.323C106.477 19.2095 103.107 18.9233 99.8926 18.0417C100.907 21.1737 101.287 24.4681 102.062 27.6696C102.829 30.8712 104.053 34.0805 106.4 36.3927C108.747 38.7049 112.427 39.8958 115.448 38.5812C116.331 39.7489 117.222 40.9166 118.105 42.0843C118.477 41.8755 118.856 41.6745 119.228 41.4657C118.19 40.1665 117.144 38.8751 116.106 37.5759C116.129 37.6068 117.648 33.5623 117.718 33.0906C118.175 29.9432 117.214 26.8731 115.347 24.4681V24.4603Z" stroke="#ED9107" stroke-linecap="round" stroke-linejoin="round"/>
<path d="M115.448 38.5811C115.448 38.5811 114.015 35.5574 108.67 28.9842C103.325 22.4109 101.179 18.9619 101.179 18.9619" stroke="#ED9107" stroke-linecap="round" stroke-linejoin="round"/>
<path d="M105.664 20.8799L105.462 25.3806L102.472 24.8316" stroke="#ED9107" stroke-linecap="round" stroke-linejoin="round"/>
<path d="M110.807 24.8779L108.902 29.8272C108.902 29.8272 104.564 29.0461 103.998 29.3555" stroke="#ED9107" stroke-linecap="round" stroke-linejoin="round"/>
<path d="M115.301 29.4792L112.713 34.0728L106.749 33.4541" stroke="#ED9107" stroke-linecap="round" stroke-linejoin="round"/>
<path d="M238.65 37.4675C240.199 35.6889 241.253 33.4617 241.601 31.0567C242.082 27.7623 241.702 24.4061 241.95 21.0808C239.068 22.6816 235.908 23.7024 232.917 25.0789C229.927 26.4554 227.007 28.2804 225.194 31.0335C223.381 33.7788 222.932 37.6222 224.815 40.3211C223.838 41.4192 222.87 42.5096 221.894 43.6077C222.173 43.9325 222.444 44.2573 222.723 44.5898C223.792 43.3138 224.861 42.0456 225.93 40.7696C225.907 40.8005 230.175 41.4965 230.655 41.4656C233.839 41.2955 236.667 39.7565 238.665 37.4598L238.65 37.4675Z" stroke="#ED9107" stroke-linecap="round" stroke-linejoin="round"/>
<path d="M224.799 40.3287C224.799 40.3287 227.495 38.3336 232.902 31.8222C238.317 25.3108 241.284 22.5269 241.284 22.5269" stroke="#ED9107" stroke-linecap="round" stroke-linejoin="round"/>
<path d="M240.277 27.2906L235.815 27.9711L235.776 24.9397" stroke="#ED9107" stroke-linecap="round" stroke-linejoin="round"/>
<path d="M237.357 33.1059L232.12 32.2089C232.12 32.2089 232.042 27.8086 231.624 27.3137" stroke="#ED9107" stroke-linecap="round" stroke-linejoin="round"/>
<path d="M233.715 38.4034L228.688 36.7639L228.138 30.8093" stroke="#ED9107" stroke-linecap="round" stroke-linejoin="round"/>
<path d="M299.515 125.062C301.816 125.565 304.287 125.425 306.564 124.575C309.686 123.415 312.467 121.481 315.496 120.105C312.708 118.349 310.298 116.068 307.649 114.104C305.007 112.14 302.002 110.454 298.717 110.183C295.433 109.912 291.838 111.351 290.366 114.297C288.933 113.972 287.508 113.64 286.075 113.315C285.92 113.709 285.765 114.112 285.61 114.506C287.244 114.831 288.871 115.163 290.506 115.488C290.467 115.488 291.9 119.556 292.156 119.958C293.829 122.665 296.533 124.405 299.515 125.062Z" stroke="#ED9107" stroke-linecap="round" stroke-linejoin="round"/>
<path d="M290.374 114.297C290.374 114.297 293.418 115.697 301.738 117.329C310.058 118.953 313.924 120.229 313.924 120.229" stroke="#ED9107" stroke-linecap="round" stroke-linejoin="round"/>
<path d="M309.253 121.621L306.51 118.032L309.16 116.54" stroke="#ED9107" stroke-linecap="round" stroke-linejoin="round"/>
<path d="M302.738 121.837L301.018 116.818C301.018 116.818 304.853 114.637 305.085 114.042" stroke="#ED9107" stroke-linecap="round" stroke-linejoin="round"/>
<path d="M296.331 121.187L295.371 115.998L300.344 112.658" stroke="#ED9107" stroke-linecap="round" stroke-linejoin="round"/>
<path d="M315.969 218.263C318.27 218.765 320.741 218.626 323.019 217.775C326.14 216.615 328.922 214.682 331.95 213.306C329.162 211.55 326.752 209.269 324.103 207.305C321.462 205.34 318.456 203.654 315.171 203.384C311.887 203.113 308.292 204.552 306.82 207.498C305.387 207.173 303.962 206.841 302.529 206.516C302.374 206.91 302.219 207.312 302.064 207.707C303.699 208.031 305.325 208.364 306.96 208.689C306.921 208.689 308.354 212.756 308.61 213.159C310.283 215.865 312.987 217.605 315.969 218.263V218.263Z" stroke="#ED9107" stroke-linecap="round" stroke-linejoin="round"/>
<path d="M306.82 207.498C306.82 207.498 309.865 208.898 318.185 210.529C326.504 212.153 330.37 213.429 330.37 213.429" stroke="#ED9107" stroke-linecap="round" stroke-linejoin="round"/>
<path d="M325.699 214.821L322.964 211.233L325.614 209.74" stroke="#ED9107" stroke-linecap="round" stroke-linejoin="round"/>
<path d="M319.184 215.038L317.464 210.019C317.464 210.019 321.299 207.838 321.531 207.243" stroke="#ED9107" stroke-linecap="round" stroke-linejoin="round"/>
<path d="M312.785 214.388L311.817 209.199L316.79 205.858" stroke="#ED9107" stroke-linecap="round" stroke-linejoin="round"/>
<path d="M242.95 299.423C245.25 299.925 247.722 299.786 249.999 298.935C253.121 297.776 255.902 295.842 258.931 294.466C256.142 292.71 253.733 290.429 251.084 288.465C248.442 286.5 245.436 284.815 242.152 284.544C238.867 284.273 235.273 285.712 233.801 288.658C232.368 288.333 230.942 288.001 229.509 287.676C229.354 288.07 229.199 288.472 229.044 288.867C230.679 289.192 232.306 289.524 233.94 289.849C233.902 289.849 235.335 293.917 235.59 294.319C237.264 297.025 239.967 298.765 242.95 299.423V299.423Z" stroke="#ED9107" stroke-linecap="round" stroke-linejoin="round"/>
<path d="M233.809 288.658C233.809 288.658 236.853 290.058 245.173 291.689C253.493 293.313 257.358 294.589 257.358 294.589" stroke="#ED9107" stroke-linecap="round" stroke-linejoin="round"/>
<path d="M252.679 295.974L249.945 292.393L252.594 290.901" stroke="#ED9107" stroke-linecap="round" stroke-linejoin="round"/>
<path d="M246.165 296.198L244.445 291.179C244.445 291.179 248.279 288.998 248.512 288.403" stroke="#ED9107" stroke-linecap="round" stroke-linejoin="round"/>
<path d="M239.766 295.541L238.797 290.359L243.771 287.019" stroke="#ED9107" stroke-linecap="round" stroke-linejoin="round"/>
<path d="M98.7618 276.834C96.5695 275.96 94.1138 275.697 91.7279 276.161C88.451 276.795 85.3989 278.249 82.1763 279.115C84.6397 281.304 86.6461 283.949 88.9313 286.315C91.2166 288.681 93.9046 290.839 97.104 291.643C100.303 292.448 104.084 291.612 106.02 288.952C107.376 289.509 108.732 290.066 110.087 290.622L110.738 289.524C109.181 288.937 107.624 288.341 106.067 287.753C106.098 287.769 105.354 283.516 105.176 283.075C103.968 280.128 101.589 277.971 98.754 276.842L98.7618 276.834Z" stroke="#ED9107" stroke-linecap="round" stroke-linejoin="round"/>
<path d="M106.02 288.952C106.02 288.952 103.247 287.073 95.3066 284.103C87.3663 281.142 83.7563 279.255 83.7563 279.255" stroke="#ED9107" stroke-linecap="round" stroke-linejoin="round"/>
<path d="M88.5982 278.644L90.713 282.626L87.8545 283.663" stroke="#ED9107" stroke-linecap="round" stroke-linejoin="round"/>
<path d="M95.0587 279.487L95.9263 284.722C95.9263 284.722 91.7896 286.245 91.4565 286.794" stroke="#ED9107" stroke-linecap="round" stroke-linejoin="round"/>
<path d="M101.272 281.18L101.373 286.454L95.9189 288.937" stroke="#ED9107" stroke-linecap="round" stroke-linejoin="round"/>
<path d="M45.1397 177.501C42.9474 176.627 40.4917 176.364 38.1058 176.828C34.829 177.462 31.7768 178.916 28.5542 179.782C31.0176 181.971 33.024 184.615 35.3093 186.982C37.5945 189.348 40.2826 191.506 43.4819 192.31C46.6813 193.114 50.4616 192.279 52.3983 189.619C53.7539 190.176 55.1096 190.732 56.4653 191.289L57.116 190.191C55.5589 189.603 54.0018 189.008 52.4448 188.42C52.4758 188.436 51.7321 184.182 51.5539 183.742C50.3454 180.795 47.9672 178.638 45.132 177.509L45.1397 177.501Z" stroke="#ED9107" stroke-linecap="round" stroke-linejoin="round"/>
<path d="M52.3981 189.619C52.3981 189.619 49.6248 187.74 41.6845 184.77C33.7442 181.808 30.1343 179.921 30.1343 179.921" stroke="#ED9107" stroke-linecap="round" stroke-linejoin="round"/>
<path d="M34.9761 179.311L37.0909 183.293L34.2324 184.329" stroke="#ED9107" stroke-linecap="round" stroke-linejoin="round"/>
<path d="M41.4367 180.153L42.3043 185.389C42.3043 185.389 38.1676 186.912 37.8345 187.461" stroke="#ED9107" stroke-linecap="round" stroke-linejoin="round"/>
<path d="M47.6498 181.847L47.7505 187.121L42.2969 189.603" stroke="#ED9107" stroke-linecap="round" stroke-linejoin="round"/>
<path d="M231.608 134.202C233.909 134.705 236.38 134.566 238.658 133.715C241.78 132.555 244.561 130.622 247.59 129.245C244.801 127.49 242.392 125.209 239.742 123.244C237.101 121.28 234.095 119.594 230.81 119.324C227.526 119.053 223.931 120.491 222.46 123.438C221.026 123.113 219.601 122.781 218.168 122.456C218.013 122.85 217.858 123.252 217.703 123.647C219.338 123.971 220.964 124.304 222.599 124.629C222.56 124.629 223.993 128.696 224.249 129.099C225.922 131.805 228.626 133.545 231.608 134.202Z" stroke="#ED9107" stroke-linecap="round" stroke-linejoin="round"/>
<path d="M222.459 123.438C222.459 123.438 225.504 124.837 233.824 126.469C242.144 128.093 246.009 129.369 246.009 129.369" stroke="#ED9107" stroke-linecap="round" stroke-linejoin="round"/>
<path d="M241.338 130.761L238.604 127.173L241.253 125.68" stroke="#ED9107" stroke-linecap="round" stroke-linejoin="round"/>
<path d="M234.823 130.978L233.104 125.959C233.104 125.959 236.938 123.778 237.17 123.183" stroke="#ED9107" stroke-linecap="round" stroke-linejoin="round"/>
<path d="M228.424 130.328L227.456 125.139L232.429 121.798" stroke="#ED9107" stroke-linecap="round" stroke-linejoin="round"/>
<path d="M100.396 115.565C98.955 113.702 96.9642 112.24 94.6712 111.428C91.526 110.314 88.1563 110.028 84.9414 109.147C85.9562 112.279 86.3358 115.573 87.1105 118.775C87.8774 121.976 89.1013 125.185 91.4486 127.498C93.7958 129.81 97.4754 131.001 100.497 129.686C101.38 130.854 102.271 132.022 103.154 133.189C103.526 132.981 103.905 132.779 104.277 132.571C103.239 131.271 102.193 129.98 101.155 128.681C101.178 128.712 102.697 124.667 102.766 124.196C103.223 121.048 102.263 117.978 100.396 115.573V115.565Z" stroke="#ED9107" stroke-linecap="round" stroke-linejoin="round"/>
<path d="M100.497 129.679C100.497 129.679 99.0637 126.655 93.7185 120.082C88.3734 113.508 86.2275 110.059 86.2275 110.059" stroke="#ED9107" stroke-linecap="round" stroke-linejoin="round"/>
<path d="M90.7126 111.977L90.5112 116.478L87.521 115.936" stroke="#ED9107" stroke-linecap="round" stroke-linejoin="round"/>
<path d="M95.8562 115.975L93.9505 120.924C93.9505 120.924 89.6124 120.143 89.0469 120.453" stroke="#ED9107" stroke-linecap="round" stroke-linejoin="round"/>
<path d="M100.35 120.576L97.7623 125.178L91.7974 124.559" stroke="#ED9107" stroke-linecap="round" stroke-linejoin="round"/>
</g>
<defs>
<clipPath id="clip0_683_1465">
<rect width="350" height="362" fill="white"/>
</clipPath>
</defs>
</svg>
