<svg width="79" height="79" viewBox="0 0 79 79" fill="none" xmlns="http://www.w3.org/2000/svg">
<g filter="url(#filter0_d_1489_1637)">
<rect x="12" y="8" width="55" height="55" rx="27.5" fill="#ED9107"/>
<path d="M48.4166 37.1388H41.13V44.3997C41.13 45.5799 40.1807 46.5293 39.0005 46.5293C37.8202 46.5293 36.8709 45.5799 36.8709 44.3997V37.1388H29.61C28.4298 37.1131 27.4805 36.1638 27.4805 34.9836C27.4805 34.4166 27.7114 33.8804 28.0962 33.4698C28.5067 33.085 29.0455 32.8541 29.61 32.8541H36.8709V25.6188C36.8709 24.4386 37.8202 23.4893 39.0005 23.4893C40.1807 23.4893 41.13 24.4386 41.13 25.6188V32.8541H48.4166C49.5968 32.8541 50.5461 33.8034 50.5461 34.9836C50.5461 36.1638 49.5968 37.1131 48.4166 37.1388Z" fill="white"/>
</g>
<defs>
<filter id="filter0_d_1489_1637" x="0" y="0" width="79" height="79" filterUnits="userSpaceOnUse" color-interpolation-filters="sRGB">
<feFlood flood-opacity="0" result="BackgroundImageFix"/>
<feColorMatrix in="SourceAlpha" type="matrix" values="0 0 0 0 0 0 0 0 0 0 0 0 0 0 0 0 0 0 127 0" result="hardAlpha"/>
<feOffset dy="4"/>
<feGaussianBlur stdDeviation="6"/>
<feColorMatrix type="matrix" values="0 0 0 0 0.380392 0 0 0 0 0.243137 0 0 0 0 0.917647 0 0 0 0.5 0"/>
<feBlend mode="normal" in2="BackgroundImageFix" result="effect1_dropShadow_1489_1637"/>
<feBlend mode="normal" in="SourceGraphic" in2="effect1_dropShadow_1489_1637" result="shape"/>
</filter>
</defs>
</svg>
