<svg width="149" height="149" viewBox="0 0 149 149" fill="none" xmlns="http://www.w3.org/2000/svg">
<g clip-path="url(#clip0_1143_2736)">
<path d="M123.169 108.62H105.438V110.511C105.438 112.862 106.373 115.117 108.035 116.78C109.698 118.442 111.953 119.376 114.304 119.376C116.655 119.376 118.91 118.442 120.573 116.78C122.235 115.117 123.169 112.862 123.169 110.511V108.62Z" fill="#F2E3CC"/>
<path d="M55.403 119.244C53.8125 119.246 52.251 118.818 50.8838 118.006" stroke="#F2E3CC" stroke-miterlimit="10"/>
<path d="M46.5644 12.2308L46.5361 6.31694C46.5366 3.96539 47.4708 1.71026 49.1336 0.047468C50.7965 -1.61533 53.0516 -2.54965 55.4031 -2.55005H114.303" stroke="#F2E3CC" stroke-miterlimit="10"/>
<path d="M105.44 110.377V108.619V22.436V6.31714" stroke="#F2E3CC" stroke-miterlimit="10"/>
<path d="M105.44 20.3798H123.171V6.3172C123.171 3.96588 122.237 1.71091 120.575 0.0483134C118.912 -1.61429 116.657 -2.54834 114.306 -2.54834C111.955 -2.54834 109.7 -1.61429 108.037 0.0483134C106.375 1.71091 105.44 3.96588 105.44 6.3172V22.436" fill="#F2E3CC"/>
<path d="M105.44 20.3798H123.171V6.3172C123.171 3.96588 122.237 1.71091 120.575 0.0483134C118.912 -1.61429 116.657 -2.54834 114.306 -2.54834C111.955 -2.54834 109.7 -1.61429 108.037 0.0483134C106.375 1.71091 105.44 3.96588 105.44 6.3172V22.436" stroke="#F2E3CC" stroke-miterlimit="10"/>
<path d="M105.438 108.62V110.378C105.438 112.73 106.373 114.985 108.035 116.647C109.698 118.31 111.953 119.244 114.304 119.244" stroke="#F2E3CC" stroke-miterlimit="10"/>
<path d="M59.5262 119.244H55.4033" stroke="#F2E3CC" stroke-miterlimit="10"/>
<path d="M105.441 108.619H123.172V110.377C123.171 112.729 122.236 114.984 120.574 116.646C118.911 118.309 116.656 119.243 114.305 119.244H71.5029" stroke="#F2E3CC" stroke-miterlimit="10"/>
<path d="M95.5197 36.4326H81.1963" stroke="#F2E3CC" stroke-miterlimit="10"/>
<path d="M95.5197 41.9858H81.1963" stroke="#F2E3CC" stroke-miterlimit="10"/>
<path d="M95.5197 47.5408H81.1963" stroke="#F2E3CC" stroke-miterlimit="10"/>
<path d="M95.5197 53.0938H81.1963" stroke="#F2E3CC" stroke-miterlimit="10"/>
<path d="M95.5197 58.647H81.1963" stroke="#F2E3CC" stroke-miterlimit="10"/>
<path d="M95.5197 64.2002H81.1963" stroke="#F2E3CC" stroke-miterlimit="10"/>
<path d="M95.5197 82.7542H81.1963" stroke="#F2E3CC" stroke-miterlimit="10"/>
<path d="M95.5197 85.3438H81.1963" stroke="#F2E3CC" stroke-miterlimit="10"/>
<path d="M95.5197 87.9331H81.1963" stroke="#F2E3CC" stroke-miterlimit="10"/>
<path d="M95.5197 90.5225H81.1963" stroke="#F2E3CC" stroke-miterlimit="10"/>
<path d="M98.6236 29.1514H77.8545C76.161 29.1514 74.7881 30.5243 74.7881 32.2178V94.9736C74.7881 96.6671 76.161 98.04 77.8545 98.04H98.6236C100.317 98.04 101.69 96.6671 101.69 94.9736V32.2178C101.69 30.5243 100.317 29.1514 98.6236 29.1514Z" stroke="#F2E3CC" stroke-miterlimit="10"/>
<path d="M79.1776 40.9402C79.1776 40.9402 87.1074 54.7078 84.0022 61.0433C84.0022 61.0433 81.721 65.4939 76.6729 65.0514C71.6248 64.6088 74.2025 54.4396 69.661 51.7471C65.1195 49.0547 72.2327 37.8901 72.3027 37.9781C72.3728 38.066 79.1776 40.9402 79.1776 40.9402Z" fill="white"/>
<path d="M81.1962 23.6157H69.8662" stroke="#F2E3CC" stroke-miterlimit="10"/>
<path d="M81.1961 17.0911H71.6943" stroke="#F2E3CC" stroke-miterlimit="10"/>
<path d="M81.1965 20.354H70.3672" stroke="#F2E3CC" stroke-miterlimit="10"/>
<path d="M81.1964 13.8296H68.3779" stroke="#F2E3CC" stroke-miterlimit="10"/>
<path d="M79.8127 42.2678C72.1005 40.9908 69.9787 48.5496 69.9787 48.5496C69.9787 48.5496 72.2405 52.9064 72.2972 53.1433C72.4909 55.7642 70.0771 55.9087 70.0771 55.9087L61.5513 57.6967L58.0632 52.2254C58.0632 52.2254 55.4661 34.7224 54.7852 34.7328C54.1043 34.7433 54.4872 34.4632 54.4872 34.4632C55.1577 33.9193 54.806 31.3595 54.806 31.3595C54.7077 30.2658 56.5374 29.8546 58.4074 29.2958C60.2773 28.7371 59.355 29.8814 59.0421 31.3595C58.7292 32.8376 58.388 36.1275 62.1145 36.4344C65.841 36.7414 66.1733 35.007 67.1015 33.4544C67.7422 32.3831 67.4234 30.9363 67.1671 30.1451C68.9144 30.7529 70.5941 31.5398 72.1794 32.4934C72.4268 32.6424 72.6637 32.7914 72.8976 32.9627C76.2471 35.2603 78.138 38.6605 79.8127 42.2678Z" fill="#2E2E2E"/>
<path d="M38.1563 64.6106C38.1563 64.6106 37.8121 64.7953 38.9684 64.8028C40.1246 64.8102 53.3722 63.8462 63.8648 69.4858C63.8648 69.4858 67.0668 71.1248 68.2439 73.6161C68.2439 73.6161 68.5643 73.926 69.2035 72.4137C69.8427 70.9013 71.4206 66.105 71.4206 66.105C71.4206 66.105 71.8393 65.7042 70.9542 65.658C70.0692 65.6118 59.3322 64.3573 54.813 63.0744C50.2939 61.7915 45.5527 61.1493 44.915 59.7695L45.064 58.8994C45.064 58.8994 39.5584 58.5403 39.4154 59.4343C39.2723 60.3283 38.1563 64.6106 38.1563 64.6106Z" fill="#2E2E2E"/>
<path d="M63.828 20.4823C64.5238 19.8288 64.5454 18.7214 63.8761 18.0087C63.207 17.2961 62.1003 17.2481 61.4045 17.9014C60.7087 18.555 60.6871 19.6625 61.3562 20.375C62.0255 21.0877 63.1322 21.1356 63.828 20.4823Z" fill="#F2E3CC"/>
<path d="M58.8774 19.7272C59.5738 19.0733 59.5954 17.9649 58.9257 17.2516C58.2558 16.5383 57.1483 16.4904 56.4518 17.1443C55.7554 17.7984 55.7338 18.9068 56.4036 19.62C57.0733 20.3332 58.1808 20.3813 58.8774 19.7272Z" fill="#F2E3CC"/>
<path d="M60.0236 26.7032C60.0236 26.7032 59.8656 27.5868 59.5333 29.0976C58.7124 29.0827 57.726 29.8426 56.9184 29.8307C56.5757 27.5167 57.0793 25.7287 57.6425 24.5442C58.2594 26.0804 59.2473 26.5706 60.0236 26.7032Z" fill="#ED9107"/>
<path d="M73.274 33.1665C71.6619 32.2174 70.008 31.0209 68.1753 30.5113L67.1323 30.0375C67.1323 30.0375 67.0533 29.8393 67.0503 29.8363C66.8566 29.2955 66.5303 28.5758 66.4394 28.0111C66.328 27.3425 66.3169 26.661 66.4066 25.9892C66.5556 24.9909 67.0846 22.89 67.9473 22.2478C68.667 21.7158 68.953 21.841 69.3792 20.9887C69.6772 20.3808 69.8262 19.3497 69.2898 18.8774C68.6938 18.3589 68.4166 18.6092 67.6776 18.6598C64.866 18.8521 63.3268 16.7854 62.3672 14.4238C62.23 14.0267 62.039 13.6502 61.7996 13.3048C61.5016 12.9248 61.0829 12.828 60.7446 12.5166C60.6678 12.4547 60.6111 12.3713 60.5822 12.277C60.5533 12.1828 60.5533 12.0819 60.5822 11.9876C60.6272 11.9017 60.6902 11.8264 60.767 11.7671C61.442 11.1826 62.244 10.7631 63.1093 10.5423C64.478 10.1929 65.9126 10.1929 67.2813 10.5423C68.7541 11.0567 69.9998 12.0718 70.8006 13.4106C71.945 15.3476 72.1729 17.3397 71.4399 19.2886C70.6949 21.2867 69.847 23.6335 71.0808 25.6152C72.7242 28.248 73.7091 30.0941 73.274 33.1665Z" fill="#ED9107"/>
<path d="M61.1637 26.6643C60.7903 26.7544 60.4025 26.7677 60.0239 26.703C59.2476 26.5704 58.2582 26.0802 57.6399 24.544C57.5139 24.2305 57.4143 23.907 57.3419 23.577C57.0439 22.3179 56.953 20.5687 57.2241 18.143C57.2763 17.6781 57.3478 17.2057 57.4417 16.7349C57.5983 15.9151 57.8347 15.1127 58.1479 14.339C58.1479 14.339 58.1479 14.339 58.1479 14.33C58.9272 12.4452 60.2444 10.8747 62.3959 10.3205C64.0087 9.90758 65.7079 9.98387 67.2772 10.5395C68.75 11.0538 69.9957 12.069 70.7966 13.4077C71.9409 15.3447 72.1688 17.3369 71.4358 19.2858C70.6908 21.2839 69.8429 23.6306 71.0767 25.6123C72.7157 28.2481 73.705 30.0942 73.2774 33.1666" stroke="black" stroke-miterlimit="10"/>
<path d="M56.2615 29.9054C55.7266 26.8837 56.6385 24.7202 57.3388 23.5774" stroke="black" stroke-miterlimit="10"/>
<path d="M57.4395 16.7333C57.4395 16.7333 58.8535 15.3416 60.3733 17.6541" stroke="black" stroke-miterlimit="10"/>
<path d="M60.5839 23.9544C61.1084 24.4014 61.9174 24.2748 62.4181 23.7592C62.9604 23.1975 63.2555 22.3914 63.4611 21.6509C63.476 21.5987 63.4894 21.5451 63.5013 21.4915C62.6535 22.5002 61.2574 22.5836 60.043 22.5345C60.0408 22.9004 60.1293 23.2614 60.3008 23.5849C60.3708 23.7248 60.4669 23.8503 60.5839 23.9544Z" stroke="black" stroke-linecap="round" stroke-linejoin="round"/>
<path d="M61.8457 16.4263C61.8457 16.4263 62.3359 15.6813 63.9108 16.2907C65.4858 16.9001 65.4783 17.8045 65.4783 17.8045" stroke="black" stroke-miterlimit="10"/>
<path d="M58.1689 18.1923C58.1689 18.1923 58.9139 17.8436 59.4816 18.2325" stroke="black" stroke-miterlimit="10"/>
<path d="M62.124 18.6572C62.124 18.6572 62.869 18.3071 63.4367 18.6959" stroke="black" stroke-miterlimit="10"/>
<path d="M60.0237 26.703C60.0237 26.703 59.6959 28.3718 59.3636 29.8827C59.3159 30.0972 59.2712 30.3088 59.2265 30.5174C59.0075 31.5351 58.8302 32.4395 58.8153 32.7151C58.6976 35.0023 60.8223 36.391 62.9143 36.4327C65.8481 36.4893 67.6465 33.8118 67.4543 31.0687C67.2874 30.5651 67.119 30.06 66.9536 29.5563C66.7406 28.9097 66.4575 28.2779 66.3472 27.6C66.2523 26.9328 66.2603 26.2548 66.3711 25.59C66.5201 24.5961 66.7585 23.1151 67.6212 22.4729C68.3393 21.9424 69.0858 21.6012 69.512 20.7504C69.8174 20.1425 69.8279 19.3469 69.2855 18.876C68.6895 18.3575 67.7076 18.3888 66.9671 18.4395C62.1991 18.7807 61.5509 13.9411 60.2844 13.2245C59.2414 12.6359 58.4174 13.8607 58.1552 14.3166L58.1448 14.336C58.1457 14.3379 58.146 14.3399 58.146 14.342C58.146 14.344 58.1457 14.346 58.1448 14.3479C58.0971 14.4328 58.0732 14.4835 58.0732 14.4835" stroke="black" stroke-miterlimit="10"/>
<path d="M60.1379 18.8093C60.1379 18.8093 59.5911 20.4215 59.6224 20.6659C59.6537 20.9102 60.2392 20.7582 60.2392 20.7582" stroke="black" stroke-miterlimit="10"/>
<path d="M63.9827 20.6474C64.7674 19.9106 64.7915 18.6617 64.0367 17.8579C63.2818 17.054 62.0338 16.9996 61.2492 17.7366C60.4645 18.4734 60.4404 19.7223 61.1952 20.5261C61.9501 21.3298 63.1981 21.3842 63.9827 20.6474Z" stroke="black" stroke-miterlimit="10"/>
<path d="M59.0316 19.8913C59.8162 19.1545 59.8403 17.9056 59.0855 17.1018C58.3307 16.2979 57.0826 16.2435 56.298 16.9803C55.5134 17.7171 55.4892 18.9662 56.2441 19.7699C56.999 20.5738 58.2469 20.6282 59.0316 19.8913Z" stroke="black" stroke-miterlimit="10"/>
<path d="M57.6198 17.0271C57.6917 17.0274 57.7633 17.0329 57.8344 17.0435C58.2062 17.1014 58.5411 17.3014 58.7683 17.6012C58.9957 17.9011 59.0978 18.2775 59.0532 18.6512C59.0164 18.9803 58.8591 19.2843 58.6114 19.5045C58.3638 19.7246 58.0434 19.8453 57.7122 19.8432C57.6404 19.8429 57.5687 19.8374 57.4977 19.8268C57.1259 19.7681 56.7912 19.5678 56.564 19.2677C56.3368 18.9676 56.2346 18.5913 56.2788 18.2176C56.3177 17.8899 56.476 17.588 56.7233 17.3699C56.9708 17.1516 57.29 17.0321 57.6198 17.0345V17.0271ZM57.6198 16.6978C57.2076 16.6967 56.8091 16.8463 56.4997 17.1186C56.19 17.3908 55.9907 17.7669 55.9391 18.1759C55.9071 18.4265 55.929 18.6813 56.0032 18.9228C56.0774 19.1645 56.2023 19.3874 56.3696 19.5769C56.5368 19.7664 56.7425 19.9181 56.973 20.0218C57.2035 20.1255 57.4536 20.1789 57.7063 20.1784C58.1184 20.1798 58.5167 20.0305 58.8263 19.7585C59.1359 19.4865 59.3353 19.1107 59.387 18.7018C59.4432 18.241 59.3177 17.7762 59.0374 17.4061C58.7572 17.036 58.3438 16.7894 57.8851 16.7186C57.7973 16.7043 57.7086 16.6973 57.6198 16.6978Z" fill="white"/>
<path d="M60.6586 18.8882L59.6201 18.7302" stroke="black" stroke-miterlimit="10"/>
<path d="M46.8713 48.4926V43.3611H35.3789C35.3431 43.3611 35.3104 43.3611 35.2746 43.3611L35.209 43.3685C35.2079 43.3679 35.2067 43.3676 35.2053 43.3676C35.204 43.3676 35.2028 43.3679 35.2016 43.3685C35.1792 43.3685 35.1584 43.3775 35.136 43.3819C35.1156 43.3851 35.0957 43.3906 35.0764 43.3983C35.0568 43.4035 35.0377 43.411 35.0198 43.4207C35.0109 43.4207 35.0034 43.4207 34.9945 43.4281C34.9855 43.4356 34.9483 43.4475 34.9259 43.4594C34.8979 43.4725 34.871 43.488 34.8455 43.5056C34.8221 43.5175 34.8 43.532 34.7799 43.5488C34.7455 43.5718 34.7136 43.5983 34.6846 43.6278C34.6519 43.6542 34.6224 43.6841 34.5967 43.7172C34.5704 43.7485 34.546 43.7814 34.5236 43.8155C34.5013 43.8483 34.4813 43.8826 34.464 43.9183C34.4445 43.9538 34.4292 43.9912 34.4179 44.0301C34.4044 44.0681 34.3936 44.107 34.3851 44.1463C34.3703 44.2134 34.3623 44.2818 34.3612 44.3504L34.3031 47.4377C34.3 47.4724 34.3 47.5073 34.3031 47.542C34.3 47.5572 34.3 47.573 34.3031 47.5882V47.6016C34.3024 47.6115 34.3024 47.6214 34.3031 47.6314C34.3057 47.6498 34.3101 47.6676 34.3165 47.6851C34.3191 47.7098 34.3256 47.7339 34.3359 47.7566C34.3563 47.8274 34.3843 47.8959 34.4193 47.9607C34.4512 48.0175 34.4882 48.0714 34.5296 48.1216C34.5509 48.1474 34.5739 48.1717 34.5981 48.1946C34.6214 48.2177 34.6457 48.2396 34.6712 48.2602L34.7173 48.2975C34.7427 48.3138 34.7665 48.3302 34.7948 48.3466C34.8278 48.3673 34.8622 48.3858 34.8976 48.4018C34.9346 48.4192 34.973 48.4336 35.0124 48.445C35.1089 48.4751 35.2093 48.4906 35.3104 48.4912H37.5185L38.1965 48.2185C38.6286 48.2185 39.1128 47.992 39.5464 47.992L39.98 48.5478L46.8713 48.4926Z" fill="#F2E3CC"/>
<path d="M65.2015 44.3852V47.4754C65.2015 47.746 65.094 48.0057 64.9026 48.197C64.7112 48.3885 64.4516 48.4961 64.1809 48.4961H46.873V43.363H64.1809C64.315 43.363 64.4479 43.3894 64.5719 43.4408C64.6958 43.4922 64.8083 43.5675 64.9031 43.6624C64.998 43.7574 65.0731 43.8701 65.1244 43.9941C65.1755 44.118 65.2017 44.2509 65.2015 44.3852Z" fill="#ED9107"/>
<path d="M46.871 48.4929H48.6113V58.9468H38.0875C37.7084 58.9645 37.3289 58.9295 36.9595 58.8425C36.9223 58.832 36.8836 58.8186 36.8448 58.8052L36.824 58.7963C36.5321 58.6975 36.2835 58.5005 36.1207 58.239C36.1217 58.2362 36.1217 58.2331 36.1207 58.2301L36.0879 58.1764C36.3948 58.2494 36.7062 58.309 37.0162 58.3552C37.0771 58.3683 37.1388 58.3777 37.2009 58.3835C37.3499 58.4044 37.4989 58.4208 37.6554 58.4372C37.6746 58.4402 37.6943 58.4402 37.7135 58.4372L37.9549 58.458C38.0355 58.467 38.1165 58.4715 38.1977 58.4715C38.2013 58.4729 38.205 58.4738 38.2089 58.4738C38.2128 58.4738 38.2165 58.4729 38.2201 58.4715C38.3095 58.4715 38.3974 58.4804 38.4868 58.4834C38.5054 58.4871 38.5246 58.4871 38.5434 58.4834C38.5695 58.4878 38.5963 58.4878 38.6224 58.4834C38.7893 58.4923 38.9576 58.4923 39.126 58.4834C39.3614 58.4834 39.5954 58.4729 39.8263 58.4595C40.0082 58.45 40.1893 58.429 40.3687 58.397C40.4309 58.388 40.4926 58.375 40.5534 58.3582C40.6039 58.3481 40.6537 58.3347 40.7024 58.318L40.7278 58.309C40.8231 58.2766 40.9149 58.2347 41.0019 58.1839C41.3535 57.9797 41.6203 57.5879 41.5517 57.1826C41.5145 56.9959 41.4197 56.8254 41.2805 56.6954C41.2686 56.6849 41.2582 56.673 41.2448 56.6626L41.2343 56.6551C41.1633 56.5927 41.0854 56.5388 41.0019 56.4942C40.7587 56.3722 40.4986 56.2877 40.2301 56.2439L40.1318 56.2245C40.1809 56.232 40.2316 56.2379 40.2808 56.2469H40.3135C40.7018 56.3141 41.0979 56.3241 41.4891 56.2767L41.5636 56.2692L41.5934 56.2603C41.8043 56.2227 42.0048 56.1411 42.182 56.0205C42.3592 55.9002 42.5089 55.7437 42.6215 55.5615C42.642 55.5236 42.6594 55.4843 42.6737 55.4438C42.6826 55.4277 42.6901 55.4107 42.696 55.3931C42.7308 55.2839 42.7464 55.1695 42.7422 55.0549C42.7424 55.0141 42.7394 54.9732 42.7333 54.9327C42.715 54.7874 42.6676 54.6474 42.5941 54.5207C42.5207 54.3939 42.4226 54.2834 42.3057 54.1951C42.2666 54.1648 42.2248 54.1382 42.1805 54.1162C42.0111 54.0333 41.8277 53.9828 41.6396 53.9672H41.6039C41.504 53.9553 41.3968 53.9508 41.2969 53.9448C40.5177 53.9046 39.7414 53.8599 38.9636 53.8197H38.8787L37.7329 53.7601L37.0415 53.7213H36.9953L36.3799 53.6885C36.4485 53.6885 36.517 53.696 36.5841 53.702H36.6422L36.8791 53.7154C37.5451 53.7556 38.2126 53.7943 38.8787 53.8182H38.9636C38.9636 53.8182 38.9636 53.8182 38.977 53.8182C39.1111 53.8182 39.2467 53.8271 39.3808 53.8316H39.4106C39.7563 53.8405 40.099 53.845 40.4447 53.845C40.7975 53.8636 41.1508 53.8186 41.4877 53.7124C41.6468 53.6535 41.7924 53.5628 41.9153 53.4457C41.932 53.4326 41.9464 53.4171 41.9585 53.3995C42.0755 53.2834 42.1562 53.1359 42.1909 52.9748C42.2243 52.7911 42.1993 52.6014 42.1194 52.4325C42.1123 52.4104 42.1023 52.3894 42.0896 52.3699C42.0156 52.2297 41.9142 52.1056 41.7916 52.0049C41.4958 51.7848 41.1514 51.6391 40.7873 51.5802C40.5773 51.537 40.3687 51.5012 40.1556 51.4774C40.1513 51.4759 40.1465 51.4759 40.1422 51.4774C39.8612 51.4452 39.5787 51.4278 39.2959 51.4252H39.2199C39.0709 51.4252 38.907 51.4252 38.7505 51.4252C38.0055 51.4476 37.2784 51.5862 36.5409 51.5742C36.5334 51.5516 36.5334 51.527 36.5409 51.5042C36.5487 51.488 36.5583 51.4725 36.5692 51.458C36.5975 51.4266 36.6326 51.4021 36.672 51.3865C36.911 51.3111 37.1537 51.2479 37.3991 51.1973C37.6487 51.1199 37.8917 51.0234 38.1262 50.9082C38.2052 50.8695 38.2842 50.8263 38.3631 50.786C38.3691 50.7827 38.3744 50.7787 38.3795 50.7741C38.6803 50.6063 38.9621 50.4065 39.2199 50.1781L39.2854 50.1215C39.3257 50.0857 39.3674 50.05 39.4046 50.0127C39.6198 49.8211 39.7932 49.5873 39.9142 49.3258C39.9419 49.2591 39.9629 49.1898 39.9768 49.1187C39.9827 49.0967 39.9872 49.0743 39.9902 49.0517C39.9963 49.0128 39.9993 48.9734 39.9991 48.934C39.9991 48.8967 39.9813 48.5734 39.9753 48.5361" fill="#F2E3CC"/>
<path d="M63.2123 48.4929V57.1632C63.2126 57.228 63.209 57.2927 63.2019 57.3569L59.8985 58.0394C58.9137 58.2465 58.4965 58.0826 58.2879 57.5774C57.5205 55.7313 55.4777 55.7894 55.4777 55.7894L53.864 55.782C53.6048 55.782 53.35 55.7492 53.0937 55.7328C52.9338 55.7233 52.7737 55.7465 52.623 55.8009C52.4724 55.8553 52.3344 55.9398 52.2174 56.0492C52.1005 56.1585 52.0071 56.2907 51.9427 56.4375C51.8785 56.5841 51.8448 56.7423 51.8436 56.9025C51.8437 57.1471 51.9203 57.3857 52.0623 57.5849C52.2043 57.7841 52.405 57.9342 52.6363 58.014L53.8774 58.2614C53.9274 58.271 53.9743 58.2922 54.0145 58.3232C54.0548 58.354 54.0874 58.394 54.1096 58.4396C54.1319 58.4853 54.1433 58.5355 54.1427 58.5862C54.1422 58.637 54.13 58.6871 54.1069 58.7322C54.033 58.825 53.9372 58.8982 53.8283 58.9453H48.6133V48.4929H63.2123Z" fill="#ED9107"/>
<path d="M45.0771 43.3611H46.8711H48.6114" stroke="black" stroke-miterlimit="10"/>
<path d="M39.9112 48.4956H64.1788C64.3157 48.4965 64.4513 48.4686 64.5766 48.4136C64.6979 48.3622 64.8079 48.2873 64.9 48.1931C64.9947 48.0986 65.07 47.9861 65.1211 47.8623C65.1722 47.7387 65.1984 47.6059 65.198 47.4719V44.3847C65.198 44.2507 65.1716 44.118 65.1203 43.9941C65.0689 43.8703 64.9938 43.7578 64.8991 43.6631C64.8043 43.5683 64.6918 43.493 64.5679 43.4418C64.444 43.3905 64.3114 43.364 64.1773 43.364H35.3786C35.3428 43.364 35.3101 43.364 35.2743 43.364L35.2087 43.3715C35.1101 43.3881 35.0146 43.4197 34.9256 43.4653C34.8988 43.4787 34.872 43.4951 34.8452 43.5115C34.8218 43.5236 34.7999 43.538 34.7796 43.5547C34.7459 43.5787 34.7141 43.6051 34.6843 43.6337C34.6531 43.6617 34.6238 43.6915 34.5964 43.7231C34.5701 43.7545 34.5457 43.7873 34.5233 43.8214C34.501 43.8542 34.4831 43.89 34.4637 43.9243C34.4444 43.9585 34.431 43.9988 34.4176 44.036C34.4041 44.0741 34.3933 44.1129 34.3848 44.1522C34.37 44.2194 34.362 44.2878 34.3609 44.3564L34.3058 47.4466V47.4958C34.3043 47.5132 34.3043 47.5306 34.3058 47.5479C34.3058 47.5688 34.3058 47.5882 34.3058 47.6075C34.3051 47.6175 34.3051 47.6275 34.3058 47.6373C34.3058 47.6537 34.3147 47.6746 34.3192 47.691C34.3237 47.7074 34.3311 47.7401 34.3386 47.7625C34.3584 47.8312 34.3854 47.8976 34.419 47.9607C34.4509 48.0176 34.4879 48.0714 34.5293 48.1216C34.5517 48.1454 34.574 48.1708 34.5978 48.1946C34.6211 48.2177 34.6454 48.2396 34.6709 48.2602L34.717 48.2974C34.7424 48.3138 34.7662 48.3302 34.7945 48.3466C34.8279 48.3668 34.8622 48.3852 34.8973 48.4017C34.9344 48.4193 34.9727 48.4337 35.0121 48.4449C35.111 48.4778 35.2147 48.4944 35.319 48.4941H37.5078" stroke="black" stroke-miterlimit="10"/>
<path d="M36.0732 58.1704C36.0867 58.1883 36.1001 58.2077 36.1165 58.227C36.1653 58.295 36.2196 58.3588 36.2789 58.4178C36.3177 58.459 36.3596 58.4973 36.404 58.5325C36.4487 58.5668 36.4949 58.6025 36.5411 58.6323C36.5873 58.6675 36.6374 58.6976 36.6901 58.7217C36.7348 58.7471 36.778 58.7679 36.8242 58.7903L36.8451 58.7992C36.8977 58.8244 36.9525 58.8443 37.009 58.8588C37.0577 58.8746 37.1075 58.8871 37.158 58.8961C37.1784 58.9026 37.1992 58.9071 37.2205 58.9095C37.2672 58.92 37.3144 58.9275 37.3621 58.9318C37.4214 58.9399 37.4811 58.9433 37.5409 58.9422H53.8206C53.9295 58.8952 54.0254 58.822 54.0993 58.7292C54.1221 58.6839 54.1341 58.634 54.1344 58.5833C54.1347 58.5325 54.1233 58.4824 54.1011 58.437C54.0789 58.3914 54.0465 58.3516 54.0064 58.3206C53.9662 58.2896 53.9196 58.2683 53.8698 58.2583L52.6286 58.011C52.3974 57.9311 52.1968 57.7811 52.0547 57.5819C51.9127 57.3827 51.8363 57.1441 51.836 56.8994C51.8371 56.7393 51.8708 56.581 51.935 56.4343C51.9994 56.2877 52.0928 56.1555 52.2098 56.0461C52.3268 55.9366 52.4647 55.8521 52.6154 55.7977C52.766 55.7434 52.9262 55.7203 53.0861 55.7298C53.3423 55.7462 53.5971 55.776 53.8564 55.779L55.4701 55.7864C55.4701 55.7864 57.5129 55.7268 58.2802 57.5744C58.4888 58.0795 58.906 58.2434 59.8909 58.0363L63.2017 57.3539C63.2088 57.2895 63.2124 57.2249 63.2121 57.1602V48.4958H46.8713" stroke="black" stroke-miterlimit="10"/>
<path d="M64.1087 35.327V37.3192C64.1087 37.4938 64.0392 37.6614 63.9157 37.7848C63.7922 37.9083 63.6247 37.9777 63.4501 37.9777H47.9258V34.6685H63.4501C63.6247 34.6685 63.7922 34.7379 63.9157 34.8614C64.0392 34.9849 64.1087 35.1524 64.1087 35.327Z" fill="#ED9107"/>
<path d="M47.926 34.6685V37.9777H40.476C40.3887 37.9776 40.3023 37.96 40.2218 37.9262C40.1412 37.8924 40.0684 37.8429 40.007 37.7808C39.9457 37.7185 39.8975 37.6447 39.865 37.5637C39.8323 37.4828 39.8163 37.3961 39.8174 37.3087L39.8532 35.3136C39.8563 35.1412 39.9271 34.9769 40.0503 34.8562C40.1736 34.7355 40.3392 34.668 40.5118 34.6685H47.926Z" fill="#F2E3CC"/>
<path d="M62.8263 37.978V42.2111C62.8256 42.5164 62.704 42.8089 62.4881 43.0247C62.2724 43.2406 61.9797 43.3621 61.6746 43.3629H49.0498V37.978H62.8263Z" fill="#ED9107"/>
<path d="M49.0497 37.978V43.3629H41.9067C41.6014 43.3624 41.3086 43.241 41.0927 43.0251C40.8768 42.8092 40.7553 42.5164 40.7549 42.2111V37.978H49.0497Z" fill="#F2E3CC"/>
<path d="M46.8711 43.363V48.4946" stroke="black" stroke-miterlimit="10"/>
<path d="M48.6113 48.4941V58.948" stroke="black" stroke-miterlimit="10"/>
<path d="M64.1087 35.327V37.3192C64.1087 37.4938 64.0392 37.6614 63.9157 37.7848C63.7922 37.9083 63.6247 37.9777 63.4501 37.9777H47.9258V34.6685H63.4501C63.6247 34.6685 63.7922 34.7379 63.9157 34.8614C64.0392 34.9849 64.1087 35.1524 64.1087 35.327Z" stroke="black" stroke-miterlimit="10"/>
<path d="M47.926 34.6685V37.9777H40.476C40.3887 37.9776 40.3023 37.96 40.2218 37.9262C40.1412 37.8924 40.0684 37.8429 40.007 37.7808C39.9457 37.7185 39.8975 37.6447 39.865 37.5637C39.8323 37.4828 39.8163 37.3961 39.8174 37.3087L39.8532 35.3136C39.8563 35.1412 39.9271 34.9769 40.0503 34.8562C40.1736 34.7355 40.3392 34.668 40.5118 34.6685H47.926Z" stroke="black" stroke-miterlimit="10"/>
<path d="M62.8263 37.978V42.2111C62.8256 42.5164 62.704 42.8089 62.4881 43.0247C62.2724 43.2406 61.9797 43.3621 61.6746 43.3629H49.0498V37.978H62.8263Z" stroke="black" stroke-miterlimit="10"/>
<path d="M49.0497 37.978V43.3629H41.9067C41.6014 43.3624 41.3086 43.241 41.0927 43.0251C40.8768 42.8092 40.7553 42.5164 40.7549 42.2111V37.978H49.0497Z" stroke="black" stroke-miterlimit="10"/>
<path d="M56.191 25.3366V27.3287C56.192 27.4159 56.1757 27.5023 56.143 27.583C56.1104 27.6638 56.062 27.7372 56.0007 27.7992C55.9395 27.8612 55.8666 27.9104 55.7862 27.9439C55.7057 27.9774 55.6196 27.9947 55.5324 27.9947H44.3574V24.678H55.5324C55.7071 24.678 55.8745 24.7474 55.998 24.8709C56.1216 24.9945 56.191 25.1619 56.191 25.3366Z" fill="#ED9107"/>
<path d="M44.3633 24.6768H37.335V27.9875H44.3633V24.6768Z" fill="#F2E3CC"/>
<path d="M54.9095 27.9949V33.5883C54.9088 33.8936 54.7872 34.1861 54.5713 34.4019C54.3556 34.6178 54.0631 34.7394 53.7578 34.7401H45.4883V27.9949H54.9095Z" fill="#ED9107"/>
<path d="M45.4884 27.9949V34.7401H38.3453C38.3146 34.7432 38.2836 34.7432 38.2529 34.7401V27.9949H45.4884Z" fill="#F2E3CC"/>
<path d="M56.191 25.3366V27.3287C56.192 27.4159 56.1757 27.5023 56.143 27.583C56.1104 27.6638 56.062 27.7372 56.0007 27.7992C55.9395 27.8612 55.8666 27.9104 55.7862 27.9439C55.7057 27.9774 55.6196 27.9947 55.5324 27.9947H44.3574V24.678H55.5324C55.7071 24.678 55.8745 24.7474 55.998 24.8709C56.1216 24.9945 56.191 25.1619 56.191 25.3366Z" stroke="black" stroke-miterlimit="10"/>
<path d="M44.3635 24.678V27.9947H36.9135C36.8262 27.9947 36.7397 27.9774 36.659 27.9436C36.5784 27.9099 36.5054 27.8605 36.444 27.7982C36.3828 27.7359 36.3345 27.6621 36.302 27.5809C36.2696 27.4999 36.2536 27.4132 36.255 27.3257L36.2907 25.3291C36.2938 25.1569 36.3646 24.9927 36.488 24.8723C36.6112 24.7517 36.7769 24.6847 36.9493 24.6854L44.3635 24.678Z" stroke="black" stroke-miterlimit="10"/>
<path d="M54.9095 27.9949V33.5883C54.9088 33.8936 54.7872 34.1861 54.5713 34.4019C54.3556 34.6178 54.0631 34.7394 53.7578 34.7401H45.4883V27.9949H54.9095Z" stroke="black" stroke-miterlimit="10"/>
<path d="M45.4882 27.9949V34.7401H38.3451C38.0398 34.7397 37.747 34.6182 37.5311 34.4023C37.3152 34.1864 37.1938 33.8936 37.1934 33.5883V27.9949H45.4882Z" stroke="black" stroke-miterlimit="10"/>
<path d="M53.7219 18.4814V19.7896C53.7219 19.8466 53.7108 19.9029 53.6889 19.9553C53.6671 20.0079 53.6351 20.0556 53.5948 20.0957C53.5546 20.1359 53.5068 20.1677 53.4542 20.1893C53.4016 20.2109 53.3453 20.2219 53.2883 20.2217H45.9561V18.0493H53.2883C53.3453 18.0492 53.4016 18.0602 53.4542 18.0818C53.5068 18.1034 53.5546 18.1351 53.5948 18.1754C53.6351 18.2155 53.6671 18.2631 53.6889 18.3157C53.7108 18.3682 53.7219 18.4245 53.7219 18.4814Z" fill="#ED9107"/>
<path d="M45.9568 18.0493H41.3408V20.2217H45.9568V18.0493Z" fill="#F2E3CC"/>
<path d="M52.8803 20.2214V23.8943C52.8796 24.0947 52.7995 24.2866 52.6577 24.4282C52.5158 24.5697 52.3238 24.6493 52.1234 24.6497H46.6953V20.2214H52.8803Z" fill="#ED9107"/>
<path d="M46.6957 20.2202H42.0156V24.6485H46.6957V20.2202Z" fill="#F2E3CC"/>
<path d="M53.7219 18.4814V19.7896C53.7219 19.8466 53.7108 19.9029 53.6889 19.9553C53.6671 20.0079 53.6351 20.0556 53.5948 20.0957C53.5546 20.1359 53.5068 20.1677 53.4542 20.1893C53.4016 20.2109 53.3453 20.2219 53.2883 20.2217H45.9561V18.0493H53.2883C53.3453 18.0492 53.4016 18.0602 53.4542 18.0818C53.5068 18.1034 53.5546 18.1351 53.5948 18.1754C53.6351 18.2155 53.6671 18.2631 53.6889 18.3157C53.7108 18.3682 53.7219 18.4245 53.7219 18.4814Z" stroke="black" stroke-miterlimit="10"/>
<path d="M45.9568 18.049V20.2214H41.0651C41.0072 20.2212 40.9498 20.2095 40.8964 20.1868C40.8433 20.164 40.795 20.1308 40.7546 20.0892C40.7144 20.0475 40.6829 19.9982 40.6619 19.9441C40.6411 19.89 40.6312 19.8323 40.633 19.7744L40.6569 18.4647C40.6592 18.3517 40.7057 18.244 40.7865 18.1649C40.8674 18.0858 40.9759 18.0415 41.089 18.0415L45.9568 18.049Z" stroke="black" stroke-miterlimit="10"/>
<path d="M52.8803 20.2214V23.8943C52.8796 24.0947 52.7995 24.2866 52.6577 24.4282C52.5158 24.5697 52.3238 24.6493 52.1234 24.6497H46.6953V20.2214H52.8803Z" stroke="black" stroke-miterlimit="10"/>
<path d="M46.696 20.2214V24.6497H42.0054C41.8052 24.6493 41.6133 24.5696 41.4717 24.428C41.3302 24.2865 41.2504 24.0945 41.25 23.8943V20.2214H46.696Z" stroke="black" stroke-miterlimit="10"/>
<path d="M52.4347 12.8953V13.9889C52.4343 14.0849 52.3961 14.1768 52.3282 14.2446C52.2604 14.3124 52.1686 14.3507 52.0727 14.351H45.9473V12.5332H52.0727C52.1202 12.5332 52.1673 12.5426 52.2112 12.5608C52.2552 12.5791 52.2951 12.6058 52.3286 12.6393C52.3623 12.673 52.389 12.7129 52.4072 12.7569C52.4253 12.8007 52.4347 12.8477 52.4347 12.8953Z" fill="#ED9107"/>
<path d="M45.9494 12.5332H42.2363V14.3495H45.9494V12.5332Z" fill="#F2E3CC"/>
<path d="M51.7318 14.3499V17.4163C51.731 17.5836 51.6641 17.7438 51.5458 17.8621C51.4275 17.9804 51.2673 18.0473 51.1 18.048H46.5645V14.3499H51.7318Z" fill="#ED9107"/>
<path d="M46.5648 14.3499V18.0495H42.6476C42.551 18.05 42.4557 18.0279 42.3691 17.9853C42.2825 17.9425 42.207 17.8804 42.1484 17.8037H42.7802V14.3499H46.5648Z" fill="#F2E3CC"/>
<path d="M52.4347 12.8953V13.9889C52.4343 14.0849 52.3961 14.1768 52.3282 14.2446C52.2604 14.3124 52.1686 14.3507 52.0727 14.351H45.9473V12.5332H52.0727C52.1202 12.5332 52.1673 12.5426 52.2112 12.5608C52.2552 12.5791 52.2951 12.6058 52.3286 12.6393C52.3623 12.673 52.389 12.7129 52.4072 12.7569C52.4253 12.8007 52.4347 12.8477 52.4347 12.8953Z" stroke="black" stroke-miterlimit="10"/>
<path d="M45.9477 12.5332V14.3495H41.8606C41.8126 14.3494 41.7653 14.3397 41.7212 14.3211C41.6769 14.3024 41.637 14.2752 41.6035 14.2409C41.5699 14.2066 41.5434 14.1661 41.5257 14.1215C41.5079 14.0771 41.4993 14.0295 41.5 13.9815L41.5194 12.8878C41.5209 12.7934 41.5596 12.7031 41.6271 12.6368C41.6945 12.5705 41.7854 12.5332 41.88 12.5332H45.9477Z" stroke="black" stroke-miterlimit="10"/>
<path d="M51.7318 14.3499V17.4163C51.731 17.5836 51.6641 17.7438 51.5458 17.8621C51.4275 17.9804 51.2673 18.0473 51.1 18.048H46.5645V14.3499H51.7318Z" stroke="black" stroke-miterlimit="10"/>
<path d="M46.5645 14.3499V18.0495H42.6458C42.479 18.0479 42.3194 17.9805 42.202 17.8619C42.0844 17.7433 42.0186 17.5832 42.0186 17.4163V14.3499H46.5645Z" stroke="black" stroke-miterlimit="10"/>
<path d="M44.784 127.884C43.0675 128.03 41.3506 128.175 39.6331 128.318C39.2266 128.35 38.8472 128.534 38.5711 128.834C38.295 129.134 38.1426 129.527 38.1445 129.935C38.1445 130.147 38.1864 130.357 38.2678 130.554C38.3491 130.75 38.4683 130.928 38.6187 131.078C38.769 131.228 38.9474 131.347 39.1437 131.428C39.34 131.509 39.5504 131.55 39.7627 131.55L53.4915 131.535C53.5459 131.535 53.5994 131.522 53.648 131.498C53.6966 131.474 53.739 131.439 53.7718 131.396C53.8045 131.352 53.8268 131.302 53.8369 131.249C53.8469 131.195 53.8445 131.14 53.8298 131.088C50.6191 119.369 48.8709 107.298 48.6252 95.1492" stroke="black" stroke-miterlimit="10"/>
<path d="M70.6416 55.7339V55.731" stroke="black" stroke-miterlimit="10"/>
<path d="M67.4647 72.2241C67.2844 73.0108 67.0997 73.7961 66.9045 74.5798C66.8523 74.7914 66.7972 75.0045 66.7436 75.2131C64.6739 83.3097 61.5882 91.4347 63.1392 99.6282C65.2625 110.839 72.4681 122.759 77.7785 131.067C77.9007 131.261 76.1082 131.551 75.8787 131.55C71.7768 131.514 66.161 131.48 61.8206 131.444C61.4113 131.441 61.0197 131.277 60.731 130.986C60.4422 130.696 60.2796 130.304 60.2784 129.895V129.868C60.277 129.499 60.4064 129.142 60.6439 128.861C60.8814 128.579 61.2113 128.391 61.5747 128.33C63.1974 128.06 65.4636 127.791 66.4813 127.522L64.4609 125.216C60.9415 120.984 57.0675 116.65 54.4913 111.748C50.4519 104.046 48.1379 95.492 47.451 86.8291C47.0756 82.1222 47.3721 77.3855 48.494 72.7993" stroke="black" stroke-miterlimit="10"/>
<path d="M54.9102 30.568C55.555 30.2419 56.2217 29.9606 56.9053 29.7262C57.602 29.4864 58.3157 29.2991 59.0404 29.1659C59.0404 29.1659 59.0479 29.1659 59.0538 29.1659L59.2297 29.1332C59.2878 29.1227 59.3444 29.1138 59.4025 29.1063C59.4606 29.0989 59.4919 29.0899 59.5351 29.084" stroke="black" stroke-miterlimit="10"/>
<path d="M39.5406 58.948C39.1543 60.4261 38.7857 61.9097 38.4351 63.3986C37.9542 65.4518 37.5142 67.5125 37.1149 69.5806C35.1779 79.6948 34.3465 90.1143 35.7948 100.349C36.4864 105.257 37.6144 110.094 39.1652 114.802C39.941 117.153 40.821 119.466 41.8054 121.741C42.0856 122.383 44.2371 127.887 44.778 127.887" stroke="black" stroke-miterlimit="10"/>
<path d="M65.082 65.0172C65.1132 65.0191 65.144 65.0236 65.1744 65.0306L65.3234 65.0514C66.4782 65.2317 67.6612 65.3867 68.8488 65.4984C77.1078 66.2822 85.419 65.044 84.6889 56.5242C84.2419 51.1915 82.4539 48.1176 80.3068 43.3451C80.1429 42.9835 79.9786 42.6244 79.8137 42.2679C78.1389 38.6606 76.2481 35.2649 72.9105 32.9583C72.6766 32.7944 72.4397 32.6395 72.1923 32.489C70.607 31.5354 68.9273 30.7485 67.1799 30.1408L67.1546 30.1333" stroke="black" stroke-miterlimit="10"/>
<path d="M68.2212 45.1672L72.046 52.5114C72.2473 52.8915 72.3328 53.3222 72.2923 53.7502C72.2519 54.1783 72.087 54.5852 71.818 54.9208C71.1758 55.7343 70.188 55.8759 69.2344 56.1128L63.1999 57.3569L59.898 58.0393C58.9131 58.2465 58.4959 58.0826 58.2873 57.5774C57.52 55.7313 55.4772 55.7894 55.4772 55.7894L53.8635 55.782C53.6043 55.782 53.3495 55.7492 53.0932 55.7328C52.9333 55.7233 52.7731 55.7464 52.6225 55.8008C52.4719 55.8552 52.3339 55.9396 52.2169 56.0492C52.1 56.1585 52.0065 56.2907 51.9422 56.4373C51.878 56.5841 51.8443 56.7423 51.8431 56.9025C51.8432 57.1471 51.9198 57.3857 52.0618 57.5849C52.204 57.7841 52.4045 57.9342 52.6358 58.014L53.8769 58.2614C53.9267 58.2713 53.9733 58.2926 54.0134 58.3236C54.0536 58.3546 54.086 58.3944 54.1082 58.44C54.1304 58.4856 54.1419 58.5357 54.1416 58.5863C54.1413 58.637 54.1292 58.6869 54.1064 58.7322C54.0325 58.825 53.9367 58.8982 53.8278 58.9453H45.4659C45.372 58.9536 45.2813 58.9828 45.2001 59.0306C45.119 59.0785 45.0494 59.1439 44.9967 59.2218C44.9439 59.2999 44.9091 59.3887 44.8949 59.4818C44.8808 59.5749 44.8875 59.6702 44.9146 59.7603C45.0636 60.4025 45.8011 60.7616 46.3763 60.927C50.6228 62.1577 54.8857 63.1486 59.232 63.9606C61.2574 64.3391 63.2873 64.7016 65.3216 65.0483" stroke="black" stroke-miterlimit="10"/>
<path d="M37.5126 48.4958C36.1954 49.0918 34.9155 49.065 34.3031 50.4209C33.6764 51.8878 33.3907 53.4778 33.4672 55.0712C33.5835 57.0201 34.8723 58.0751 36.8942 58.3358C37.7254 58.4754 38.569 58.5253 39.4109 58.4848C39.9145 58.458 40.4539 58.461 40.9172 58.2479C41.5326 57.9708 41.8396 57.1587 41.2436 56.6745C40.9336 56.4212 40.509 56.3288 40.1171 56.2498C40.5522 56.2722 40.9664 56.2886 41.3091 56.296C42.0169 56.3154 42.7336 55.8281 42.7336 55.0682C42.7336 54.2517 42.0631 53.988 41.3672 53.9522L36.3668 53.6945L39.6686 53.8539C40.433 53.8926 41.8321 54.0252 42.1316 53.0806C42.1948 52.8778 42.1915 52.6602 42.1224 52.4595C42.0532 52.2588 41.9218 52.0854 41.7472 51.9646C41.1512 51.5489 40.3436 51.4893 39.6463 51.4505C38.6296 51.3711 37.6075 51.3972 36.5962 51.528C36.6901 51.5027 36.4249 51.528 36.5113 51.5027C37.3263 51.2464 37.7406 51.2047 38.4483 50.7398" stroke="black" stroke-miterlimit="10"/>
<path d="M37.5127 48.4961C37.6453 48.4365 37.8107 48.3576 37.9865 48.2816C38.0372 48.2592 38.0923 48.2384 38.1459 48.216C38.1996 48.1937 38.2502 48.1758 38.3039 48.1564L38.4618 48.1043L38.5408 48.0804C38.5736 48.0685 38.6093 48.061 38.6421 48.0521L38.6987 48.0417C38.7627 48.0254 38.8273 48.0125 38.8924 48.0029C38.9911 47.9891 39.0911 47.9855 39.1904 47.9925L39.259 48.0014C39.2757 48.0011 39.2924 48.0037 39.3081 48.0089C39.3409 48.0089 39.3737 48.0223 39.405 48.0312C39.4419 48.0409 39.478 48.0545 39.5123 48.0715C39.5692 48.0981 39.6222 48.1321 39.6702 48.1728C39.686 48.1846 39.7005 48.1981 39.7134 48.213C39.7605 48.2611 39.8025 48.314 39.8386 48.371C39.8386 48.371 40.6715 49.5034 38.3799 50.7877" stroke="black" stroke-miterlimit="10"/>
<path d="M40.1754 56.2648C40.1754 56.2648 37.6499 56.01 37.2744 55.9832" stroke="black" stroke-miterlimit="10"/>
<path d="M38.0957 64.8803C38.0957 64.8803 58.8559 63.5169 67.4651 72.2245C67.9017 72.5836 69.3544 74.3641 66.7439 75.2149" stroke="black" stroke-miterlimit="10"/>
<path d="M71.5311 65.6919C71.5311 65.6919 69.7997 72.2479 68.0684 74.3637" stroke="black" stroke-miterlimit="10"/>
<path d="M67.2546 72.0156C67.2546 72.0156 69.0843 73.0914 67.7731 74.6902L66.666 75.2147L67.4438 72.3136L67.2546 72.0156Z" fill="black"/>
<path d="M73.4749 68.4276C74.3346 59.425 72.1592 56.6208 70.5098 55.7626L70.6409 55.7268C76.434 54.946 77.6439 66.0301 77.8465 68.6019L73.4749 68.4276Z" fill="#F2E3CC"/>
<path d="M73.381 69.1355C74.2407 60.1329 72.1592 56.6195 70.5098 55.7672L70.6409 55.7314C76.434 54.9507 77.6811 66.5622 77.8823 69.1414L73.381 69.1355Z" fill="#F2E3CC"/>
<path d="M65.1228 69.2173H60.4248V96.5394H65.1228V69.2173Z" fill="white"/>
<path d="M70.6415 55.7314C77.1975 54.8493 77.8829 69.1414 77.8829 69.1414H73.3816C74.1415 55.1666 68.2471 56.3274 68.2471 56.3274C68.4467 56.2961 70.6415 55.7314 70.6415 55.7314Z" stroke="black" stroke-miterlimit="10"/>
<path d="M88.246 70.4285H66.3594V96.4573H88.246V70.4285Z" fill="#ED9107"/>
<path d="M88.2455 69.0503H65.2012V96.4574H88.2455V69.0503Z" fill="white"/>
<path d="M88.5257 70.1619V95.4367C88.5257 96.1534 87.8254 96.7345 86.9597 96.7345H61.7892C60.9235 96.7345 60.2217 96.1534 60.2217 95.4367V70.1619C60.2217 69.4452 60.9235 68.8641 61.7892 68.8641H86.9597C87.8254 68.8581 88.5257 69.4392 88.5257 70.1619Z" fill="#ED9107"/>
<path d="M87.1805 71.3657V94.3906C87.1817 94.5447 87.1525 94.6974 87.0947 94.8402C87.0369 94.9829 86.9515 95.1128 86.8434 95.2225C86.7353 95.3321 86.6067 95.4196 86.4649 95.4795C86.3231 95.5396 86.1709 95.5712 86.0169 95.5722H67.3278C67.1739 95.5712 67.0216 95.5396 66.8797 95.4795C66.7379 95.4196 66.6093 95.3321 66.5013 95.2225C66.3931 95.1128 66.3077 94.9829 66.2499 94.8402C66.1921 94.6974 66.1629 94.5447 66.1641 94.3906V71.3657C66.1629 71.2117 66.1921 71.059 66.2499 70.9163C66.3077 70.7735 66.3931 70.6436 66.5013 70.5339C66.6093 70.4241 66.7379 70.3368 66.8797 70.2768C67.0216 70.2169 67.1739 70.1853 67.3278 70.1841H86.0169C86.1709 70.1853 86.3231 70.2169 86.4649 70.2768C86.6067 70.3368 86.7353 70.4241 86.8434 70.5339C86.9515 70.6436 87.0369 70.7735 87.0947 70.9163C87.1525 71.059 87.1817 71.2117 87.1805 71.3657Z" fill="#ED9107"/>
<path d="M88.246 69.1353H65.2002V96.4574H88.246V69.1353Z" stroke="black" stroke-miterlimit="10"/>
<path d="M65.1041 69.1353H60.5029V96.4574H65.1041V69.1353Z" stroke="black" stroke-miterlimit="10"/>
<path d="M60.5029 96.4574L62.7737 93.1958L65.1041 96.4574" stroke="black" stroke-miterlimit="10"/>
<path d="M62.8042 69.1353L62.7744 93.1958" stroke="black" stroke-miterlimit="10"/>
<path d="M69.6611 65.498V69.1351" stroke="black" stroke-miterlimit="10"/>
<path d="M73.4325 65.6922C73.4325 65.6922 69.9653 65.6326 69.332 65.4523C69.332 65.4523 69.6613 65.0456 69.6613 66.5087C69.6613 67.9719 69.5317 69.1297 69.8401 69.1297C70.1486 69.1297 73.2269 69.0447 73.2269 69.0447C73.2269 69.0447 73.4727 68.8242 73.4266 68.1507C73.3804 67.4772 73.4325 65.6922 73.4325 65.6922Z" fill="black"/>
<path d="M25.8311 131.542H123.17" stroke="black" stroke-miterlimit="10"/>
<path d="M91.5218 17.7795C92.4912 17.7795 93.277 16.9937 93.277 16.0243C93.277 15.0549 92.4912 14.269 91.5218 14.269C90.5524 14.269 89.7666 15.0549 89.7666 16.0243C89.7666 16.9937 90.5524 17.7795 91.5218 17.7795Z" fill="#F2E3CC"/>
<path d="M87.0771 23.1749C87.0771 21.9962 87.5455 20.8657 88.379 20.032C89.2125 19.1985 90.3431 18.7302 91.5218 18.7302C92.7006 18.7302 93.8312 19.1985 94.6647 20.032C95.4982 20.8657 95.9665 21.9962 95.9665 23.1749H87.0771Z" fill="#F2E3CC"/>
<path d="M96.108 12.751H86.9355C86.1702 12.751 85.5498 13.3714 85.5498 14.1367V23.3091C85.5498 24.0745 86.1702 24.6948 86.9355 24.6948H96.108C96.8732 24.6948 97.4936 24.0745 97.4936 23.3091V14.1367C97.4936 13.3714 96.8732 12.751 96.108 12.751Z" stroke="#F2E3CC" stroke-miterlimit="10"/>
<path d="M91.9559 102.868L93.2552 105.501C93.2902 105.571 93.3416 105.631 93.4052 105.677C93.4689 105.723 93.5426 105.753 93.6202 105.764L96.5243 106.186C96.6135 106.199 96.6974 106.237 96.7664 106.295C96.8354 106.353 96.8866 106.43 96.9146 106.515C96.9425 106.601 96.9458 106.693 96.9242 106.781C96.9027 106.868 96.857 106.948 96.7925 107.011L94.6901 109.06C94.6342 109.115 94.5923 109.183 94.5682 109.258C94.544 109.332 94.5384 109.412 94.5515 109.489L95.0477 112.381C95.063 112.47 95.053 112.562 95.0191 112.645C94.9852 112.729 94.9285 112.802 94.8555 112.855C94.7824 112.908 94.6962 112.94 94.606 112.946C94.516 112.953 94.4259 112.934 94.3459 112.892L91.7473 111.526C91.6783 111.49 91.6017 111.471 91.5238 111.471C91.446 111.471 91.3693 111.49 91.3003 111.526L88.7018 112.892C88.6217 112.934 88.5316 112.953 88.4416 112.946C88.3516 112.94 88.2652 112.908 88.1922 112.855C88.1192 112.802 88.0625 112.729 88.0286 112.645C87.9946 112.562 87.9846 112.47 88 112.381L88.4961 109.489C88.5097 109.412 88.5042 109.332 88.48 109.257C88.4559 109.183 88.4139 109.115 88.3576 109.06L86.2552 107.011C86.1907 106.948 86.1451 106.868 86.1235 106.781C86.1019 106.693 86.1051 106.601 86.1331 106.515C86.161 106.43 86.2123 106.353 86.2813 106.295C86.3502 106.237 86.4341 106.199 86.5234 106.186L89.4289 105.764C89.5064 105.753 89.58 105.723 89.6433 105.677C89.7066 105.631 89.7579 105.571 89.7924 105.501L91.0917 102.868C91.1321 102.788 91.1939 102.721 91.2702 102.674C91.3465 102.627 91.4343 102.602 91.5238 102.602C91.6134 102.602 91.7011 102.627 91.7774 102.674C91.8537 102.721 91.9155 102.788 91.9559 102.868Z" fill="#F2E3CC"/>
<path d="M72.3027 109.483H82.1695" stroke="#F2E3CC" stroke-miterlimit="10"/>
</g>
<defs>
<clipPath id="clip0_1143_2736">
<rect width="149" height="149" fill="white"/>
</clipPath>
</defs>
</svg>
