<svg width="149" height="100" viewBox="0 0 149 100" fill="none" xmlns="http://www.w3.org/2000/svg">
<g clip-path="url(#clip0_1143_2986)">
<path d="M54.6667 95.9888C48.7147 93.2741 43.8292 87.5462 43.6904 81.0552C49.3282 85.3729 56.3256 87.5754 63.4445 87.2731C66.1895 87.1467 69.2294 86.7229 71.4337 88.3488C72.8054 89.3604 73.5708 91.0199 73.846 92.692C74.1211 94.3643 73.9598 96.0732 73.7979 97.7599L73.9576 98.1521C67.4443 98.86 60.6188 98.7035 54.6667 95.9888Z" fill="#F9F9F9"/>
<path d="M43.8263 81.034C46.589 85.6584 50.7521 89.3028 55.7241 91.4493C56.7862 91.9303 57.9181 92.2423 59.0783 92.374C60.2126 92.4661 61.3511 92.2555 62.3755 91.7641C63.3399 91.325 64.2751 90.7651 65.3305 90.5659C65.8723 90.4719 66.428 90.4924 66.9611 90.6261C67.4943 90.7598 67.993 91.0037 68.4244 91.3418C69.5214 92.1564 70.2576 93.313 70.9378 94.4689C71.6931 95.7523 72.4571 97.0972 73.7327 97.9432C73.8873 98.0457 73.7177 98.2774 73.5634 98.175C71.344 96.703 70.7095 93.9144 68.8673 92.0998C68.0077 91.2531 66.8854 90.6579 65.6435 90.807C64.5576 90.9374 63.5927 91.5139 62.6201 91.9669C61.6278 92.4608 60.5286 92.7064 59.4185 92.6823C58.2554 92.6096 57.1132 92.3413 56.0409 91.8888C53.6103 90.9084 51.3505 89.5554 49.3441 87.8795C47.0435 85.9792 45.088 83.7031 43.562 81.1494C43.4676 80.9914 43.7325 80.8769 43.8263 81.034L43.8263 81.034Z" fill="white"/>
<path d="M54.0818 90.8511C53.6051 91.6288 52.865 92.2133 51.9935 92.5001C51.122 92.787 50.1761 92.7576 49.3245 92.4171C49.1524 92.3477 49.2533 92.0794 49.4256 92.149C50.218 92.4675 51.0992 92.4948 51.9101 92.226C52.7211 91.9573 53.4083 91.4101 53.8479 90.6833C53.9436 90.5255 54.177 90.6942 54.0818 90.8511V90.8511Z" fill="white"/>
<path d="M61.916 92.0502C61.4869 90.2394 60.3848 88.6554 58.8294 87.614C58.6752 87.511 58.8447 87.2793 58.9987 87.3822C60.6152 88.4689 61.7588 90.1196 62.2011 92.0049C62.2431 92.1847 61.9578 92.2289 61.916 92.0502V92.0502Z" fill="white"/>
<path d="M47.3855 85.8081C47.6333 85.5453 47.8112 85.2256 47.9035 84.8778C47.9957 84.5299 47.9993 84.1649 47.9139 83.8153C47.8696 83.6362 48.1551 83.5921 48.1991 83.7701C48.2916 84.1567 48.2871 84.5599 48.1861 84.9444C48.085 85.3289 47.8905 85.683 47.6195 85.9759C47.5963 86.0056 47.5625 86.0254 47.525 86.0314C47.4876 86.0373 47.4493 86.0289 47.4178 86.0079C47.387 85.9855 47.3663 85.952 47.3602 85.9146C47.3542 85.8772 47.3633 85.8389 47.3855 85.8081Z" fill="white"/>
<path d="M60.4835 66.6895C60.5144 66.8005 60.5453 66.9116 60.5785 67.0235C61.0014 68.5145 61.5459 69.9689 62.2066 71.3726C62.256 71.4819 62.3076 71.5919 62.36 71.6996C63.9882 75.0644 66.2326 78.1005 68.9792 80.6534C70.0731 81.6683 71.2434 82.5992 72.4798 83.4382C74.1874 84.5967 76.132 85.7182 77.3187 87.3209C77.4444 87.4867 77.5596 87.6601 77.6637 87.8401L74.4287 97.9283C74.4097 97.9476 74.3931 97.9677 74.3741 97.987L74.2635 98.3957C74.1967 98.3568 74.1282 98.3151 74.0614 98.2763C74.0225 98.2539 73.9844 98.2293 73.9455 98.2069C73.9199 98.1912 73.8942 98.1755 73.8701 98.1628C73.8616 98.1577 73.8531 98.1524 73.8468 98.1479C73.8227 98.1353 73.8017 98.121 73.78 98.1091C73.3967 97.8769 73.0143 97.6417 72.633 97.4034C72.6307 97.4026 72.6307 97.4026 72.629 97.3996C69.728 95.5765 66.9551 93.4973 64.5888 91.0671C64.5176 90.994 64.4441 90.9202 64.3744 90.8425C63.3139 89.7412 62.346 88.5559 61.4804 87.2984C61.0087 86.6084 60.5725 85.8951 60.1736 85.1613C59.1464 83.2633 58.427 81.2171 58.0416 79.0976C57.2739 74.8724 57.8785 70.4508 60.2962 66.9548C60.3581 66.8654 60.4193 66.7781 60.4835 66.6895Z" fill="#F9F9F9"/>
<path d="M60.6053 66.7532C60.0014 72.0937 61.111 77.4871 63.7766 82.1672C64.3324 83.1848 65.0466 84.1093 65.8929 84.9065C66.7426 85.6567 67.7796 86.1678 68.8961 86.3866C69.933 86.6113 71.0199 86.7222 71.9836 87.1928C72.4732 87.4409 72.9045 87.7888 73.2489 88.2137C73.5934 88.6385 73.8434 89.1307 73.9824 89.658C74.3633 90.9629 74.2483 92.3256 74.0892 93.6543C73.9124 95.1296 73.7053 96.6592 74.2097 98.0958C74.2708 98.2698 73.9947 98.3536 73.9337 98.1798C73.0561 95.6805 74.2438 93.0754 73.8754 90.5275C73.7036 89.3386 73.1691 88.1939 72.087 87.5721C71.1407 87.0283 70.02 86.913 68.9682 86.6944C67.8758 86.4968 66.849 86.0372 65.9773 85.3557C65.0927 84.6037 64.3438 83.7081 63.7625 82.7071C62.4175 80.4743 61.4353 78.0459 60.8516 75.5107C60.1693 72.621 59.991 69.637 60.3242 66.6877C60.3449 66.5052 60.6259 66.5718 60.6054 66.7532H60.6053Z" fill="white"/>
<path d="M62.8283 80.7104C61.9751 81.0469 61.029 81.072 60.1589 80.7812C59.2888 80.4903 58.5514 79.9025 58.0783 79.1226C57.9831 78.9645 58.2266 78.8105 58.3219 78.9688C58.7611 79.6959 59.4481 80.2434 60.2589 80.5126C61.0697 80.7818 61.9509 80.7549 62.7435 80.4369C62.9158 80.3679 62.9996 80.6418 62.8283 80.7104Z" fill="white"/>
<path d="M68.3546 86.3412C69.1122 84.6394 69.1947 82.7172 68.5856 80.9578C68.5251 80.7835 68.8012 80.6997 68.8616 80.8737C69.492 82.7058 69.4021 84.706 68.6097 86.4752C68.5341 86.6438 68.2793 86.5089 68.3546 86.3412Z" fill="white"/>
<path d="M60.5461 72.6884C60.9036 72.6263 61.24 72.4772 61.5249 72.2545C61.8099 72.0318 62.0346 71.7425 62.1788 71.4125C62.2523 71.2431 62.507 71.3781 62.434 71.5465C62.273 71.9103 62.0244 72.2296 61.7101 72.4763C61.3958 72.7231 61.0253 72.8898 60.631 72.9619C60.5944 72.9718 60.5553 72.9675 60.5218 72.9499C60.4883 72.9323 60.4628 72.9027 60.4505 72.8672C60.4395 72.8309 60.4433 72.7918 60.4612 72.7583C60.4791 72.7248 60.5096 72.6997 60.5461 72.6884Z" fill="white"/>
<path d="M137.879 95.5058C137.269 96.759 136.465 97.9095 135.495 98.9152C135.277 99.1402 135.053 99.3579 134.823 99.5684C134.663 99.7154 134.5 99.8587 134.334 100H123.056C123.065 99.8551 123.081 99.7117 123.103 99.5684C123.175 99.1045 123.339 98.6593 123.585 98.2584C124.522 96.7632 126.451 96.3042 128.132 95.7363C128.533 95.6002 128.93 95.4514 129.32 95.2881C129.824 95.0794 130.318 94.849 130.8 94.5986C132.955 93.4791 134.881 91.973 136.482 90.1568C136.533 90.0987 136.583 90.0407 136.632 89.9808C137.289 89.2186 137.882 88.4049 138.406 87.5476C138.447 87.4859 138.483 87.4224 138.522 87.3589C138.545 87.4242 138.569 87.4913 138.593 87.5567C139.49 90.1495 139.095 93.0073 137.879 95.5058Z" fill="#F9F9F9"/>
<path d="M138.623 87.3843C138.614 87.4423 138.604 87.5004 138.593 87.5566C138.378 88.81 138.018 90.0348 137.522 91.2073C137.294 91.7475 137.038 92.2757 136.755 92.7895C136.206 93.7896 135.555 94.7314 134.812 95.6001C134.772 95.6473 134.73 95.6945 134.689 95.7417C134.371 96.1027 134.037 96.4463 133.688 96.7723C133.151 97.2956 132.529 97.7251 131.847 98.0424C131.294 98.2774 130.695 98.3913 130.093 98.3763C129.98 98.3763 129.866 98.3708 129.751 98.3636C129.289 98.3345 128.817 98.2729 128.352 98.2855C128.117 98.2886 127.883 98.319 127.656 98.3763C127.345 98.4674 127.055 98.62 126.805 98.8248C126.555 99.0297 126.349 99.2826 126.2 99.5684C126.136 99.6793 126.077 99.7938 126.026 99.9113C126.013 99.9403 126.001 99.9712 125.99 100H125.788C125.845 99.8524 125.911 99.7081 125.986 99.5684C126.024 99.494 126.066 99.4214 126.11 99.3506C126.289 99.0463 126.531 98.7827 126.82 98.5773C127.108 98.3719 127.438 98.2292 127.786 98.1585C127.997 98.1199 128.212 98.1011 128.427 98.1023C128.901 98.095 129.377 98.1604 129.85 98.1858C129.899 98.1876 129.949 98.1912 129.998 98.1912C130.06 98.193 130.124 98.193 130.187 98.193C130.808 98.1936 131.421 98.0514 131.977 97.7775C132.643 97.4254 133.249 96.9724 133.774 96.4348C134.058 96.1572 134.33 95.8669 134.59 95.5675C134.603 95.5548 134.614 95.5421 134.625 95.5294C135.741 94.2423 136.648 92.7908 137.313 91.2273C137.339 91.171 137.363 91.1148 137.387 91.0585C137.856 89.929 138.198 88.7515 138.407 87.5476C138.418 87.4913 138.427 87.4333 138.436 87.377C138.454 87.2609 138.641 87.2681 138.623 87.3843Z" fill="white"/>
<path d="M134.617 95.6888C135.09 96.0445 135.675 96.2222 136.267 96.19C136.86 96.1579 137.422 95.9181 137.852 95.5134C137.939 95.4312 137.814 95.2936 137.727 95.3759C137.327 95.7535 136.804 95.9768 136.252 96.0056C135.7 96.0344 135.156 95.8668 134.718 95.533C134.623 95.4606 134.523 95.6168 134.617 95.6888V95.6888Z" fill="white"/>
<path d="M130.193 98.2494C130.018 97.0598 130.302 95.8486 130.988 94.8572C131.056 94.759 130.899 94.6595 130.831 94.7576C130.119 95.7906 129.826 97.0516 130.011 98.2891C130.029 98.407 130.211 98.3667 130.193 98.2494V98.2494Z" fill="white"/>
<path d="M137.439 91.084C137.227 90.9842 137.043 90.8337 136.905 90.6463C136.766 90.4588 136.676 90.2401 136.644 90.0099C136.628 89.8918 136.446 89.9323 136.462 90.0496C136.499 90.3038 136.598 90.5452 136.751 90.7527C136.903 90.9601 137.105 91.1274 137.338 91.2398C137.359 91.2523 137.384 91.2563 137.408 91.2511C137.432 91.2458 137.453 91.2318 137.467 91.2117C137.48 91.191 137.485 91.166 137.479 91.1421C137.474 91.1182 137.459 91.0973 137.439 91.084V91.084Z" fill="white"/>
<path d="M129.595 93.6986C129.529 94.2357 129.438 94.7637 129.32 95.2881V95.2899C129.1 96.2494 128.802 97.1894 128.427 98.1005V98.1023C128.403 98.1658 128.377 98.2257 128.352 98.2856C128.17 98.7193 127.974 99.1457 127.766 99.5684C127.694 99.7136 127.621 99.8569 127.546 100H120.198L119.842 99.5684L119.718 99.416C119.738 99.2831 119.766 99.1516 119.802 99.0223C120.132 97.7794 121.033 96.649 121.783 95.5512C122.326 94.7564 122.806 93.9218 123.221 93.0545C124.263 90.8753 124.887 88.5231 125.061 86.1178C125.067 86.0398 125.07 85.9618 125.074 85.8838C125.135 84.8846 125.115 83.8822 125.014 82.8863V82.8826C125.006 82.8101 124.999 82.7357 124.99 82.6631C125.048 82.703 125.107 82.7393 125.164 82.7774C125.164 82.7774 125.164 82.7774 125.164 82.7775C125.165 82.7776 125.165 82.7777 125.165 82.7779C125.165 82.7781 125.165 82.7783 125.165 82.7785C125.165 82.7787 125.166 82.779 125.166 82.7792H125.167C127.451 84.3106 128.872 86.82 129.423 89.5345C129.425 89.5399 129.425 89.5453 129.427 89.5508C129.701 90.9162 129.758 92.3158 129.595 93.6986Z" fill="#F9F9F9"/>
<path d="M127.035 91.4594C127.032 91.5211 127.028 91.581 127.022 91.6427C126.988 92.1199 126.931 92.5953 126.85 93.0652C126.739 93.8033 126.502 94.5174 126.151 95.1773C125.852 95.695 125.443 96.1425 124.953 96.4891C124.862 96.5581 124.768 96.6234 124.673 96.6851C124.093 97.0625 123.446 97.3964 123.007 97.9443C122.652 98.4087 122.488 98.989 122.549 99.5682C122.558 99.7134 122.578 99.8576 122.607 100H122.419C122.395 99.8826 122.377 99.7639 122.366 99.6445C122.364 99.6191 122.362 99.5937 122.36 99.5682C122.329 99.2302 122.367 98.8894 122.474 98.5667C122.58 98.2441 122.752 97.9464 122.979 97.6921C123.446 97.1822 124.072 96.8611 124.642 96.4819C124.684 96.4546 124.724 96.4256 124.765 96.3966C124.816 96.3621 124.867 96.324 124.917 96.2859C125.414 95.9176 125.818 95.4384 126.094 94.8869C126.412 94.2092 126.62 93.4861 126.711 92.7441C126.768 92.3521 126.811 91.959 126.839 91.5647C126.839 91.5465 126.841 91.5302 126.841 91.512V91.5102C126.949 89.8176 126.793 88.1186 126.378 86.4733C126.361 86.4134 126.345 86.3553 126.33 86.2955C126.02 85.1143 125.578 83.9709 125.014 82.8861V82.8825C124.986 82.8317 124.96 82.7809 124.933 82.73C124.876 82.6266 125.03 82.5196 125.085 82.6248C125.112 82.6756 125.138 82.7264 125.164 82.7772C125.164 82.7772 125.164 82.7773 125.164 82.7773C125.165 82.7774 125.165 82.7776 125.165 82.7777C125.165 82.7779 125.165 82.7781 125.165 82.7783C125.166 82.7786 125.166 82.7788 125.166 82.779C125.76 83.916 126.22 85.1173 126.535 86.359C126.68 86.9174 126.794 87.4831 126.878 88.0537C127.047 89.1806 127.1 90.3218 127.035 91.4594Z" fill="white"/>
<path d="M126.933 91.6446C127.527 91.6466 128.102 91.4395 128.555 91.0603C129.009 90.6811 129.312 90.1545 129.41 89.5745C129.429 89.4571 129.246 89.4217 129.226 89.5393C129.136 90.0795 128.854 90.57 128.431 90.9223C128.008 91.2745 127.472 91.4653 126.919 91.4602C126.799 91.4592 126.814 91.6436 126.933 91.6445V91.6446Z" fill="white"/>
<path d="M124.957 96.3281C124.095 95.4827 123.585 94.3463 123.531 93.1454C123.526 93.0264 123.34 93.0408 123.345 93.1596C123.404 94.4092 123.936 95.5908 124.836 96.4686C124.922 96.5522 125.043 96.4112 124.957 96.3281Z" fill="white"/>
<path d="M126.387 86.2854C126.157 86.332 125.919 86.3214 125.695 86.2544C125.47 86.1874 125.266 86.0662 125.1 85.9016C125.015 85.817 124.895 85.958 124.979 86.0421C125.163 86.223 125.388 86.3566 125.636 86.4312C125.884 86.5057 126.147 86.519 126.401 86.4698C126.426 86.4671 126.448 86.4554 126.464 86.4369C126.48 86.4185 126.488 86.3947 126.487 86.3704C126.485 86.346 126.473 86.3234 126.455 86.3075C126.436 86.2916 126.412 86.2836 126.387 86.2854Z" fill="white"/>
<path d="M0.764633 21.3307C0.942181 14.8405 4.33504 8.13675 10.3031 5.45703C8.51466 12.2915 9.2235 19.5324 12.3042 25.8988C13.5014 28.3498 15.0904 30.9524 14.4489 33.6001C14.0497 35.2476 12.8111 36.5977 11.3679 37.5061C9.92449 38.4146 8.27543 38.9398 6.64673 39.4558L6.34558 39.7556C3.12675 34.1004 0.587086 27.8209 0.764633 21.3307Z" fill="#F9F9F9"/>
<path d="M10.3763 5.57225C7.17227 9.90818 5.42846 15.1342 5.39256 20.5081C5.36411 21.6648 5.51984 22.8188 5.85403 23.9275C6.21479 24.997 6.85803 25.9514 7.7169 26.6913C8.50373 27.3972 9.39107 28.0289 9.99103 28.912C10.2914 29.3686 10.4909 29.8829 10.5766 30.4212C10.6622 30.9595 10.6321 31.5097 10.4881 32.0357C10.1638 33.3555 9.38021 34.4811 8.57531 35.5555C7.68164 36.7484 6.73431 37.9735 6.45106 39.4684C6.41673 39.6495 6.13511 39.5861 6.16938 39.4053C6.66219 36.8044 8.99996 35.1294 9.95899 32.7374C10.4065 31.6212 10.5172 30.3647 9.89042 29.292C9.34231 28.354 8.42784 27.7018 7.62493 26.9939C6.77639 26.2843 6.11613 25.3795 5.70182 24.3587C5.31175 23.2705 5.11141 22.1244 5.10938 20.9695C5.06298 18.3697 5.42941 15.7788 6.19525 13.2917C7.05341 10.4484 8.39611 7.77154 10.1652 5.3769C10.2748 5.22874 10.4852 5.42505 10.3763 5.57225H10.3763Z" fill="white"/>
<path d="M5.30095 18.777C4.39185 18.6487 3.5584 18.2043 2.94944 17.5232C2.34049 16.8422 1.99567 15.9688 1.97659 15.0591C1.97337 14.875 2.26191 14.8614 2.26513 15.0457C2.28133 15.8929 2.60261 16.7064 3.17097 17.3394C3.73934 17.9725 4.51736 18.3834 5.36462 18.4979C5.54871 18.523 5.48399 18.802 5.30095 18.777V18.777Z" fill="white"/>
<path d="M7.27005 26.3853C8.7814 25.2821 9.8176 23.655 10.172 21.8284C10.207 21.6474 10.4886 21.7107 10.4537 21.8915C10.0813 23.7916 8.9995 25.4827 7.42421 26.6272C7.27398 26.7362 7.12064 26.4937 7.27005 26.3853Z" fill="white"/>
<path d="M7.34627 10.6926C7.68758 10.8149 8.05419 10.8513 8.41319 10.7985C8.7722 10.7457 9.11235 10.6054 9.40309 10.3901C9.55185 10.2793 9.70504 10.522 9.55725 10.6321C9.23491 10.8684 8.85906 11.023 8.46254 11.0822C8.06603 11.1414 7.66092 11.1035 7.2826 10.9717C7.24589 10.9623 7.21419 10.9393 7.19394 10.9076C7.17369 10.8758 7.16642 10.8375 7.17359 10.8006C7.18221 10.7637 7.20518 10.7317 7.23752 10.7114C7.26985 10.6912 7.30894 10.6845 7.34627 10.6926L7.34627 10.6926Z" fill="white"/>
<path d="M30.2374 15.1042C30.1465 15.176 30.0556 15.2478 29.9648 15.322C28.7478 16.2939 27.6124 17.362 26.57 18.516C26.4879 18.604 26.4062 18.6944 26.3269 18.7845C23.8453 21.5913 21.9111 24.8302 20.6228 28.3366C20.1114 29.7323 19.708 31.1646 19.4159 32.621C19.0127 34.6324 18.737 36.845 17.7168 38.5565C17.6124 38.7363 17.4968 38.9095 17.3708 39.075L6.73794 40.0963C6.7126 40.0866 6.68737 40.0793 6.66191 40.0696L6.23926 40.1296C6.24903 40.0534 6.26081 39.9747 6.27057 39.8985C6.27605 39.8543 6.2839 39.8099 6.28938 39.7657C6.29379 39.7361 6.29831 39.7066 6.30058 39.6797C6.30201 39.6698 6.30356 39.66 6.30522 39.6525C6.30749 39.6256 6.31248 39.6009 6.31498 39.5764C6.37962 39.1359 6.44663 38.6951 6.51861 38.2539C6.51838 38.2515 6.51838 38.2515 6.52051 38.2488C7.071 34.8888 7.90943 31.5448 9.23342 28.4332C9.27329 28.3396 9.3128 28.2436 9.35752 28.1495C9.96218 26.7503 10.6812 25.4023 11.5075 24.1191C11.9622 23.4179 12.4525 22.7399 12.9764 22.0879C14.3334 20.4056 15.949 18.9452 17.7639 17.7604C21.3824 15.399 25.7227 14.2105 29.9175 15.0378C30.0248 15.0591 30.1299 15.0805 30.2374 15.1042Z" fill="#F9F9F9"/>
<path d="M30.2262 15.2401C25.0333 16.7907 20.4656 19.923 17.1717 24.1924C16.4461 25.099 15.8693 26.1133 15.4625 27.1978C15.1007 28.2671 15.0344 29.4128 15.2706 30.516C15.4699 31.549 15.7946 32.5827 15.737 33.6458C15.6994 34.1895 15.5462 34.7192 15.2875 35.2001C15.0288 35.681 14.6705 36.1023 14.2359 36.4364C13.175 37.2967 11.8654 37.728 10.57 38.1057C9.13157 38.525 7.63085 38.9379 6.49638 39.9625C6.35892 40.0867 6.17255 39.8681 6.3098 39.7441C8.2836 37.9615 11.1679 38.0188 13.3871 36.681C14.4226 36.0568 15.2745 35.1196 15.4258 33.8892C15.5581 32.8132 15.2242 31.7469 15.0133 30.7027C14.767 29.6299 14.7895 28.5136 15.079 27.4514C15.4287 26.3498 15.9651 25.3152 16.6652 24.3919C18.2079 22.2884 20.0747 20.4382 22.1974 18.9093C24.6102 17.1511 27.3088 15.8148 30.1763 14.9582C30.3538 14.9053 30.4025 15.1875 30.2262 15.2401L30.2262 15.2401Z" fill="white"/>
<path d="M18.1512 22.7556C17.5033 22.1108 17.1079 21.2588 17.0355 20.3517C16.9631 19.4446 17.2184 18.5416 17.756 17.8038C17.8652 17.6549 18.1039 17.8162 17.9945 17.9653C17.4927 18.6514 17.2549 19.4926 17.324 20.3371C17.3932 21.1816 17.7648 21.9738 18.3716 22.5708C18.5034 22.7006 18.2822 22.8848 18.1512 22.7556V22.7556Z" fill="white"/>
<path d="M15.1001 30.0054C16.9771 30.0262 18.7931 29.3452 20.1859 28.0982C20.3238 27.9745 20.5102 28.1931 20.3725 28.3166C18.9206 29.6116 17.0294 30.3164 15.0761 30.2905C14.89 30.2879 14.9149 30.0028 15.1001 30.0054H15.1001Z" fill="white"/>
<path d="M24.6961 17.5211C24.8943 17.8223 25.1649 18.0701 25.4836 18.2421C25.8024 18.4141 26.1592 18.505 26.5221 18.5066C26.7083 18.5068 26.6831 18.792 26.4982 18.7917C26.0972 18.7881 25.7033 18.6873 25.3507 18.498C24.9981 18.3087 24.6977 18.0368 24.4757 17.7059C24.4521 17.6765 24.4407 17.6392 24.4439 17.6018C24.447 17.5643 24.4644 17.5295 24.4926 17.5043C24.5219 17.4799 24.5597 17.4681 24.5978 17.4712C24.6359 17.4743 24.6712 17.4923 24.6961 17.5211Z" fill="white"/>
<path d="M105.766 99.1422H75.3679C73.7998 99.1404 72.2974 98.5224 71.19 97.4251C70.0828 96.328 69.4608 94.8415 69.459 93.292V46.8409C69.4608 45.2914 70.0828 43.8049 71.19 42.7078C72.2973 41.6106 73.7997 40.9926 75.3676 40.9907H105.766C107.334 40.9926 108.836 41.6106 109.943 42.7078C111.051 43.805 111.673 45.2916 111.675 46.8412V93.2917C111.673 94.8413 111.051 96.3279 109.943 97.4251C108.836 98.5224 107.334 99.1404 105.766 99.1422Z" fill="white" stroke="#141414"/>
<path d="M102.47 95.0291H78.6635C76.9887 95.0272 75.3832 94.3672 74.1989 93.1938C73.0147 92.0204 72.3486 90.4294 72.3467 88.7699V51.3627C72.3486 49.7032 73.0147 48.1123 74.1989 46.9389C75.3832 45.7655 76.9887 45.1054 78.6635 45.1035H102.47C104.145 45.1054 105.75 45.7655 106.935 46.9389C108.119 48.1123 108.785 49.7032 108.787 51.3627V88.7699C108.785 90.4294 108.119 92.0204 106.935 93.1938C105.75 94.3672 104.145 95.0272 102.47 95.0291Z" fill="#ED9107"/>
<path d="M112.078 81.4146H69.2285V91.2126H112.078V81.4146Z" fill="#F2E3CC"/>
<path d="M8.47889 57.8947L1.2231 48.651C0.754606 48.0542 0.409334 47.3718 0.207004 46.6428C0.00467281 45.9138 -0.0507532 45.1525 0.0438875 44.4022C0.138528 43.652 0.381384 42.9276 0.758586 42.2704C1.13579 41.6131 1.63995 41.036 2.24228 40.5718L31.6308 17.9225C33.3506 16.5948 35.427 15.7985 37.6007 15.633L40.0794 15.4429L61.4223 3.05581C61.2351 2.65142 61.2044 2.19296 61.3361 1.76762C61.4678 1.34229 61.7526 0.979747 62.1365 0.748958C62.5203 0.51817 62.9764 0.435234 63.418 0.515924C63.8595 0.596613 64.2558 0.835302 64.5313 1.18659L70.6021 8.92072C70.8785 9.27268 71.0144 9.71321 70.9838 10.1582C70.9532 10.6031 70.7582 11.0213 70.4362 11.3328C70.1141 11.6443 69.6875 11.8274 69.2378 11.8469C68.7882 11.8665 68.347 11.7213 67.9986 11.4389L50.5398 28.7385C50.1678 31.6184 48.6568 34.234 46.3389 36.0102L16.6324 58.9046C16.0302 59.3688 15.3415 59.7109 14.6058 59.9114C13.8701 60.1119 13.1017 60.1668 12.3446 60.073C11.5874 59.9793 10.8563 59.7386 10.1931 59.3649C9.52979 58.9911 8.94731 58.4915 8.47889 57.8947Z" fill="white"/>
<path d="M105.766 99.6422H75.3674C73.6683 99.6403 72.0395 98.9707 70.8381 97.7802C69.6367 96.5898 68.9609 94.9758 68.959 93.2923V46.8406C68.9609 45.1571 69.6367 43.5431 70.8381 42.3527C72.0395 41.1622 73.6683 40.4926 75.3674 40.4907H105.766C107.465 40.4926 109.094 41.1622 110.295 42.3527C111.497 43.5431 112.173 45.1571 112.175 46.8406V93.2923C112.173 94.9758 111.497 96.5898 110.295 97.7802C109.094 98.9707 107.465 99.6403 105.766 99.6422ZM75.3674 40.8536C73.7654 40.8554 72.2296 41.4868 71.0969 42.6091C69.9642 43.7315 69.327 45.2533 69.3252 46.8406V93.2923C69.327 94.8796 69.9642 96.4014 71.0969 97.5238C72.2296 98.6461 73.7654 99.2775 75.3674 99.2793H105.766C107.368 99.2775 108.904 98.6461 110.037 97.5238C111.169 96.4014 111.806 94.8796 111.808 93.2923V46.8406C111.806 45.2533 111.169 43.7315 110.037 42.6091C108.904 41.4868 107.368 40.8554 105.766 40.8536H75.3674Z" fill="#F2E3CC"/>
<mask id="path-36-inside-1_1143_2986" fill="white">
<path d="M69.9201 2.21188C71.5659 1.54545 73.3501 1.28371 75.1202 1.44905C76.8903 1.61438 78.5937 2.20186 80.0849 3.1613C83.152 5.11243 85.4371 8.6276 86.2003 12.5687C86.5744 14.5001 86.7097 16.7466 88.0733 17.949C89.072 18.8297 90.4319 18.8526 91.6339 19.2784C95.1884 20.5375 97.0228 25.4253 96.5052 29.67C95.9875 33.9147 93.6826 37.5704 91.2088 40.7708C91.9954 39.051 90.9741 36.8207 89.4803 35.9182C87.9865 35.0157 86.2062 35.0915 84.5247 35.2409C82.8431 35.3902 81.0906 35.5795 79.5226 34.8636C76.8431 33.6404 75.4868 30.096 75.2844 26.7822C75.0821 23.4683 75.7507 20.1659 75.7987 16.8443C75.8466 13.5227 75.1023 9.88405 72.787 7.90601C71.7222 6.99633 70.4046 6.51107 69.4141 5.49594C68.4236 4.4808 67.892 2.55384 68.8175 1.46025"/>
</mask>
<path d="M69.9201 2.21188C71.5659 1.54545 73.3501 1.28371 75.1202 1.44905C76.8903 1.61438 78.5937 2.20186 80.0849 3.1613C83.152 5.11243 85.4371 8.6276 86.2003 12.5687C86.5744 14.5001 86.7097 16.7466 88.0733 17.949C89.072 18.8297 90.4319 18.8526 91.6339 19.2784C95.1884 20.5375 97.0228 25.4253 96.5052 29.67C95.9875 33.9147 93.6826 37.5704 91.2088 40.7708C91.9954 39.051 90.9741 36.8207 89.4803 35.9182C87.9865 35.0157 86.2062 35.0915 84.5247 35.2409C82.8431 35.3902 81.0906 35.5795 79.5226 34.8636C76.8431 33.6404 75.4868 30.096 75.2844 26.7822C75.0821 23.4683 75.7507 20.1659 75.7987 16.8443C75.8466 13.5227 75.1023 9.88405 72.787 7.90601C71.7222 6.99633 70.4046 6.51107 69.4141 5.49594C68.4236 4.4808 67.892 2.55384 68.8175 1.46025" fill="#ED9107"/>
<path d="M80.0849 3.1613L79.8144 3.58179L79.8165 3.58317L80.0849 3.1613ZM86.2003 12.5687L85.7095 12.6638L86.2003 12.5687ZM88.0733 17.949L87.7426 18.324L87.7426 18.324L88.0733 17.949ZM91.6339 19.2784L91.4669 19.7497L91.6339 19.2784ZM91.2088 40.7708L90.7541 40.5628L91.6044 41.0766L91.2088 40.7708ZM79.5226 34.8636L79.7302 34.4088L79.5226 34.8636ZM72.787 7.90601L73.1118 7.52585V7.52585L72.787 7.90601ZM70.1078 2.67533C71.6793 2.03897 73.3832 1.78898 75.0737 1.94688L75.1667 0.951213C73.317 0.778449 71.4525 1.05193 69.7324 1.74844L70.1078 2.67533ZM75.0737 1.94688C76.7643 2.10478 78.3908 2.66583 79.8144 3.58178L80.3555 2.74082C78.7967 1.73789 77.0164 1.12398 75.1667 0.951213L75.0737 1.94688ZM79.8165 3.58317C82.7549 5.45245 84.9693 8.84197 85.7095 12.6638L86.6912 12.4736C85.9048 8.41324 83.549 4.7724 80.3533 2.73943L79.8165 3.58317ZM85.7095 12.6638C85.8864 13.5774 86.0266 14.6888 86.2822 15.6596C86.5427 16.6489 86.9506 17.6257 87.7426 18.324L88.404 17.574C87.8324 17.0699 87.4908 16.3223 87.2493 15.4049C87.0028 14.4689 86.8883 13.4914 86.6912 12.4736L85.7095 12.6638ZM87.7426 18.324C88.3266 18.839 89.0029 19.09 89.6449 19.2664C89.962 19.3535 90.2925 19.4278 90.5929 19.5007C90.9011 19.5756 91.1913 19.652 91.4669 19.7497L91.8008 18.8071C91.4755 18.6918 91.1449 18.6057 90.8289 18.529C90.5051 18.4504 90.2078 18.384 89.9099 18.3021C89.3217 18.1405 88.8187 17.9397 88.404 17.574L87.7426 18.324ZM91.4669 19.7497C93.0733 20.3187 94.3359 21.7261 95.1387 23.5555C95.9401 25.3813 96.2571 27.574 96.0088 29.6095L97.0015 29.7305C97.2709 27.5213 96.9296 25.1477 96.0544 23.1536C95.1809 21.1632 93.7489 19.4971 91.8008 18.8071L91.4669 19.7497ZM96.0088 29.6095C95.5081 33.7151 93.2739 37.2815 90.8132 40.465L91.6044 41.0766C94.0912 37.8593 96.4669 34.1143 97.0015 29.7305L96.0088 29.6095ZM91.6635 40.9788C92.1264 39.9666 92.0452 38.8344 91.6658 37.8571C91.287 36.8813 90.5913 36.0052 89.7389 35.4902L89.2218 36.3461C89.8631 36.7336 90.425 37.424 90.7336 38.219C91.0416 39.0123 91.0777 39.8553 90.7541 40.5628L91.6635 40.9788ZM89.7389 35.4902C88.0889 34.4934 86.151 34.5945 84.4804 34.7428L84.5689 35.7389C86.2615 35.5886 87.8841 35.538 89.2218 36.3461L89.7389 35.4902ZM84.4804 34.7428C82.7618 34.8955 81.1546 35.059 79.7302 34.4088L79.3149 35.3185C81.0267 36.0999 82.9244 35.8849 84.5689 35.7389L84.4804 34.7428ZM79.7302 34.4088C78.5302 33.8609 77.5924 32.7766 76.9251 31.3901C76.2589 30.0056 75.8815 28.3565 75.7835 26.7517L74.7854 26.8126C74.8897 28.5217 75.2917 30.3017 76.024 31.8237C76.7554 33.3436 77.8355 34.6431 79.3149 35.3185L79.7302 34.4088ZM75.7835 26.7517C75.6848 25.135 75.7981 23.513 75.9457 21.8606C76.0924 20.2188 76.2743 18.5364 76.2986 16.8515L75.2987 16.8371C75.2751 18.4737 75.0987 20.1034 74.9497 21.7716C74.8016 23.4293 74.6817 25.1155 74.7854 26.8126L75.7835 26.7517ZM76.2986 16.8515C76.3471 13.4941 75.6045 9.65547 73.1118 7.52585L72.4622 8.28617C74.6001 10.1126 75.3462 13.5514 75.2987 16.8371L76.2986 16.8515ZM73.1118 7.52585C72.5427 7.0397 71.906 6.66735 71.3353 6.31505C70.7507 5.95416 70.2205 5.60642 69.772 5.14675L69.0562 5.84512C69.5982 6.40058 70.2221 6.80304 70.81 7.16599C71.4119 7.53752 71.9665 7.86264 72.4622 8.28617L73.1118 7.52585ZM69.772 5.14675C69.3484 4.71261 69.0121 4.06742 68.8886 3.41455C68.7645 2.75894 68.8666 2.17624 69.1992 1.78324L68.4358 1.13725C67.8429 1.83785 67.748 2.76542 67.906 3.60048C68.0646 4.43828 68.4894 5.26413 69.0562 5.84512L69.772 5.14675Z" fill="#141414" mask="url(#path-36-inside-1_1143_2986)"/>
<path d="M107.134 38.9563C107.038 38.9563 106.943 38.9597 106.848 38.965C107.176 38.0521 107.223 37.0635 106.983 36.1241C106.744 35.1848 106.229 34.3369 105.503 33.6876C104.777 33.0383 103.873 32.6167 102.906 32.4761C101.939 32.3355 100.951 32.4822 100.068 32.8978C99.2751 30.6874 97.5717 29.1582 95.5975 29.1582C93.6233 29.1582 91.9199 30.6874 91.1274 32.8978C90.4642 32.586 89.7394 32.4242 89.0053 32.4242C88.2713 32.4242 87.5464 32.586 86.8832 32.8978C86.0907 30.6874 84.3873 29.1582 82.4131 29.1582C80.4389 29.1582 78.7355 30.6874 77.943 32.8978C77.0595 32.4821 76.0714 32.3354 75.1037 32.4762C74.1361 32.617 73.2323 33.0389 72.5066 33.6886C71.7809 34.3384 71.2659 35.1867 71.0268 36.1264C70.7877 37.0662 70.8352 38.055 71.1632 38.968C71.0684 38.9608 70.973 38.9563 70.8768 38.9563C68.1462 38.9563 65.9326 41.8808 65.9326 45.4884C65.9326 49.0959 68.1462 52.0204 70.8768 52.0204C73.1257 52.0204 75.0225 50.036 75.6223 47.3207C76.3443 48.0353 77.2716 48.5112 78.2771 48.683C79.2827 48.8549 80.3173 48.7145 81.2391 48.2809C82.0316 50.4912 83.735 52.0204 85.7092 52.0204C87.9581 52.0204 89.855 50.036 90.4548 47.3207C91.1767 48.0353 92.104 48.5112 93.1096 48.683C94.1151 48.8549 95.1497 48.7145 96.0716 48.2809C96.864 50.4912 98.5674 52.0204 100.542 52.0204C102.516 52.0204 104.219 50.4912 105.012 48.2809C105.682 48.5963 106.415 48.7583 107.156 48.7549C107.898 48.7515 108.629 48.5828 109.296 48.2614C109.963 47.9399 110.549 47.4739 111.009 46.8978C111.47 46.3217 111.794 45.6503 111.957 44.9334C112.12 44.2165 112.118 43.4723 111.952 42.7562C111.785 42.04 111.459 41.3701 110.995 40.7961C110.532 40.2221 109.945 39.7587 109.276 39.4402C108.608 39.1217 107.876 38.9563 107.134 38.9563V38.9563Z" fill="#F9F9F9"/>
<path d="M80.7652 52.9277C81.2709 52.9277 81.6808 52.5216 81.6808 52.0205C81.6808 51.5195 81.2709 51.1133 80.7652 51.1133C80.2595 51.1133 79.8496 51.5195 79.8496 52.0205C79.8496 52.5216 80.2595 52.9277 80.7652 52.9277Z" fill="white"/>
<path d="M86.442 68.3506C86.9476 68.3506 87.3575 67.9444 87.3575 67.4434C87.3575 66.9423 86.9476 66.5361 86.442 66.5361C85.9363 66.5361 85.5264 66.9423 85.5264 67.4434C85.5264 67.9444 85.9363 68.3506 86.442 68.3506Z" fill="white"/>
<path d="M92.3013 57.8267C92.807 57.8267 93.2169 57.4205 93.2169 56.9194C93.2169 56.4184 92.807 56.0122 92.3013 56.0122C91.7957 56.0122 91.3857 56.4184 91.3857 56.9194C91.3857 57.4205 91.7957 57.8267 92.3013 57.8267Z" fill="white"/>
<path d="M85.7095 61.0928C86.2152 61.0928 86.6251 60.6866 86.6251 60.1856C86.6251 59.6845 86.2152 59.2783 85.7095 59.2783C85.2039 59.2783 84.7939 59.6845 84.7939 60.1856C84.7939 60.6866 85.2039 61.0928 85.7095 61.0928Z" fill="white"/>
<path d="M97.2457 70.8906C97.7513 70.8906 98.1612 70.4845 98.1612 69.9834C98.1612 69.4824 97.7513 69.0762 97.2457 69.0762C96.74 69.0762 96.3301 69.4824 96.3301 69.9834C96.3301 70.4845 96.74 70.8906 97.2457 70.8906Z" fill="white"/>
<path d="M100.542 52.9277C101.047 52.9277 101.457 52.5216 101.457 52.0205C101.457 51.5195 101.047 51.1133 100.542 51.1133C100.036 51.1133 99.626 51.5195 99.626 52.0205C99.626 52.5216 100.036 52.9277 100.542 52.9277Z" fill="white"/>
<path d="M111.992 84.862V84.4991C116.522 84.4991 120.866 82.716 124.069 79.5422C127.272 76.3684 129.072 72.0637 129.072 67.5753C129.072 63.0868 127.272 58.7822 124.069 55.6083C120.866 52.4345 116.522 50.6515 111.992 50.6515V50.2886C116.619 50.2886 121.057 52.1098 124.328 55.3517C127.6 58.5936 129.438 62.9906 129.438 67.5753C129.438 72.16 127.6 76.5569 124.328 79.7988C121.057 83.0407 116.619 84.862 111.992 84.862Z" fill="#141414"/>
<path d="M112.079 81.5962H111.896V81.1387H112.262V81.232C115.717 81.1842 119.012 79.7845 121.43 77.3383C123.847 74.8921 125.19 71.5978 125.166 68.1742C125.142 64.7505 123.753 61.4752 121.301 59.0628C118.849 56.6503 115.534 55.2964 112.079 55.2965V54.9336C115.647 54.9336 119.069 56.3381 121.592 58.8382C124.115 61.3383 125.533 64.7292 125.533 68.2649C125.533 71.8006 124.115 75.1914 121.592 77.6915C119.069 80.1916 115.647 81.5962 112.079 81.5962V81.5962Z" fill="#141414"/>
<path d="M10.0122 55.6733L3.77391 47.7259C3.37642 47.2196 3.08348 46.6406 2.91181 46.0221C2.74015 45.4036 2.69312 44.7576 2.77342 44.1211C2.85372 43.4846 3.05977 42.87 3.37981 42.3124C3.69984 41.7547 4.1276 41.2651 4.63864 40.8713L29.9059 21.3981C31.3743 20.2645 33.1473 19.5845 35.0033 19.4432L37.1495 19.2786L56.9325 7.79688L62.2509 14.5724L46.0604 30.6154C45.9055 31.837 45.5087 33.0163 44.8927 34.0856C44.2766 35.1549 43.4535 36.093 42.4706 36.8463L16.9299 56.5301C16.419 56.924 15.8347 57.2143 15.2105 57.3844C14.5863 57.5545 13.9343 57.6011 13.292 57.5215C12.6496 57.442 12.0293 57.2378 11.4665 56.9207C10.9038 56.6036 10.4096 56.1797 10.0122 55.6733Z" fill="#ED9107"/>
<path d="M68.8317 9.14052C69.4389 9.30933 70.2184 9.13994 70.8718 8.63634C71.8298 7.89806 72.1534 6.72248 71.5945 6.01055C71.4928 5.88155 71.3667 5.77342 71.2232 5.69222C71.2947 5.47392 71.3133 5.24199 71.2773 5.01526C71.2414 4.78853 71.152 4.57339 71.0164 4.38734C70.944 4.29561 70.8589 4.21438 70.7638 4.14603C71.3939 3.28186 71.6301 2.50939 71.3054 2.09574C71.2112 1.99395 71.095 1.91461 70.9655 1.86367C70.8359 1.81272 70.6964 1.7915 70.5574 1.80158C70.6032 1.44859 70.5086 1.09182 70.2936 0.806706C69.8218 0.205555 68.8719 0.129368 68.0108 0.564125C68.0005 0.549746 67.992 0.534321 67.9809 0.520265C67.4221 -0.191663 66.1926 -0.170271 65.2346 0.56801C64.7551 0.922424 64.4165 1.43243 64.2779 2.009C63.6797 2.00026 63.0975 2.19993 62.6328 2.57316C61.6749 3.31145 61.3513 4.48703 61.9101 5.19896C61.9348 5.23043 61.9623 5.25862 61.9896 5.28724L61.9782 5.2989C61.9566 5.26505 61.9353 5.23106 61.9101 5.19896C61.3513 4.48703 60.1218 4.50842 59.1638 5.24671C58.6843 5.60112 58.3457 6.11112 58.207 6.6877C57.6089 6.67896 57.0267 6.87863 56.562 7.25186C55.6041 7.99014 55.2805 9.16572 55.8393 9.87765C56.3981 10.5896 57.6277 10.5682 58.5856 9.8299C58.3633 10.0008 58.1888 10.2253 58.079 10.482C57.9692 10.7387 57.9276 11.019 57.9582 11.2961C57.9889 11.5733 58.0907 11.838 58.2541 12.0651C58.4174 12.2921 58.6367 12.4738 58.8912 12.5929C58.6888 13.0756 58.6688 13.4824 58.8747 13.7447C59.1994 14.1584 60.0132 14.1216 61.0136 13.7292C61.057 13.8374 61.1155 13.9391 61.1874 14.0312C61.7462 14.7431 62.9758 14.7217 63.9337 13.9834C64.4132 13.629 64.7518 13.119 64.8906 12.5425C65.4887 12.5512 66.0708 12.3515 66.5355 11.9783C66.7561 11.8088 66.9503 11.608 67.1118 11.3824C67.3722 11.2829 67.6164 11.1458 67.8364 10.9757C68.4899 10.4721 68.8474 9.76519 68.8317 9.14052Z" fill="#F9F9F9"/>
<mask id="path-49-inside-2_1143_2986" fill="white">
<path d="M8.47889 57.8947L1.2231 48.651C0.754606 48.0542 0.409334 47.3718 0.207004 46.6428C0.00467281 45.9138 -0.0507532 45.1525 0.0438875 44.4022C0.138528 43.652 0.381384 42.9276 0.758586 42.2704C1.13579 41.6131 1.63995 41.036 2.24228 40.5718L31.6308 17.9225C33.3506 16.5948 35.427 15.7985 37.6007 15.633L40.0794 15.4429L61.4223 3.05581C61.2351 2.65142 61.2044 2.19296 61.3361 1.76762C61.4678 1.34229 61.7526 0.979747 62.1365 0.748958C62.5203 0.51817 62.9764 0.435234 63.418 0.515924C63.8595 0.596613 64.2558 0.835302 64.5313 1.18659L70.6021 8.92072C70.8785 9.27268 71.0144 9.71321 70.9838 10.1582C70.9532 10.6031 70.7582 11.0213 70.4362 11.3328C70.1141 11.6443 69.6875 11.8274 69.2378 11.8469C68.7882 11.8665 68.347 11.7213 67.9986 11.4389L50.5398 28.7385C50.1678 31.6184 48.6568 34.234 46.3389 36.0102L16.6324 58.9046C16.0302 59.3688 15.3415 59.7109 14.6058 59.9114C13.8701 60.1119 13.1017 60.1668 12.3446 60.073C11.5874 59.9793 10.8563 59.7386 10.1931 59.3649C9.52979 58.9911 8.94731 58.4915 8.47889 57.8947ZM64.2422 1.40938C64.0141 1.11843 63.6828 0.924372 63.3156 0.866601C62.9483 0.808829 62.5727 0.891667 62.2648 1.09831C61.957 1.30495 61.74 1.6199 61.658 1.97926C61.5759 2.33861 61.6349 2.71544 61.823 3.03326L61.9158 3.18991L40.1918 15.7982L37.629 15.9948C35.5268 16.1548 33.5188 16.9249 31.8556 18.209L2.46712 40.8583C1.90275 41.2932 1.43037 41.8339 1.07694 42.4497C0.723507 43.0655 0.495957 43.7443 0.407282 44.4472C0.318606 45.1502 0.370543 45.8636 0.560124 46.5466C0.749705 47.2297 1.07322 47.869 1.51219 48.4282L8.76798 57.6719C9.20686 58.2311 9.75262 58.6992 10.3741 59.0494C10.9956 59.3996 11.6806 59.6251 12.39 59.713C13.0994 59.8008 13.8193 59.7494 14.5087 59.5615C15.198 59.3737 15.8433 59.0531 16.4076 58.6181L46.1141 35.7237C47.2321 34.867 48.1675 33.799 48.8662 32.5816C49.5649 31.3642 50.0129 30.0216 50.1844 28.6315L50.1922 28.5697L67.9924 10.9319L68.1218 11.0604C68.3853 11.3217 68.7393 11.4735 69.1119 11.485C69.4844 11.4966 69.8473 11.3669 70.1267 11.1225C70.4061 10.8781 70.5809 10.5373 70.6156 10.1696C70.6502 9.80188 70.542 9.43493 70.313 9.14351L64.2422 1.40938Z"/>
</mask>
<path d="M8.47889 57.8947L1.2231 48.651C0.754606 48.0542 0.409334 47.3718 0.207004 46.6428C0.00467281 45.9138 -0.0507532 45.1525 0.0438875 44.4022C0.138528 43.652 0.381384 42.9276 0.758586 42.2704C1.13579 41.6131 1.63995 41.036 2.24228 40.5718L31.6308 17.9225C33.3506 16.5948 35.427 15.7985 37.6007 15.633L40.0794 15.4429L61.4223 3.05581C61.2351 2.65142 61.2044 2.19296 61.3361 1.76762C61.4678 1.34229 61.7526 0.979747 62.1365 0.748958C62.5203 0.51817 62.9764 0.435234 63.418 0.515924C63.8595 0.596613 64.2558 0.835302 64.5313 1.18659L70.6021 8.92072C70.8785 9.27268 71.0144 9.71321 70.9838 10.1582C70.9532 10.6031 70.7582 11.0213 70.4362 11.3328C70.1141 11.6443 69.6875 11.8274 69.2378 11.8469C68.7882 11.8665 68.347 11.7213 67.9986 11.4389L50.5398 28.7385C50.1678 31.6184 48.6568 34.234 46.3389 36.0102L16.6324 58.9046C16.0302 59.3688 15.3415 59.7109 14.6058 59.9114C13.8701 60.1119 13.1017 60.1668 12.3446 60.073C11.5874 59.9793 10.8563 59.7386 10.1931 59.3649C9.52979 58.9911 8.94731 58.4915 8.47889 57.8947ZM64.2422 1.40938C64.0141 1.11843 63.6828 0.924372 63.3156 0.866601C62.9483 0.808829 62.5727 0.891667 62.2648 1.09831C61.957 1.30495 61.74 1.6199 61.658 1.97926C61.5759 2.33861 61.6349 2.71544 61.823 3.03326L61.9158 3.18991L40.1918 15.7982L37.629 15.9948C35.5268 16.1548 33.5188 16.9249 31.8556 18.209L2.46712 40.8583C1.90275 41.2932 1.43037 41.8339 1.07694 42.4497C0.723507 43.0655 0.495957 43.7443 0.407282 44.4472C0.318606 45.1502 0.370543 45.8636 0.560124 46.5466C0.749705 47.2297 1.07322 47.869 1.51219 48.4282L8.76798 57.6719C9.20686 58.2311 9.75262 58.6992 10.3741 59.0494C10.9956 59.3996 11.6806 59.6251 12.39 59.713C13.0994 59.8008 13.8193 59.7494 14.5087 59.5615C15.198 59.3737 15.8433 59.0531 16.4076 58.6181L46.1141 35.7237C47.2321 34.867 48.1675 33.799 48.8662 32.5816C49.5649 31.3642 50.0129 30.0216 50.1844 28.6315L50.1922 28.5697L67.9924 10.9319L68.1218 11.0604C68.3853 11.3217 68.7393 11.4735 69.1119 11.485C69.4844 11.4966 69.8473 11.3669 70.1267 11.1225C70.4061 10.8781 70.5809 10.5373 70.6156 10.1696C70.6502 9.80188 70.542 9.43493 70.313 9.14351L64.2422 1.40938Z" fill="#F2E3CC"/>
<path d="M1.2231 48.651L2.00971 48.0335L2.00968 48.0335L1.2231 48.651ZM2.24228 40.5718L2.85266 41.3639L2.85271 41.3639L2.24228 40.5718ZM31.6308 17.9225L32.2412 18.7146L32.2419 18.7141L31.6308 17.9225ZM37.6007 15.633L37.6766 16.6302L37.6772 16.6301L37.6007 15.633ZM40.0794 15.4429L40.1559 16.4399L40.3837 16.4225L40.5813 16.3078L40.0794 15.4429ZM61.4223 3.05581L61.9242 3.92069L62.7128 3.46305L62.3297 2.6357L61.4223 3.05581ZM64.5313 1.18659L63.7444 1.80374L63.7447 1.80403L64.5313 1.18659ZM70.6021 8.92072L69.8155 9.53816L69.8157 9.53839L70.6021 8.92072ZM67.9986 11.4389L68.6281 10.662L67.9316 10.0976L67.2947 10.7286L67.9986 11.4389ZM50.5398 28.7385L49.8359 28.0281L49.592 28.2698L49.548 28.6104L50.5398 28.7385ZM46.3389 36.0102L45.7307 35.2164L45.7285 35.2181L46.3389 36.0102ZM16.6324 58.9046L16.022 58.1125L16.0219 58.1126L16.6324 58.9046ZM64.2422 1.40938L63.4552 2.02638L63.4556 2.02683L64.2422 1.40938ZM61.823 3.03326L60.9624 3.54256L60.9627 3.54304L61.823 3.03326ZM61.9158 3.18991L62.4178 4.05479L63.2906 3.54826L62.7761 2.68013L61.9158 3.18991ZM40.1918 15.7982L40.2683 16.7953L40.4961 16.7778L40.6938 16.6631L40.1918 15.7982ZM37.629 15.9948L37.7049 16.9919L37.7055 16.9919L37.629 15.9948ZM31.8556 18.209L32.4661 19.001L32.4667 19.0005L31.8556 18.209ZM2.46712 40.8583L3.0775 41.6504L3.07755 41.6503L2.46712 40.8583ZM1.51219 48.4282L2.2988 47.8107L2.29876 47.8107L1.51219 48.4282ZM8.76798 57.6719L9.55464 57.0545L9.55459 57.0545L8.76798 57.6719ZM16.4076 58.6181L15.7971 57.8261L15.7971 57.8261L16.4076 58.6181ZM46.1141 35.7237L45.5058 34.93L45.5037 34.9317L46.1141 35.7237ZM50.1844 28.6315L49.1923 28.5063L49.1919 28.509L50.1844 28.6315ZM50.1922 28.5697L49.4883 27.8593L49.2432 28.1022L49.2001 28.4445L50.1922 28.5697ZM67.9924 10.9319L68.697 10.2223L67.9931 9.52331L67.2885 10.2215L67.9924 10.9319ZM68.1218 11.0604L67.4172 11.77L67.4177 11.7705L68.1218 11.0604ZM70.313 9.14351L69.5264 9.76096L69.5267 9.76131L70.313 9.14351ZM9.2655 57.2773L2.00971 48.0335L0.436487 49.2684L7.69228 58.5122L9.2655 57.2773ZM2.00968 48.0335C1.62248 47.5403 1.3375 46.9768 1.17058 46.3754L-0.756572 46.9103C-0.518828 47.7669 -0.113264 48.5681 0.436525 49.2685L2.00968 48.0335ZM1.17058 46.3754C1.00367 45.774 0.957976 45.1461 1.03602 44.5274L-0.94825 44.2771C-1.05948 45.1588 -0.994322 46.0536 -0.756572 46.9103L1.17058 46.3754ZM1.03602 44.5274C1.11407 43.9087 1.31439 43.3109 1.62589 42.7681L-0.108721 41.7726C-0.551624 42.5443 -0.837017 43.3953 -0.94825 44.2771L1.03602 44.5274ZM1.62589 42.7681C1.93741 42.2254 2.35412 41.7481 2.85266 41.3639L1.63189 39.7797C0.925775 40.3238 0.33417 41.0009 -0.108721 41.7726L1.62589 42.7681ZM2.85271 41.3639L32.2412 18.7146L31.0203 17.1304L1.63184 39.7798L2.85271 41.3639ZM32.2419 18.7141C33.8066 17.5061 35.6968 16.7808 37.6766 16.6302L37.5248 14.6359C35.1571 14.8161 32.8945 15.6835 31.0197 17.131L32.2419 18.7141ZM37.6772 16.6301L40.1559 16.4399L40.0029 14.4458L37.5242 14.636L37.6772 16.6301ZM40.5813 16.3078L61.9242 3.92069L60.9203 2.19092L39.5774 14.578L40.5813 16.3078ZM62.3297 2.6357C62.2464 2.45561 62.2329 2.25219 62.2913 2.06338L60.3808 1.47187C60.1759 2.13373 60.2238 2.84723 60.5148 3.47591L62.3297 2.6357ZM62.2913 2.06338C62.3499 1.87438 62.4772 1.71095 62.6518 1.60599L61.6212 -0.108071C61.0281 0.248547 60.5857 0.810196 60.3808 1.47187L62.2913 2.06338ZM62.6518 1.60599C62.8266 1.50088 63.0355 1.46258 63.2382 1.49963L63.5978 -0.467786C62.9174 -0.592114 62.2141 -0.464543 61.6212 -0.108071L62.6518 1.60599ZM63.2382 1.49963C63.4409 1.53666 63.6206 1.64584 63.7444 1.80374L65.3181 0.569436C64.8909 0.0247608 64.2782 -0.343437 63.5978 -0.467786L63.2382 1.49963ZM63.7447 1.80403L69.8155 9.53816L71.3887 8.30327L65.3179 0.569142L63.7447 1.80403ZM69.8157 9.53839C69.9398 9.69636 69.9997 9.89254 69.9862 10.0895L71.9815 10.2268C72.0291 9.53387 71.8173 8.84899 71.3886 8.30305L69.8157 9.53839ZM69.9862 10.0895C69.9726 10.2865 69.8862 10.4735 69.7409 10.614L71.1314 12.0516C71.6302 11.5691 71.9338 10.9197 71.9815 10.2268L69.9862 10.0895ZM69.7409 10.614C69.5954 10.7548 69.401 10.8389 69.1943 10.8479L69.2813 12.846C69.974 12.8158 70.6328 12.5339 71.1314 12.0516L69.7409 10.614ZM69.1943 10.8479C68.9876 10.8569 68.7861 10.79 68.6281 10.662L67.369 12.2159C67.9079 12.6526 68.5887 12.8761 69.2813 12.846L69.1943 10.8479ZM67.2947 10.7286L49.8359 28.0281L51.2436 29.4488L68.7024 12.1493L67.2947 10.7286ZM49.548 28.6104C49.2104 31.2245 47.8385 33.6012 45.7307 35.2164L46.9472 36.8039C49.4751 34.8668 51.1252 32.0122 51.5315 28.8666L49.548 28.6104ZM45.7285 35.2181L16.022 58.1125L17.2429 59.6967L46.9494 36.8022L45.7285 35.2181ZM16.0219 58.1126C15.5234 58.4968 14.9529 58.7803 14.3429 58.9466L14.8687 60.8762C15.7301 60.6415 16.5369 60.2408 17.2429 59.6966L16.0219 58.1126ZM14.3429 58.9466C13.7328 59.1128 13.0955 59.1584 12.4675 59.0806L12.2216 61.0654C13.1079 61.1752 14.0073 61.1109 14.8687 60.8762L14.3429 58.9466ZM12.4675 59.0806C11.8395 59.0028 11.2334 58.8033 10.684 58.4937L9.70214 60.2361C10.4793 60.674 11.3354 60.9557 12.2216 61.0654L12.4675 59.0806ZM10.684 58.4937C10.1346 58.1841 9.65269 57.7706 9.26554 57.2773L7.69224 58.5121C8.24193 59.2125 8.92501 59.7981 9.70214 60.2361L10.684 58.4937ZM65.0292 0.792383C64.6441 0.301186 64.0865 -0.024413 63.471 -0.12125L63.1602 1.85445C63.2791 1.87316 63.3841 1.93567 63.4552 2.02638L65.0292 0.792383ZM63.471 -0.12125C62.8555 -0.218068 62.2252 -0.0794904 61.7075 0.268016L62.8222 1.9286C62.9202 1.86282 63.0411 1.83573 63.1602 1.85445L63.471 -0.12125ZM61.7075 0.268016C61.1895 0.615705 60.8222 1.14732 60.6831 1.75665L62.6329 2.20187C62.6579 2.09249 62.7245 1.99419 62.8222 1.9286L61.7075 0.268016ZM60.6831 1.75665C60.5439 2.36614 60.6442 3.00486 60.9624 3.54256L62.6836 2.52397C62.6256 2.42601 62.6079 2.31108 62.6329 2.20187L60.6831 1.75665ZM60.9627 3.54304L61.0555 3.69969L62.7761 2.68013L62.6833 2.52348L60.9627 3.54304ZM61.4139 2.32502L39.6898 14.9333L40.6938 16.6631L62.4178 4.05479L61.4139 2.32502ZM40.1153 14.8011L37.5525 14.9977L37.7055 16.9919L40.2683 16.7953L40.1153 14.8011ZM37.5531 14.9977C35.257 15.1725 33.0628 16.0137 31.2445 17.4174L32.4667 19.0005C33.9748 17.8362 35.7967 17.1372 37.7049 16.9919L37.5531 14.9977ZM31.2452 17.4169L1.85669 40.0662L3.07755 41.6503L32.4661 19.001L31.2452 17.4169ZM1.85674 40.0662C1.18859 40.581 0.628752 41.2217 0.209631 41.952L1.94424 42.9475C2.23198 42.4462 2.61692 42.0053 3.0775 41.6504L1.85674 40.0662ZM0.209631 41.952C-0.209501 42.6822 -0.479588 43.4876 -0.584855 44.3221L1.39942 44.5724C1.4715 44.001 1.65651 43.4488 1.94424 42.9475L0.209631 41.952ZM-0.584855 44.3221C-0.690124 45.1566 -0.628451 46.0034 -0.403451 46.8141L1.5237 46.2792C1.36954 45.7237 1.32734 45.1438 1.39942 44.5724L-0.584855 44.3221ZM-0.403451 46.8141C-0.178455 47.6247 0.205351 48.383 0.725618 49.0457L2.29876 47.8107C1.94108 47.3551 1.67786 46.8346 1.5237 46.2792L-0.403451 46.8141ZM0.725574 49.0456L7.98136 58.2894L9.55459 57.0545L2.2988 47.8107L0.725574 49.0456ZM7.98131 58.2893C8.50147 58.9521 9.14783 59.5063 9.88316 59.9206L10.865 58.1782C10.3574 57.8922 9.91226 57.5102 9.55464 57.0545L7.98131 58.2893ZM9.88316 59.9206C10.6185 60.335 11.4285 60.6015 12.2671 60.7054L12.5129 58.7206C11.9326 58.6487 11.3727 58.4643 10.865 58.1782L9.88316 59.9206ZM12.2671 60.7054C13.1056 60.8093 13.9566 60.7484 14.7716 60.5263L14.2458 58.5967C13.6821 58.7503 13.0932 58.7924 12.5129 58.7206L12.2671 60.7054ZM14.7716 60.5263C15.5866 60.3042 16.35 59.9251 17.0181 59.4102L15.7971 57.8261C15.3365 58.1811 14.8094 58.4431 14.2458 58.5967L14.7716 60.5263ZM17.018 59.4102L46.7245 36.5158L45.5037 34.9317L15.7971 57.8261L17.018 59.4102ZM46.7224 36.5175C47.9451 35.5805 48.9687 34.412 49.7335 33.0793L47.9989 32.0838C47.3664 33.186 46.5191 34.1535 45.5058 34.93L46.7224 36.5175ZM49.7335 33.0793C50.4983 31.7467 50.989 30.2765 51.1769 28.7539L49.1919 28.509C49.0368 29.7667 48.6314 30.9817 47.9989 32.0838L49.7335 33.0793ZM51.1765 28.7566L51.1843 28.6949L49.2001 28.4445L49.1923 28.5063L51.1765 28.7566ZM50.8961 29.28L68.6962 11.6422L67.2885 10.2215L49.4883 27.8593L50.8961 29.28ZM67.2877 11.6414L67.4172 11.77L68.8265 10.3509L68.697 10.2223L67.2877 11.6414ZM67.4177 11.7705C67.8618 12.2108 68.4568 12.4652 69.0809 12.4846L69.1428 10.4855C69.0219 10.4818 68.9088 10.4325 68.8259 10.3503L67.4177 11.7705ZM69.0809 12.4846C69.7051 12.5039 70.3146 12.2868 70.7852 11.8751L69.4683 10.3699C69.3801 10.447 69.2637 10.4893 69.1428 10.4855L69.0809 12.4846ZM70.7852 11.8751C71.256 11.4632 71.5524 10.8871 71.6112 10.2633L69.62 10.0758C69.6095 10.1874 69.5563 10.2929 69.4683 10.3699L70.7852 11.8751ZM71.6112 10.2633C71.6699 9.63941 71.4861 9.01795 71.0994 8.52572L69.5267 9.76131C69.5979 9.8519 69.6305 9.96434 69.62 10.0758L71.6112 10.2633ZM71.0996 8.52607L65.0288 0.791935L63.4556 2.02683L69.5264 9.76096L71.0996 8.52607Z" fill="#141414" mask="url(#path-49-inside-2_1143_2986)"/>
<path d="M25.1591 23.14L14.752 31.1606L28.9173 49.207L39.3244 41.1863L25.1591 23.14Z" fill="#F2E3CC"/>
<path d="M15.0088 31.1924L28.9493 48.9522L39.0673 41.1544L25.1268 23.3945L15.0088 31.1924Z" fill="#F2E3CC"/>
<path d="M55.6949 15.0337C56.2005 15.0337 56.6105 14.6275 56.6105 14.1265C56.6105 13.6254 56.2005 13.2192 55.6949 13.2192C55.1892 13.2192 54.7793 13.6254 54.7793 14.1265C54.7793 14.6275 55.1892 15.0337 55.6949 15.0337Z" fill="white"/>
<path d="M48.4673 16.4663C48.973 16.4663 49.3829 16.0601 49.3829 15.5591C49.3829 15.058 48.973 14.6519 48.4673 14.6519C47.9617 14.6519 47.5518 15.058 47.5518 15.5591C47.5518 16.0601 47.9617 16.4663 48.4673 16.4663Z" fill="white"/>
<path d="M48.9009 22.3384C49.4066 22.3384 49.8165 21.9322 49.8165 21.4312C49.8165 20.9301 49.4066 20.5239 48.9009 20.5239C48.3953 20.5239 47.9854 20.9301 47.9854 21.4312C47.9854 21.9322 48.3953 22.3384 48.9009 22.3384Z" fill="white"/>
<path d="M41.6734 23.7705C42.1791 23.7705 42.589 23.3643 42.589 22.8633C42.589 22.3622 42.1791 21.9561 41.6734 21.9561C41.1677 21.9561 40.7578 22.3622 40.7578 22.8633C40.7578 23.3643 41.1677 23.7705 41.6734 23.7705Z" fill="white"/>
<path d="M79.3003 13.0093C79.806 13.0093 80.2159 12.6031 80.2159 12.1021C80.2159 11.601 79.806 11.1948 79.3003 11.1948C78.7947 11.1948 78.3848 11.601 78.3848 12.1021C78.3848 12.6031 78.7947 13.0093 79.3003 13.0093Z" fill="white"/>
<path d="M82.5962 17.9087C83.1019 17.9087 83.5118 17.5025 83.5118 17.0015C83.5118 16.5004 83.1019 16.0942 82.5962 16.0942C82.0906 16.0942 81.6807 16.5004 81.6807 17.0015C81.6807 17.5025 82.0906 17.9087 82.5962 17.9087Z" fill="white"/>
<path d="M82.5962 26.0737C83.1019 26.0737 83.5118 25.6676 83.5118 25.1665C83.5118 24.6655 83.1019 24.2593 82.5962 24.2593C82.0906 24.2593 81.6807 24.6655 81.6807 25.1665C81.6807 25.6676 82.0906 26.0737 82.5962 26.0737Z" fill="white"/>
<path d="M69.2466 31.4824C68.2336 31.5138 64.9896 31.7244 63.3042 33.127C61.2908 34.8028 61.2907 36.3941 62.2664 37.5451C63.242 38.6961 64.8238 38.971 66.8373 37.2953C68.5441 35.8748 69.3118 32.6828 69.5062 31.7429L69.2466 31.4824Z" fill="#F2F2F2"/>
<path d="M95.2803 11.3054C95.9248 12.0804 98.0766 14.4951 100.227 14.9588C102.797 15.5127 104.067 14.5397 104.39 13.0709C104.712 11.6021 103.965 10.1939 101.395 9.63988C99.2173 9.17027 96.1989 10.5203 95.3295 10.9426L95.2803 11.3054Z" fill="#F2F2F2"/>
<path d="M111.753 35.0752C111.872 36.0724 112.364 39.2567 113.92 40.7993C115.778 42.6423 117.378 42.5049 118.451 41.4424C119.524 40.3798 119.664 38.7946 117.805 36.9516C116.23 35.3894 112.954 34.9071 111.992 34.7964L111.753 35.0752Z" fill="#F2F2F2"/>
<path d="M149 99.7843C149 99.8128 148.994 99.8409 148.983 99.8672C148.972 99.8934 148.956 99.9173 148.936 99.9373C148.915 99.9574 148.891 99.9733 148.864 99.984C148.838 99.9948 148.809 100 148.781 100H30.2511C30.1933 100 30.1379 99.9775 30.097 99.937C30.0562 99.8965 30.0332 99.8415 30.0332 99.7843C30.0332 99.727 30.0562 99.6721 30.097 99.6316C30.1379 99.5911 30.1933 99.5684 30.2511 99.5684H148.781C148.809 99.5682 148.838 99.5737 148.864 99.5845C148.891 99.5953 148.915 99.6112 148.936 99.6312C148.956 99.6513 148.972 99.6751 148.983 99.7014C148.994 99.7276 149 99.7558 149 99.7843Z" fill="#F2E3CC"/>
</g>
<defs>
<clipPath id="clip0_1143_2986">
<rect width="149" height="100" fill="white"/>
</clipPath>
</defs>
</svg>
